G04 Layer_Color=8421504*
%FSLAX25Y25*%
%MOIN*%
G70*
G01*
G75*
%ADD10R,0.06319X0.01575*%
%ADD11R,0.01378X0.06319*%
%ADD12R,0.02000X0.02752*%
%ADD13R,0.03543X0.02756*%
%ADD14R,0.02756X0.03543*%
%ADD15R,0.17323X0.17323*%
%ADD16R,0.05905X0.01968*%
%ADD17R,0.01968X0.05905*%
%ADD18R,0.03543X0.03150*%
%ADD19R,0.03150X0.03543*%
%ADD20R,0.06000X0.09000*%
%ADD21R,0.02000X0.04000*%
%ADD22R,0.09000X0.06000*%
%ADD23R,0.04000X0.02000*%
%ADD24R,0.00984X0.04134*%
%ADD25R,0.04134X0.00984*%
%ADD27R,0.08976X0.07008*%
%ADD28R,0.01102X0.03347*%
%ADD29R,0.03347X0.01102*%
%ADD30R,0.02362X0.03937*%
%ADD31R,0.04724X0.02165*%
%ADD32R,0.05709X0.02362*%
%ADD33R,0.02756X0.00984*%
%ADD34R,0.00984X0.02756*%
%ADD35R,0.06496X0.10433*%
%ADD36R,0.00984X0.06102*%
%ADD37O,0.07283X0.01181*%
%ADD38O,0.01181X0.07283*%
%ADD39R,0.05512X0.05905*%
%ADD40R,0.03937X0.07874*%
%ADD41R,0.01575X0.05315*%
%ADD42R,0.02913X0.09449*%
G04:AMPARAMS|DCode=43|XSize=39.37mil|YSize=39.37mil|CornerRadius=5.91mil|HoleSize=0mil|Usage=FLASHONLY|Rotation=90.000|XOffset=0mil|YOffset=0mil|HoleType=Round|Shape=RoundedRectangle|*
%AMROUNDEDRECTD43*
21,1,0.03937,0.02756,0,0,90.0*
21,1,0.02756,0.03937,0,0,90.0*
1,1,0.01181,0.01378,0.01378*
1,1,0.01181,0.01378,-0.01378*
1,1,0.01181,-0.01378,-0.01378*
1,1,0.01181,-0.01378,0.01378*
%
%ADD43ROUNDEDRECTD43*%
%ADD44R,0.05118X0.03937*%
%ADD45R,0.03937X0.05118*%
%ADD46C,0.06000*%
%ADD48C,0.01000*%
%ADD65R,0.09842X0.09843*%
G36*
X103524Y287452D02*
X103641Y287452D01*
X103858Y287362D01*
X104024Y287196D01*
X104114Y286979D01*
X104114Y286861D01*
X104114Y286744D01*
X104024Y286527D01*
X103858Y286361D01*
X103641Y286271D01*
X103524D01*
X103407Y286271D01*
X103189Y286361D01*
X103023Y286527D01*
X102933Y286743D01*
X102933Y286861D01*
Y286979D01*
X103023Y287196D01*
X103189Y287362D01*
X103406Y287452D01*
X103524D01*
X103524Y287452D01*
D02*
G37*
G36*
X106811Y287362D02*
X106977Y287196D01*
X107067Y286979D01*
Y286861D01*
X107067Y286743D01*
X106977Y286527D01*
X106811Y286361D01*
X106594Y286271D01*
X106476Y286271D01*
X106359D01*
X106142Y286361D01*
X105976Y286527D01*
X105886Y286744D01*
Y286861D01*
X105886Y286979D01*
X105976Y287196D01*
X106142Y287362D01*
X106359Y287452D01*
X106476Y287452D01*
Y287452D01*
X106594D01*
X106811Y287362D01*
D02*
G37*
G36*
X109764D02*
X109930Y287196D01*
X110020Y286979D01*
Y286861D01*
X110020Y286743D01*
X109930Y286527D01*
X109764Y286361D01*
X109546Y286271D01*
X109429Y286271D01*
X109312D01*
X109095Y286361D01*
X108929Y286527D01*
X108839Y286744D01*
Y286861D01*
X108839Y286979D01*
X108929Y287196D01*
X109095Y287362D01*
X109311Y287452D01*
X109429Y287452D01*
Y287452D01*
X109547D01*
X109764Y287362D01*
D02*
G37*
G36*
X100571Y287452D02*
X100689Y287452D01*
X100905Y287362D01*
X101071Y287196D01*
X101161Y286979D01*
X101161Y286861D01*
X101161Y286744D01*
X101071Y286527D01*
X100905Y286361D01*
X100688Y286271D01*
X100571D01*
X100453Y286271D01*
X100236Y286361D01*
X100070Y286527D01*
X99980Y286743D01*
X99980Y286861D01*
Y286979D01*
X100070Y287196D01*
X100236Y287362D01*
X100453Y287452D01*
X100571D01*
X100571Y287452D01*
D02*
G37*
G36*
X22255Y21694D02*
X22920Y21084D01*
X23301Y20267D01*
X23320Y19817D01*
X23300Y19367D01*
X22920Y18550D01*
X22255Y17941D01*
X21408Y17632D01*
X20958Y17652D01*
X16627D01*
X16177Y17632D01*
X15330Y17941D01*
X14665Y18550D01*
X14285Y19367D01*
X14265Y19817D01*
Y19817D01*
Y19817D01*
D01*
X14285Y20267D01*
X14665Y21084D01*
X15330Y21694D01*
X16177Y22003D01*
X16627Y21983D01*
X20958Y21983D01*
Y21983D01*
X21408Y22003D01*
X22255Y21694D01*
D02*
G37*
G36*
X52964D02*
X53629Y21084D01*
X54009Y20267D01*
X54029Y19817D01*
X54009Y19367D01*
X53629Y18550D01*
X52964Y17941D01*
X52117Y17632D01*
X51667Y17652D01*
X47336D01*
X46886Y17632D01*
X46039Y17941D01*
X45374Y18550D01*
X44994Y19367D01*
X44974Y19817D01*
Y19817D01*
Y19817D01*
D01*
X44993Y20267D01*
X45374Y21084D01*
X46039Y21694D01*
X46886Y22003D01*
X47336Y21983D01*
X51667Y21983D01*
Y21983D01*
X52117Y22003D01*
X52964Y21694D01*
D02*
G37*
G36*
X97953Y287362D02*
X98119Y287196D01*
X98209Y286979D01*
Y286861D01*
X98209Y286743D01*
X98119Y286527D01*
X97953Y286361D01*
X97736Y286271D01*
X97618Y286271D01*
X97501D01*
X97284Y286361D01*
X97118Y286527D01*
X97028Y286744D01*
Y286861D01*
X97028Y286979D01*
X97118Y287196D01*
X97284Y287362D01*
X97500Y287452D01*
X97618Y287452D01*
Y287452D01*
X97736D01*
X97953Y287362D01*
D02*
G37*
G36*
X97953Y295039D02*
X98119Y294873D01*
X98209Y294656D01*
X98209Y294539D01*
X98209Y294421D01*
X98119Y294204D01*
X97953Y294038D01*
X97736Y293948D01*
X97618D01*
X97500Y293948D01*
X97284Y294038D01*
X97118Y294204D01*
X97028Y294422D01*
X97028Y294539D01*
Y294656D01*
X97118Y294873D01*
X97284Y295039D01*
X97501Y295129D01*
X97618D01*
Y295129D01*
X97736Y295129D01*
X97953Y295039D01*
D02*
G37*
G36*
X106811D02*
X106977Y294873D01*
X107067Y294656D01*
X107067Y294539D01*
X107067Y294421D01*
X106977Y294204D01*
X106811Y294038D01*
X106594Y293948D01*
X106476D01*
X106359Y293948D01*
X106142Y294038D01*
X105976Y294204D01*
X105886Y294422D01*
X105886Y294539D01*
Y294656D01*
X105976Y294873D01*
X106142Y295039D01*
X106359Y295129D01*
X106476D01*
Y295129D01*
X106594Y295129D01*
X106811Y295039D01*
D02*
G37*
G36*
X109764D02*
X109930Y294873D01*
X110020Y294656D01*
X110020Y294539D01*
X110020Y294421D01*
X109930Y294204D01*
X109764Y294038D01*
X109547Y293948D01*
X109429D01*
X109311Y293948D01*
X109095Y294038D01*
X108929Y294204D01*
X108839Y294422D01*
X108839Y294539D01*
Y294656D01*
X108929Y294873D01*
X109095Y295039D01*
X109312Y295129D01*
X109429D01*
Y295129D01*
X109546Y295129D01*
X109764Y295039D01*
D02*
G37*
G36*
X112382Y295129D02*
X112382Y295129D01*
X112499D01*
X112716Y295039D01*
X112882Y294873D01*
X112972Y294656D01*
Y294539D01*
X112972Y294422D01*
X112882Y294204D01*
X112716Y294038D01*
X112499Y293948D01*
X112382Y293948D01*
X112264D01*
X112047Y294038D01*
X111881Y294204D01*
X111791Y294421D01*
Y294539D01*
X111791Y294656D01*
X111881Y294873D01*
X112047Y295039D01*
X112265Y295129D01*
X112382Y295129D01*
D02*
G37*
G36*
Y287452D02*
X112499Y287452D01*
X112716Y287362D01*
X112882Y287196D01*
X112972Y286979D01*
X112972Y286861D01*
X112972Y286744D01*
X112882Y286527D01*
X112716Y286361D01*
X112499Y286271D01*
X112382D01*
X112265Y286271D01*
X112047Y286361D01*
X111881Y286527D01*
X111791Y286743D01*
X111791Y286861D01*
Y286979D01*
X111881Y287196D01*
X112047Y287362D01*
X112264Y287452D01*
X112382D01*
X112382Y287452D01*
D02*
G37*
G36*
X100571Y295129D02*
X100571Y295129D01*
X100688D01*
X100905Y295039D01*
X101071Y294873D01*
X101161Y294656D01*
Y294539D01*
X101161Y294422D01*
X101071Y294204D01*
X100905Y294038D01*
X100689Y293948D01*
X100571Y293948D01*
X100453D01*
X100236Y294038D01*
X100070Y294204D01*
X99980Y294421D01*
Y294539D01*
X99980Y294656D01*
X100070Y294873D01*
X100236Y295039D01*
X100453Y295129D01*
X100571Y295129D01*
D02*
G37*
G36*
X103524D02*
X103524Y295129D01*
X103641D01*
X103858Y295039D01*
X104024Y294873D01*
X104114Y294656D01*
Y294539D01*
X104114Y294422D01*
X104024Y294204D01*
X103858Y294038D01*
X103641Y293948D01*
X103524Y293948D01*
X103406D01*
X103189Y294038D01*
X103023Y294204D01*
X102933Y294421D01*
Y294539D01*
X102933Y294656D01*
X103023Y294873D01*
X103189Y295039D01*
X103407Y295129D01*
X103524Y295129D01*
D02*
G37*
D10*
X94847Y324411D02*
D03*
X111953Y321950D02*
D03*
Y325100D02*
D03*
X94047Y357211D02*
D03*
X111153Y354750D02*
D03*
Y357900D02*
D03*
D11*
X97495Y316547D02*
D03*
X100447D02*
D03*
X103400D02*
D03*
X106353D02*
D03*
X109306D02*
D03*
X97495Y333653D02*
D03*
X100447D02*
D03*
X103400D02*
D03*
X106353D02*
D03*
X109306D02*
D03*
X96694Y349347D02*
D03*
X99647D02*
D03*
X102600D02*
D03*
X105553D02*
D03*
X108505D02*
D03*
X96694Y366453D02*
D03*
X99647D02*
D03*
X102600D02*
D03*
X105553D02*
D03*
X108505D02*
D03*
D12*
X15940Y41677D02*
D03*
X12200D02*
D03*
X8460D02*
D03*
X15940Y32523D02*
D03*
X12200D02*
D03*
X8460D02*
D03*
X25540Y169677D02*
D03*
X21800D02*
D03*
X18060D02*
D03*
X25540Y160523D02*
D03*
X21800D02*
D03*
X18060D02*
D03*
D13*
X130100Y255453D02*
D03*
Y249547D02*
D03*
X137800Y255653D02*
D03*
Y249747D02*
D03*
X120200Y346947D02*
D03*
Y352853D02*
D03*
X117000Y106147D02*
D03*
Y112053D02*
D03*
X117800Y330140D02*
D03*
Y324235D02*
D03*
X253800Y180053D02*
D03*
Y174147D02*
D03*
X256200Y125347D02*
D03*
Y131253D02*
D03*
D14*
X142353Y272300D02*
D03*
X136447D02*
D03*
X141553Y277900D02*
D03*
X135647D02*
D03*
X124753Y312300D02*
D03*
X118847D02*
D03*
X124753Y317900D02*
D03*
X118847D02*
D03*
X42047Y292300D02*
D03*
X47953D02*
D03*
X127647Y370700D02*
D03*
X133553D02*
D03*
X271953Y153100D02*
D03*
X266047D02*
D03*
X127647Y361100D02*
D03*
X133553D02*
D03*
D15*
X284558Y71935D02*
D03*
D16*
X253826Y53832D02*
D03*
Y57376D02*
D03*
Y60919D02*
D03*
Y64462D02*
D03*
Y68006D02*
D03*
Y71549D02*
D03*
Y75092D02*
D03*
Y78635D02*
D03*
Y82179D02*
D03*
Y85722D02*
D03*
Y89265D02*
D03*
Y92809D02*
D03*
Y96352D02*
D03*
D17*
X301330Y44600D02*
D03*
X297787D02*
D03*
X294243D02*
D03*
X290700D02*
D03*
X287157D02*
D03*
X283613D02*
D03*
X280070D02*
D03*
X276527D02*
D03*
X272984D02*
D03*
X269440D02*
D03*
X265897D02*
D03*
X262353D02*
D03*
X258810D02*
D03*
Y105100D02*
D03*
X262353D02*
D03*
X265897D02*
D03*
X269440D02*
D03*
X272984D02*
D03*
X276527D02*
D03*
X280070D02*
D03*
X283613D02*
D03*
X287157D02*
D03*
X290700D02*
D03*
X294243D02*
D03*
X297787D02*
D03*
X301330D02*
D03*
D18*
X135200Y199856D02*
D03*
Y194344D02*
D03*
X177800Y137544D02*
D03*
Y143056D02*
D03*
X69000Y158344D02*
D03*
Y163856D02*
D03*
X24500Y285356D02*
D03*
Y279844D02*
D03*
X203400Y22344D02*
D03*
Y27856D02*
D03*
X176200Y28300D02*
D03*
Y22788D02*
D03*
X89800Y45544D02*
D03*
Y51056D02*
D03*
X71400Y13188D02*
D03*
Y18700D02*
D03*
X43400Y27144D02*
D03*
Y32656D02*
D03*
X89000Y284744D02*
D03*
Y290256D02*
D03*
X143400Y29900D02*
D03*
Y24388D02*
D03*
X197800Y52744D02*
D03*
Y58256D02*
D03*
X161000Y44744D02*
D03*
Y50256D02*
D03*
X185000Y27856D02*
D03*
Y22344D02*
D03*
X89800Y33544D02*
D03*
Y39056D02*
D03*
X143400Y44212D02*
D03*
Y38700D02*
D03*
X80200Y36656D02*
D03*
Y31144D02*
D03*
X53000Y62256D02*
D03*
Y56744D02*
D03*
X64200Y56744D02*
D03*
Y62256D02*
D03*
X124200Y83944D02*
D03*
Y89456D02*
D03*
X142600Y83944D02*
D03*
Y89456D02*
D03*
X168200Y137544D02*
D03*
Y143056D02*
D03*
X123400Y106344D02*
D03*
Y111856D02*
D03*
X140200Y107144D02*
D03*
Y112656D02*
D03*
X108100Y103744D02*
D03*
Y109256D02*
D03*
X79400Y158344D02*
D03*
Y163856D02*
D03*
X81000Y282256D02*
D03*
Y276744D02*
D03*
X108200Y253544D02*
D03*
Y259056D02*
D03*
X275400Y135944D02*
D03*
Y141456D02*
D03*
X267400Y135944D02*
D03*
Y141456D02*
D03*
D19*
X153800Y24300D02*
D03*
X159312D02*
D03*
X58244Y13900D02*
D03*
X63756D02*
D03*
X126956Y61900D02*
D03*
X121444D02*
D03*
X41356Y62700D02*
D03*
X35844D02*
D03*
X242956Y122700D02*
D03*
X237444D02*
D03*
X79844Y294700D02*
D03*
X85356D02*
D03*
X74244Y51500D02*
D03*
X79756D02*
D03*
X219044Y80300D02*
D03*
X224556D02*
D03*
X59044Y136000D02*
D03*
X64556D02*
D03*
X61444Y121100D02*
D03*
X66956D02*
D03*
X173956Y157000D02*
D03*
X168444D02*
D03*
X152556Y106700D02*
D03*
X147044D02*
D03*
X152556Y113100D02*
D03*
X147044D02*
D03*
X76144Y142400D02*
D03*
X81656D02*
D03*
X75056Y275600D02*
D03*
X69544D02*
D03*
X95044Y253100D02*
D03*
X100556D02*
D03*
X95044Y259500D02*
D03*
X100556D02*
D03*
X97444Y300100D02*
D03*
X102956D02*
D03*
X97244Y306500D02*
D03*
X102756D02*
D03*
X120556Y334700D02*
D03*
X115044D02*
D03*
X120556Y340300D02*
D03*
X115044D02*
D03*
X83844Y314700D02*
D03*
X89356D02*
D03*
X83844Y306700D02*
D03*
X89356D02*
D03*
X114156Y373900D02*
D03*
X108644D02*
D03*
X113856Y380000D02*
D03*
X108344D02*
D03*
X82244Y341900D02*
D03*
X87756D02*
D03*
X82244Y348300D02*
D03*
X87756D02*
D03*
D20*
X226900Y22600D02*
D03*
X133900Y67800D02*
D03*
D21*
X225200Y44100D02*
D03*
X228600D02*
D03*
X132200Y89300D02*
D03*
X135600D02*
D03*
D22*
X51600Y128500D02*
D03*
D23*
X73100Y130200D02*
D03*
Y126800D02*
D03*
D24*
X101063Y268782D02*
D03*
X103032D02*
D03*
X105000D02*
D03*
X106968D02*
D03*
X108937D02*
D03*
Y279018D02*
D03*
X106968D02*
D03*
X105000D02*
D03*
X103032D02*
D03*
X101063D02*
D03*
D25*
X110118Y271932D02*
D03*
Y273900D02*
D03*
Y275869D02*
D03*
X99882D02*
D03*
Y273900D02*
D03*
Y271932D02*
D03*
D27*
X63400Y288300D02*
D03*
D28*
X67337Y281509D02*
D03*
X65368D02*
D03*
X63400D02*
D03*
X61431D02*
D03*
X59463D02*
D03*
Y295091D02*
D03*
X61431D02*
D03*
X63400D02*
D03*
X65368D02*
D03*
X67337D02*
D03*
D29*
X56609Y285347D02*
D03*
Y291253D02*
D03*
X70191D02*
D03*
Y285347D02*
D03*
D30*
X18060Y152913D02*
D03*
X25540D02*
D03*
Y142087D02*
D03*
X21800D02*
D03*
X18060D02*
D03*
D31*
X182919Y58440D02*
D03*
Y50960D02*
D03*
X172681D02*
D03*
Y54700D02*
D03*
Y58440D02*
D03*
D32*
X128528Y32000D02*
D03*
Y37000D02*
D03*
Y42000D02*
D03*
Y47000D02*
D03*
X107072Y32000D02*
D03*
Y37000D02*
D03*
Y42000D02*
D03*
Y47000D02*
D03*
D33*
X52288Y42821D02*
D03*
Y40853D02*
D03*
Y38884D02*
D03*
Y36916D02*
D03*
Y34947D02*
D03*
Y32979D02*
D03*
X63312D02*
D03*
Y34947D02*
D03*
Y36916D02*
D03*
Y38884D02*
D03*
Y40853D02*
D03*
Y42821D02*
D03*
D34*
X54847Y30420D02*
D03*
X56816D02*
D03*
X58784D02*
D03*
X60753D02*
D03*
Y45380D02*
D03*
X58784D02*
D03*
X56816D02*
D03*
X54847D02*
D03*
D35*
X57800Y37900D02*
D03*
D36*
X230925Y142076D02*
D03*
X233484D02*
D03*
X236043D02*
D03*
X238602D02*
D03*
X241161D02*
D03*
X243721D02*
D03*
X246280D02*
D03*
X248839D02*
D03*
X251398D02*
D03*
X253957D02*
D03*
X256516D02*
D03*
X259075D02*
D03*
X230925Y164124D02*
D03*
X233484D02*
D03*
X236043D02*
D03*
X238602D02*
D03*
X241161D02*
D03*
X243721D02*
D03*
X246280D02*
D03*
X248839D02*
D03*
X251398D02*
D03*
X253957D02*
D03*
X256516D02*
D03*
X259075D02*
D03*
D37*
X93885Y178322D02*
D03*
Y176354D02*
D03*
Y174385D02*
D03*
Y172416D02*
D03*
Y170448D02*
D03*
Y168480D02*
D03*
Y166511D02*
D03*
Y164542D02*
D03*
Y162574D02*
D03*
Y160606D02*
D03*
Y158637D02*
D03*
Y156668D02*
D03*
Y154700D02*
D03*
Y152732D02*
D03*
Y150763D02*
D03*
Y148794D02*
D03*
Y146826D02*
D03*
Y144858D02*
D03*
Y142889D02*
D03*
Y140920D02*
D03*
Y138952D02*
D03*
Y136984D02*
D03*
Y135015D02*
D03*
Y133046D02*
D03*
Y131078D02*
D03*
X154515D02*
D03*
Y133046D02*
D03*
Y135015D02*
D03*
Y136984D02*
D03*
Y138952D02*
D03*
Y140920D02*
D03*
Y142889D02*
D03*
Y144858D02*
D03*
Y146826D02*
D03*
Y148794D02*
D03*
Y150763D02*
D03*
Y152732D02*
D03*
Y154700D02*
D03*
Y156668D02*
D03*
Y158637D02*
D03*
Y160606D02*
D03*
Y162574D02*
D03*
Y164542D02*
D03*
Y166511D02*
D03*
Y168480D02*
D03*
Y170448D02*
D03*
Y172416D02*
D03*
Y174385D02*
D03*
Y176354D02*
D03*
Y178322D02*
D03*
D38*
X100578Y124385D02*
D03*
X102547D02*
D03*
X104515D02*
D03*
X106483D02*
D03*
X108452D02*
D03*
X110421D02*
D03*
X112389D02*
D03*
X114357D02*
D03*
X116326D02*
D03*
X118295D02*
D03*
X120263D02*
D03*
X122231D02*
D03*
X124200D02*
D03*
X126169D02*
D03*
X128137D02*
D03*
X130105D02*
D03*
X132074D02*
D03*
X134043D02*
D03*
X136011D02*
D03*
X137979D02*
D03*
X139948D02*
D03*
X141917D02*
D03*
X143885D02*
D03*
X145853D02*
D03*
X147822D02*
D03*
Y185015D02*
D03*
X145853D02*
D03*
X143885D02*
D03*
X141917D02*
D03*
X139948D02*
D03*
X137979D02*
D03*
X136011D02*
D03*
X134043D02*
D03*
X132074D02*
D03*
X130105D02*
D03*
X128137D02*
D03*
X126169D02*
D03*
X124200D02*
D03*
X122231D02*
D03*
X120263D02*
D03*
X118295D02*
D03*
X116326D02*
D03*
X114357D02*
D03*
X112389D02*
D03*
X110421D02*
D03*
X108452D02*
D03*
X106483D02*
D03*
X104515D02*
D03*
X102547D02*
D03*
X100578D02*
D03*
D39*
X113737Y97100D02*
D03*
X105863D02*
D03*
D40*
X37100Y8400D02*
D03*
X31194D02*
D03*
D41*
X39265Y19325D02*
D03*
X36706D02*
D03*
X34147D02*
D03*
X31588D02*
D03*
X29029D02*
D03*
D42*
X181900Y101000D02*
D03*
X186900D02*
D03*
X191900D02*
D03*
X196900D02*
D03*
X201900D02*
D03*
X201896Y116331D02*
D03*
X196896D02*
D03*
X191896D02*
D03*
X186896D02*
D03*
X181896D02*
D03*
D43*
X40453Y279900D02*
D03*
X33547D02*
D03*
D44*
X193000Y22650D02*
D03*
Y16350D02*
D03*
D45*
X28250Y44300D02*
D03*
X34550D02*
D03*
D46*
X202420Y136130D02*
D03*
Y150700D02*
D03*
X216200Y136130D02*
D03*
Y150700D02*
D03*
D48*
X0Y0D02*
Y383400D01*
X-400Y383800D02*
X0Y383400D01*
X-400Y383800D02*
X309100D01*
X309300Y383600D01*
Y0D02*
Y383600D01*
X0Y0D02*
X309300D01*
D65*
X48320Y8794D02*
D03*
X19974D02*
D03*
M02*
