G04 Layer_Color=16711935*
%FSLAX25Y25*%
%MOIN*%
G70*
G01*
G75*
%ADD48C,0.01000*%
%ADD103C,0.06800*%
%ADD104R,0.06706X0.06706*%
%ADD105C,0.06706*%
%ADD106R,0.10643X0.10643*%
%ADD107R,0.06706X0.06706*%
%ADD108C,0.05800*%
%ADD109C,0.03200*%
%ADD110C,0.02768*%
G36*
X101568Y7732D02*
X95631D01*
Y13668D01*
X101568D01*
Y7732D01*
D02*
G37*
G36*
X99375Y21466D02*
X100097Y21167D01*
X100717Y20691D01*
X101193Y20071D01*
X101492Y19349D01*
X101594Y18574D01*
X101492Y17799D01*
X101193Y17077D01*
X100717Y16457D01*
X100097Y15981D01*
X99375Y15682D01*
X98600Y15580D01*
X97825Y15682D01*
X97103Y15981D01*
X96483Y16457D01*
X96007Y17077D01*
X95708Y17799D01*
X95606Y18574D01*
X95708Y19349D01*
X96007Y20071D01*
X96483Y20691D01*
X97103Y21167D01*
X97825Y21466D01*
X98600Y21568D01*
X99375Y21466D01*
D02*
G37*
D48*
X0Y0D02*
Y383400D01*
X-400Y383800D02*
X0Y383400D01*
X-400Y383800D02*
X309100D01*
X309300Y383600D01*
Y0D02*
Y383600D01*
X0Y0D02*
X309300D01*
D103*
X47139Y19817D02*
D03*
X21155D02*
D03*
D104*
X135400Y293900D02*
D03*
X131000Y210700D02*
D03*
X57800Y318700D02*
D03*
X73800Y262700D02*
D03*
Y303500D02*
D03*
X69000Y206700D02*
D03*
X72200Y244300D02*
D03*
X289000Y156700D02*
D03*
X153000Y241100D02*
D03*
X214600Y168300D02*
D03*
X150600Y263500D02*
D03*
X121800Y300300D02*
D03*
X161000Y297100D02*
D03*
X144200Y313100D02*
D03*
X159400Y334700D02*
D03*
X93800Y197900D02*
D03*
X58600Y162700D02*
D03*
X269800Y169100D02*
D03*
X287400Y123500D02*
D03*
X163400Y94700D02*
D03*
X24200Y298600D02*
D03*
D105*
X141000Y210700D02*
D03*
X151000D02*
D03*
X161000D02*
D03*
X171000D02*
D03*
X181000D02*
D03*
X183400Y177300D02*
D03*
D106*
X19974Y8794D02*
D03*
X48320D02*
D03*
D107*
X183400Y187300D02*
D03*
D108*
X91900Y228300D02*
D03*
X91300Y248100D02*
D03*
X117000Y221700D02*
D03*
X164200Y61900D02*
D03*
X215400Y90700D02*
D03*
D109*
X119400Y276200D02*
D03*
X138200Y135700D02*
D03*
X140300Y130500D02*
D03*
X131811Y131584D02*
D03*
X94800Y110100D02*
D03*
X99900Y114300D02*
D03*
X96000Y96600D02*
D03*
X84400Y150500D02*
D03*
X80200Y147500D02*
D03*
X184300Y144400D02*
D03*
X124800Y330300D02*
D03*
X97100Y40200D02*
D03*
X99400Y101400D02*
D03*
X202141Y142900D02*
D03*
X251400Y149800D02*
D03*
X79000Y272300D02*
D03*
X104800Y325200D02*
D03*
X182600Y64200D02*
D03*
X143400Y52500D02*
D03*
X111400Y306500D02*
D03*
X124100Y200600D02*
D03*
X185200Y138800D02*
D03*
X116700Y254300D02*
D03*
X117700Y267300D02*
D03*
X86200Y324400D02*
D03*
X72200Y349700D02*
D03*
X121600Y379900D02*
D03*
X104800Y357800D02*
D03*
X46700Y304600D02*
D03*
X211700Y80400D02*
D03*
X55700Y148300D02*
D03*
X59200Y98300D02*
D03*
X197800Y46700D02*
D03*
X202600Y16300D02*
D03*
X129800Y281100D02*
D03*
X81000Y289900D02*
D03*
X87400Y280300D02*
D03*
X29800Y56300D02*
D03*
X114600Y317900D02*
D03*
X145000Y369900D02*
D03*
X66300Y269700D02*
D03*
X71300Y39800D02*
D03*
X44000Y50800D02*
D03*
X258700Y121100D02*
D03*
X284900Y76600D02*
D03*
X233400Y67900D02*
D03*
X244400Y79100D02*
D03*
X289700Y71800D02*
D03*
X289900Y76600D02*
D03*
X279800Y76500D02*
D03*
X280000Y67100D02*
D03*
X289600Y66800D02*
D03*
X280200Y72000D02*
D03*
X284558Y71935D02*
D03*
X284700Y66800D02*
D03*
X44200Y56300D02*
D03*
D110*
X61235Y290465D02*
D03*
X65565D02*
D03*
X61235Y286135D02*
D03*
X65565D02*
D03*
M02*
