G04 Layer_Color=8388736*
%FSLAX25Y25*%
%MOIN*%
G70*
G01*
G75*
%ADD48C,0.01000*%
%ADD66R,0.01968X0.05709*%
%ADD67R,0.07119X0.02375*%
%ADD68R,0.02178X0.07119*%
%ADD69R,0.02800X0.03552*%
%ADD70R,0.04343X0.03556*%
%ADD71R,0.03556X0.04343*%
%ADD72R,0.18123X0.18123*%
%ADD73R,0.06706X0.02768*%
%ADD74R,0.02768X0.06706*%
%ADD75R,0.04343X0.03950*%
%ADD76R,0.03950X0.04343*%
%ADD77R,0.06800X0.09800*%
%ADD78R,0.02800X0.04800*%
%ADD79R,0.09800X0.06800*%
%ADD80R,0.04800X0.02800*%
%ADD81R,0.01784X0.04934*%
%ADD82R,0.04934X0.01784*%
%ADD83R,0.02965X0.03162*%
%ADD84R,0.09776X0.07808*%
%ADD85R,0.01902X0.04147*%
%ADD86R,0.04147X0.01902*%
%ADD87R,0.03162X0.04737*%
%ADD88R,0.05524X0.02965*%
%ADD89R,0.06509X0.03162*%
%ADD90R,0.03556X0.01784*%
%ADD91R,0.01784X0.03556*%
%ADD92R,0.07296X0.11233*%
%ADD93R,0.01784X0.06902*%
%ADD94O,0.08083X0.01981*%
%ADD95O,0.01981X0.08083*%
%ADD96R,0.06312X0.06706*%
%ADD97R,0.04737X0.08674*%
%ADD98R,0.02375X0.06115*%
%ADD99R,0.03713X0.10249*%
G04:AMPARAMS|DCode=100|XSize=47.37mil|YSize=47.37mil|CornerRadius=9.9mil|HoleSize=0mil|Usage=FLASHONLY|Rotation=90.000|XOffset=0mil|YOffset=0mil|HoleType=Round|Shape=RoundedRectangle|*
%AMROUNDEDRECTD100*
21,1,0.04737,0.02756,0,0,90.0*
21,1,0.02756,0.04737,0,0,90.0*
1,1,0.01981,0.01378,0.01378*
1,1,0.01981,0.01378,-0.01378*
1,1,0.01981,-0.01378,-0.01378*
1,1,0.01981,-0.01378,0.01378*
%
%ADD100ROUNDEDRECTD100*%
%ADD101R,0.05918X0.04737*%
%ADD102R,0.04737X0.05918*%
%ADD103C,0.06800*%
%ADD104R,0.06706X0.06706*%
%ADD105C,0.06706*%
%ADD106R,0.10643X0.10643*%
%ADD107R,0.06706X0.06706*%
%ADD108C,0.05800*%
%ADD109C,0.03200*%
%ADD110C,0.02768*%
G36*
X101568Y7732D02*
X95631D01*
Y13668D01*
X101568D01*
Y7732D01*
D02*
G37*
G36*
X99375Y21466D02*
X100097Y21167D01*
X100717Y20691D01*
X101193Y20071D01*
X101492Y19349D01*
X101594Y18574D01*
X101492Y17799D01*
X101193Y17077D01*
X100717Y16457D01*
X100097Y15981D01*
X99375Y15682D01*
X98600Y15580D01*
X97825Y15682D01*
X97103Y15981D01*
X96483Y16457D01*
X96007Y17077D01*
X95708Y17799D01*
X95606Y18574D01*
X95708Y19349D01*
X96007Y20071D01*
X96483Y20691D01*
X97103Y21167D01*
X97825Y21466D01*
X98600Y21568D01*
X99375Y21466D01*
D02*
G37*
D48*
X0Y0D02*
Y383400D01*
X-400Y383800D02*
X0Y383400D01*
X-400Y383800D02*
X309100D01*
X309300Y383600D01*
Y0D02*
Y383600D01*
X0Y0D02*
X309300D01*
D66*
X39265Y19326D02*
D03*
X36706D02*
D03*
X34147D02*
D03*
X31588D02*
D03*
X29029D02*
D03*
D67*
X94847Y324411D02*
D03*
X111953Y321950D02*
D03*
Y325100D02*
D03*
X94047Y357211D02*
D03*
X111153Y354750D02*
D03*
Y357900D02*
D03*
D68*
X97495Y316547D02*
D03*
X100447D02*
D03*
X103400D02*
D03*
X106353D02*
D03*
X109306D02*
D03*
X97495Y333653D02*
D03*
X100447D02*
D03*
X103400D02*
D03*
X106353D02*
D03*
X109306D02*
D03*
X96694Y349347D02*
D03*
X99647D02*
D03*
X102600D02*
D03*
X105553D02*
D03*
X108505D02*
D03*
X96694Y366453D02*
D03*
X99647D02*
D03*
X102600D02*
D03*
X105553D02*
D03*
X108505D02*
D03*
D69*
X15940Y41677D02*
D03*
X12200D02*
D03*
X8460D02*
D03*
X15940Y32523D02*
D03*
X12200D02*
D03*
X8460D02*
D03*
X25540Y169677D02*
D03*
X21800D02*
D03*
X18060D02*
D03*
X25540Y160523D02*
D03*
X21800D02*
D03*
X18060D02*
D03*
D70*
X130100Y255453D02*
D03*
Y249547D02*
D03*
X137800Y255653D02*
D03*
Y249747D02*
D03*
X120200Y346947D02*
D03*
Y352853D02*
D03*
X117000Y106147D02*
D03*
Y112053D02*
D03*
X117800Y330140D02*
D03*
Y324235D02*
D03*
X253800Y180053D02*
D03*
Y174147D02*
D03*
X256200Y125347D02*
D03*
Y131253D02*
D03*
D71*
X142353Y272300D02*
D03*
X136447D02*
D03*
X141553Y277900D02*
D03*
X135647D02*
D03*
X124753Y312300D02*
D03*
X118847D02*
D03*
X124753Y317900D02*
D03*
X118847D02*
D03*
X42047Y292300D02*
D03*
X47953D02*
D03*
X127647Y370700D02*
D03*
X133553D02*
D03*
X271953Y153100D02*
D03*
X266047D02*
D03*
X127647Y361100D02*
D03*
X133553D02*
D03*
D72*
X284558Y71935D02*
D03*
D73*
X253826Y53832D02*
D03*
Y57376D02*
D03*
Y60919D02*
D03*
Y64462D02*
D03*
Y68006D02*
D03*
Y71549D02*
D03*
Y75092D02*
D03*
Y78635D02*
D03*
Y82179D02*
D03*
Y85722D02*
D03*
Y89265D02*
D03*
Y92809D02*
D03*
Y96352D02*
D03*
D74*
X301330Y44600D02*
D03*
X297787D02*
D03*
X294243D02*
D03*
X290700D02*
D03*
X287157D02*
D03*
X283613D02*
D03*
X280070D02*
D03*
X276527D02*
D03*
X272984D02*
D03*
X269440D02*
D03*
X265897D02*
D03*
X262353D02*
D03*
X258810D02*
D03*
Y105100D02*
D03*
X262353D02*
D03*
X265897D02*
D03*
X269440D02*
D03*
X272984D02*
D03*
X276527D02*
D03*
X280070D02*
D03*
X283613D02*
D03*
X287157D02*
D03*
X290700D02*
D03*
X294243D02*
D03*
X297787D02*
D03*
X301330D02*
D03*
D75*
X135200Y199856D02*
D03*
Y194344D02*
D03*
X177800Y137544D02*
D03*
Y143056D02*
D03*
X69000Y158344D02*
D03*
Y163856D02*
D03*
X24500Y285356D02*
D03*
Y279844D02*
D03*
X203400Y22344D02*
D03*
Y27856D02*
D03*
X176200Y28300D02*
D03*
Y22788D02*
D03*
X89800Y45544D02*
D03*
Y51056D02*
D03*
X71400Y13188D02*
D03*
Y18700D02*
D03*
X43400Y27144D02*
D03*
Y32656D02*
D03*
X89000Y284744D02*
D03*
Y290256D02*
D03*
X143400Y29900D02*
D03*
Y24388D02*
D03*
X197800Y52744D02*
D03*
Y58256D02*
D03*
X161000Y44744D02*
D03*
Y50256D02*
D03*
X185000Y27856D02*
D03*
Y22344D02*
D03*
X89800Y33544D02*
D03*
Y39056D02*
D03*
X143400Y44212D02*
D03*
Y38700D02*
D03*
X80200Y36656D02*
D03*
Y31144D02*
D03*
X53000Y62256D02*
D03*
Y56744D02*
D03*
X64200Y56744D02*
D03*
Y62256D02*
D03*
X124200Y83944D02*
D03*
Y89456D02*
D03*
X142600Y83944D02*
D03*
Y89456D02*
D03*
X168200Y137544D02*
D03*
Y143056D02*
D03*
X123400Y106344D02*
D03*
Y111856D02*
D03*
X140200Y107144D02*
D03*
Y112656D02*
D03*
X108100Y103744D02*
D03*
Y109256D02*
D03*
X79400Y158344D02*
D03*
Y163856D02*
D03*
X81000Y282256D02*
D03*
Y276744D02*
D03*
X108200Y253544D02*
D03*
Y259056D02*
D03*
X275400Y135944D02*
D03*
Y141456D02*
D03*
X267400Y135944D02*
D03*
Y141456D02*
D03*
D76*
X153800Y24300D02*
D03*
X159312D02*
D03*
X58244Y13900D02*
D03*
X63756D02*
D03*
X126956Y61900D02*
D03*
X121444D02*
D03*
X41356Y62700D02*
D03*
X35844D02*
D03*
X242956Y122700D02*
D03*
X237444D02*
D03*
X79844Y294700D02*
D03*
X85356D02*
D03*
X74244Y51500D02*
D03*
X79756D02*
D03*
X219044Y80300D02*
D03*
X224556D02*
D03*
X59044Y136000D02*
D03*
X64556D02*
D03*
X61444Y121100D02*
D03*
X66956D02*
D03*
X173956Y157000D02*
D03*
X168444D02*
D03*
X152556Y106700D02*
D03*
X147044D02*
D03*
X152556Y113100D02*
D03*
X147044D02*
D03*
X76144Y142400D02*
D03*
X81656D02*
D03*
X75056Y275600D02*
D03*
X69544D02*
D03*
X95044Y253100D02*
D03*
X100556D02*
D03*
X95044Y259500D02*
D03*
X100556D02*
D03*
X97444Y300100D02*
D03*
X102956D02*
D03*
X97244Y306500D02*
D03*
X102756D02*
D03*
X120556Y334700D02*
D03*
X115044D02*
D03*
X120556Y340300D02*
D03*
X115044D02*
D03*
X83844Y314700D02*
D03*
X89356D02*
D03*
X83844Y306700D02*
D03*
X89356D02*
D03*
X114156Y373900D02*
D03*
X108644D02*
D03*
X113856Y380000D02*
D03*
X108344D02*
D03*
X82244Y341900D02*
D03*
X87756D02*
D03*
X82244Y348300D02*
D03*
X87756D02*
D03*
D77*
X226900Y22600D02*
D03*
X133900Y67800D02*
D03*
D78*
X225200Y44100D02*
D03*
X228600D02*
D03*
X132200Y89300D02*
D03*
X135600D02*
D03*
D79*
X51600Y128500D02*
D03*
D80*
X73100Y130200D02*
D03*
Y126800D02*
D03*
D81*
X101063Y268782D02*
D03*
X103032D02*
D03*
X105000D02*
D03*
X106968D02*
D03*
X108937D02*
D03*
Y279018D02*
D03*
X106968D02*
D03*
X105000D02*
D03*
X103032D02*
D03*
X101063D02*
D03*
D82*
X110118Y271932D02*
D03*
Y273900D02*
D03*
Y275869D02*
D03*
X99882D02*
D03*
Y273900D02*
D03*
Y271932D02*
D03*
D83*
X97618Y294637D02*
D03*
X100571D02*
D03*
X103524D02*
D03*
X106476D02*
D03*
X109429D02*
D03*
X112382D02*
D03*
Y286763D02*
D03*
X109429D02*
D03*
X106476D02*
D03*
X103524D02*
D03*
X100571D02*
D03*
X97618D02*
D03*
D84*
X63400Y288300D02*
D03*
D85*
X67337Y281509D02*
D03*
X65368D02*
D03*
X63400D02*
D03*
X61431D02*
D03*
X59463D02*
D03*
Y295091D02*
D03*
X61431D02*
D03*
X63400D02*
D03*
X65368D02*
D03*
X67337D02*
D03*
D86*
X56609Y285347D02*
D03*
Y291253D02*
D03*
X70191D02*
D03*
Y285347D02*
D03*
D87*
X18060Y152913D02*
D03*
X25540D02*
D03*
Y142087D02*
D03*
X21800D02*
D03*
X18060D02*
D03*
D88*
X182919Y58440D02*
D03*
Y50960D02*
D03*
X172681D02*
D03*
Y54700D02*
D03*
Y58440D02*
D03*
D89*
X128528Y32000D02*
D03*
Y37000D02*
D03*
Y42000D02*
D03*
Y47000D02*
D03*
X107072Y32000D02*
D03*
Y37000D02*
D03*
Y42000D02*
D03*
Y47000D02*
D03*
D90*
X52288Y42821D02*
D03*
Y40853D02*
D03*
Y38884D02*
D03*
Y36916D02*
D03*
Y34947D02*
D03*
Y32979D02*
D03*
X63312D02*
D03*
Y34947D02*
D03*
Y36916D02*
D03*
Y38884D02*
D03*
Y40853D02*
D03*
Y42821D02*
D03*
D91*
X54847Y30420D02*
D03*
X56816D02*
D03*
X58784D02*
D03*
X60753D02*
D03*
Y45380D02*
D03*
X58784D02*
D03*
X56816D02*
D03*
X54847D02*
D03*
D92*
X57800Y37900D02*
D03*
D93*
X230925Y142076D02*
D03*
X233484D02*
D03*
X236043D02*
D03*
X238602D02*
D03*
X241161D02*
D03*
X243721D02*
D03*
X246280D02*
D03*
X248839D02*
D03*
X251398D02*
D03*
X253957D02*
D03*
X256516D02*
D03*
X259075D02*
D03*
X230925Y164124D02*
D03*
X233484D02*
D03*
X236043D02*
D03*
X238602D02*
D03*
X241161D02*
D03*
X243721D02*
D03*
X246280D02*
D03*
X248839D02*
D03*
X251398D02*
D03*
X253957D02*
D03*
X256516D02*
D03*
X259075D02*
D03*
D94*
X93885Y178322D02*
D03*
Y176354D02*
D03*
Y174385D02*
D03*
Y172416D02*
D03*
Y170448D02*
D03*
Y168480D02*
D03*
Y166511D02*
D03*
Y164542D02*
D03*
Y162574D02*
D03*
Y160606D02*
D03*
Y158637D02*
D03*
Y156668D02*
D03*
Y154700D02*
D03*
Y152732D02*
D03*
Y150763D02*
D03*
Y148794D02*
D03*
Y146826D02*
D03*
Y144858D02*
D03*
Y142889D02*
D03*
Y140920D02*
D03*
Y138952D02*
D03*
Y136984D02*
D03*
Y135015D02*
D03*
Y133046D02*
D03*
Y131078D02*
D03*
X154515D02*
D03*
Y133046D02*
D03*
Y135015D02*
D03*
Y136984D02*
D03*
Y138952D02*
D03*
Y140920D02*
D03*
Y142889D02*
D03*
Y144858D02*
D03*
Y146826D02*
D03*
Y148794D02*
D03*
Y150763D02*
D03*
Y152732D02*
D03*
Y154700D02*
D03*
Y156668D02*
D03*
Y158637D02*
D03*
Y160606D02*
D03*
Y162574D02*
D03*
Y164542D02*
D03*
Y166511D02*
D03*
Y168480D02*
D03*
Y170448D02*
D03*
Y172416D02*
D03*
Y174385D02*
D03*
Y176354D02*
D03*
Y178322D02*
D03*
D95*
X100578Y124385D02*
D03*
X102547D02*
D03*
X104515D02*
D03*
X106483D02*
D03*
X108452D02*
D03*
X110421D02*
D03*
X112389D02*
D03*
X114357D02*
D03*
X116326D02*
D03*
X118295D02*
D03*
X120263D02*
D03*
X122231D02*
D03*
X124200D02*
D03*
X126169D02*
D03*
X128137D02*
D03*
X130105D02*
D03*
X132074D02*
D03*
X134043D02*
D03*
X136011D02*
D03*
X137979D02*
D03*
X139948D02*
D03*
X141917D02*
D03*
X143885D02*
D03*
X145853D02*
D03*
X147822D02*
D03*
Y185015D02*
D03*
X145853D02*
D03*
X143885D02*
D03*
X141917D02*
D03*
X139948D02*
D03*
X137979D02*
D03*
X136011D02*
D03*
X134043D02*
D03*
X132074D02*
D03*
X130105D02*
D03*
X128137D02*
D03*
X126169D02*
D03*
X124200D02*
D03*
X122231D02*
D03*
X120263D02*
D03*
X118295D02*
D03*
X116326D02*
D03*
X114357D02*
D03*
X112389D02*
D03*
X110421D02*
D03*
X108452D02*
D03*
X106483D02*
D03*
X104515D02*
D03*
X102547D02*
D03*
X100578D02*
D03*
D96*
X113737Y97100D02*
D03*
X105863D02*
D03*
D97*
X37100Y8400D02*
D03*
X31194D02*
D03*
D98*
X39265Y19325D02*
D03*
X36706D02*
D03*
X34147D02*
D03*
X31588D02*
D03*
X29029D02*
D03*
D99*
X181900Y101000D02*
D03*
X186900D02*
D03*
X191900D02*
D03*
X196900D02*
D03*
X201900D02*
D03*
X201896Y116331D02*
D03*
X196896D02*
D03*
X191896D02*
D03*
X186896D02*
D03*
X181896D02*
D03*
D100*
X40453Y279900D02*
D03*
X33547D02*
D03*
D101*
X193000Y22650D02*
D03*
Y16350D02*
D03*
D102*
X28250Y44300D02*
D03*
X34550D02*
D03*
D103*
X202420Y136130D02*
D03*
Y150700D02*
D03*
X216200Y136130D02*
D03*
Y150700D02*
D03*
X47139Y19817D02*
D03*
X21155D02*
D03*
D104*
X135400Y293900D02*
D03*
X131000Y210700D02*
D03*
X57800Y318700D02*
D03*
X73800Y262700D02*
D03*
Y303500D02*
D03*
X69000Y206700D02*
D03*
X72200Y244300D02*
D03*
X289000Y156700D02*
D03*
X153000Y241100D02*
D03*
X214600Y168300D02*
D03*
X150600Y263500D02*
D03*
X121800Y300300D02*
D03*
X161000Y297100D02*
D03*
X144200Y313100D02*
D03*
X159400Y334700D02*
D03*
X93800Y197900D02*
D03*
X58600Y162700D02*
D03*
X269800Y169100D02*
D03*
X287400Y123500D02*
D03*
X163400Y94700D02*
D03*
X24200Y298600D02*
D03*
D105*
X141000Y210700D02*
D03*
X151000D02*
D03*
X161000D02*
D03*
X171000D02*
D03*
X181000D02*
D03*
X183400Y177300D02*
D03*
D106*
X19974Y8794D02*
D03*
X48320D02*
D03*
D107*
X183400Y187300D02*
D03*
D108*
X91900Y228300D02*
D03*
X91300Y248100D02*
D03*
X117000Y221700D02*
D03*
X164200Y61900D02*
D03*
X215400Y90700D02*
D03*
D109*
X119400Y276200D02*
D03*
X138200Y135700D02*
D03*
X140300Y130500D02*
D03*
X131811Y131584D02*
D03*
X94800Y110100D02*
D03*
X99900Y114300D02*
D03*
X96000Y96600D02*
D03*
X84400Y150500D02*
D03*
X80200Y147500D02*
D03*
X184300Y144400D02*
D03*
X124800Y330300D02*
D03*
X97100Y40200D02*
D03*
X99400Y101400D02*
D03*
X202141Y142900D02*
D03*
X251400Y149800D02*
D03*
X79000Y272300D02*
D03*
X104800Y325200D02*
D03*
X182600Y64200D02*
D03*
X143400Y52500D02*
D03*
X111400Y306500D02*
D03*
X124100Y200600D02*
D03*
X185200Y138800D02*
D03*
X116700Y254300D02*
D03*
X117700Y267300D02*
D03*
X86200Y324400D02*
D03*
X72200Y349700D02*
D03*
X121600Y379900D02*
D03*
X104800Y357800D02*
D03*
X46700Y304600D02*
D03*
X211700Y80400D02*
D03*
X55700Y148300D02*
D03*
X59200Y98300D02*
D03*
X197800Y46700D02*
D03*
X202600Y16300D02*
D03*
X129800Y281100D02*
D03*
X81000Y289900D02*
D03*
X87400Y280300D02*
D03*
X29800Y56300D02*
D03*
X114600Y317900D02*
D03*
X145000Y369900D02*
D03*
X66300Y269700D02*
D03*
X71300Y39800D02*
D03*
X44000Y50800D02*
D03*
X258700Y121100D02*
D03*
X284900Y76600D02*
D03*
X233400Y67900D02*
D03*
X244400Y79100D02*
D03*
X289700Y71800D02*
D03*
X289900Y76600D02*
D03*
X279800Y76500D02*
D03*
X280000Y67100D02*
D03*
X289600Y66800D02*
D03*
X280200Y72000D02*
D03*
X284558Y71935D02*
D03*
X284700Y66800D02*
D03*
X44200Y56300D02*
D03*
D110*
X61235Y290465D02*
D03*
X65565D02*
D03*
X61235Y286135D02*
D03*
X65565D02*
D03*
M02*
