G04 Layer_Physical_Order=2*
G04 Layer_Color=16711680*
%FSLAX25Y25*%
%MOIN*%
G70*
G01*
G75*
%ADD46C,0.06000*%
%ADD47C,0.02000*%
%ADD48C,0.01000*%
%ADD51R,0.05905X0.05905*%
%ADD52C,0.05905*%
%ADD53R,0.09843X0.09843*%
%ADD54R,0.05150X0.05150*%
%ADD55C,0.05150*%
%ADD56R,0.05905X0.05905*%
%ADD57C,0.05000*%
%ADD58C,0.02400*%
%ADD59C,0.01968*%
G36*
X300600Y231900D02*
Y36100D01*
X267300Y2800D01*
X54283D01*
X54255Y2831D01*
X54062Y3300D01*
X54184Y3482D01*
X54261Y3872D01*
Y8294D01*
X48320D01*
X42379D01*
Y3872D01*
X42456Y3482D01*
X42578Y3300D01*
X42385Y2831D01*
X42357Y2800D01*
X25937D01*
X25909Y2831D01*
X25716Y3300D01*
X25837Y3482D01*
X25915Y3872D01*
Y8294D01*
X19974D01*
Y8794D01*
X19474D01*
Y14735D01*
X15053D01*
X14662Y14658D01*
X14332Y14436D01*
X14110Y14106D01*
X14033Y13715D01*
Y11620D01*
X13571Y11429D01*
X3000Y22000D01*
X5600Y24600D01*
Y349100D01*
X5600Y349100D01*
X5287Y349487D01*
X38000Y382200D01*
X120182D01*
X120334Y381700D01*
X120014Y381486D01*
X119528Y380758D01*
X119456Y380400D01*
X123744D01*
X123672Y380758D01*
X123186Y381486D01*
X122866Y381700D01*
X123018Y382200D01*
X150300D01*
X300600Y231900D01*
D02*
G37*
%LPC*%
G36*
X250900Y151944D02*
X250542Y151872D01*
X249814Y151386D01*
X249328Y150658D01*
X249256Y150300D01*
X250900D01*
Y151944D01*
D02*
G37*
G36*
X56200Y150444D02*
Y148800D01*
X57844D01*
X57772Y149158D01*
X57286Y149886D01*
X56558Y150372D01*
X56200Y150444D01*
D02*
G37*
G36*
X55200D02*
X54842Y150372D01*
X54114Y149886D01*
X53628Y149158D01*
X53556Y148800D01*
X55200D01*
Y150444D01*
D02*
G37*
G36*
X217553Y173802D02*
X211647D01*
X210672Y173608D01*
X209845Y173055D01*
X209292Y172228D01*
X209098Y171253D01*
Y165347D01*
X209292Y164372D01*
X209845Y163545D01*
X210672Y162992D01*
X211647Y162798D01*
X217553D01*
X218528Y162992D01*
X219355Y163545D01*
X219908Y164372D01*
X220102Y165347D01*
Y171253D01*
X219908Y172228D01*
X219355Y173055D01*
X218528Y173608D01*
X217553Y173802D01*
D02*
G37*
G36*
X84900Y152644D02*
Y151000D01*
X86544D01*
X86472Y151358D01*
X85986Y152086D01*
X85258Y152572D01*
X84900Y152644D01*
D02*
G37*
G36*
X251900Y151944D02*
Y150300D01*
X253544D01*
X253472Y150658D01*
X252986Y151386D01*
X252258Y151872D01*
X251900Y151944D01*
D02*
G37*
G36*
X57844Y147800D02*
X56200D01*
Y146156D01*
X56558Y146228D01*
X57286Y146714D01*
X57772Y147442D01*
X57844Y147800D01*
D02*
G37*
G36*
X290353Y129002D02*
X284447D01*
X283472Y128808D01*
X282645Y128255D01*
X282092Y127428D01*
X281898Y126453D01*
Y120547D01*
X282092Y119572D01*
X282645Y118745D01*
X283472Y118192D01*
X284447Y117998D01*
X290353D01*
X291328Y118192D01*
X292155Y118745D01*
X292708Y119572D01*
X292902Y120547D01*
Y126453D01*
X292708Y127428D01*
X292155Y128255D01*
X291328Y128808D01*
X290353Y129002D01*
D02*
G37*
G36*
X96600Y42344D02*
X96242Y42272D01*
X95514Y41786D01*
X95028Y41058D01*
X94956Y40700D01*
X96600D01*
Y42344D01*
D02*
G37*
G36*
X97600D02*
Y40700D01*
X99244D01*
X99172Y41058D01*
X98686Y41786D01*
X97958Y42272D01*
X97600Y42344D01*
D02*
G37*
G36*
X55200Y147800D02*
X53556D01*
X53628Y147442D01*
X54114Y146714D01*
X54842Y146228D01*
X55200Y146156D01*
Y147800D01*
D02*
G37*
G36*
X96600Y39700D02*
X94956D01*
X95028Y39342D01*
X95514Y38614D01*
X96242Y38128D01*
X96600Y38056D01*
Y39700D01*
D02*
G37*
G36*
X99244D02*
X97600D01*
Y38056D01*
X97958Y38128D01*
X98686Y38614D01*
X99172Y39342D01*
X99244Y39700D01*
D02*
G37*
G36*
X20655Y23786D02*
X20111Y23714D01*
X19138Y23311D01*
X18302Y22670D01*
X17661Y21834D01*
X17258Y20861D01*
X17186Y20317D01*
X20655D01*
Y23786D01*
D02*
G37*
G36*
X46639D02*
X46095Y23714D01*
X45122Y23311D01*
X44286Y22670D01*
X43645Y21834D01*
X43242Y20861D01*
X43170Y20317D01*
X46639D01*
Y23786D01*
D02*
G37*
G36*
X181500Y214621D02*
Y211200D01*
X184921D01*
X184851Y211732D01*
X184453Y212693D01*
X183819Y213519D01*
X182993Y214153D01*
X182032Y214551D01*
X181500Y214621D01*
D02*
G37*
G36*
X91400Y227800D02*
X88436D01*
X88490Y227386D01*
X88843Y226535D01*
X89404Y225804D01*
X90135Y225243D01*
X90986Y224890D01*
X91400Y224836D01*
Y227800D01*
D02*
G37*
G36*
X98100Y22114D02*
X97667Y22057D01*
X96797Y21697D01*
X96050Y21124D01*
X95477Y20377D01*
X95117Y19507D01*
X95060Y19074D01*
X98100D01*
Y22114D01*
D02*
G37*
G36*
X99100Y22114D02*
Y19074D01*
X102140D01*
X102083Y19507D01*
X101723Y20377D01*
X101150Y21124D01*
X100403Y21697D01*
X99533Y22057D01*
X99100Y22114D01*
D02*
G37*
G36*
X180500Y214621D02*
X179968Y214551D01*
X179007Y214153D01*
X178181Y213519D01*
X177547Y212693D01*
X177149Y211732D01*
X177079Y211200D01*
X180500D01*
Y214621D01*
D02*
G37*
G36*
X21655Y23786D02*
Y20317D01*
X25124D01*
X25052Y20861D01*
X24649Y21834D01*
X24008Y22670D01*
X23172Y23311D01*
X22199Y23714D01*
X21655Y23786D01*
D02*
G37*
G36*
X186353Y192802D02*
X180447D01*
X179472Y192608D01*
X178645Y192055D01*
X178092Y191228D01*
X177898Y190253D01*
Y184347D01*
X178092Y183372D01*
X178645Y182545D01*
X179472Y181992D01*
X179740Y181939D01*
X179854Y181452D01*
X179511Y181189D01*
X178637Y180050D01*
X178088Y178724D01*
X177900Y177300D01*
X178088Y175876D01*
X178637Y174550D01*
X179511Y173411D01*
X180650Y172537D01*
X181976Y171988D01*
X183400Y171800D01*
X184824Y171988D01*
X186150Y172537D01*
X187289Y173411D01*
X188163Y174550D01*
X188712Y175876D01*
X188900Y177300D01*
X188712Y178724D01*
X188163Y180050D01*
X187289Y181189D01*
X186946Y181452D01*
X187060Y181939D01*
X187328Y181992D01*
X188155Y182545D01*
X188708Y183372D01*
X188902Y184347D01*
Y190253D01*
X188708Y191228D01*
X188155Y192055D01*
X187328Y192608D01*
X186353Y192802D01*
D02*
G37*
G36*
X272753Y174602D02*
X266847D01*
X265872Y174408D01*
X265045Y173855D01*
X264492Y173028D01*
X264298Y172053D01*
Y166147D01*
X264492Y165172D01*
X265045Y164345D01*
X265872Y163792D01*
X266847Y163598D01*
X272753D01*
X273728Y163792D01*
X274555Y164345D01*
X275108Y165172D01*
X275302Y166147D01*
Y172053D01*
X275108Y173028D01*
X274555Y173855D01*
X273728Y174408D01*
X272753Y174602D01*
D02*
G37*
G36*
X184921Y210200D02*
X181500D01*
Y206779D01*
X182032Y206849D01*
X182993Y207247D01*
X183819Y207881D01*
X184453Y208707D01*
X184851Y209668D01*
X184921Y210200D01*
D02*
G37*
G36*
X180500D02*
X177079D01*
X177149Y209668D01*
X177547Y208707D01*
X178181Y207881D01*
X179007Y207247D01*
X179968Y206849D01*
X180500Y206779D01*
Y210200D01*
D02*
G37*
G36*
X47639Y23786D02*
Y20317D01*
X51108D01*
X51036Y20861D01*
X50633Y21834D01*
X49992Y22670D01*
X49156Y23311D01*
X48183Y23714D01*
X47639Y23786D01*
D02*
G37*
G36*
X59700Y100444D02*
Y98800D01*
X61344D01*
X61272Y99158D01*
X60786Y99886D01*
X60058Y100372D01*
X59700Y100444D01*
D02*
G37*
G36*
X289100Y68944D02*
X288742Y68872D01*
X288014Y68386D01*
X287528Y67658D01*
X287408Y67057D01*
X287405Y67041D01*
X286895D01*
X286892Y67057D01*
X286772Y67658D01*
X286286Y68386D01*
X285558Y68872D01*
X285200Y68944D01*
Y66800D01*
Y64656D01*
X285558Y64728D01*
X286286Y65214D01*
X286772Y65942D01*
X286892Y66543D01*
X286895Y66559D01*
X287405D01*
X287408Y66543D01*
X287528Y65942D01*
X288014Y65214D01*
X288742Y64728D01*
X289100Y64656D01*
Y66800D01*
Y68944D01*
D02*
G37*
G36*
X279500Y66600D02*
X277856D01*
X277928Y66242D01*
X278414Y65514D01*
X279142Y65028D01*
X279500Y64956D01*
Y66600D01*
D02*
G37*
G36*
X291744Y66300D02*
X290100D01*
Y64656D01*
X290458Y64728D01*
X291186Y65214D01*
X291672Y65942D01*
X291744Y66300D01*
D02*
G37*
G36*
X291844Y71300D02*
X290200D01*
Y69656D01*
X290558Y69728D01*
X291286Y70214D01*
X291772Y70942D01*
X291844Y71300D01*
D02*
G37*
G36*
X289200D02*
X287556D01*
X287628Y70942D01*
X288114Y70214D01*
X288842Y69728D01*
X289200Y69656D01*
Y71300D01*
D02*
G37*
G36*
X290100Y68944D02*
Y67300D01*
X291744D01*
X291672Y67658D01*
X291186Y68386D01*
X290458Y68872D01*
X290100Y68944D01*
D02*
G37*
G36*
X44700Y58444D02*
Y56800D01*
X46344D01*
X46272Y57158D01*
X45786Y57886D01*
X45058Y58372D01*
X44700Y58444D01*
D02*
G37*
G36*
X197300Y48844D02*
X196942Y48772D01*
X196214Y48286D01*
X195728Y47558D01*
X195656Y47200D01*
X197300D01*
Y48844D01*
D02*
G37*
G36*
X199944Y46200D02*
X198300D01*
Y44556D01*
X198658Y44628D01*
X199386Y45114D01*
X199872Y45842D01*
X199944Y46200D01*
D02*
G37*
G36*
X197300D02*
X195656D01*
X195728Y45842D01*
X196214Y45114D01*
X196942Y44628D01*
X197300Y44556D01*
Y46200D01*
D02*
G37*
G36*
X43700Y58444D02*
X43342Y58372D01*
X42614Y57886D01*
X42128Y57158D01*
X42056Y56800D01*
X43700D01*
Y58444D01*
D02*
G37*
G36*
X142900Y52000D02*
X141256D01*
X141328Y51642D01*
X141814Y50914D01*
X142542Y50428D01*
X142900Y50356D01*
Y52000D01*
D02*
G37*
G36*
X198300Y48844D02*
Y47200D01*
X199944D01*
X199872Y47558D01*
X199386Y48286D01*
X198658Y48772D01*
X198300Y48844D01*
D02*
G37*
G36*
X290400Y78744D02*
Y77100D01*
X292044D01*
X291972Y77458D01*
X291486Y78186D01*
X290758Y78672D01*
X290400Y78744D01*
D02*
G37*
G36*
X289400D02*
X289042Y78672D01*
X288314Y78186D01*
X287828Y77458D01*
X287756Y77100D01*
X289400D01*
Y78744D01*
D02*
G37*
G36*
X285400D02*
Y77100D01*
X287044D01*
X286972Y77458D01*
X286486Y78186D01*
X285758Y78672D01*
X285400Y78744D01*
D02*
G37*
G36*
X58700Y100444D02*
X58342Y100372D01*
X57614Y99886D01*
X57128Y99158D01*
X57056Y98800D01*
X58700D01*
Y100444D01*
D02*
G37*
G36*
X61344Y97800D02*
X59700D01*
Y96156D01*
X60058Y96228D01*
X60786Y96714D01*
X61272Y97442D01*
X61344Y97800D01*
D02*
G37*
G36*
X58700D02*
X57056D01*
X57128Y97442D01*
X57614Y96714D01*
X58342Y96228D01*
X58700Y96156D01*
Y97800D01*
D02*
G37*
G36*
X284400Y78744D02*
X284042Y78672D01*
X283314Y78186D01*
X282828Y77458D01*
X282756Y77100D01*
X284400D01*
Y78744D01*
D02*
G37*
G36*
X292044Y76100D02*
X287756D01*
X287828Y75742D01*
X288314Y75014D01*
X289042Y74528D01*
X289307Y74475D01*
Y73965D01*
X288842Y73872D01*
X288114Y73386D01*
X287628Y72658D01*
X287556Y72300D01*
X291844D01*
X291772Y72658D01*
X291286Y73386D01*
X290558Y73872D01*
X290293Y73925D01*
Y74435D01*
X290758Y74528D01*
X291486Y75014D01*
X291972Y75742D01*
X292044Y76100D01*
D02*
G37*
G36*
X244400Y82832D02*
X243434Y82705D01*
X242534Y82332D01*
X241761Y81739D01*
X241168Y80966D01*
X240795Y80066D01*
X240668Y79100D01*
X240795Y78134D01*
X241168Y77234D01*
X241374Y76965D01*
Y76853D01*
X235485Y70964D01*
X235266Y71132D01*
X234366Y71505D01*
X233400Y71632D01*
X232434Y71505D01*
X231534Y71132D01*
X230761Y70539D01*
X230168Y69766D01*
X229795Y68866D01*
X229668Y67900D01*
X229795Y66934D01*
X230168Y66034D01*
X230761Y65261D01*
X231534Y64668D01*
X232434Y64295D01*
X233400Y64168D01*
X234366Y64295D01*
X235266Y64668D01*
X235535Y64874D01*
X236700D01*
X237483Y64977D01*
X238213Y65280D01*
X238840Y65760D01*
X246540Y73460D01*
X246540Y73460D01*
X247021Y74087D01*
X247323Y74817D01*
X247426Y75600D01*
Y76965D01*
X247632Y77234D01*
X248005Y78134D01*
X248132Y79100D01*
X248005Y80066D01*
X247632Y80966D01*
X247039Y81739D01*
X246266Y82332D01*
X245366Y82705D01*
X244400Y82832D01*
D02*
G37*
G36*
X286702Y71435D02*
X285058D01*
Y69791D01*
X285417Y69862D01*
X286144Y70349D01*
X286631Y71076D01*
X286702Y71435D01*
D02*
G37*
G36*
X280300Y78644D02*
Y77000D01*
X281944D01*
X281872Y77358D01*
X281386Y78086D01*
X280658Y78572D01*
X280300Y78644D01*
D02*
G37*
G36*
X279300D02*
X278942Y78572D01*
X278214Y78086D01*
X277728Y77358D01*
X277656Y77000D01*
X279300D01*
Y78644D01*
D02*
G37*
G36*
X287044Y76100D02*
X282756D01*
X282828Y75742D01*
X283314Y75014D01*
X283976Y74572D01*
X283986Y74305D01*
X283923Y74051D01*
X283700Y74007D01*
X282972Y73521D01*
X282694Y73105D01*
X282100Y73116D01*
X281786Y73586D01*
X281058Y74072D01*
X281034Y74077D01*
X280928Y74608D01*
X281386Y74914D01*
X281872Y75642D01*
X281944Y76000D01*
X277656D01*
X277728Y75642D01*
X278214Y74914D01*
X278942Y74428D01*
X278966Y74423D01*
X279072Y73892D01*
X278614Y73586D01*
X278128Y72858D01*
X278056Y72500D01*
X280200D01*
Y71500D01*
X278056D01*
X278128Y71142D01*
X278614Y70414D01*
X279342Y69928D01*
X279858Y69825D01*
X279859Y69825D01*
Y69315D01*
X279841Y69311D01*
X279142Y69172D01*
X278414Y68686D01*
X277928Y67958D01*
X277856Y67600D01*
X280000D01*
Y67100D01*
X280500D01*
Y64956D01*
X280858Y65028D01*
X281586Y65514D01*
X282061Y66225D01*
X282136Y66237D01*
X282575Y66206D01*
X282628Y65942D01*
X283114Y65214D01*
X283842Y64728D01*
X284200Y64656D01*
Y66800D01*
Y68944D01*
X283842Y68872D01*
X283114Y68386D01*
X282639Y67675D01*
X282564Y67663D01*
X282125Y67694D01*
X282072Y67958D01*
X281586Y68686D01*
X280858Y69172D01*
X280342Y69275D01*
X280341Y69275D01*
Y69785D01*
X280359Y69788D01*
X281058Y69928D01*
X281786Y70414D01*
X282064Y70830D01*
X282658Y70819D01*
X282972Y70349D01*
X283700Y69862D01*
X284058Y69791D01*
Y71935D01*
X284558D01*
Y72435D01*
X286702D01*
X286631Y72793D01*
X286144Y73521D01*
X285483Y73963D01*
X285472Y74229D01*
X285535Y74483D01*
X285758Y74528D01*
X286486Y75014D01*
X286972Y75742D01*
X287044Y76100D01*
D02*
G37*
G36*
X95364Y227800D02*
X92400D01*
Y224836D01*
X92814Y224890D01*
X93665Y225243D01*
X94396Y225804D01*
X94957Y226535D01*
X95310Y227386D01*
X95364Y227800D01*
D02*
G37*
G36*
X60753Y324202D02*
X54847D01*
X53872Y324008D01*
X53045Y323455D01*
X52492Y322628D01*
X52298Y321653D01*
Y315747D01*
X52492Y314772D01*
X53045Y313945D01*
X53872Y313392D01*
X54847Y313198D01*
X60753D01*
X61728Y313392D01*
X62555Y313945D01*
X63108Y314772D01*
X63302Y315747D01*
Y321653D01*
X63108Y322628D01*
X62555Y323455D01*
X61728Y324008D01*
X60753Y324202D01*
D02*
G37*
G36*
X47200Y306744D02*
Y305100D01*
X48844D01*
X48772Y305458D01*
X48286Y306186D01*
X47558Y306672D01*
X47200Y306744D01*
D02*
G37*
G36*
X46200D02*
X45842Y306672D01*
X45114Y306186D01*
X44628Y305458D01*
X44556Y305100D01*
X46200D01*
Y306744D01*
D02*
G37*
G36*
X85700Y326544D02*
X85342Y326472D01*
X84614Y325986D01*
X84128Y325258D01*
X84056Y324900D01*
X85700D01*
Y326544D01*
D02*
G37*
G36*
X88344Y323900D02*
X86700D01*
Y322256D01*
X87058Y322328D01*
X87786Y322814D01*
X88272Y323542D01*
X88344Y323900D01*
D02*
G37*
G36*
X85700D02*
X84056D01*
X84128Y323542D01*
X84614Y322814D01*
X85342Y322328D01*
X85700Y322256D01*
Y323900D01*
D02*
G37*
G36*
X48844Y304100D02*
X47200D01*
Y302456D01*
X47558Y302528D01*
X48286Y303014D01*
X48772Y303742D01*
X48844Y304100D01*
D02*
G37*
G36*
X65065Y292389D02*
X64791Y292335D01*
X64135Y291896D01*
X63696Y291240D01*
X63655Y291032D01*
X63145D01*
X63104Y291240D01*
X62665Y291896D01*
X62009Y292335D01*
X61735Y292389D01*
Y290465D01*
X61235D01*
Y289965D01*
X59311D01*
X59365Y289691D01*
X59804Y289035D01*
X60460Y288596D01*
X60668Y288555D01*
Y288045D01*
X60460Y288004D01*
X59804Y287565D01*
X59365Y286909D01*
X59311Y286635D01*
X61235D01*
Y286135D01*
X61735D01*
Y284211D01*
X62009Y284265D01*
X62665Y284704D01*
X63104Y285360D01*
X63145Y285568D01*
X63655D01*
X63696Y285360D01*
X64135Y284704D01*
X64791Y284265D01*
X65065Y284211D01*
Y286135D01*
X65565D01*
Y286635D01*
X67489D01*
X67435Y286909D01*
X66996Y287565D01*
X66340Y288004D01*
X66132Y288045D01*
Y288555D01*
X66340Y288596D01*
X66996Y289035D01*
X67435Y289691D01*
X67489Y289965D01*
X65565D01*
Y290465D01*
X65065D01*
Y292389D01*
D02*
G37*
G36*
X66065D02*
Y290965D01*
X67489D01*
X67435Y291240D01*
X66996Y291896D01*
X66340Y292335D01*
X66065Y292389D01*
D02*
G37*
G36*
X60735D02*
X60460Y292335D01*
X59804Y291896D01*
X59365Y291240D01*
X59311Y290965D01*
X60735D01*
Y292389D01*
D02*
G37*
G36*
X46200Y304100D02*
X44556D01*
X44628Y303742D01*
X45114Y303014D01*
X45842Y302528D01*
X46200Y302456D01*
Y304100D01*
D02*
G37*
G36*
X27153Y304102D02*
X21247D01*
X20272Y303908D01*
X19445Y303355D01*
X18892Y302528D01*
X18698Y301553D01*
Y295647D01*
X18892Y294672D01*
X19445Y293845D01*
X20272Y293292D01*
X21247Y293098D01*
X27153D01*
X28128Y293292D01*
X28955Y293845D01*
X29508Y294672D01*
X29702Y295647D01*
Y301553D01*
X29508Y302528D01*
X28955Y303355D01*
X28128Y303908D01*
X27153Y304102D01*
D02*
G37*
G36*
X163953Y302602D02*
X158047D01*
X157072Y302408D01*
X156245Y301855D01*
X155692Y301028D01*
X155498Y300053D01*
Y294147D01*
X155692Y293172D01*
X156245Y292345D01*
X157072Y291792D01*
X158047Y291598D01*
X163953D01*
X164928Y291792D01*
X165755Y292345D01*
X166308Y293172D01*
X166502Y294147D01*
Y300053D01*
X166308Y301028D01*
X165755Y301855D01*
X164928Y302408D01*
X163953Y302602D01*
D02*
G37*
G36*
X86700Y326544D02*
Y324900D01*
X88344D01*
X88272Y325258D01*
X87786Y325986D01*
X87058Y326472D01*
X86700Y326544D01*
D02*
G37*
G36*
X104300Y359944D02*
X103942Y359872D01*
X103214Y359386D01*
X102728Y358658D01*
X102656Y358300D01*
X104300D01*
Y359944D01*
D02*
G37*
G36*
X106944Y357300D02*
X105300D01*
Y355656D01*
X105658Y355728D01*
X106386Y356214D01*
X106872Y356942D01*
X106944Y357300D01*
D02*
G37*
G36*
X104300D02*
X102656D01*
X102728Y356942D01*
X103214Y356214D01*
X103942Y355728D01*
X104300Y355656D01*
Y357300D01*
D02*
G37*
G36*
X123744Y379400D02*
X122100D01*
Y377756D01*
X122458Y377828D01*
X123186Y378314D01*
X123672Y379042D01*
X123744Y379400D01*
D02*
G37*
G36*
X121100D02*
X119456D01*
X119528Y379042D01*
X120014Y378314D01*
X120742Y377828D01*
X121100Y377756D01*
Y379400D01*
D02*
G37*
G36*
X105300Y359944D02*
Y358300D01*
X106944D01*
X106872Y358658D01*
X106386Y359386D01*
X105658Y359872D01*
X105300Y359944D01*
D02*
G37*
G36*
X72700Y351844D02*
Y350200D01*
X74344D01*
X74272Y350558D01*
X73786Y351286D01*
X73058Y351772D01*
X72700Y351844D01*
D02*
G37*
G36*
X146823Y377830D02*
X143132D01*
X142218Y377710D01*
X141367Y377357D01*
X140636Y376796D01*
X140485Y376600D01*
X138104Y374219D01*
X137543Y373488D01*
X137190Y372636D01*
X137070Y371723D01*
Y368077D01*
X137190Y367164D01*
X137543Y366312D01*
X138104Y365581D01*
X139170Y364515D01*
Y342015D01*
X127879Y330725D01*
X127009Y330610D01*
X126978Y330626D01*
X126872Y331158D01*
X126386Y331886D01*
X125658Y332372D01*
X125300Y332444D01*
Y330300D01*
X124300D01*
Y332444D01*
X123942Y332372D01*
X123214Y331886D01*
X122728Y331158D01*
X122622Y330626D01*
X122591Y330610D01*
X121677Y330730D01*
X110900D01*
X109986Y330610D01*
X109135Y330257D01*
X108404Y329696D01*
X106704Y327996D01*
X106143Y327265D01*
X105817Y327166D01*
X105658Y327272D01*
X105300Y327344D01*
Y325200D01*
X104800D01*
Y324700D01*
X102656D01*
X102728Y324342D01*
X102834Y324183D01*
X102735Y323857D01*
X102004Y323296D01*
X79764Y301056D01*
X79302Y301248D01*
Y306453D01*
X79108Y307428D01*
X78555Y308255D01*
X77728Y308808D01*
X76753Y309002D01*
X70847D01*
X69872Y308808D01*
X69045Y308255D01*
X68492Y307428D01*
X68298Y306453D01*
Y300547D01*
X68492Y299572D01*
X69045Y298745D01*
X69872Y298192D01*
X70847Y297998D01*
X76753D01*
X77162Y298080D01*
X77527Y297738D01*
X77470Y297300D01*
Y291046D01*
X77395Y290866D01*
X77268Y289900D01*
X77395Y288934D01*
X77470Y288754D01*
Y286700D01*
X77590Y285786D01*
X77943Y284935D01*
X78504Y284204D01*
X84093Y278614D01*
X84168Y278434D01*
X84761Y277661D01*
X85534Y277068D01*
X86434Y276695D01*
X87400Y276568D01*
X88366Y276695D01*
X89266Y277068D01*
X90039Y277661D01*
X90632Y278434D01*
X91005Y279334D01*
X91132Y280300D01*
X91005Y281266D01*
X90632Y282166D01*
X90039Y282939D01*
X89266Y283532D01*
X89086Y283607D01*
X84530Y288162D01*
Y288754D01*
X84605Y288934D01*
X84732Y289900D01*
X84605Y290866D01*
X84530Y291046D01*
Y295838D01*
X96412Y307720D01*
X96874Y307528D01*
Y203501D01*
X96753Y203402D01*
X90847D01*
X89872Y203208D01*
X89045Y202655D01*
X88492Y201828D01*
X88298Y200853D01*
Y194947D01*
X88492Y193972D01*
X89045Y193145D01*
X89872Y192592D01*
X90847Y192398D01*
X96753D01*
X96874Y192299D01*
Y136472D01*
X96412Y136280D01*
X84805Y147888D01*
X84950Y148366D01*
X85258Y148428D01*
X85986Y148914D01*
X86472Y149642D01*
X86544Y150000D01*
X84400D01*
Y150500D01*
X83900D01*
Y152644D01*
X83542Y152572D01*
X82814Y152086D01*
X82328Y151358D01*
X82289Y151163D01*
X82168Y151056D01*
X81738Y150955D01*
X67577Y165115D01*
Y201198D01*
X71953D01*
X72928Y201392D01*
X73755Y201945D01*
X74308Y202772D01*
X74502Y203747D01*
Y209653D01*
X74308Y210628D01*
X73755Y211455D01*
X72928Y212008D01*
X71953Y212202D01*
X70139D01*
X69810Y212578D01*
X69830Y212734D01*
Y238798D01*
X75153D01*
X76128Y238992D01*
X76955Y239545D01*
X77508Y240372D01*
X77702Y241347D01*
Y247253D01*
X77508Y248228D01*
X76955Y249055D01*
X76128Y249608D01*
X75153Y249802D01*
X69830D01*
Y256891D01*
X70330Y257301D01*
X70847Y257198D01*
X76753D01*
X77728Y257392D01*
X78555Y257945D01*
X79108Y258772D01*
X79302Y259747D01*
Y265653D01*
X79108Y266628D01*
X78555Y267455D01*
X77728Y268008D01*
X76753Y268202D01*
X70847D01*
X70330Y268099D01*
X69830Y268509D01*
Y268554D01*
X69905Y268734D01*
X70032Y269700D01*
X69905Y270666D01*
X69532Y271566D01*
X68939Y272339D01*
X68166Y272932D01*
X67266Y273305D01*
X66300Y273432D01*
X65334Y273305D01*
X64434Y272932D01*
X63661Y272339D01*
X63068Y271566D01*
X62695Y270666D01*
X62568Y269700D01*
X62695Y268734D01*
X62770Y268554D01*
Y214196D01*
X61551Y212977D01*
X60990Y212246D01*
X60637Y211395D01*
X60517Y210481D01*
Y168202D01*
X55647D01*
X54672Y168008D01*
X53845Y167455D01*
X53292Y166628D01*
X53098Y165653D01*
Y159747D01*
X53292Y158772D01*
X53845Y157945D01*
X54672Y157392D01*
X55647Y157198D01*
X61553D01*
X62528Y157392D01*
X63355Y157945D01*
X63636Y158365D01*
X64279Y158428D01*
X76894Y145814D01*
X76968Y145634D01*
X77561Y144861D01*
X78334Y144268D01*
X78514Y144193D01*
X91470Y131238D01*
Y117985D01*
X87904Y114419D01*
X87343Y113688D01*
X86990Y112836D01*
X86870Y111923D01*
Y102200D01*
X86990Y101286D01*
X87343Y100435D01*
X87904Y99704D01*
X89557Y98050D01*
X46828Y55321D01*
X46302Y55450D01*
X46280Y55479D01*
X46344Y55800D01*
X42056D01*
X42128Y55442D01*
X42584Y54759D01*
X42602Y54654D01*
X42505Y54185D01*
X42134Y54032D01*
X41361Y53439D01*
X40768Y52666D01*
X40395Y51766D01*
X40377Y51626D01*
X38753D01*
X33449Y56930D01*
X33405Y57266D01*
X33032Y58166D01*
X32439Y58939D01*
X31666Y59532D01*
X30766Y59905D01*
X29800Y60032D01*
X28834Y59905D01*
X27934Y59532D01*
X27161Y58939D01*
X26568Y58166D01*
X26195Y57266D01*
X26068Y56300D01*
X26195Y55334D01*
X26568Y54434D01*
X27161Y53661D01*
X27934Y53068D01*
X28834Y52695D01*
X29170Y52651D01*
X35360Y46460D01*
X35360Y46460D01*
X35987Y45979D01*
X36717Y45677D01*
X37500Y45574D01*
X39714D01*
X40328Y44960D01*
X40955Y44480D01*
X41684Y44177D01*
X42467Y44074D01*
X45533D01*
X46316Y44177D01*
X47045Y44480D01*
X47672Y44960D01*
X48186Y45474D01*
X48253D01*
X49012Y45574D01*
X61247D01*
X67651Y39170D01*
X67695Y38834D01*
X68068Y37934D01*
X68661Y37161D01*
X69434Y36568D01*
X70334Y36195D01*
X71300Y36068D01*
X72266Y36195D01*
X73166Y36568D01*
X73939Y37161D01*
X74532Y37934D01*
X74905Y38834D01*
X75032Y39800D01*
X74905Y40766D01*
X74532Y41666D01*
X73939Y42439D01*
X73166Y43032D01*
X72266Y43405D01*
X71930Y43449D01*
X64640Y50740D01*
X64013Y51221D01*
X63283Y51523D01*
X62500Y51626D01*
X53772D01*
X53580Y52088D01*
X94550Y93058D01*
X133204Y54404D01*
X133935Y53843D01*
X134786Y53490D01*
X135700Y53370D01*
X140820D01*
X141124Y53000D01*
X143400D01*
Y52500D01*
X143900D01*
Y50356D01*
X144258Y50428D01*
X144986Y50914D01*
X145196Y51227D01*
X145839Y51291D01*
X148626Y48504D01*
X149357Y47943D01*
X150209Y47590D01*
X151122Y47470D01*
X187960D01*
X188874Y47590D01*
X189725Y47943D01*
X190456Y48504D01*
X211622Y69670D01*
X214682D01*
X215596Y69790D01*
X216447Y70143D01*
X217179Y70704D01*
X239296Y92822D01*
X239857Y93553D01*
X240210Y94404D01*
X240330Y95318D01*
Y105638D01*
X252262Y117570D01*
X257554D01*
X257734Y117495D01*
X258700Y117368D01*
X259666Y117495D01*
X259846Y117570D01*
X260738D01*
X262304Y116004D01*
X263035Y115443D01*
X263886Y115090D01*
X264800Y114970D01*
X265714Y115090D01*
X266565Y115443D01*
X267296Y116004D01*
X291496Y140204D01*
X292057Y140935D01*
X292410Y141786D01*
X292530Y142700D01*
Y151313D01*
X292928Y151392D01*
X293755Y151945D01*
X294308Y152772D01*
X294502Y153747D01*
Y159653D01*
X294308Y160628D01*
X293755Y161455D01*
X292928Y162008D01*
X291953Y162202D01*
X286047D01*
X285072Y162008D01*
X284245Y161455D01*
X283692Y160628D01*
X283498Y159653D01*
Y156191D01*
X276238Y148930D01*
X253980D01*
X253676Y149300D01*
X249124D01*
X248820Y148930D01*
X207326D01*
X206460Y149796D01*
X205729Y150357D01*
X204877Y150710D01*
X203963Y150830D01*
X200319D01*
X199405Y150710D01*
X198553Y150357D01*
X197822Y149796D01*
X195956Y147930D01*
X185446D01*
X185266Y148005D01*
X184300Y148132D01*
X183334Y148005D01*
X183154Y147930D01*
X153500D01*
X152586Y147810D01*
X151735Y147457D01*
X151004Y146896D01*
X144038Y139930D01*
X142900D01*
X142230Y139842D01*
X141730Y140196D01*
Y198726D01*
X141610Y199639D01*
X141257Y200491D01*
X140696Y201222D01*
X135843Y206076D01*
X136308Y206772D01*
X136361Y207040D01*
X136848Y207154D01*
X137111Y206811D01*
X138250Y205937D01*
X139576Y205388D01*
X141000Y205200D01*
X142423Y205388D01*
X143750Y205937D01*
X144889Y206811D01*
X145719Y207893D01*
X146000Y207924D01*
X146281Y207893D01*
X147111Y206811D01*
X148250Y205937D01*
X149576Y205388D01*
X151000Y205200D01*
X152424Y205388D01*
X153750Y205937D01*
X154889Y206811D01*
X155719Y207893D01*
X156000Y207924D01*
X156281Y207893D01*
X157111Y206811D01*
X158250Y205937D01*
X159576Y205388D01*
X161000Y205200D01*
X162424Y205388D01*
X163750Y205937D01*
X164889Y206811D01*
X165719Y207893D01*
X166000Y207924D01*
X166281Y207893D01*
X167111Y206811D01*
X168250Y205937D01*
X169577Y205388D01*
X171000Y205200D01*
X172424Y205388D01*
X173750Y205937D01*
X174889Y206811D01*
X175763Y207950D01*
X176312Y209277D01*
X176500Y210700D01*
X176312Y212123D01*
X175763Y213450D01*
X174889Y214589D01*
X173750Y215463D01*
X172424Y216012D01*
X171000Y216200D01*
X169577Y216012D01*
X168250Y215463D01*
X167111Y214589D01*
X166281Y213507D01*
X166000Y213476D01*
X165719Y213507D01*
X164889Y214589D01*
X163750Y215463D01*
X162424Y216012D01*
X161000Y216200D01*
X159576Y216012D01*
X158250Y215463D01*
X157111Y214589D01*
X156281Y213507D01*
X156000Y213476D01*
X155719Y213507D01*
X154889Y214589D01*
X153750Y215463D01*
X152424Y216012D01*
X151000Y216200D01*
X149576Y216012D01*
X148250Y215463D01*
X147111Y214589D01*
X146281Y213507D01*
X146000Y213476D01*
X145719Y213507D01*
X144889Y214589D01*
X143750Y215463D01*
X142423Y216012D01*
X141000Y216200D01*
X139576Y216012D01*
X138250Y215463D01*
X137111Y214589D01*
X136848Y214246D01*
X136361Y214360D01*
X136308Y214628D01*
X135755Y215455D01*
X134928Y216008D01*
X133953Y216202D01*
X132242D01*
X132051Y216664D01*
X132296Y216909D01*
X132857Y217640D01*
X133210Y218492D01*
X133330Y219406D01*
Y279638D01*
X139110Y285417D01*
X139181D01*
X140095Y285537D01*
X140946Y285890D01*
X141677Y286451D01*
X151896Y296670D01*
X152457Y297401D01*
X152810Y298252D01*
X152930Y299166D01*
Y371723D01*
X152810Y372636D01*
X152457Y373488D01*
X151896Y374219D01*
X149319Y376796D01*
X148588Y377357D01*
X147736Y377710D01*
X146823Y377830D01*
D02*
G37*
G36*
X162353Y340202D02*
X156447D01*
X155472Y340008D01*
X154645Y339455D01*
X154092Y338628D01*
X153898Y337653D01*
Y331747D01*
X154092Y330772D01*
X154645Y329945D01*
X155472Y329392D01*
X156447Y329198D01*
X162353D01*
X163328Y329392D01*
X164155Y329945D01*
X164708Y330772D01*
X164902Y331747D01*
Y337653D01*
X164708Y338628D01*
X164155Y339455D01*
X163328Y340008D01*
X162353Y340202D01*
D02*
G37*
G36*
X104300Y327344D02*
X103942Y327272D01*
X103214Y326786D01*
X102728Y326058D01*
X102656Y325700D01*
X104300D01*
Y327344D01*
D02*
G37*
G36*
X71700Y351844D02*
X71342Y351772D01*
X70614Y351286D01*
X70128Y350558D01*
X70056Y350200D01*
X71700D01*
Y351844D01*
D02*
G37*
G36*
X74344Y349200D02*
X72700D01*
Y347556D01*
X73058Y347628D01*
X73786Y348114D01*
X74272Y348842D01*
X74344Y349200D01*
D02*
G37*
G36*
X71700D02*
X70056D01*
X70128Y348842D01*
X70614Y348114D01*
X71342Y347628D01*
X71700Y347556D01*
Y349200D01*
D02*
G37*
G36*
X25124Y19317D02*
X21655D01*
Y15848D01*
X22199Y15920D01*
X23172Y16323D01*
X24008Y16964D01*
X24649Y17800D01*
X25052Y18773D01*
X25124Y19317D01*
D02*
G37*
G36*
X202100Y18444D02*
X201742Y18372D01*
X201014Y17886D01*
X200528Y17158D01*
X200456Y16800D01*
X202100D01*
Y18444D01*
D02*
G37*
G36*
X203100D02*
Y16800D01*
X204744D01*
X204672Y17158D01*
X204186Y17886D01*
X203458Y18372D01*
X203100Y18444D01*
D02*
G37*
G36*
X46639Y19317D02*
X43170D01*
X43242Y18773D01*
X43645Y17800D01*
X44286Y16964D01*
X45122Y16323D01*
X46095Y15920D01*
X46639Y15848D01*
Y19317D01*
D02*
G37*
G36*
X153553Y269002D02*
X147647D01*
X146672Y268808D01*
X145845Y268255D01*
X145292Y267428D01*
X145098Y266453D01*
Y260547D01*
X145292Y259572D01*
X145845Y258745D01*
X146672Y258192D01*
X147647Y257998D01*
X153553D01*
X154528Y258192D01*
X155355Y258745D01*
X155908Y259572D01*
X156102Y260547D01*
Y266453D01*
X155908Y267428D01*
X155355Y268255D01*
X154528Y268808D01*
X153553Y269002D01*
D02*
G37*
G36*
X51108Y19317D02*
X47639D01*
Y15848D01*
X48183Y15920D01*
X49156Y16323D01*
X49992Y16964D01*
X50633Y17800D01*
X51036Y18773D01*
X51108Y19317D01*
D02*
G37*
G36*
X91800Y251564D02*
Y248600D01*
X94764D01*
X94710Y249014D01*
X94357Y249865D01*
X93796Y250596D01*
X93065Y251157D01*
X92214Y251510D01*
X91800Y251564D01*
D02*
G37*
G36*
X155953Y246602D02*
X150047D01*
X149072Y246408D01*
X148245Y245855D01*
X147692Y245028D01*
X147498Y244053D01*
Y238147D01*
X147692Y237172D01*
X148245Y236345D01*
X149072Y235792D01*
X150047Y235598D01*
X155953D01*
X156928Y235792D01*
X157755Y236345D01*
X158308Y237172D01*
X158502Y238147D01*
Y244053D01*
X158308Y245028D01*
X157755Y245855D01*
X156928Y246408D01*
X155953Y246602D01*
D02*
G37*
G36*
X92400Y231764D02*
Y228800D01*
X95364D01*
X95310Y229214D01*
X94957Y230065D01*
X94396Y230796D01*
X93665Y231357D01*
X92814Y231710D01*
X92400Y231764D01*
D02*
G37*
G36*
X91400D02*
X90986Y231710D01*
X90135Y231357D01*
X89404Y230796D01*
X88843Y230065D01*
X88490Y229214D01*
X88436Y228800D01*
X91400D01*
Y231764D01*
D02*
G37*
G36*
X90800Y251564D02*
X90386Y251510D01*
X89535Y251157D01*
X88804Y250596D01*
X88243Y249865D01*
X87890Y249014D01*
X87836Y248600D01*
X90800D01*
Y251564D01*
D02*
G37*
G36*
X94764Y247600D02*
X91800D01*
Y244636D01*
X92214Y244690D01*
X93065Y245043D01*
X93796Y245604D01*
X94357Y246335D01*
X94710Y247186D01*
X94764Y247600D01*
D02*
G37*
G36*
X90800D02*
X87836D01*
X87890Y247186D01*
X88243Y246335D01*
X88804Y245604D01*
X89535Y245043D01*
X90386Y244690D01*
X90800Y244636D01*
Y247600D01*
D02*
G37*
G36*
X20655Y19317D02*
X17186D01*
X17258Y18773D01*
X17661Y17800D01*
X18302Y16964D01*
X19138Y16323D01*
X20111Y15920D01*
X20655Y15848D01*
Y19317D01*
D02*
G37*
G36*
X47820Y14735D02*
X43398D01*
X43008Y14658D01*
X42678Y14436D01*
X42456Y14106D01*
X42379Y13715D01*
Y9294D01*
X47820D01*
Y14735D01*
D02*
G37*
G36*
X24895D02*
X20474D01*
Y9294D01*
X25915D01*
Y13715D01*
X25837Y14106D01*
X25616Y14436D01*
X25286Y14658D01*
X24895Y14735D01*
D02*
G37*
G36*
X53241D02*
X48820D01*
Y9294D01*
X54261D01*
Y13715D01*
X54184Y14106D01*
X53962Y14436D01*
X53632Y14658D01*
X53241Y14735D01*
D02*
G37*
G36*
X67489Y285635D02*
X66065D01*
Y284211D01*
X66340Y284265D01*
X66996Y284704D01*
X67435Y285360D01*
X67489Y285635D01*
D02*
G37*
G36*
X60735D02*
X59311D01*
X59365Y285360D01*
X59804Y284704D01*
X60460Y284265D01*
X60735Y284211D01*
Y285635D01*
D02*
G37*
G36*
X102140Y18074D02*
X98600D01*
X95060D01*
X95117Y17641D01*
X95477Y16771D01*
X95841Y16297D01*
X95634Y15746D01*
X95050Y15630D01*
X94223Y15077D01*
X93670Y14250D01*
X93476Y13275D01*
Y8125D01*
X93670Y7150D01*
X94223Y6323D01*
X95050Y5770D01*
X96025Y5576D01*
X101175D01*
X102150Y5770D01*
X102977Y6323D01*
X103530Y7150D01*
X103724Y8125D01*
Y13275D01*
X103530Y14250D01*
X102977Y15077D01*
X102150Y15630D01*
X101566Y15746D01*
X101359Y16297D01*
X101723Y16771D01*
X102083Y17641D01*
X102140Y18074D01*
D02*
G37*
G36*
X204744Y15800D02*
X203100D01*
Y14156D01*
X203458Y14228D01*
X204186Y14714D01*
X204672Y15442D01*
X204744Y15800D01*
D02*
G37*
G36*
X78500Y271800D02*
X76856D01*
X76928Y271442D01*
X77414Y270714D01*
X78142Y270228D01*
X78500Y270156D01*
Y271800D01*
D02*
G37*
G36*
X202100Y15800D02*
X200456D01*
X200528Y15442D01*
X201014Y14714D01*
X201742Y14228D01*
X202100Y14156D01*
Y15800D01*
D02*
G37*
G36*
X79500Y274444D02*
Y272800D01*
X81144D01*
X81072Y273158D01*
X80586Y273886D01*
X79858Y274372D01*
X79500Y274444D01*
D02*
G37*
G36*
X78500D02*
X78142Y274372D01*
X77414Y273886D01*
X76928Y273158D01*
X76856Y272800D01*
X78500D01*
Y274444D01*
D02*
G37*
G36*
X81144Y271800D02*
X79500D01*
Y270156D01*
X79858Y270228D01*
X80586Y270714D01*
X81072Y271442D01*
X81144Y271800D01*
D02*
G37*
%LPD*%
G36*
X113317Y299590D02*
Y295347D01*
X113437Y294434D01*
X113790Y293582D01*
X114351Y292851D01*
X126072Y281130D01*
X126068Y281100D01*
X126195Y280134D01*
X126270Y279954D01*
Y220868D01*
X123551Y218149D01*
X122990Y217418D01*
X122637Y216566D01*
X122517Y215653D01*
Y206919D01*
X122637Y206005D01*
X122990Y205154D01*
X123551Y204423D01*
X124750Y203224D01*
X124600Y202943D01*
Y200600D01*
Y198456D01*
X124770Y198490D01*
X125270Y198180D01*
Y135975D01*
X125115Y135819D01*
X124554Y135088D01*
X124201Y134237D01*
X124081Y133323D01*
Y129844D01*
X124201Y128930D01*
X124554Y128079D01*
X125115Y127348D01*
X125270Y127193D01*
Y118000D01*
X125390Y117086D01*
X125743Y116235D01*
X126304Y115504D01*
X179294Y62514D01*
X179368Y62334D01*
X179961Y61561D01*
X180734Y60968D01*
X181634Y60595D01*
X182600Y60468D01*
X183566Y60595D01*
X184466Y60968D01*
X185239Y61561D01*
X185832Y62334D01*
X186205Y63234D01*
X186332Y64200D01*
X186205Y65166D01*
X185832Y66066D01*
X185239Y66839D01*
X184466Y67432D01*
X184286Y67506D01*
X163056Y88736D01*
X163248Y89198D01*
X166353D01*
X167328Y89392D01*
X168155Y89945D01*
X168708Y90772D01*
X168902Y91747D01*
Y97653D01*
X168708Y98628D01*
X168155Y99455D01*
X167328Y100008D01*
X166353Y100202D01*
X160447D01*
X159472Y100008D01*
X158645Y99455D01*
X158092Y98628D01*
X157898Y97653D01*
Y94547D01*
X157436Y94356D01*
X132330Y119462D01*
Y127920D01*
X132777Y127979D01*
X133677Y128352D01*
X133706Y128374D01*
X137267D01*
X137661Y127861D01*
X138434Y127268D01*
X139334Y126895D01*
X140300Y126768D01*
X141266Y126895D01*
X142166Y127268D01*
X142939Y127861D01*
X143532Y128634D01*
X143905Y129534D01*
X144032Y130500D01*
X143905Y131466D01*
X143623Y132147D01*
X143696Y132204D01*
X144362Y132870D01*
X145500D01*
X146414Y132990D01*
X147265Y133343D01*
X147996Y133904D01*
X154962Y140870D01*
X183154D01*
X183334Y140795D01*
X183385Y140789D01*
X183533Y140265D01*
X183128Y139658D01*
X183056Y139300D01*
X187344D01*
X187272Y139658D01*
X186797Y140370D01*
X186841Y140599D01*
X186924Y140870D01*
X197418D01*
X198332Y140990D01*
X199184Y141343D01*
X199680Y141724D01*
X200269Y141677D01*
X200345Y141627D01*
X200555Y141314D01*
X201283Y140828D01*
X201641Y140756D01*
Y142900D01*
X202641D01*
Y140756D01*
X202999Y140828D01*
X203727Y141314D01*
X204213Y142042D01*
X204481Y142184D01*
X204950Y141990D01*
X205863Y141870D01*
X205864Y141870D01*
X277700D01*
X278614Y141990D01*
X279465Y142343D01*
X280196Y142904D01*
X285008Y147715D01*
X285470Y147524D01*
Y144162D01*
X264800Y123493D01*
X264696Y123596D01*
X263965Y124157D01*
X263114Y124510D01*
X262200Y124630D01*
X259846D01*
X259666Y124705D01*
X258700Y124832D01*
X257734Y124705D01*
X257554Y124630D01*
X250800D01*
X249886Y124510D01*
X249035Y124157D01*
X248304Y123596D01*
X234304Y109596D01*
X233743Y108865D01*
X233390Y108014D01*
X233270Y107100D01*
Y96780D01*
X220092Y83602D01*
X219630Y83794D01*
Y87999D01*
X219767Y88178D01*
X220271Y89395D01*
X220443Y90700D01*
X220271Y92005D01*
X219767Y93222D01*
X218966Y94266D01*
X217922Y95068D01*
X216705Y95571D01*
X215400Y95743D01*
X214095Y95571D01*
X212878Y95068D01*
X211834Y94266D01*
X211033Y93222D01*
X210529Y92005D01*
X210357Y90700D01*
X210529Y89395D01*
X211033Y88178D01*
X211834Y87134D01*
X212570Y86569D01*
Y82980D01*
X212200Y82676D01*
Y80400D01*
X211200D01*
Y82544D01*
X210842Y82472D01*
X210114Y81986D01*
X209628Y81258D01*
X209457Y80400D01*
X209043Y79917D01*
X208525Y79849D01*
X207674Y79496D01*
X206943Y78935D01*
X185338Y57330D01*
X173762D01*
X169237Y61855D01*
X169243Y61900D01*
X169071Y63205D01*
X168568Y64422D01*
X167766Y65466D01*
X166722Y66268D01*
X165505Y66771D01*
X164200Y66943D01*
X162895Y66771D01*
X161678Y66268D01*
X160634Y65466D01*
X159833Y64422D01*
X159329Y63205D01*
X159157Y61900D01*
X159329Y60595D01*
X159833Y59378D01*
X160634Y58334D01*
X161678Y57533D01*
X162895Y57029D01*
X164200Y56857D01*
X164245Y56863D01*
X166115Y54992D01*
X165924Y54530D01*
X152585D01*
X147719Y59396D01*
X146988Y59957D01*
X146136Y60310D01*
X145222Y60430D01*
X137162D01*
X99306Y98286D01*
X99232Y98466D01*
X99038Y98719D01*
X99320Y99173D01*
X99400Y99157D01*
X100258Y99328D01*
X100986Y99814D01*
X101472Y100542D01*
X101544Y100900D01*
X96886D01*
X96760Y100832D01*
X93930Y103662D01*
Y106103D01*
X94306Y106433D01*
X94800Y106368D01*
X95766Y106495D01*
X96666Y106868D01*
X96934Y107074D01*
X101362D01*
X102276Y106160D01*
X102276Y106160D01*
X102902Y105680D01*
X103632Y105377D01*
X104415Y105274D01*
X105199Y105377D01*
X105928Y105680D01*
X106555Y106160D01*
X110840Y110445D01*
X111320Y111072D01*
X111623Y111801D01*
X111726Y112585D01*
X111726Y112585D01*
Y300528D01*
X112188Y300720D01*
X113317Y299590D01*
D02*
G37*
%LPC*%
G36*
X117200Y266800D02*
X115556D01*
X115628Y266442D01*
X116114Y265714D01*
X116842Y265228D01*
X117200Y265156D01*
Y266800D01*
D02*
G37*
G36*
X119844D02*
X118200D01*
Y265156D01*
X118558Y265228D01*
X119286Y265714D01*
X119772Y266442D01*
X119844Y266800D01*
D02*
G37*
G36*
X117200Y256444D02*
Y254800D01*
X118844D01*
X118772Y255158D01*
X118286Y255886D01*
X117558Y256372D01*
X117200Y256444D01*
D02*
G37*
G36*
X118844Y253800D02*
X117200D01*
Y252156D01*
X117558Y252228D01*
X118286Y252714D01*
X118772Y253442D01*
X118844Y253800D01*
D02*
G37*
G36*
X116200Y256444D02*
X115842Y256372D01*
X115114Y255886D01*
X114628Y255158D01*
X114556Y254800D01*
X116200D01*
Y256444D01*
D02*
G37*
G36*
X117200Y269444D02*
X116842Y269372D01*
X116114Y268886D01*
X115628Y268158D01*
X115556Y267800D01*
X117200D01*
Y269444D01*
D02*
G37*
G36*
X118900Y278344D02*
X118542Y278272D01*
X117814Y277786D01*
X117328Y277058D01*
X117256Y276700D01*
X118900D01*
Y278344D01*
D02*
G37*
G36*
X119900D02*
Y276700D01*
X121544D01*
X121472Y277058D01*
X120986Y277786D01*
X120258Y278272D01*
X119900Y278344D01*
D02*
G37*
G36*
X121544Y275700D02*
X119900D01*
Y274056D01*
X120258Y274128D01*
X120986Y274614D01*
X121472Y275342D01*
X121544Y275700D01*
D02*
G37*
G36*
X118200Y269444D02*
Y267800D01*
X119844D01*
X119772Y268158D01*
X119286Y268886D01*
X118558Y269372D01*
X118200Y269444D01*
D02*
G37*
G36*
X118900Y275700D02*
X117256D01*
X117328Y275342D01*
X117814Y274614D01*
X118542Y274128D01*
X118900Y274056D01*
Y275700D01*
D02*
G37*
G36*
X187344Y138300D02*
X185700D01*
Y136656D01*
X186058Y136728D01*
X186786Y137214D01*
X187272Y137942D01*
X187344Y138300D01*
D02*
G37*
G36*
X123600Y200100D02*
X121956D01*
X122028Y199742D01*
X122514Y199014D01*
X123242Y198528D01*
X123600Y198456D01*
Y200100D01*
D02*
G37*
G36*
X184700Y138300D02*
X183056D01*
X183128Y137942D01*
X183614Y137214D01*
X184342Y136728D01*
X184700Y136656D01*
Y138300D01*
D02*
G37*
G36*
X98900Y103544D02*
X98542Y103472D01*
X97814Y102986D01*
X97328Y102258D01*
X97256Y101900D01*
X98900D01*
Y103544D01*
D02*
G37*
G36*
X99900D02*
Y101900D01*
X101544D01*
X101472Y102258D01*
X100986Y102986D01*
X100258Y103472D01*
X99900Y103544D01*
D02*
G37*
G36*
X123600Y202744D02*
X123242Y202672D01*
X122514Y202186D01*
X122028Y201458D01*
X121956Y201100D01*
X123600D01*
Y202744D01*
D02*
G37*
G36*
X117500Y225164D02*
Y222200D01*
X120464D01*
X120410Y222614D01*
X120057Y223465D01*
X119496Y224196D01*
X118765Y224757D01*
X117914Y225110D01*
X117500Y225164D01*
D02*
G37*
G36*
X116200Y253800D02*
X114556D01*
X114628Y253442D01*
X115114Y252714D01*
X115842Y252228D01*
X116200Y252156D01*
Y253800D01*
D02*
G37*
G36*
X116500Y225164D02*
X116086Y225110D01*
X115235Y224757D01*
X114504Y224196D01*
X113943Y223465D01*
X113590Y222614D01*
X113536Y222200D01*
X116500D01*
Y225164D01*
D02*
G37*
G36*
Y221200D02*
X113536D01*
X113590Y220786D01*
X113943Y219935D01*
X114504Y219204D01*
X115235Y218643D01*
X116086Y218290D01*
X116500Y218236D01*
Y221200D01*
D02*
G37*
G36*
X120464D02*
X117500D01*
Y218236D01*
X117914Y218290D01*
X118765Y218643D01*
X119496Y219204D01*
X120057Y219935D01*
X120410Y220786D01*
X120464Y221200D01*
D02*
G37*
%LPD*%
D46*
X47139Y19817D02*
D03*
X21155D02*
D03*
D47*
X138160Y134700D02*
X141200D01*
X131000Y205926D02*
X138200Y198726D01*
X138160Y134700D02*
X138200Y134740D01*
Y135700D01*
Y198726D01*
X141200Y134700D02*
X142900Y136400D01*
X145500D02*
X153500Y144400D01*
X142900Y136400D02*
X145500D01*
X128800Y134512D02*
Y204166D01*
X127611Y133323D02*
X128800Y134512D01*
X127611Y129844D02*
Y133323D01*
Y129844D02*
X128800Y128655D01*
Y118000D02*
Y128655D01*
X126047Y206919D02*
X128800Y204166D01*
Y118000D02*
X182600Y64200D01*
X214682Y73200D02*
X236800Y95318D01*
X210160Y73200D02*
X214682D01*
X187960Y51000D02*
X210160Y73200D01*
X216100Y78578D02*
Y90000D01*
X209439Y76439D02*
X209877Y76000D01*
X213523D02*
X216100Y78578D01*
X209877Y76000D02*
X213523D01*
X151122Y51000D02*
X187960D01*
X145222Y56900D02*
X151122Y51000D01*
X135700Y56900D02*
X145222D01*
X96000Y96600D02*
X135700Y56900D01*
X289000Y142700D02*
Y156700D01*
X264800Y118500D02*
X289000Y142700D01*
X93100Y96600D02*
X96000D01*
X131000Y205926D02*
Y210700D01*
X64047Y163653D02*
X80200Y147500D01*
X64047Y163653D02*
Y210481D01*
X90400Y102200D02*
X96000Y96600D01*
X90400Y102200D02*
Y111923D01*
X95000Y116523D01*
Y132700D01*
X153500Y144400D02*
X184300D01*
X80200Y147500D02*
X95000Y132700D01*
X200319Y147300D02*
X203963D01*
X197418Y144400D02*
X200319Y147300D01*
X184300Y144400D02*
X197418D01*
X110900Y327200D02*
X121677D01*
X122977Y325900D01*
X126622D01*
X127922Y327200D01*
X129347D01*
X142700Y340553D01*
Y365978D01*
X140600Y368077D02*
X142700Y365978D01*
X140600Y368077D02*
Y371723D01*
X143132Y374254D01*
Y374300D01*
X146823D01*
X109200Y325500D02*
X110900Y327200D01*
X109200Y323377D02*
Y325500D01*
X106623Y320800D02*
X109200Y323377D01*
X129800Y219406D02*
Y281100D01*
X126047Y215653D02*
X129800Y219406D01*
X126047Y206919D02*
Y215653D01*
X215400Y90700D02*
X216100Y90000D01*
X164200Y61900D02*
X172300Y53800D01*
X129800Y281100D02*
Y282395D01*
X116847Y295347D02*
X129800Y282395D01*
X116847Y295347D02*
Y301053D01*
X111400Y306500D02*
X116847Y301053D01*
X129800Y281100D02*
X137647Y288947D01*
X139181D01*
X149400Y299166D01*
Y371723D01*
X146823Y374300D02*
X149400Y371723D01*
X81000Y286700D02*
X87400Y280300D01*
X81000Y286700D02*
Y289900D01*
X66300Y212734D02*
Y269700D01*
X64047Y210481D02*
X66300Y212734D01*
X47300Y50800D02*
X93100Y96600D01*
X44000Y50800D02*
X47300D01*
X258700Y121100D02*
X262200D01*
X264800Y118500D01*
X236800Y95318D02*
Y107100D01*
X250800Y121100D01*
X258700D01*
X104500Y320800D02*
X106623D01*
X81000Y289900D02*
Y297300D01*
X104500Y320800D01*
X277700Y145400D02*
X289000Y156700D01*
X203963Y147300D02*
X205863Y145400D01*
X277700D01*
X172300Y53800D02*
X186800D01*
X209439Y76439D01*
D48*
X139400Y131400D02*
X140300Y130500D01*
X131995Y131400D02*
X139400D01*
X131811Y131584D02*
X131995Y131400D01*
X94800Y110100D02*
X102615D01*
X104415Y108300D01*
X145000Y339600D02*
Y369900D01*
X101374Y312074D02*
X102100Y311349D01*
X108700Y112585D02*
Y303685D01*
X104415Y108300D02*
X108700Y112585D01*
Y309315D02*
Y312000D01*
X107500Y308115D02*
X108700Y309315D01*
X107500Y304885D02*
Y308115D01*
Y304885D02*
X108700Y303685D01*
Y312000D02*
X114600Y317900D01*
X244400Y75600D02*
Y79100D01*
X236700Y67900D02*
X244400Y75600D01*
X233400Y67900D02*
X236700D01*
X29800Y56300D02*
X37500Y48600D01*
X48253Y48500D02*
X48353Y48600D01*
X62500D01*
X71300Y39800D01*
X37500Y48600D02*
X40967D01*
X42467Y47100D01*
X45533D01*
X46933Y48500D01*
X48253D01*
X101374Y312074D02*
X112500Y323200D01*
X128600D01*
X145000Y339600D01*
X99900Y114300D02*
Y309149D01*
X102100Y311349D01*
X0Y0D02*
Y383400D01*
X-400Y383800D02*
X0Y383400D01*
X-400Y383800D02*
X309100D01*
X309300Y383600D01*
Y0D02*
Y383600D01*
X0Y0D02*
X309300D01*
D51*
X135400Y293900D02*
D03*
X131000Y210700D02*
D03*
X57800Y318700D02*
D03*
X73800Y262700D02*
D03*
Y303500D02*
D03*
X69000Y206700D02*
D03*
X72200Y244300D02*
D03*
X289000Y156700D02*
D03*
X153000Y241100D02*
D03*
X214600Y168300D02*
D03*
X150600Y263500D02*
D03*
X121800Y300300D02*
D03*
X161000Y297100D02*
D03*
X144200Y313100D02*
D03*
X159400Y334700D02*
D03*
X93800Y197900D02*
D03*
X58600Y162700D02*
D03*
X269800Y169100D02*
D03*
X287400Y123500D02*
D03*
X163400Y94700D02*
D03*
X24200Y298600D02*
D03*
D52*
X141000Y210700D02*
D03*
X151000D02*
D03*
X161000D02*
D03*
X171000D02*
D03*
X181000D02*
D03*
X183400Y177300D02*
D03*
D53*
X19974Y8794D02*
D03*
X48320D02*
D03*
D54*
X98600Y10700D02*
D03*
D55*
Y18574D02*
D03*
D56*
X183400Y187300D02*
D03*
D57*
X91900Y228300D02*
D03*
X91300Y248100D02*
D03*
X117000Y221700D02*
D03*
X164200Y61900D02*
D03*
X215400Y90700D02*
D03*
D58*
X119400Y276200D02*
D03*
X138200Y135700D02*
D03*
X140300Y130500D02*
D03*
X131811Y131584D02*
D03*
X94800Y110100D02*
D03*
X99900Y114300D02*
D03*
X96000Y96600D02*
D03*
X84400Y150500D02*
D03*
X80200Y147500D02*
D03*
X184300Y144400D02*
D03*
X124800Y330300D02*
D03*
X97100Y40200D02*
D03*
X99400Y101400D02*
D03*
X202141Y142900D02*
D03*
X251400Y149800D02*
D03*
X79000Y272300D02*
D03*
X104800Y325200D02*
D03*
X182600Y64200D02*
D03*
X143400Y52500D02*
D03*
X111400Y306500D02*
D03*
X124100Y200600D02*
D03*
X185200Y138800D02*
D03*
X116700Y254300D02*
D03*
X117700Y267300D02*
D03*
X86200Y324400D02*
D03*
X72200Y349700D02*
D03*
X121600Y379900D02*
D03*
X104800Y357800D02*
D03*
X46700Y304600D02*
D03*
X211700Y80400D02*
D03*
X55700Y148300D02*
D03*
X59200Y98300D02*
D03*
X197800Y46700D02*
D03*
X202600Y16300D02*
D03*
X129800Y281100D02*
D03*
X81000Y289900D02*
D03*
X87400Y280300D02*
D03*
X29800Y56300D02*
D03*
X114600Y317900D02*
D03*
X145000Y369900D02*
D03*
X66300Y269700D02*
D03*
X71300Y39800D02*
D03*
X44000Y50800D02*
D03*
X258700Y121100D02*
D03*
X284900Y76600D02*
D03*
X233400Y67900D02*
D03*
X244400Y79100D02*
D03*
X289700Y71800D02*
D03*
X289900Y76600D02*
D03*
X279800Y76500D02*
D03*
X280000Y67100D02*
D03*
X289600Y66800D02*
D03*
X280200Y72000D02*
D03*
X284558Y71935D02*
D03*
X284700Y66800D02*
D03*
X44200Y56300D02*
D03*
D59*
X61235Y290465D02*
D03*
X65565D02*
D03*
X61235Y286135D02*
D03*
X65565D02*
D03*
M02*
