G04 Layer_Physical_Order=1*
G04 Layer_Color=255*
%FSLAX25Y25*%
%MOIN*%
G70*
G01*
G75*
%ADD10R,0.06319X0.01575*%
%ADD11R,0.01378X0.06319*%
%ADD12R,0.02000X0.02752*%
%ADD13R,0.03543X0.02756*%
%ADD14R,0.02756X0.03543*%
%ADD15R,0.17323X0.17323*%
%ADD16R,0.05905X0.01968*%
%ADD17R,0.01968X0.05905*%
%ADD18R,0.03543X0.03150*%
%ADD19R,0.03150X0.03543*%
%ADD20R,0.06000X0.09000*%
%ADD21R,0.02000X0.04000*%
%ADD22R,0.09000X0.06000*%
%ADD23R,0.04000X0.02000*%
%ADD24R,0.00984X0.04134*%
%ADD25R,0.04134X0.00984*%
%ADD26R,0.02165X0.02362*%
%ADD27R,0.08976X0.07008*%
%ADD28R,0.01102X0.03347*%
%ADD29R,0.03347X0.01102*%
%ADD30R,0.02362X0.03937*%
%ADD31R,0.04724X0.02165*%
%ADD32R,0.05709X0.02362*%
%ADD33R,0.02756X0.00984*%
%ADD34R,0.00984X0.02756*%
%ADD35R,0.06496X0.10433*%
%ADD36R,0.00984X0.06102*%
%ADD37O,0.07283X0.01181*%
%ADD38O,0.01181X0.07283*%
%ADD39R,0.05512X0.05905*%
%ADD40R,0.03937X0.07874*%
%ADD41R,0.01575X0.05315*%
%ADD42R,0.02913X0.09449*%
G04:AMPARAMS|DCode=43|XSize=39.37mil|YSize=39.37mil|CornerRadius=5.91mil|HoleSize=0mil|Usage=FLASHONLY|Rotation=90.000|XOffset=0mil|YOffset=0mil|HoleType=Round|Shape=RoundedRectangle|*
%AMROUNDEDRECTD43*
21,1,0.03937,0.02756,0,0,90.0*
21,1,0.02756,0.03937,0,0,90.0*
1,1,0.01181,0.01378,0.01378*
1,1,0.01181,0.01378,-0.01378*
1,1,0.01181,-0.01378,-0.01378*
1,1,0.01181,-0.01378,0.01378*
%
%ADD43ROUNDEDRECTD43*%
%ADD44R,0.05118X0.03937*%
%ADD45R,0.03937X0.05118*%
%ADD46C,0.06000*%
%ADD47C,0.02000*%
%ADD48C,0.01000*%
%ADD49C,0.01200*%
%ADD50C,0.00800*%
%ADD51R,0.05905X0.05905*%
%ADD52C,0.05905*%
%ADD53R,0.09843X0.09843*%
%ADD54R,0.05150X0.05150*%
%ADD55C,0.05150*%
%ADD56R,0.05905X0.05905*%
%ADD57C,0.05000*%
%ADD58C,0.02400*%
%ADD59C,0.01968*%
D10*
X94847Y324411D02*
D03*
X111953Y321950D02*
D03*
Y325100D02*
D03*
X94047Y357211D02*
D03*
X111153Y354750D02*
D03*
Y357900D02*
D03*
D11*
X97495Y316547D02*
D03*
X100447D02*
D03*
X103400D02*
D03*
X106353D02*
D03*
X109306D02*
D03*
X97495Y333653D02*
D03*
X100447D02*
D03*
X103400D02*
D03*
X106353D02*
D03*
X109306D02*
D03*
X96694Y349347D02*
D03*
X99647D02*
D03*
X102600D02*
D03*
X105553D02*
D03*
X108505D02*
D03*
X96694Y366453D02*
D03*
X99647D02*
D03*
X102600D02*
D03*
X105553D02*
D03*
X108505D02*
D03*
D12*
X15940Y41677D02*
D03*
X12200D02*
D03*
X8460D02*
D03*
X15940Y32523D02*
D03*
X12200D02*
D03*
X8460D02*
D03*
X25540Y169677D02*
D03*
X21800D02*
D03*
X18060D02*
D03*
X25540Y160523D02*
D03*
X21800D02*
D03*
X18060D02*
D03*
D13*
X130100Y255453D02*
D03*
Y249547D02*
D03*
X137800Y255653D02*
D03*
Y249747D02*
D03*
X120200Y346947D02*
D03*
Y352853D02*
D03*
X117000Y106147D02*
D03*
Y112053D02*
D03*
X117800Y330140D02*
D03*
Y324235D02*
D03*
X253800Y180053D02*
D03*
Y174147D02*
D03*
X256200Y125347D02*
D03*
Y131253D02*
D03*
D14*
X142353Y272300D02*
D03*
X136447D02*
D03*
X141553Y277900D02*
D03*
X135647D02*
D03*
X124753Y312300D02*
D03*
X118847D02*
D03*
X124753Y317900D02*
D03*
X118847D02*
D03*
X42047Y292300D02*
D03*
X47953D02*
D03*
X127647Y370700D02*
D03*
X133553D02*
D03*
X271953Y153100D02*
D03*
X266047D02*
D03*
X127647Y361100D02*
D03*
X133553D02*
D03*
D15*
X284558Y71935D02*
D03*
D16*
X253826Y53832D02*
D03*
Y57376D02*
D03*
Y60919D02*
D03*
Y64462D02*
D03*
Y68006D02*
D03*
Y71549D02*
D03*
Y75092D02*
D03*
Y78635D02*
D03*
Y82179D02*
D03*
Y85722D02*
D03*
Y89265D02*
D03*
Y92809D02*
D03*
Y96352D02*
D03*
D17*
X301330Y44600D02*
D03*
X297787D02*
D03*
X294243D02*
D03*
X290700D02*
D03*
X287157D02*
D03*
X283613D02*
D03*
X280070D02*
D03*
X276527D02*
D03*
X272984D02*
D03*
X269440D02*
D03*
X265897D02*
D03*
X262353D02*
D03*
X258810D02*
D03*
Y105100D02*
D03*
X262353D02*
D03*
X265897D02*
D03*
X269440D02*
D03*
X272984D02*
D03*
X276527D02*
D03*
X280070D02*
D03*
X283613D02*
D03*
X287157D02*
D03*
X290700D02*
D03*
X294243D02*
D03*
X297787D02*
D03*
X301330D02*
D03*
D18*
X135200Y199856D02*
D03*
Y194344D02*
D03*
X177800Y137544D02*
D03*
Y143056D02*
D03*
X69000Y158344D02*
D03*
Y163856D02*
D03*
X24500Y285356D02*
D03*
Y279844D02*
D03*
X203400Y22344D02*
D03*
Y27856D02*
D03*
X176200Y28300D02*
D03*
Y22788D02*
D03*
X89800Y45544D02*
D03*
Y51056D02*
D03*
X71400Y13188D02*
D03*
Y18700D02*
D03*
X43400Y27144D02*
D03*
Y32656D02*
D03*
X89000Y284744D02*
D03*
Y290256D02*
D03*
X143400Y29900D02*
D03*
Y24388D02*
D03*
X197800Y52744D02*
D03*
Y58256D02*
D03*
X161000Y44744D02*
D03*
Y50256D02*
D03*
X185000Y27856D02*
D03*
Y22344D02*
D03*
X89800Y33544D02*
D03*
Y39056D02*
D03*
X143400Y44212D02*
D03*
Y38700D02*
D03*
X80200Y36656D02*
D03*
Y31144D02*
D03*
X53000Y62256D02*
D03*
Y56744D02*
D03*
X64200Y56744D02*
D03*
Y62256D02*
D03*
X124200Y83944D02*
D03*
Y89456D02*
D03*
X142600Y83944D02*
D03*
Y89456D02*
D03*
X168200Y137544D02*
D03*
Y143056D02*
D03*
X123400Y106344D02*
D03*
Y111856D02*
D03*
X140200Y107144D02*
D03*
Y112656D02*
D03*
X108100Y103744D02*
D03*
Y109256D02*
D03*
X79400Y158344D02*
D03*
Y163856D02*
D03*
X81000Y282256D02*
D03*
Y276744D02*
D03*
X108200Y253544D02*
D03*
Y259056D02*
D03*
X275400Y135944D02*
D03*
Y141456D02*
D03*
X267400Y135944D02*
D03*
Y141456D02*
D03*
D19*
X153800Y24300D02*
D03*
X159312D02*
D03*
X58244Y13900D02*
D03*
X63756D02*
D03*
X126956Y61900D02*
D03*
X121444D02*
D03*
X41356Y62700D02*
D03*
X35844D02*
D03*
X242956Y122700D02*
D03*
X237444D02*
D03*
X79844Y294700D02*
D03*
X85356D02*
D03*
X74244Y51500D02*
D03*
X79756D02*
D03*
X219044Y80300D02*
D03*
X224556D02*
D03*
X59044Y136000D02*
D03*
X64556D02*
D03*
X61444Y121100D02*
D03*
X66956D02*
D03*
X173956Y157000D02*
D03*
X168444D02*
D03*
X152556Y106700D02*
D03*
X147044D02*
D03*
X152556Y113100D02*
D03*
X147044D02*
D03*
X76144Y142400D02*
D03*
X81656D02*
D03*
X75056Y275600D02*
D03*
X69544D02*
D03*
X95044Y253100D02*
D03*
X100556D02*
D03*
X95044Y259500D02*
D03*
X100556D02*
D03*
X97444Y300100D02*
D03*
X102956D02*
D03*
X97244Y306500D02*
D03*
X102756D02*
D03*
X120556Y334700D02*
D03*
X115044D02*
D03*
X120556Y340300D02*
D03*
X115044D02*
D03*
X83844Y314700D02*
D03*
X89356D02*
D03*
X83844Y306700D02*
D03*
X89356D02*
D03*
X114156Y373900D02*
D03*
X108644D02*
D03*
X113856Y380000D02*
D03*
X108344D02*
D03*
X82244Y341900D02*
D03*
X87756D02*
D03*
X82244Y348300D02*
D03*
X87756D02*
D03*
D20*
X226900Y22600D02*
D03*
X133900Y67800D02*
D03*
D21*
X225200Y44100D02*
D03*
X228600D02*
D03*
X132200Y89300D02*
D03*
X135600D02*
D03*
D22*
X51600Y128500D02*
D03*
D23*
X73100Y130200D02*
D03*
Y126800D02*
D03*
D24*
X101063Y268782D02*
D03*
X103032D02*
D03*
X105000D02*
D03*
X106968D02*
D03*
X108937D02*
D03*
Y279018D02*
D03*
X106968D02*
D03*
X105000D02*
D03*
X103032D02*
D03*
X101063D02*
D03*
D25*
X110118Y271932D02*
D03*
Y273900D02*
D03*
Y275869D02*
D03*
X99882D02*
D03*
Y273900D02*
D03*
Y271932D02*
D03*
D26*
X97618Y294637D02*
D03*
X100571D02*
D03*
X103524D02*
D03*
X106476D02*
D03*
X109429D02*
D03*
X112382D02*
D03*
Y286763D02*
D03*
X109429D02*
D03*
X106476D02*
D03*
X103524D02*
D03*
X100571D02*
D03*
X97618D02*
D03*
D27*
X63400Y288300D02*
D03*
D28*
X67337Y281509D02*
D03*
X65368D02*
D03*
X63400D02*
D03*
X61431D02*
D03*
X59463D02*
D03*
Y295091D02*
D03*
X61431D02*
D03*
X63400D02*
D03*
X65368D02*
D03*
X67337D02*
D03*
D29*
X56609Y285347D02*
D03*
Y291253D02*
D03*
X70191D02*
D03*
Y285347D02*
D03*
D30*
X18060Y152913D02*
D03*
X25540D02*
D03*
Y142087D02*
D03*
X21800D02*
D03*
X18060D02*
D03*
D31*
X182919Y58440D02*
D03*
Y50960D02*
D03*
X172681D02*
D03*
Y54700D02*
D03*
Y58440D02*
D03*
D32*
X128528Y32000D02*
D03*
Y37000D02*
D03*
Y42000D02*
D03*
Y47000D02*
D03*
X107072Y32000D02*
D03*
Y37000D02*
D03*
Y42000D02*
D03*
Y47000D02*
D03*
D33*
X52288Y42821D02*
D03*
Y40853D02*
D03*
Y38884D02*
D03*
Y36916D02*
D03*
Y34947D02*
D03*
Y32979D02*
D03*
X63312D02*
D03*
Y34947D02*
D03*
Y36916D02*
D03*
Y38884D02*
D03*
Y40853D02*
D03*
Y42821D02*
D03*
D34*
X54847Y30420D02*
D03*
X56816D02*
D03*
X58784D02*
D03*
X60753D02*
D03*
Y45380D02*
D03*
X58784D02*
D03*
X56816D02*
D03*
X54847D02*
D03*
D35*
X57800Y37900D02*
D03*
D36*
X230925Y142076D02*
D03*
X233484D02*
D03*
X236043D02*
D03*
X238602D02*
D03*
X241161D02*
D03*
X243721D02*
D03*
X246280D02*
D03*
X248839D02*
D03*
X251398D02*
D03*
X253957D02*
D03*
X256516D02*
D03*
X259075D02*
D03*
X230925Y164124D02*
D03*
X233484D02*
D03*
X236043D02*
D03*
X238602D02*
D03*
X241161D02*
D03*
X243721D02*
D03*
X246280D02*
D03*
X248839D02*
D03*
X251398D02*
D03*
X253957D02*
D03*
X256516D02*
D03*
X259075D02*
D03*
D37*
X93885Y178322D02*
D03*
Y176354D02*
D03*
Y174385D02*
D03*
Y172416D02*
D03*
Y170448D02*
D03*
Y168480D02*
D03*
Y166511D02*
D03*
Y164542D02*
D03*
Y162574D02*
D03*
Y160606D02*
D03*
Y158637D02*
D03*
Y156668D02*
D03*
Y154700D02*
D03*
Y152732D02*
D03*
Y150763D02*
D03*
Y148794D02*
D03*
Y146826D02*
D03*
Y144858D02*
D03*
Y142889D02*
D03*
Y140920D02*
D03*
Y138952D02*
D03*
Y136984D02*
D03*
Y135015D02*
D03*
Y133046D02*
D03*
Y131078D02*
D03*
X154515D02*
D03*
Y133046D02*
D03*
Y135015D02*
D03*
Y136984D02*
D03*
Y138952D02*
D03*
Y140920D02*
D03*
Y142889D02*
D03*
Y144858D02*
D03*
Y146826D02*
D03*
Y148794D02*
D03*
Y150763D02*
D03*
Y152732D02*
D03*
Y154700D02*
D03*
Y156668D02*
D03*
Y158637D02*
D03*
Y160606D02*
D03*
Y162574D02*
D03*
Y164542D02*
D03*
Y166511D02*
D03*
Y168480D02*
D03*
Y170448D02*
D03*
Y172416D02*
D03*
Y174385D02*
D03*
Y176354D02*
D03*
Y178322D02*
D03*
D38*
X100578Y124385D02*
D03*
X102547D02*
D03*
X104515D02*
D03*
X106483D02*
D03*
X108452D02*
D03*
X110421D02*
D03*
X112389D02*
D03*
X114357D02*
D03*
X116326D02*
D03*
X118295D02*
D03*
X120263D02*
D03*
X122231D02*
D03*
X124200D02*
D03*
X126169D02*
D03*
X128137D02*
D03*
X130105D02*
D03*
X132074D02*
D03*
X134043D02*
D03*
X136011D02*
D03*
X137979D02*
D03*
X139948D02*
D03*
X141917D02*
D03*
X143885D02*
D03*
X145853D02*
D03*
X147822D02*
D03*
Y185015D02*
D03*
X145853D02*
D03*
X143885D02*
D03*
X141917D02*
D03*
X139948D02*
D03*
X137979D02*
D03*
X136011D02*
D03*
X134043D02*
D03*
X132074D02*
D03*
X130105D02*
D03*
X128137D02*
D03*
X126169D02*
D03*
X124200D02*
D03*
X122231D02*
D03*
X120263D02*
D03*
X118295D02*
D03*
X116326D02*
D03*
X114357D02*
D03*
X112389D02*
D03*
X110421D02*
D03*
X108452D02*
D03*
X106483D02*
D03*
X104515D02*
D03*
X102547D02*
D03*
X100578D02*
D03*
D39*
X113737Y97100D02*
D03*
X105863D02*
D03*
D40*
X37100Y8400D02*
D03*
X31194D02*
D03*
D41*
X39265Y19325D02*
D03*
X36706D02*
D03*
X34147D02*
D03*
X31588D02*
D03*
X29029D02*
D03*
D42*
X181900Y101000D02*
D03*
X186900D02*
D03*
X191900D02*
D03*
X196900D02*
D03*
X201900D02*
D03*
X201896Y116331D02*
D03*
X196896D02*
D03*
X191896D02*
D03*
X186896D02*
D03*
X181896D02*
D03*
D43*
X40453Y279900D02*
D03*
X33547D02*
D03*
D44*
X193000Y22650D02*
D03*
Y16350D02*
D03*
D45*
X28250Y44300D02*
D03*
X34550D02*
D03*
D46*
X202420Y136130D02*
D03*
Y150700D02*
D03*
X216200Y136130D02*
D03*
Y150700D02*
D03*
X47139Y19817D02*
D03*
X21155D02*
D03*
D47*
X202141Y149062D02*
X203100Y150021D01*
X114156Y373900D02*
Y380300D01*
X287232Y77800D02*
X289016Y76016D01*
X287232Y77800D02*
X290800D01*
X278243Y71935D02*
X284558D01*
Y60242D02*
Y71935D01*
X106406Y292710D02*
Y294637D01*
X97689Y292710D02*
Y294637D01*
X110200Y228300D02*
X116900Y221600D01*
X88447Y289900D02*
X89000Y290453D01*
X67720Y278920D02*
Y281509D01*
X66300Y271244D02*
X67944D01*
X56816Y50516D02*
X58784Y48547D01*
X80200Y36656D02*
X83756D01*
X74378D02*
X80200D01*
X259105Y141456D02*
X267400D01*
X259075Y141486D02*
X259105Y141456D01*
X164200Y61900D02*
X167660Y58440D01*
X172681D01*
X165275Y50256D02*
X171977D01*
X161000D02*
X165275D01*
X168519Y53500D01*
Y56521D01*
X164200Y60840D02*
X168519Y56521D01*
X164200Y60840D02*
Y61900D01*
X150600Y95600D02*
X152556Y97556D01*
X144641Y102459D02*
X150100Y97000D01*
X142400Y102459D02*
X144641D01*
X150100Y86900D02*
Y97000D01*
X147144Y83944D02*
X150100Y86900D01*
X152556Y97556D02*
Y106700D01*
X12200Y127200D02*
Y149900D01*
X190000Y9900D02*
X204200D01*
X185000Y14900D02*
X190000Y9900D01*
X185000Y14900D02*
Y22344D01*
X130800Y195900D02*
Y200000D01*
X91900Y228300D02*
X110200D01*
X46447Y44300D02*
X47269Y45121D01*
X34550Y44300D02*
X46447D01*
X117200Y276200D02*
X119400D01*
X63100Y288600D02*
X63400Y288300D01*
X85553Y294700D02*
X87400D01*
X136011Y133511D02*
X138200Y135700D01*
X117000Y207700D02*
Y221700D01*
X75700Y275600D02*
X79000Y272300D01*
X75056Y275600D02*
X75700D01*
X69544Y272844D02*
Y275600D01*
Y276993D01*
X67668Y278869D02*
X69544Y276993D01*
X91300Y248100D02*
X95044Y251844D01*
Y253100D01*
X116900Y221600D02*
X117000Y221700D01*
X119100Y84700D02*
Y91755D01*
Y84700D02*
X119856Y83944D01*
X81656Y142400D02*
X85800D01*
Y144900D01*
X131000Y210700D02*
X139300Y202400D01*
Y195500D02*
Y202400D01*
X138144Y194344D02*
X139300Y195500D01*
X135200Y194344D02*
X138144D01*
X135056Y200000D02*
X135200Y199856D01*
X130800Y200000D02*
X135056D01*
X96000Y96600D02*
Y98577D01*
X95000Y99577D02*
X96000Y98577D01*
X95000Y99577D02*
Y103223D01*
X98322Y106544D01*
X105008D01*
X107720Y109256D01*
X108100D01*
X177800Y143056D02*
X182956D01*
X184300Y144400D01*
X136011Y131100D02*
Y133511D01*
X56816Y50516D02*
X58600Y52300D01*
X105363Y96600D02*
X105863Y97100D01*
X96000Y96600D02*
X105363D01*
X79500Y148200D02*
Y151900D01*
Y148200D02*
X80200Y147500D01*
X79500Y151900D02*
X84800Y157200D01*
Y164600D01*
X69300Y142500D02*
X75600D01*
X64600D02*
X69300D01*
X84400Y150500D02*
X86106Y148794D01*
X80200Y143856D02*
Y147500D01*
Y143856D02*
X81656Y142400D01*
X256200Y120300D02*
Y125347D01*
X253553Y122700D02*
X256200Y125347D01*
X242956Y122700D02*
X253553D01*
X289000Y156700D02*
Y165200D01*
X274147Y180053D02*
X289000Y165200D01*
X253800Y180053D02*
X274147D01*
X275400Y141456D02*
X293804D01*
X271953Y148047D02*
Y153100D01*
Y148047D02*
X275400Y144600D01*
Y141456D02*
Y144600D01*
X271953Y153100D02*
X275300D01*
X278900Y156700D01*
X289000D01*
X194200Y179100D02*
Y207200D01*
Y171200D02*
Y179100D01*
X198300Y175000D01*
X227400D01*
X230925Y171475D01*
X120556Y334544D02*
X124800Y330300D01*
X120556Y334700D02*
Y340300D01*
X90444Y33544D02*
X97100Y40200D01*
X89800Y33544D02*
X90444D01*
X60500Y306700D02*
X68266D01*
X60447Y306647D02*
X60500Y306700D01*
X99400Y101400D02*
X101744Y103744D01*
X108100D01*
Y112200D02*
X110421Y114521D01*
X108100Y109256D02*
Y112200D01*
X202141Y142900D02*
Y149062D01*
Y142900D02*
X202420Y142621D01*
Y150700D02*
X203100Y150021D01*
X202420Y136130D02*
Y142621D01*
X251400Y155300D02*
X256643Y160543D01*
X251400Y149800D02*
Y155300D01*
X79000Y274744D02*
X81000Y276744D01*
X79000Y272300D02*
Y274744D01*
X104800Y325200D02*
X104900Y325100D01*
X111953D01*
X182919Y58440D02*
Y63881D01*
X182600Y64200D02*
X182919Y63881D01*
X143400Y44212D02*
Y52500D01*
X98600Y18574D02*
X107072Y27046D01*
Y32000D01*
X98600Y18574D02*
X101226D01*
X103500Y16300D01*
Y7622D02*
Y16300D01*
X102003Y6125D02*
X103500Y7622D01*
X71400Y13188D02*
X74512D01*
X81575Y6125D01*
X102003D01*
X80200Y26500D02*
Y31144D01*
Y26500D02*
X88126Y18574D01*
X98600D01*
X103900Y306500D02*
X111400D01*
X111400Y306500D01*
X109429Y294637D02*
Y300971D01*
X103900Y306500D02*
X109429Y300971D01*
X102956Y300100D02*
X103524Y299532D01*
Y294637D02*
Y299532D01*
X102756Y300300D02*
X102956Y300100D01*
X102756Y300300D02*
Y306500D01*
X97618Y294637D02*
X97689D01*
Y292710D02*
X98500Y291899D01*
Y291656D02*
Y291899D01*
Y291656D02*
X105352D01*
X106406Y294637D02*
X106476D01*
X105352Y291656D02*
X106406Y292710D01*
X97244Y300300D02*
X97444Y300100D01*
X94416Y303128D02*
X97244Y300300D01*
X84572Y303128D02*
X94416D01*
X83844Y303856D02*
X84572Y303128D01*
X83844Y303856D02*
Y306700D01*
X97244Y300300D02*
Y306500D01*
X97444Y300100D02*
X97618Y299926D01*
Y294637D02*
Y299926D01*
X117000Y207700D02*
X124100Y200600D01*
X129200Y198400D02*
X130800Y200000D01*
X126300Y198400D02*
X129200D01*
X124100Y200600D02*
X126300Y198400D01*
X167700Y149400D02*
X173956Y155656D01*
Y157000D01*
X180000D01*
X194200Y171200D01*
X190700Y210700D02*
X194200Y207200D01*
X181000Y210700D02*
X190700D01*
X137200Y115656D02*
X140200Y112656D01*
X79400Y163856D02*
X80144Y164600D01*
X84800D01*
X111144Y104144D02*
X112300Y105300D01*
Y110100D01*
X109300Y104144D02*
X111144D01*
X59044Y136944D02*
X64600Y142500D01*
X168200Y137544D02*
X177800D01*
X183944D02*
X185200Y138800D01*
X177800Y137544D02*
X183944D01*
X115944Y253544D02*
X116700Y254300D01*
X108200Y253544D02*
X115944D01*
X116218Y268782D02*
X117700Y267300D01*
X83844Y314700D02*
Y322044D01*
X86200Y324400D01*
X94836D02*
X94847Y324411D01*
X86200Y324400D02*
X94836D01*
X80844Y349700D02*
X82244Y348300D01*
X72200Y349700D02*
X80844D01*
X82244Y341900D02*
Y348300D01*
Y351944D01*
X87511Y357211D01*
X94047D01*
X121200Y380300D02*
X121600Y379900D01*
X114156Y380300D02*
X121200D01*
X111053Y357800D02*
X111153Y357900D01*
X104800Y357800D02*
X111053D01*
X40453Y290706D02*
X42047Y292300D01*
Y299947D01*
X46700Y304600D01*
X48800Y306700D01*
X68266D02*
X70019Y308453D01*
X77581D01*
X79334Y306700D01*
X83844D01*
X287232Y74232D02*
X289016Y76016D01*
X275400Y135944D02*
X295356D01*
X267400D02*
X275400D01*
X267400Y141456D02*
X275400D01*
X218944Y80400D02*
X219044Y80300D01*
X211700Y80400D02*
X218944D01*
X61444Y121100D02*
Y125956D01*
X59044Y128356D02*
X61444Y125956D01*
X59044Y136944D02*
Y144956D01*
X55700Y148300D02*
X59044Y144956D01*
X69000Y158344D02*
X79400D01*
X59200Y98300D02*
X73556Y83944D01*
X119856D01*
X55300Y98300D02*
X59200D01*
X21800Y131800D02*
X55300Y98300D01*
X21800Y131800D02*
Y142087D01*
X119856Y83944D02*
X124200D01*
X119100Y91755D02*
X123400Y96055D01*
Y106344D01*
X124200Y83944D02*
X142600D01*
X140200Y104659D02*
X142400Y102459D01*
X140200Y104659D02*
Y107144D01*
X142600Y83944D02*
X147144D01*
X152556Y106700D02*
Y113100D01*
X53000Y56744D02*
X55844D01*
X44644D02*
X53000D01*
X61356Y62256D02*
X64200D01*
X55844Y56744D02*
X61356Y62256D01*
X34550Y56250D02*
X44150D01*
X35844Y57544D02*
Y62700D01*
X34550Y56250D02*
X35844Y57544D01*
X34550Y44300D02*
Y56250D01*
X194600Y46700D02*
X197800D01*
X192644Y44744D02*
X194600Y46700D01*
X161000Y44744D02*
X192644D01*
X197800Y46700D02*
Y52744D01*
X191756D02*
X197800D01*
X189800Y54700D02*
X191756Y52744D01*
X172681Y54700D02*
X189800D01*
X209000Y14700D02*
Y61900D01*
X204200Y9900D02*
X209000Y14700D01*
X202550Y16350D02*
X202600Y16300D01*
X193000Y16350D02*
X202550D01*
X202600Y16300D02*
X203400Y17100D01*
Y22344D01*
X129800Y281100D02*
X132447D01*
X135647Y277900D01*
Y273100D02*
Y277900D01*
Y273100D02*
X136447Y272300D01*
X85453Y282247D02*
X87400Y280300D01*
X81009Y282247D02*
X85453D01*
X81000Y282256D02*
X81009Y282247D01*
X81000Y289900D02*
X88447D01*
X87400Y294700D02*
X89000Y293100D01*
Y290453D02*
Y293100D01*
X18060Y169677D02*
X21800D01*
Y160523D02*
Y169677D01*
X18060Y160523D02*
X21800D01*
X18060Y152913D02*
Y160523D01*
X103524Y294637D02*
X103594D01*
X79950Y282505D02*
X80200Y282256D01*
X65356Y163856D02*
X69000D01*
X64200Y162700D02*
X65356Y163856D01*
X58600Y162700D02*
X64200D01*
X69000Y163856D02*
X79400D01*
X168200Y143056D02*
X177800D01*
X182800Y85900D02*
X215400D01*
X224556Y80300D02*
Y83944D01*
X87400Y28300D02*
X96200D01*
X85000Y30700D02*
X87400Y28300D01*
X96200D02*
X100200Y32300D01*
X85000Y30700D02*
Y35412D01*
X83756Y36656D02*
X85000Y35412D01*
X100200Y32300D02*
Y34700D01*
X64200Y54700D02*
Y56744D01*
X61800Y52300D02*
X64200Y54700D01*
X58600Y52300D02*
X61800D01*
X192694Y22344D02*
X193000Y22650D01*
X185000Y22344D02*
X192694D01*
X184556Y22788D02*
X185000Y22344D01*
X176200Y22788D02*
X184556D01*
X172112D02*
X176200D01*
X170600Y24300D02*
X172112Y22788D01*
X159312Y24300D02*
X170600D01*
X102500Y37000D02*
X107072D01*
X100200Y34700D02*
X102500Y37000D01*
X107072D02*
X128528D01*
X139400Y38700D02*
X143400D01*
X137700Y37000D02*
X139400Y38700D01*
X128528Y37000D02*
X137700D01*
X157356Y50256D02*
X161000D01*
X157000Y49900D02*
X157356Y50256D01*
X157000Y45100D02*
Y49900D01*
X150600Y38700D02*
X157000Y45100D01*
X143400Y38700D02*
X150600D01*
X171977Y50256D02*
X172681Y50960D01*
X15213Y152913D02*
X18060D01*
X12200Y149900D02*
X15213Y152913D01*
X143400Y29900D02*
Y38700D01*
X256516Y164124D02*
X256643Y163997D01*
X48800Y306700D02*
X54650D01*
X60500D01*
X54650D02*
X56409Y304941D01*
Y296091D02*
Y304941D01*
X66300Y269700D02*
Y271244D01*
X67944D02*
X69544Y272844D01*
X67668Y278869D02*
X67720Y278920D01*
X70191Y285347D02*
X73853D01*
X76944Y282256D01*
X80200D01*
X72723Y35000D02*
X74378Y36656D01*
X69600Y35000D02*
X72723D01*
X44000Y50800D02*
X44284Y50516D01*
X56816D01*
X85800Y144900D02*
X87050Y146150D01*
X175300Y113200D02*
X178431Y116331D01*
X175300Y93400D02*
Y113200D01*
Y93400D02*
X182800Y85900D01*
X199100Y124300D02*
X201896Y121504D01*
X187900Y124300D02*
X199100D01*
X186896Y123296D02*
X187900Y124300D01*
X181139D02*
X187900D01*
X178639Y121801D02*
X181139Y124300D01*
X178639Y121539D02*
Y121801D01*
X172200Y115100D02*
X178639Y121539D01*
X172200Y92200D02*
Y115100D01*
Y92200D02*
X184000Y80400D01*
X211700D01*
X201896Y116331D02*
Y121504D01*
X186896Y116331D02*
Y123296D01*
Y116331D02*
X191896D01*
X178431D02*
X181896D01*
X295356Y135944D02*
X301600Y129700D01*
X301330Y105100D02*
X301600Y105370D01*
X286800Y77800D02*
X287232D01*
X286800D02*
Y78232D01*
X294604Y91004D02*
Y93004D01*
X286800Y78232D02*
X287232Y77800D01*
X294700Y50100D02*
X298592D01*
X301330Y47363D01*
X256200Y120300D02*
X257100Y119400D01*
X287600Y112300D02*
X290700Y109200D01*
X241300Y112300D02*
X287600D01*
X215400Y90700D02*
X219700D01*
X257100Y119400D02*
X258700Y121000D01*
Y121100D01*
X219700Y90700D02*
X241300Y112300D01*
X297500Y55152D02*
Y89400D01*
Y55152D02*
X304130Y48522D01*
Y40830D02*
Y48522D01*
X302600Y39300D02*
X304130Y40830D01*
X275521Y39300D02*
X302600D01*
X272984Y41837D02*
X275521Y39300D01*
X272984Y41837D02*
Y44600D01*
X253826Y53832D02*
X285032D01*
X288000Y56800D01*
X284558Y60242D02*
X288000Y56800D01*
X294700Y50100D01*
X290700Y105100D02*
Y109200D01*
X301600Y105370D02*
Y129700D01*
X301330Y44600D02*
Y47363D01*
X284316Y80716D02*
X286800Y78232D01*
X284316Y80716D02*
X294604Y91004D01*
X253826Y96352D02*
X254710Y95468D01*
X257473D01*
X258454Y94487D01*
Y91724D02*
Y94487D01*
Y91724D02*
X278243Y71935D01*
X289900Y76900D02*
X290800Y77800D01*
X289900Y76600D02*
Y76900D01*
X289016Y76016D02*
X289600Y76600D01*
X289900D01*
X294604Y93004D02*
X301330Y99730D01*
Y105100D01*
X293804Y141456D02*
X304400Y130860D01*
X297500Y89400D02*
X304400Y96300D01*
Y130860D01*
X12200Y28300D02*
Y32523D01*
X8460D02*
X12200D01*
X8460D02*
Y41677D01*
X12200D01*
X63312Y28188D02*
X69550Y21950D01*
X73865D01*
X74847Y20969D01*
Y16813D02*
Y20969D01*
Y16813D02*
X76460Y15200D01*
X87500D01*
X92000Y10700D01*
X98600D01*
X87756Y339056D02*
Y341900D01*
X37000Y314700D02*
X60200Y337900D01*
X40453Y279900D02*
Y290706D01*
X37000Y286100D02*
X37000Y286100D01*
X25540Y169677D02*
X32777D01*
X37000Y173900D01*
Y277393D01*
X66300Y145500D02*
X69300Y142500D01*
X66300Y145500D02*
Y155644D01*
X69000Y158344D01*
X12200Y127200D02*
X63800Y75600D01*
X167147D01*
X169747Y73000D01*
X197900D01*
X209000Y61900D01*
X59044Y128356D02*
Y136000D01*
Y136944D01*
X79756Y37100D02*
Y51500D01*
Y37100D02*
X80200Y36656D01*
X32743Y27144D02*
X43400D01*
X29029Y23430D02*
X32743Y27144D01*
X46647Y19325D02*
X47139Y19817D01*
X29029Y19325D02*
Y23430D01*
X12200Y28300D02*
X24159D01*
X29029Y23430D01*
X39757Y19817D02*
X47139D01*
X39603Y19662D02*
Y19681D01*
X39169Y20115D02*
X39603Y19681D01*
X39169Y20115D02*
Y20355D01*
X39603Y19662D02*
X39757Y19817D01*
X44150Y56250D02*
X44200Y56300D01*
X44644Y56744D01*
X120556Y334544D02*
Y334700D01*
X60200Y337900D02*
X86600D01*
X87756Y339056D01*
X42000Y310700D02*
X57800D01*
X37000Y305700D02*
X42000Y310700D01*
X37000Y286100D02*
Y314700D01*
X58353Y311253D02*
X78741D01*
X79241Y310753D01*
X89303D01*
X57853D02*
X58353Y311253D01*
X57853Y310753D02*
Y318647D01*
X57800Y318700D02*
X57853Y318647D01*
X57800Y310700D02*
Y310753D01*
X89303D02*
Y314647D01*
X89356Y314700D01*
X89303Y306753D02*
Y310753D01*
Y306753D02*
X89356Y306700D01*
Y314700D02*
X93800D01*
X95647Y316547D01*
X102756Y306500D02*
X103900D01*
X56409Y296091D02*
X57409Y295091D01*
X95044Y253100D02*
Y259500D01*
X256516Y164124D02*
X259075D01*
X256643Y160543D02*
Y163997D01*
X215400Y86900D02*
Y90700D01*
Y86900D02*
X221600D01*
X224556Y83944D01*
D48*
X41356Y62700D02*
X57000D01*
X79647Y294700D02*
Y298147D01*
X102469Y119714D02*
Y124385D01*
X253957Y173504D02*
X254600Y174147D01*
X235908Y163900D02*
Y179792D01*
X197184Y58440D02*
X197800Y59056D01*
X108644Y373900D02*
Y380300D01*
X93885Y197185D02*
X94600Y197900D01*
X254330Y141859D02*
Y145542D01*
X253957Y141486D02*
X254330Y141859D01*
X83894Y284547D02*
X89000D01*
X69547Y34947D02*
X69600Y35000D01*
X63312Y34947D02*
X69547D01*
X54847Y40853D02*
X57800Y37900D01*
X54847Y40853D02*
Y45380D01*
Y34947D02*
X57800Y37900D01*
X54847Y30420D02*
Y34947D01*
X58784Y45380D02*
Y48547D01*
X251400Y142079D02*
Y149800D01*
X251398Y142076D02*
X251400Y142079D01*
X112389Y115805D02*
X112721Y115473D01*
Y113568D02*
Y115473D01*
X112389Y113236D02*
X112721Y113568D01*
X112389Y110189D02*
Y113236D01*
X112300Y110100D02*
X112389Y110189D01*
X154515Y142889D02*
X154682Y143056D01*
X168200D01*
X182919Y58440D02*
X197184D01*
X135200Y190346D02*
X136011Y189535D01*
Y185015D02*
Y189535D01*
X130900Y192100D02*
X134043Y188958D01*
Y185015D02*
Y188958D01*
X129100Y308300D02*
X131500Y305900D01*
X125000Y308300D02*
X129100D01*
X135400Y293900D02*
Y301900D01*
X131400Y305900D02*
X135400Y301900D01*
X131400Y305900D02*
X131500D01*
X153800Y313100D02*
X155500D01*
X144200D02*
X153800D01*
X248839Y164714D02*
Y219761D01*
X155500Y313100D02*
X248839Y219761D01*
X153800Y297100D02*
X161000D01*
X151400Y296300D02*
X246280Y201420D01*
X253957Y164714D02*
Y173504D01*
X243721Y164714D02*
Y186779D01*
X250728Y169031D02*
Y221407D01*
Y169031D02*
X251398Y168361D01*
Y164714D02*
Y168361D01*
X151400Y296300D02*
X153000D01*
X246280Y164714D02*
Y201420D01*
X136600Y293900D02*
X243721Y186779D01*
X135400Y293900D02*
X136600D01*
X120263Y124385D02*
Y133163D01*
X124700Y137600D01*
X134585D01*
X221250Y126450D02*
X227800Y119900D01*
X218513Y129187D02*
X221250Y126450D01*
Y117750D02*
Y126450D01*
X204500Y101000D02*
X221250Y117750D01*
X227800Y119900D02*
X234644D01*
X237444Y122700D01*
X161200Y254500D02*
X235908Y179792D01*
X238602Y164124D02*
Y180298D01*
X162600Y256300D02*
X238602Y180298D01*
X241100Y167839D02*
Y183400D01*
Y167839D02*
X241161D01*
Y164124D02*
Y167839D01*
X141553Y282947D02*
X241100Y183400D01*
X135200Y190346D02*
Y194344D01*
X61716Y195478D02*
Y202843D01*
Y195478D02*
X88637Y168558D01*
X56805Y197550D02*
Y269706D01*
Y197550D02*
X87767Y166589D01*
X93807D01*
X123450Y253950D02*
Y255102D01*
Y253950D02*
X125100Y252300D01*
X131800D01*
X112382Y286763D02*
X116563D01*
X121800Y292000D01*
Y300300D01*
X133553Y357453D02*
Y361100D01*
X128953Y352853D02*
X133553Y357453D01*
X120200Y352853D02*
X128953D01*
X109429Y283871D02*
X119029D01*
X105145Y284282D02*
X105906Y285044D01*
X93800Y284282D02*
X105145D01*
X105906Y285044D02*
Y286193D01*
X93800Y280300D02*
Y284282D01*
X82800Y269300D02*
X93800Y280300D01*
X99182Y282482D02*
X104109D01*
X105000Y281591D01*
X81800Y265100D02*
X99182Y282482D01*
X119029Y283871D02*
X142353Y260547D01*
X105700Y273900D02*
X110118D01*
X140268Y139600D02*
X148200Y131668D01*
X136585Y139600D02*
X140268D01*
X134585Y137600D02*
X136585Y139600D01*
X137979Y124385D02*
X138057Y124463D01*
Y128219D01*
X140300Y130462D01*
Y130500D01*
X130105Y129878D02*
X131811Y131584D01*
X130105Y124385D02*
Y129878D01*
X93807Y172494D02*
X93885Y172416D01*
X89806Y172494D02*
X93807D01*
X136011Y116989D02*
Y124385D01*
X85800Y176500D02*
X89806Y172494D01*
X85800Y176500D02*
Y265037D01*
X114900Y273900D02*
X117200Y276200D01*
X110118Y273900D02*
X114900D01*
X136547Y208856D02*
X139156Y206247D01*
X141053D01*
X136547Y208856D02*
Y212544D01*
X141053Y206247D02*
X144933Y202367D01*
X147887D01*
X143807Y185093D02*
Y191807D01*
X149900Y197900D01*
Y200354D01*
X147887Y202367D02*
X149900Y200354D01*
X145853Y185015D02*
Y189553D01*
X152700Y196400D01*
Y200100D01*
X147953Y204847D02*
X152700Y200100D01*
X145853Y204847D02*
X147953D01*
X141000Y209700D02*
X145853Y204847D01*
X141000Y209700D02*
Y210700D01*
X151000Y205500D02*
X156600Y199900D01*
Y196800D02*
Y199900D01*
X147822Y188022D02*
X156600Y196800D01*
X147822Y185015D02*
Y188022D01*
X94800Y110100D02*
X102000D01*
X102100Y110000D01*
X99900Y114300D02*
X101052D01*
X100955Y118200D02*
X102469Y119714D01*
X98285Y118200D02*
X100955D01*
X102100Y110000D02*
X103415D01*
X136011Y124385D02*
Y131100D01*
X148200Y131668D02*
X150681Y129187D01*
X148200Y131668D02*
Y178561D01*
Y129963D02*
Y131668D01*
X93885Y178322D02*
Y197185D01*
X154515Y144858D02*
X163157D01*
X154515Y146826D02*
X161872D01*
X154515Y140920D02*
X161179D01*
X253583Y141683D02*
X253800Y141900D01*
X154515Y150763D02*
X160263D01*
X147822Y124385D02*
X151485D01*
X154515Y138952D02*
X159948D01*
X154515Y148794D02*
X161294D01*
X15940Y32523D02*
X31623D01*
X89214Y170526D02*
X93807D01*
X93885Y170448D01*
X93885D02*
X93885D01*
X81800Y177940D02*
X89214Y170526D01*
X230925Y164714D02*
Y171475D01*
X97785Y117700D02*
X98285Y118200D01*
X79988Y117700D02*
X97785D01*
X101052Y114300D02*
X102100Y115348D01*
X101374Y116074D02*
X102100Y115348D01*
X106483Y114383D02*
Y124385D01*
X105700Y113600D02*
X106483Y114383D01*
X105700Y112285D02*
Y113600D01*
X103415Y110000D02*
X105700Y112285D01*
X101374Y116074D02*
X104437Y119137D01*
X112389Y115805D02*
Y124385D01*
X81515Y269300D02*
X82800D01*
X80615Y268400D02*
X81515Y269300D01*
X77385Y268400D02*
X80615D01*
X76485Y269300D02*
X77385Y268400D01*
X73800Y269300D02*
X76485D01*
X73800Y262700D02*
Y269300D01*
X117800Y318947D02*
X118847Y317900D01*
X118847Y317900D01*
X114600Y317900D02*
X118847D01*
X108053Y327462D02*
X120238D01*
X106415Y329100D02*
X108053Y327462D01*
X103185Y329100D02*
X106415D01*
X100900Y326815D02*
X103185Y329100D01*
X100900Y323585D02*
Y326815D01*
Y323585D02*
X102594Y321891D01*
Y321006D02*
Y321891D01*
Y321006D02*
X105389D01*
Y318211D02*
Y321006D01*
Y318211D02*
X106353Y317247D01*
Y316547D02*
Y317247D01*
X109306Y333653D02*
X114797D01*
X109306Y316547D02*
X117552Y308300D01*
X196400Y68100D02*
X202600Y61900D01*
X149800Y61900D02*
X156000Y68100D01*
X196400D01*
X93800Y287500D02*
Y295500D01*
X91153Y298147D02*
X93800Y295500D01*
Y287500D02*
X94600Y286700D01*
X136011Y116989D02*
X137200Y115800D01*
X134043Y100857D02*
Y124385D01*
Y100857D02*
X137000Y97900D01*
X86106Y148794D02*
X93885D01*
X87726Y146826D02*
X93885D01*
X84800Y164600D02*
X93885Y164542D01*
X110421Y114521D02*
Y124385D01*
X131996Y124307D02*
X132074Y124385D01*
X104437Y124307D02*
X104515Y124385D01*
X98685D02*
X100578D01*
X89214Y133124D02*
X93807D01*
X88637Y168558D02*
X93807D01*
X163157Y144858D02*
X167700Y149400D01*
X165700Y157000D02*
X168444D01*
X165400Y156700D02*
X165700Y157000D01*
X165400Y150354D02*
Y156700D01*
X161872Y146826D02*
X165400Y150354D01*
X162593Y150093D02*
Y162393D01*
X161294Y148794D02*
X162593Y150093D01*
X160263Y150763D02*
Y168763D01*
X177500Y177300D02*
X183400D01*
X162593Y162393D02*
X177500Y177300D01*
X178800Y187300D02*
X183400D01*
X160263Y168763D02*
X178800Y187300D01*
X191400Y139400D02*
Y157100D01*
X186669Y134669D02*
X191400Y139400D01*
X165890Y134669D02*
X186669D01*
X193595Y136795D02*
Y156750D01*
X189669Y132869D02*
X193595Y136795D01*
X165144Y132869D02*
X189669D01*
X171000Y206000D02*
Y210700D01*
X149713Y184713D02*
X171000Y206000D01*
X149713Y180073D02*
Y184713D01*
X123100Y255453D02*
X130100D01*
X122247D02*
X123100D01*
X123450Y255102D01*
X112285Y265415D02*
X122247Y255453D01*
X107145Y265415D02*
X112285D01*
X108937Y268782D02*
X116218D01*
X117100Y361700D02*
X123700D01*
X102700D02*
X117100D01*
X117128Y361672D01*
X127347Y360800D02*
X127647Y361100D01*
X124600Y360800D02*
X127347D01*
X123700Y361700D02*
X124600Y360800D01*
X104589Y350311D02*
Y353045D01*
X103827Y353806D02*
X104589Y353045D01*
X102094Y353806D02*
X103827D01*
X100600Y355300D02*
X102094Y353806D01*
X100600Y355300D02*
Y359600D01*
X104589Y350311D02*
X105553Y349347D01*
X100600Y359600D02*
X102700Y361700D01*
X33491Y279844D02*
X33547Y279900D01*
X24500Y279844D02*
X33491D01*
X24200Y298600D02*
X24500Y298300D01*
Y285356D02*
Y298300D01*
X137800Y262554D02*
X145854Y254500D01*
X128423Y271932D02*
X137800Y262554D01*
Y255653D02*
Y262554D01*
X137600Y249547D02*
X137800Y249747D01*
X130100Y249547D02*
X137600D01*
X104109D02*
X130100D01*
X100556Y253100D02*
X104109Y249547D01*
X131400Y252700D02*
X131800Y252300D01*
X66156Y18700D02*
X71400D01*
X57000Y62700D02*
X57000Y62700D01*
Y65100D01*
X141553Y277900D02*
Y282947D01*
X82441Y286000D02*
X83894Y284547D01*
X277000Y123500D02*
X287400D01*
X269247Y131253D02*
X277000Y123500D01*
X256200Y131253D02*
X269247D01*
X269800Y161900D02*
Y169100D01*
X266047Y158147D02*
X269800Y161900D01*
X266047Y153100D02*
Y158147D01*
X142600Y89456D02*
Y92300D01*
X141000Y93900D02*
X142600Y92300D01*
X141000Y93900D02*
Y97602D01*
X140702Y97900D02*
X141000Y97602D01*
X124200Y89456D02*
Y93602D01*
X128498Y97900D01*
X63756Y13900D02*
Y16744D01*
X15940Y44300D02*
X28250D01*
X15940Y41677D02*
Y44300D01*
X28250D02*
Y54750D01*
X29800Y56300D01*
X46156Y32656D02*
X47400Y33900D01*
X43400Y32656D02*
X46156D01*
X25540Y152913D02*
Y160523D01*
X89000Y284547D02*
X89265Y284282D01*
X93800D01*
X94600Y286700D02*
X94663Y286763D01*
X79647Y298147D02*
X91153D01*
X137979Y120121D02*
Y124385D01*
Y120121D02*
X138657Y119443D01*
X117000Y48300D02*
Y61100D01*
X110700Y42000D02*
X117000Y48300D01*
X107072Y42000D02*
X110700D01*
X134353Y369900D02*
X145000D01*
X133553Y370700D02*
X134353Y369900D01*
X63551Y49251D02*
X65151D01*
X69000Y43400D02*
Y50554D01*
X185000Y27856D02*
X203400D01*
X151485Y124385D02*
X163400Y112470D01*
Y94700D02*
Y112470D01*
X81800Y244300D02*
Y265100D01*
Y177940D02*
Y244300D01*
X72200D02*
X81800D01*
X152200Y252700D02*
X160454D01*
X131400D02*
X152200D01*
X153000Y251900D01*
Y241100D02*
Y251900D01*
X150600Y256300D02*
X162600D01*
X146600D02*
X150600D01*
Y263500D01*
X116563Y286763D02*
X137737D01*
X124753Y322947D02*
X151400Y296300D01*
X124753Y317900D02*
Y322947D01*
X153000Y296300D02*
X153800Y297100D01*
X123400Y343500D02*
X153800Y313100D01*
X137000Y335135D02*
X250728Y221407D01*
X121960Y350175D02*
X137000Y335135D01*
X158965D02*
X159400Y334700D01*
X137000Y335135D02*
X158965D01*
X148200Y178561D02*
X149713Y180073D01*
X143807Y185093D02*
X143885Y185015D01*
X136547Y212544D02*
X139156Y215153D01*
X152844D01*
X157297Y210700D01*
X161000D01*
X151000Y205500D02*
Y210700D01*
X104437Y119137D02*
Y124307D01*
X78517Y116228D02*
X79988Y117700D01*
X53726Y116228D02*
X78517D01*
X52054Y117900D02*
X53726Y116228D01*
X45000Y117900D02*
X52054D01*
X25540Y137360D02*
X45000Y117900D01*
X25540Y137360D02*
Y142087D01*
X102469Y124385D02*
X102547D01*
X93800Y119500D02*
X98685Y124385D01*
X79243Y119500D02*
X93800D01*
X77771Y118028D02*
X79243Y119500D01*
X93807Y166589D02*
X93885Y166511D01*
X93807Y168558D02*
X93885Y168480D01*
X95916Y275153D02*
X96631Y275869D01*
X85800Y265037D02*
X95916Y275153D01*
X105000Y279018D02*
Y281591D01*
X118847Y312300D02*
Y317900D01*
X117800Y318947D02*
Y324235D01*
X115044Y333900D02*
Y334700D01*
Y330256D02*
Y333900D01*
X115160Y330140D02*
X117800D01*
X115044Y330256D02*
X115160Y330140D01*
X120200Y343500D02*
X123400D01*
X133553Y361100D02*
Y370700D01*
X117890Y350175D02*
X121960D01*
X117128Y350936D02*
X117890Y350175D01*
X117128Y350936D02*
Y361672D01*
X121000Y370700D02*
X126047D01*
X116753Y366453D02*
X121000Y370700D01*
X108505Y366453D02*
X116753D01*
X233484Y164714D02*
Y179670D01*
X160454Y252700D02*
X233484Y179670D01*
X110118Y271932D02*
X128423D01*
X107145Y265415D02*
Y268605D01*
X106968Y268782D02*
X107145Y268605D01*
X103032Y262209D02*
Y268782D01*
Y262209D02*
X103431Y261810D01*
Y261069D02*
X105444Y259056D01*
X103431Y261069D02*
Y261810D01*
X105444Y259056D02*
X108200D01*
X101063Y260007D02*
Y268782D01*
X145854Y254500D02*
X161200D01*
X95916Y271500D02*
X97277Y270139D01*
X95916Y271500D02*
Y275153D01*
X96631Y275869D02*
X99882D01*
X97277Y270139D02*
X99705D01*
X101063Y268782D01*
X100556Y259500D02*
X101063Y260007D01*
X142353Y260547D02*
Y271500D01*
Y260547D02*
X146600Y256300D01*
X141553Y277100D02*
Y277900D01*
X137737Y286763D02*
X141553Y282947D01*
X225471Y134700D02*
X254600D01*
X94600Y349347D02*
X96694D01*
X93553Y348300D02*
X94600Y349347D01*
X87756Y348300D02*
X93553D01*
X120200Y343500D02*
Y346947D01*
X114352Y343500D02*
X120200D01*
X117552Y308300D02*
X125000D01*
X124753Y308547D02*
X125000Y308300D01*
X124753Y308547D02*
Y312300D01*
X120238Y327462D02*
X124753Y322947D01*
X108505Y349347D02*
X114352Y343500D01*
X114797Y333653D02*
X115044Y333900D01*
X113737Y100237D02*
X117000Y103500D01*
X113737Y97100D02*
Y100237D01*
X108397Y373653D02*
X108505Y373761D01*
X108644Y373900D01*
X108505Y366453D02*
Y373761D01*
X87756Y341900D02*
Y348300D01*
X261888Y153100D02*
X266047D01*
X254330Y145542D02*
X261888Y153100D01*
X69800Y121100D02*
X71698Y122998D01*
X66956Y121100D02*
X69800D01*
X256200Y131253D02*
Y133100D01*
X254600Y134700D02*
X256200Y133100D01*
X163328Y134685D02*
X165144Y132869D01*
X163328Y134685D02*
Y135572D01*
X159948Y138952D02*
X163328Y135572D01*
X165128Y135431D02*
X165890Y134669D01*
X165128Y135431D02*
Y136972D01*
X161179Y140920D02*
X165128Y136972D01*
X137000Y97900D02*
X140702D01*
X131996Y117906D02*
Y124307D01*
X128498Y114408D02*
X131996Y117906D01*
X128498Y97900D02*
Y114408D01*
X147044Y113100D02*
Y115856D01*
X143457Y119443D02*
X147044Y115856D01*
X138657Y119443D02*
X143457D01*
X117000Y103500D02*
Y106147D01*
X123203Y112053D02*
X123400Y111856D01*
X117000Y112053D02*
X123203D01*
X123400Y111856D02*
X130105Y118561D01*
X117000Y112053D02*
X117197Y111856D01*
X130105Y118561D02*
Y124385D01*
X93885Y129185D02*
Y131078D01*
X87698Y122998D02*
X93885Y129185D01*
X71698Y122998D02*
X87698D01*
X93807Y133124D02*
X93885Y133046D01*
X87136Y135202D02*
X89214Y133124D01*
X77000Y135202D02*
X87136D01*
X126956Y61900D02*
X149800D01*
X202600Y40300D02*
Y61900D01*
X199400Y37100D02*
X202600Y40300D01*
X69946Y51500D02*
X74244D01*
X69000Y50554D02*
X69946Y51500D01*
X176200Y28300D02*
Y32300D01*
X181000Y37100D01*
X199400D01*
X117000Y61100D02*
X117800Y61900D01*
X121444D01*
X89800Y39056D02*
Y45544D01*
X177000Y27856D02*
X185000D01*
X203400D02*
X203400Y27856D01*
X153712Y24388D02*
X153800Y24300D01*
X143400Y24388D02*
X153712D01*
X135312D02*
X143400D01*
X128528Y31172D02*
X135312Y24388D01*
X128528Y31172D02*
Y32000D01*
X97500Y47000D02*
X107072D01*
X93444Y51056D02*
X97500Y47000D01*
X89800Y51056D02*
X93444D01*
X59400Y67500D02*
X69000D01*
Y53100D02*
Y67500D01*
X65151Y49251D02*
X69000Y53100D01*
X57000Y65100D02*
X59400Y67500D01*
X214600Y163500D02*
Y168300D01*
X191400Y157100D02*
X194600Y160300D01*
X214600Y163500D02*
X227178D01*
X226600Y140850D02*
X230020Y137430D01*
X194600Y160300D02*
X222600D01*
X226600Y156300D01*
Y140850D02*
Y156300D01*
X193595Y156750D02*
X195346Y158500D01*
X221854D01*
X224800Y155554D01*
Y135371D02*
Y155554D01*
Y135371D02*
X225471Y134700D01*
X216200Y136130D02*
Y150700D01*
Y131500D02*
Y136130D01*
Y131500D02*
X218513Y129187D01*
X251398Y141486D02*
Y142076D01*
X227178Y163500D02*
X229133Y161545D01*
Y160534D02*
Y161545D01*
Y160534D02*
X229967Y159700D01*
X235670D02*
X236043Y160073D01*
X254600Y134700D02*
X256516Y136616D01*
X79256Y295091D02*
X79647Y294700D01*
X73800Y298224D02*
Y303500D01*
X77500Y295091D02*
X79256D01*
X73800Y298224D02*
X76933Y295091D01*
X67337D02*
X76933D01*
X70191Y291253D02*
X74132D01*
X79385Y286000D01*
X82441D01*
X61716Y202843D02*
X69000Y206700D01*
X59402Y203799D02*
X61447Y202700D01*
X59402Y203799D02*
Y267302D01*
X62400Y270300D01*
Y271315D01*
X64685Y273600D01*
X65700D01*
X65800Y273700D01*
Y277484D01*
X65368Y277916D02*
Y281509D01*
Y277916D02*
X65800Y277484D01*
X56805Y269706D02*
X63400Y276300D01*
Y281509D01*
X48200Y291253D02*
Y292053D01*
X49653Y40853D02*
X52288D01*
X47400Y38600D02*
X49653Y40853D01*
X47400Y33900D02*
Y38600D01*
X56816Y28040D02*
X66156Y18700D01*
X60753Y46453D02*
X63551Y49251D01*
X60753Y45380D02*
Y46453D01*
X63312Y36916D02*
X68263D01*
X71147Y39800D01*
X71300D01*
X63312Y38884D02*
X63488Y39061D01*
X65228D01*
X65990Y39822D01*
Y40390D01*
X69000Y43400D01*
X56816Y28040D02*
Y30420D01*
X48221Y42821D02*
X52288D01*
X41600Y36200D02*
X48221Y42821D01*
X35300Y36200D02*
X41600D01*
X31623Y32523D02*
X35300Y36200D01*
X49711Y34947D02*
X52288D01*
X49200Y34436D02*
X49711Y34947D01*
X49200Y30200D02*
Y34436D01*
Y30200D02*
X50555Y28845D01*
X52879D01*
X163400Y82600D02*
Y94700D01*
X181900Y95000D02*
Y101000D01*
Y95000D02*
X187300Y89600D01*
X186900Y93400D02*
Y101000D01*
X187300Y89600D02*
X207229D01*
X213329Y95700D01*
X186900Y93400D02*
X188900Y91400D01*
X206483D01*
X201900Y101000D02*
X204500D01*
X237600Y57102D02*
X250698D01*
X237600Y44898D02*
X258513D01*
X258810Y44600D01*
X292200Y114600D02*
X294243Y112557D01*
X213329Y95700D02*
X215600D01*
X234500Y114600D02*
X292200D01*
X284900Y110000D02*
X287157Y107743D01*
X206483Y91400D02*
X231783Y116700D01*
X296000Y116400D02*
X297787Y114613D01*
X257100Y116400D02*
X296000D01*
X256800Y116700D02*
X257100Y116400D01*
X231783Y116700D02*
X256800D01*
X215600Y95700D02*
X234500Y114600D01*
X244400Y79100D02*
Y108700D01*
X245700Y110000D01*
X284900D01*
X297787Y105100D02*
Y114613D01*
X294243Y105100D02*
Y112557D01*
X287157Y105100D02*
Y107743D01*
X163400Y82600D02*
X170700Y75300D01*
X198853D01*
X160300Y118116D02*
Y129187D01*
Y118116D02*
X165200Y113216D01*
Y105200D02*
Y113216D01*
Y105200D02*
X169900Y100500D01*
Y91247D02*
Y100500D01*
Y91247D02*
X184047Y77100D01*
X199598D01*
X200798Y75900D01*
X150681Y129187D02*
X160300D01*
X218513D01*
X198853Y75300D02*
X204253Y69900D01*
X231400D01*
X233400Y67900D01*
X200798Y75900D02*
X240500D01*
X248394Y68006D01*
X253826D01*
X63312Y28188D02*
Y32979D01*
X227773Y47275D02*
X237600Y57102D01*
X227113Y47275D02*
X227773D01*
X225200Y45362D02*
X227113Y47275D01*
X225200Y44100D02*
Y45362D01*
X228600Y44100D02*
X236802D01*
X237600Y44898D01*
X124200Y89456D02*
X132044D01*
X132200Y89300D01*
X135600D02*
X142444D01*
X142600Y89456D01*
X52800Y119700D02*
X54472Y118028D01*
X77771D01*
X43597Y277791D02*
Y282009D01*
X42753Y282853D02*
X43597Y282009D01*
X42753Y282853D02*
Y287100D01*
X47953Y292300D01*
X41600Y275794D02*
X43597Y277791D01*
X41600Y123846D02*
Y275794D01*
Y123846D02*
X45746Y119700D01*
X52800D01*
X69500Y126800D02*
X73100D01*
X66956Y124256D02*
X69500Y126800D01*
X66956Y121100D02*
Y124256D01*
X64556Y136000D02*
X76202D01*
X77000Y135202D01*
X65856Y134700D02*
X67800D01*
X72300Y130200D01*
X73100D01*
X52879Y27621D02*
Y28845D01*
Y27621D02*
X63756Y16744D01*
X36706Y19325D02*
X37303Y18729D01*
X55178Y13900D02*
X58244D01*
X37303Y14700D02*
Y18729D01*
Y14700D02*
X42262D01*
X42777Y15215D01*
X53863D01*
X55178Y13900D01*
X115044Y334700D02*
Y339500D01*
X37000Y286100D02*
Y305700D01*
X57800Y310753D02*
Y318700D01*
X89303Y310753D02*
X89356Y310700D01*
Y306700D02*
Y310700D01*
X95647Y316547D02*
X97495D01*
X105906Y286193D02*
X106476Y286763D01*
X94663D02*
X97618D01*
X109429Y283871D02*
Y286763D01*
X48200Y291253D02*
X56609D01*
X57409Y295091D02*
X59463D01*
X100556Y253100D02*
Y259500D01*
X236043Y160073D02*
Y164124D01*
X229967Y159700D02*
X235670D01*
X256516Y136616D02*
Y142076D01*
X253583Y137430D02*
Y141683D01*
X230020Y137430D02*
X253583D01*
X147044Y106700D02*
Y113100D01*
X0Y0D02*
Y383400D01*
X-400Y383800D02*
X0Y383400D01*
X-400Y383800D02*
X309100D01*
X309300Y383600D01*
Y0D02*
Y383600D01*
X0Y0D02*
X309300D01*
D49*
X106776Y276889D02*
X106968Y277081D01*
X106776Y276376D02*
Y276889D01*
X105000Y274600D02*
X106776Y276376D01*
X106968Y277081D02*
Y279018D01*
X130800Y195900D02*
X130900Y195800D01*
Y192100D02*
Y195800D01*
X54588Y45121D02*
X54847Y45380D01*
X47269Y45121D02*
X54588D01*
X59682Y292018D02*
Y292603D01*
X59463D02*
Y295091D01*
Y292603D02*
X59682D01*
X37000Y277393D02*
Y286100D01*
X59682Y292018D02*
X61235Y290465D01*
X63100Y288600D01*
D50*
X105000Y274600D02*
X105700Y273900D01*
X103032Y276569D02*
X105000Y274600D01*
X103032Y276569D02*
Y279018D01*
D51*
X135400Y293900D02*
D03*
X131000Y210700D02*
D03*
X57800Y318700D02*
D03*
X73800Y262700D02*
D03*
Y303500D02*
D03*
X69000Y206700D02*
D03*
X72200Y244300D02*
D03*
X289000Y156700D02*
D03*
X153000Y241100D02*
D03*
X214600Y168300D02*
D03*
X150600Y263500D02*
D03*
X121800Y300300D02*
D03*
X161000Y297100D02*
D03*
X144200Y313100D02*
D03*
X159400Y334700D02*
D03*
X93800Y197900D02*
D03*
X58600Y162700D02*
D03*
X269800Y169100D02*
D03*
X287400Y123500D02*
D03*
X163400Y94700D02*
D03*
X24200Y298600D02*
D03*
D52*
X141000Y210700D02*
D03*
X151000D02*
D03*
X161000D02*
D03*
X171000D02*
D03*
X181000D02*
D03*
X183400Y177300D02*
D03*
D53*
X19974Y8794D02*
D03*
X48320D02*
D03*
D54*
X98600Y10700D02*
D03*
D55*
Y18574D02*
D03*
D56*
X183400Y187300D02*
D03*
D57*
X91900Y228300D02*
D03*
X91300Y248100D02*
D03*
X117000Y221700D02*
D03*
X164200Y61900D02*
D03*
X215400Y90700D02*
D03*
D58*
X119400Y276200D02*
D03*
X138200Y135700D02*
D03*
X140300Y130500D02*
D03*
X131811Y131584D02*
D03*
X94800Y110100D02*
D03*
X99900Y114300D02*
D03*
X96000Y96600D02*
D03*
X84400Y150500D02*
D03*
X80200Y147500D02*
D03*
X184300Y144400D02*
D03*
X124800Y330300D02*
D03*
X97100Y40200D02*
D03*
X99400Y101400D02*
D03*
X202141Y142900D02*
D03*
X251400Y149800D02*
D03*
X79000Y272300D02*
D03*
X104800Y325200D02*
D03*
X182600Y64200D02*
D03*
X143400Y52500D02*
D03*
X111400Y306500D02*
D03*
X124100Y200600D02*
D03*
X185200Y138800D02*
D03*
X116700Y254300D02*
D03*
X117700Y267300D02*
D03*
X86200Y324400D02*
D03*
X72200Y349700D02*
D03*
X121600Y379900D02*
D03*
X104800Y357800D02*
D03*
X46700Y304600D02*
D03*
X211700Y80400D02*
D03*
X55700Y148300D02*
D03*
X59200Y98300D02*
D03*
X197800Y46700D02*
D03*
X202600Y16300D02*
D03*
X129800Y281100D02*
D03*
X81000Y289900D02*
D03*
X87400Y280300D02*
D03*
X29800Y56300D02*
D03*
X114600Y317900D02*
D03*
X145000Y369900D02*
D03*
X66300Y269700D02*
D03*
X71300Y39800D02*
D03*
X44000Y50800D02*
D03*
X258700Y121100D02*
D03*
X284900Y76600D02*
D03*
X233400Y67900D02*
D03*
X244400Y79100D02*
D03*
X289700Y71800D02*
D03*
X289900Y76600D02*
D03*
X279800Y76500D02*
D03*
X280000Y67100D02*
D03*
X289600Y66800D02*
D03*
X280200Y72000D02*
D03*
X284558Y71935D02*
D03*
X284700Y66800D02*
D03*
X44200Y56300D02*
D03*
D59*
X61235Y290465D02*
D03*
X65565D02*
D03*
X61235Y286135D02*
D03*
X65565D02*
D03*
M02*
