G04 Layer_Color=8421504*
%FSLAX25Y25*%
%MOIN*%
G70*
G01*
G75*
%ADD10R,0.03543X0.03150*%
%ADD11R,0.03150X0.03543*%
%ADD12R,0.03543X0.02756*%
%ADD13R,0.02000X0.02752*%
%ADD14R,0.06496X0.10433*%
%ADD15R,0.00984X0.02756*%
%ADD16R,0.02756X0.00984*%
%ADD17R,0.01575X0.05315*%
%ADD18R,0.03937X0.07874*%
%ADD19R,0.05709X0.02362*%
%ADD20R,0.02000X0.04000*%
%ADD21R,0.06000X0.09000*%
%ADD22R,0.05118X0.03937*%
%ADD23R,0.04724X0.02165*%
%ADD24R,0.01968X0.05905*%
%ADD25R,0.05905X0.01968*%
%ADD26R,0.17323X0.17323*%
%ADD27R,0.02756X0.03543*%
G04:AMPARAMS|DCode=28|XSize=39.37mil|YSize=39.37mil|CornerRadius=5.91mil|HoleSize=0mil|Usage=FLASHONLY|Rotation=90.000|XOffset=0mil|YOffset=0mil|HoleType=Round|Shape=RoundedRectangle|*
%AMROUNDEDRECTD28*
21,1,0.03937,0.02756,0,0,90.0*
21,1,0.02756,0.03937,0,0,90.0*
1,1,0.01181,0.01378,0.01378*
1,1,0.01181,0.01378,-0.01378*
1,1,0.01181,-0.01378,-0.01378*
1,1,0.01181,-0.01378,0.01378*
%
%ADD28ROUNDEDRECTD28*%
%ADD29R,0.04134X0.00984*%
%ADD30R,0.00984X0.04134*%
%ADD31R,0.02362X0.03937*%
%ADD32O,0.01181X0.07283*%
%ADD33O,0.07283X0.01181*%
%ADD34R,0.01378X0.06319*%
%ADD35R,0.06319X0.01575*%
%ADD36R,0.03937X0.05118*%
%ADD37R,0.04000X0.02000*%
%ADD38R,0.09000X0.06000*%
%ADD39R,0.02913X0.09449*%
%ADD40R,0.03347X0.01102*%
%ADD41R,0.01102X0.03347*%
%ADD42R,0.08976X0.07008*%
%ADD44C,0.06000*%
%ADD45R,0.05512X0.05905*%
%ADD46R,0.00984X0.06102*%
%ADD48C,0.01000*%
%ADD51C,0.08000*%
%ADD66R,0.09842X0.09843*%
G36*
X104124Y290352D02*
X104242Y290352D01*
X104458Y290262D01*
X104624Y290096D01*
X104714Y289879D01*
X104714Y289761D01*
X104714Y289644D01*
X104624Y289427D01*
X104458Y289261D01*
X104241Y289171D01*
X104124D01*
X104007Y289171D01*
X103789Y289261D01*
X103623Y289427D01*
X103533Y289644D01*
X103533Y289761D01*
Y289879D01*
X103623Y290096D01*
X103789Y290262D01*
X104006Y290352D01*
X104124D01*
X104124Y290352D01*
D02*
G37*
G36*
X107411Y290262D02*
X107577Y290096D01*
X107667Y289879D01*
Y289761D01*
X107667Y289644D01*
X107577Y289427D01*
X107411Y289261D01*
X107194Y289171D01*
X107076Y289171D01*
X106959D01*
X106742Y289261D01*
X106576Y289427D01*
X106486Y289644D01*
Y289761D01*
X106486Y289879D01*
X106576Y290096D01*
X106742Y290262D01*
X106958Y290352D01*
X107076Y290352D01*
Y290352D01*
X107194D01*
X107411Y290262D01*
D02*
G37*
G36*
X110364D02*
X110530Y290096D01*
X110620Y289879D01*
Y289761D01*
X110620Y289644D01*
X110530Y289427D01*
X110364Y289261D01*
X110146Y289171D01*
X110029Y289171D01*
X109912D01*
X109695Y289261D01*
X109529Y289427D01*
X109439Y289644D01*
Y289761D01*
X109439Y289879D01*
X109529Y290096D01*
X109695Y290262D01*
X109912Y290352D01*
X110029Y290352D01*
Y290352D01*
X110147D01*
X110364Y290262D01*
D02*
G37*
G36*
X101171Y290352D02*
X101288Y290352D01*
X101505Y290262D01*
X101671Y290096D01*
X101761Y289879D01*
X101761Y289761D01*
X101761Y289644D01*
X101671Y289427D01*
X101505Y289261D01*
X101288Y289171D01*
X101171D01*
X101054Y289171D01*
X100836Y289261D01*
X100670Y289427D01*
X100580Y289644D01*
X100580Y289761D01*
Y289879D01*
X100670Y290096D01*
X100836Y290262D01*
X101053Y290352D01*
X101171D01*
X101171Y290352D01*
D02*
G37*
G36*
X22855Y24594D02*
X23520Y23984D01*
X23900Y23167D01*
X23920Y22717D01*
X23900Y22267D01*
X23520Y21450D01*
X22855Y20841D01*
X22008Y20532D01*
X21558Y20552D01*
X17227D01*
X16777Y20532D01*
X15930Y20841D01*
X15265Y21450D01*
X14885Y22267D01*
X14865Y22717D01*
Y22717D01*
Y22717D01*
D01*
X14885Y23167D01*
X15265Y23984D01*
X15930Y24594D01*
X16777Y24903D01*
X17227Y24883D01*
X21558Y24883D01*
Y24883D01*
X22008Y24903D01*
X22855Y24594D01*
D02*
G37*
G36*
X53564D02*
X54229Y23984D01*
X54610Y23167D01*
X54629Y22717D01*
X54609Y22267D01*
X54229Y21450D01*
X53564Y20841D01*
X52717Y20532D01*
X52267Y20552D01*
X47936D01*
X47486Y20532D01*
X46639Y20841D01*
X45974Y21450D01*
X45594Y22267D01*
X45574Y22717D01*
Y22717D01*
Y22717D01*
D01*
X45594Y23167D01*
X45974Y23984D01*
X46639Y24594D01*
X47486Y24903D01*
X47936Y24883D01*
X52267Y24883D01*
Y24883D01*
X52717Y24903D01*
X53564Y24594D01*
D02*
G37*
G36*
X98553Y290262D02*
X98719Y290096D01*
X98809Y289879D01*
Y289761D01*
X98809Y289644D01*
X98719Y289427D01*
X98553Y289261D01*
X98335Y289171D01*
X98218Y289171D01*
X98101D01*
X97884Y289261D01*
X97718Y289427D01*
X97628Y289644D01*
Y289761D01*
X97628Y289879D01*
X97718Y290096D01*
X97884Y290262D01*
X98101Y290352D01*
X98218Y290352D01*
Y290352D01*
X98336D01*
X98553Y290262D01*
D02*
G37*
G36*
X98553Y297939D02*
X98719Y297773D01*
X98809Y297556D01*
X98809Y297439D01*
X98809Y297321D01*
X98719Y297104D01*
X98553Y296938D01*
X98336Y296848D01*
X98218D01*
X98101Y296848D01*
X97884Y296938D01*
X97718Y297104D01*
X97628Y297322D01*
X97628Y297439D01*
Y297556D01*
X97718Y297773D01*
X97884Y297939D01*
X98101Y298029D01*
X98218D01*
Y298029D01*
X98335Y298029D01*
X98553Y297939D01*
D02*
G37*
G36*
X107411D02*
X107577Y297773D01*
X107667Y297556D01*
X107667Y297439D01*
X107667Y297321D01*
X107577Y297104D01*
X107411Y296938D01*
X107194Y296848D01*
X107076D01*
X106958Y296848D01*
X106742Y296938D01*
X106576Y297104D01*
X106486Y297322D01*
X106486Y297439D01*
Y297556D01*
X106576Y297773D01*
X106742Y297939D01*
X106959Y298029D01*
X107076D01*
Y298029D01*
X107194Y298029D01*
X107411Y297939D01*
D02*
G37*
G36*
X110364D02*
X110530Y297773D01*
X110620Y297556D01*
X110620Y297439D01*
X110620Y297321D01*
X110530Y297104D01*
X110364Y296938D01*
X110147Y296848D01*
X110029D01*
X109912Y296848D01*
X109695Y296938D01*
X109529Y297104D01*
X109439Y297322D01*
X109439Y297439D01*
Y297556D01*
X109529Y297773D01*
X109695Y297939D01*
X109912Y298029D01*
X110029D01*
Y298029D01*
X110146Y298029D01*
X110364Y297939D01*
D02*
G37*
G36*
X112982Y298029D02*
X112982Y298029D01*
X113099D01*
X113316Y297939D01*
X113482Y297773D01*
X113572Y297556D01*
Y297439D01*
X113572Y297322D01*
X113482Y297104D01*
X113316Y296938D01*
X113100Y296848D01*
X112982Y296848D01*
X112864D01*
X112647Y296938D01*
X112481Y297104D01*
X112391Y297321D01*
Y297439D01*
X112391Y297556D01*
X112481Y297773D01*
X112647Y297939D01*
X112864Y298029D01*
X112982Y298029D01*
D02*
G37*
G36*
Y290352D02*
X113100Y290352D01*
X113316Y290262D01*
X113482Y290096D01*
X113572Y289879D01*
X113572Y289761D01*
X113572Y289644D01*
X113482Y289427D01*
X113316Y289261D01*
X113099Y289171D01*
X112982D01*
X112864Y289171D01*
X112647Y289261D01*
X112481Y289427D01*
X112391Y289644D01*
X112391Y289761D01*
Y289879D01*
X112481Y290096D01*
X112647Y290262D01*
X112864Y290352D01*
X112982D01*
X112982Y290352D01*
D02*
G37*
G36*
X101171Y298029D02*
X101171Y298029D01*
X101288D01*
X101505Y297939D01*
X101671Y297773D01*
X101761Y297556D01*
Y297439D01*
X101761Y297322D01*
X101671Y297104D01*
X101505Y296938D01*
X101288Y296848D01*
X101171Y296848D01*
X101053D01*
X100836Y296938D01*
X100670Y297104D01*
X100580Y297321D01*
Y297439D01*
X100580Y297556D01*
X100670Y297773D01*
X100836Y297939D01*
X101054Y298029D01*
X101171Y298029D01*
D02*
G37*
G36*
X104124D02*
X104124Y298029D01*
X104241D01*
X104458Y297939D01*
X104624Y297773D01*
X104714Y297556D01*
Y297439D01*
X104714Y297322D01*
X104624Y297104D01*
X104458Y296938D01*
X104242Y296848D01*
X104124Y296848D01*
X104006D01*
X103789Y296938D01*
X103623Y297104D01*
X103533Y297321D01*
Y297439D01*
X103533Y297556D01*
X103623Y297773D01*
X103789Y297939D01*
X104007Y298029D01*
X104124Y298029D01*
D02*
G37*
D10*
X143200Y92356D02*
D03*
Y86844D02*
D03*
X124800Y92356D02*
D03*
Y86844D02*
D03*
X124000Y114756D02*
D03*
Y109244D02*
D03*
X140800Y115556D02*
D03*
Y110044D02*
D03*
X178400Y145956D02*
D03*
Y140444D02*
D03*
X168800Y145956D02*
D03*
Y140444D02*
D03*
X64800Y65156D02*
D03*
Y59644D02*
D03*
X44000Y35556D02*
D03*
Y30044D02*
D03*
X72000Y21600D02*
D03*
Y16088D02*
D03*
X90400Y41956D02*
D03*
Y36444D02*
D03*
Y53956D02*
D03*
Y48444D02*
D03*
X204000Y30756D02*
D03*
Y25244D02*
D03*
X185600Y25244D02*
D03*
Y30756D02*
D03*
X176800Y25688D02*
D03*
Y31200D02*
D03*
X144000Y41600D02*
D03*
Y47112D02*
D03*
X161600Y53156D02*
D03*
Y47644D02*
D03*
X198400Y61156D02*
D03*
Y55644D02*
D03*
X276000Y144356D02*
D03*
Y138844D02*
D03*
X268000Y144356D02*
D03*
Y138844D02*
D03*
X25100Y282744D02*
D03*
Y288256D02*
D03*
X135800Y197244D02*
D03*
Y202756D02*
D03*
X89600Y293156D02*
D03*
Y287644D02*
D03*
X144000Y27288D02*
D03*
Y32800D02*
D03*
X80800Y34044D02*
D03*
Y39556D02*
D03*
X53600Y59644D02*
D03*
Y65156D02*
D03*
X81600Y279644D02*
D03*
Y285156D02*
D03*
X108800Y261956D02*
D03*
Y256444D02*
D03*
X69600Y166756D02*
D03*
Y161244D02*
D03*
X80000Y166756D02*
D03*
Y161244D02*
D03*
X108700Y112156D02*
D03*
Y106644D02*
D03*
D11*
X147644Y109600D02*
D03*
X153156D02*
D03*
X36444Y65600D02*
D03*
X41956D02*
D03*
X80356Y54400D02*
D03*
X74844D02*
D03*
X64356Y16800D02*
D03*
X58844D02*
D03*
X122044Y64800D02*
D03*
X127556D02*
D03*
X159912Y27200D02*
D03*
X154400D02*
D03*
X225156Y83200D02*
D03*
X219644D02*
D03*
X238044Y125600D02*
D03*
X243556D02*
D03*
X101156Y262400D02*
D03*
X95644D02*
D03*
X101156Y256000D02*
D03*
X95644D02*
D03*
X70144Y278500D02*
D03*
X75656D02*
D03*
X85956Y297600D02*
D03*
X80444D02*
D03*
X89956Y309600D02*
D03*
X84444D02*
D03*
X103556Y303000D02*
D03*
X98044D02*
D03*
X103356Y309400D02*
D03*
X97844D02*
D03*
X147644Y116000D02*
D03*
X153156D02*
D03*
X88356Y344800D02*
D03*
X82844D02*
D03*
X82256Y145300D02*
D03*
X76744D02*
D03*
X65156Y138900D02*
D03*
X59644D02*
D03*
X67556Y124000D02*
D03*
X62044D02*
D03*
X169044Y159900D02*
D03*
X174556D02*
D03*
X108944Y382900D02*
D03*
X114456D02*
D03*
X109244Y376800D02*
D03*
X114756D02*
D03*
X115644Y337600D02*
D03*
X121156D02*
D03*
X88356Y351200D02*
D03*
X82844D02*
D03*
X115644Y343200D02*
D03*
X121156D02*
D03*
X89956Y317600D02*
D03*
X84444D02*
D03*
D12*
X117600Y114953D02*
D03*
Y109047D02*
D03*
X256800Y134153D02*
D03*
Y128247D02*
D03*
X254400Y177047D02*
D03*
Y182953D02*
D03*
X130700Y252447D02*
D03*
Y258353D02*
D03*
X138400Y252647D02*
D03*
Y258553D02*
D03*
X120800Y355753D02*
D03*
Y349847D02*
D03*
X118400Y327135D02*
D03*
Y333040D02*
D03*
D13*
X9060Y35423D02*
D03*
X12800D02*
D03*
X16540D02*
D03*
X9060Y44577D02*
D03*
X12800D02*
D03*
X16540D02*
D03*
X18660Y163423D02*
D03*
X22400D02*
D03*
X26140D02*
D03*
X18660Y172577D02*
D03*
X22400D02*
D03*
X26140D02*
D03*
D14*
X58400Y40800D02*
D03*
D15*
X55447Y48280D02*
D03*
X57416D02*
D03*
X59384D02*
D03*
X61353D02*
D03*
Y33320D02*
D03*
X59384D02*
D03*
X57416D02*
D03*
X55447D02*
D03*
D16*
X63912Y45721D02*
D03*
Y43753D02*
D03*
Y41784D02*
D03*
Y39816D02*
D03*
Y37847D02*
D03*
Y35879D02*
D03*
X52888D02*
D03*
Y37847D02*
D03*
Y39816D02*
D03*
Y41784D02*
D03*
Y43753D02*
D03*
Y45721D02*
D03*
D17*
X29629Y22225D02*
D03*
X32188D02*
D03*
X34747D02*
D03*
X37306D02*
D03*
X39865D02*
D03*
D18*
X31794Y11300D02*
D03*
X37700D02*
D03*
D19*
X107672Y49900D02*
D03*
Y44900D02*
D03*
Y39900D02*
D03*
Y34900D02*
D03*
X129128Y49900D02*
D03*
Y44900D02*
D03*
Y39900D02*
D03*
Y34900D02*
D03*
D20*
X136200Y92200D02*
D03*
X132800D02*
D03*
X229200Y47000D02*
D03*
X225800D02*
D03*
D21*
X134500Y70700D02*
D03*
X227500Y25500D02*
D03*
D22*
X193600Y19250D02*
D03*
Y25550D02*
D03*
D23*
X173281Y61340D02*
D03*
Y57600D02*
D03*
Y53860D02*
D03*
X183519D02*
D03*
Y61340D02*
D03*
D24*
X301930Y108000D02*
D03*
X298387D02*
D03*
X294843D02*
D03*
X291300D02*
D03*
X287757D02*
D03*
X284213D02*
D03*
X280670D02*
D03*
X277127D02*
D03*
X273584D02*
D03*
X270040D02*
D03*
X266497D02*
D03*
X262953D02*
D03*
X259410D02*
D03*
Y47500D02*
D03*
X262953D02*
D03*
X266497D02*
D03*
X270040D02*
D03*
X273584D02*
D03*
X277127D02*
D03*
X280670D02*
D03*
X284213D02*
D03*
X287757D02*
D03*
X291300D02*
D03*
X294843D02*
D03*
X298387D02*
D03*
X301930D02*
D03*
D25*
X254426Y99252D02*
D03*
Y95709D02*
D03*
Y92165D02*
D03*
Y88622D02*
D03*
Y85079D02*
D03*
Y81535D02*
D03*
Y77992D02*
D03*
Y74449D02*
D03*
Y70906D02*
D03*
Y67362D02*
D03*
Y63819D02*
D03*
Y60276D02*
D03*
Y56732D02*
D03*
D26*
X285158Y74835D02*
D03*
D27*
X266647Y156000D02*
D03*
X272553D02*
D03*
X48553Y295200D02*
D03*
X42647D02*
D03*
X137047Y275200D02*
D03*
X142953D02*
D03*
X136247Y280800D02*
D03*
X142153D02*
D03*
X119447Y315200D02*
D03*
X125353D02*
D03*
X134153Y364000D02*
D03*
X128247D02*
D03*
X134153Y373600D02*
D03*
X128247D02*
D03*
X119447Y320800D02*
D03*
X125353D02*
D03*
D28*
X34147Y282800D02*
D03*
X41053D02*
D03*
D29*
X100482Y274832D02*
D03*
Y276800D02*
D03*
Y278768D02*
D03*
X110718D02*
D03*
Y276800D02*
D03*
Y274832D02*
D03*
D30*
X101663Y281918D02*
D03*
X103631D02*
D03*
X105600D02*
D03*
X107569D02*
D03*
X109537D02*
D03*
Y271682D02*
D03*
X107569D02*
D03*
X105600D02*
D03*
X103631D02*
D03*
X101663D02*
D03*
D31*
X18660Y144987D02*
D03*
X22400D02*
D03*
X26140D02*
D03*
Y155813D02*
D03*
X18660D02*
D03*
D32*
X101178Y187915D02*
D03*
X103147D02*
D03*
X105115D02*
D03*
X107083D02*
D03*
X109052D02*
D03*
X111021D02*
D03*
X112989D02*
D03*
X114957D02*
D03*
X116926D02*
D03*
X118895D02*
D03*
X120863D02*
D03*
X122831D02*
D03*
X124800D02*
D03*
X126769D02*
D03*
X128737D02*
D03*
X130705D02*
D03*
X132674D02*
D03*
X134643D02*
D03*
X136611D02*
D03*
X138579D02*
D03*
X140548D02*
D03*
X142517D02*
D03*
X144485D02*
D03*
X146453D02*
D03*
X148422D02*
D03*
Y127285D02*
D03*
X146453D02*
D03*
X144485D02*
D03*
X142517D02*
D03*
X140548D02*
D03*
X138579D02*
D03*
X136611D02*
D03*
X134643D02*
D03*
X132674D02*
D03*
X130705D02*
D03*
X128737D02*
D03*
X126769D02*
D03*
X124800D02*
D03*
X122831D02*
D03*
X120863D02*
D03*
X118895D02*
D03*
X116926D02*
D03*
X114957D02*
D03*
X112989D02*
D03*
X111021D02*
D03*
X109052D02*
D03*
X107083D02*
D03*
X105115D02*
D03*
X103147D02*
D03*
X101178D02*
D03*
D33*
X155115Y181222D02*
D03*
Y179253D02*
D03*
Y177285D02*
D03*
Y175317D02*
D03*
Y173348D02*
D03*
Y171379D02*
D03*
Y169411D02*
D03*
Y167443D02*
D03*
Y165474D02*
D03*
Y163505D02*
D03*
Y161537D02*
D03*
Y159569D02*
D03*
Y157600D02*
D03*
Y155631D02*
D03*
Y153663D02*
D03*
Y151695D02*
D03*
Y149726D02*
D03*
Y147757D02*
D03*
Y145789D02*
D03*
Y143821D02*
D03*
Y141852D02*
D03*
Y139883D02*
D03*
Y137915D02*
D03*
Y135947D02*
D03*
Y133978D02*
D03*
X94485D02*
D03*
Y135947D02*
D03*
Y137915D02*
D03*
Y139883D02*
D03*
Y141852D02*
D03*
Y143821D02*
D03*
Y145789D02*
D03*
Y147757D02*
D03*
Y149726D02*
D03*
Y151695D02*
D03*
Y153663D02*
D03*
Y155631D02*
D03*
Y157600D02*
D03*
Y159569D02*
D03*
Y161537D02*
D03*
Y163505D02*
D03*
Y165474D02*
D03*
Y167443D02*
D03*
Y169411D02*
D03*
Y171379D02*
D03*
Y173348D02*
D03*
Y175317D02*
D03*
Y177285D02*
D03*
Y179253D02*
D03*
Y181222D02*
D03*
D34*
X109106Y369353D02*
D03*
X106153D02*
D03*
X103200D02*
D03*
X100247D02*
D03*
X97294D02*
D03*
X109106Y352247D02*
D03*
X106153D02*
D03*
X103200D02*
D03*
X100247D02*
D03*
X97294D02*
D03*
X109906Y336553D02*
D03*
X106953D02*
D03*
X104000D02*
D03*
X101047D02*
D03*
X98094D02*
D03*
X109906Y319447D02*
D03*
X106953D02*
D03*
X104000D02*
D03*
X101047D02*
D03*
X98094D02*
D03*
D35*
X111753Y360800D02*
D03*
Y357650D02*
D03*
X94647Y360111D02*
D03*
X112553Y328000D02*
D03*
Y324850D02*
D03*
X95447Y327311D02*
D03*
D36*
X35150Y47200D02*
D03*
X28850D02*
D03*
D37*
X73700Y129700D02*
D03*
Y133100D02*
D03*
D38*
X52200Y131400D02*
D03*
D39*
X182496Y119231D02*
D03*
X187496D02*
D03*
X192496D02*
D03*
X197496D02*
D03*
X202496D02*
D03*
X202500Y103900D02*
D03*
X197500D02*
D03*
X192500D02*
D03*
X187500D02*
D03*
X182500D02*
D03*
D40*
X70791Y288247D02*
D03*
Y294153D02*
D03*
X57209D02*
D03*
Y288247D02*
D03*
D41*
X67937Y297991D02*
D03*
X65969D02*
D03*
X64000D02*
D03*
X62032D02*
D03*
X60063D02*
D03*
Y284409D02*
D03*
X62032D02*
D03*
X64000D02*
D03*
X65969D02*
D03*
X67937D02*
D03*
D42*
X64000Y291200D02*
D03*
D44*
X216800Y153600D02*
D03*
Y139030D02*
D03*
X203021Y153600D02*
D03*
Y139030D02*
D03*
D45*
X106463Y100000D02*
D03*
X114337D02*
D03*
D46*
X259675Y167024D02*
D03*
X257116D02*
D03*
X254557D02*
D03*
X251998D02*
D03*
X249439D02*
D03*
X246880D02*
D03*
X244321D02*
D03*
X241761D02*
D03*
X239202D02*
D03*
X236643D02*
D03*
X234084D02*
D03*
X231525D02*
D03*
X259675Y144976D02*
D03*
X257116D02*
D03*
X254557D02*
D03*
X251998D02*
D03*
X249439D02*
D03*
X246880D02*
D03*
X244321D02*
D03*
X241761D02*
D03*
X239202D02*
D03*
X236643D02*
D03*
X234084D02*
D03*
X231525D02*
D03*
D48*
X0Y391200D02*
X800Y392000D01*
D51*
X309500Y0D02*
Y392000D01*
X0Y0D02*
Y390400D01*
Y0D02*
X311100D01*
X800Y392000D02*
X309500D01*
D66*
X20574Y11693D02*
D03*
X48920D02*
D03*
M02*
