G04 Layer_Color=65535*
%FSLAX25Y25*%
%MOIN*%
G70*
G01*
G75*
%ADD48C,0.01000*%
%ADD51C,0.08000*%
%ADD61C,0.00984*%
%ADD62C,0.02362*%
%ADD63C,0.00200*%
%ADD64C,0.00787*%
%ADD65C,0.00500*%
D48*
X93700Y353300D02*
G03*
X93700Y353300I-500J0D01*
G01*
X94500Y320500D02*
G03*
X94500Y320500I-500J0D01*
G01*
X333326Y117000D02*
X343426Y106900D01*
Y40500D02*
Y106900D01*
X247426Y40500D02*
X343426D01*
X247426D02*
Y117000D01*
X333326D01*
X179488Y97616D02*
Y125802D01*
X205685Y97616D02*
Y125802D01*
X179488D02*
X205685D01*
X179488Y97616D02*
X205685D01*
X222520Y133100D02*
Y159600D01*
X198021D02*
X222520D01*
X198021Y133100D02*
Y159600D01*
Y133100D02*
X222520D01*
X86200Y375500D02*
X120700D01*
Y249900D02*
Y375500D01*
X86200Y249900D02*
X120700D01*
X86200D02*
Y375500D01*
X0Y391200D02*
X800Y392000D01*
D51*
X309500Y0D02*
Y392000D01*
X0Y0D02*
Y390400D01*
Y0D02*
X311100D01*
X800Y392000D02*
X309500D01*
D61*
X164492Y105671D02*
G03*
X164492Y105671I-492J0D01*
G01*
X6387Y35423D02*
G03*
X6387Y35423I-492J0D01*
G01*
X51018Y50643D02*
G03*
X51018Y50643I-492J0D01*
G01*
X108164Y53246D02*
G03*
X108164Y53246I-492J0D01*
G01*
X290092Y167671D02*
G03*
X290092Y167671I-492J0D01*
G01*
X154092Y252071D02*
G03*
X154092Y252071I-492J0D01*
G01*
X70092Y217671D02*
G03*
X70092Y217671I-492J0D01*
G01*
X25292Y309571D02*
G03*
X25292Y309571I-492J0D01*
G01*
X151692Y274471D02*
G03*
X151692Y274471I-492J0D01*
G01*
X100187Y267745D02*
G03*
X100187Y267745I-492J0D01*
G01*
X74892Y314471D02*
G03*
X74892Y314471I-492J0D01*
G01*
X58892Y329671D02*
G03*
X58892Y329671I-492J0D01*
G01*
X122892Y311271D02*
G03*
X122892Y311271I-492J0D01*
G01*
X162092Y308071D02*
G03*
X162092Y308071I-492J0D01*
G01*
X136492Y304871D02*
G03*
X136492Y304871I-492J0D01*
G01*
X160492Y345671D02*
G03*
X160492Y345671I-492J0D01*
G01*
X145292Y324071D02*
G03*
X145292Y324071I-492J0D01*
G01*
X74892Y273671D02*
G03*
X74892Y273671I-492J0D01*
G01*
X73292Y255271D02*
G03*
X73292Y255271I-492J0D01*
G01*
X15805Y144987D02*
G03*
X15805Y144987I-492J0D01*
G01*
X288492Y134471D02*
G03*
X288492Y134471I-492J0D01*
G01*
X94977Y183978D02*
G03*
X94977Y183978I-492J0D01*
G01*
X94892Y208871D02*
G03*
X94892Y208871I-492J0D01*
G01*
X59692Y173671D02*
G03*
X59692Y173671I-492J0D01*
G01*
X73547Y285295D02*
G03*
X73547Y285295I-492J0D01*
G01*
X215692Y179271D02*
G03*
X215692Y179271I-492J0D01*
G01*
X15987Y163423D02*
G03*
X15987Y163423I-492J0D01*
G01*
X270892Y180071D02*
G03*
X270892Y180071I-492J0D01*
G01*
X262824Y167024D02*
G03*
X262824Y167024I-492J0D01*
G01*
D62*
X11816Y37835D02*
G03*
X11816Y37835I-1181J0D01*
G01*
X117219Y48305D02*
G03*
X117219Y48305I-1181J0D01*
G01*
X104820Y178761D02*
G03*
X104820Y178761I-1181J0D01*
G01*
X21416Y165835D02*
G03*
X21416Y165835I-1181J0D01*
G01*
X258395Y159346D02*
G03*
X258395Y159346I-1181J0D01*
G01*
D63*
X181912Y127660D02*
G03*
X181912Y127660I-742J0D01*
G01*
D64*
X158488Y103112D02*
X169512D01*
X169512Y92088D02*
Y103112D01*
X158488Y92088D02*
X169512D01*
X158488Y92088D02*
Y103112D01*
X118978Y111213D02*
Y112787D01*
X116222Y111213D02*
Y112787D01*
X6698Y33898D02*
X18902D01*
X6698Y46102D02*
X18902D01*
X6698Y33898D02*
Y46102D01*
X18902Y33898D02*
Y46102D01*
X112101Y32557D02*
Y52242D01*
X124699Y32557D02*
Y52242D01*
X112101D02*
X124699D01*
X112101Y32557D02*
X124699D01*
X191435Y22400D02*
X195765D01*
X258178Y130413D02*
Y131987D01*
X255422Y130413D02*
Y131987D01*
X284088Y165112D02*
X295112D01*
X295112Y154088D02*
Y165112D01*
X284088Y154088D02*
X295112D01*
X284088Y154088D02*
Y165112D01*
X268813Y157378D02*
X270387D01*
X268813Y154622D02*
X270387D01*
X253022Y179213D02*
Y180787D01*
X255778Y179213D02*
Y180787D01*
X148088Y249512D02*
X159112D01*
X159112Y238488D02*
Y249512D01*
X148088Y238488D02*
X159112D01*
X148088Y238488D02*
Y249512D01*
X64088Y215112D02*
X75112D01*
X75112Y204088D02*
Y215112D01*
X64088Y204088D02*
X75112D01*
X64088Y204088D02*
Y215112D01*
X19288Y307012D02*
X30312D01*
X30312Y295988D02*
Y307012D01*
X19288Y295988D02*
X30312D01*
X19288Y295988D02*
Y307012D01*
X44813Y293822D02*
X46387D01*
X44813Y296578D02*
X46387D01*
X129322Y254613D02*
Y256187D01*
X132078Y254613D02*
Y256187D01*
X137022Y254813D02*
Y256387D01*
X139778Y254813D02*
Y256387D01*
X145688Y271912D02*
X156712D01*
X156712Y260888D02*
Y271912D01*
X145688Y260888D02*
X156712D01*
X145688Y260888D02*
Y271912D01*
X139213Y276578D02*
X140787D01*
X139213Y273822D02*
X140787D01*
X138413Y282178D02*
X139987D01*
X138413Y279422D02*
X139987D01*
X112096Y270304D02*
Y272765D01*
X111604Y270304D02*
X112096D01*
Y280835D02*
Y283296D01*
X111604D02*
X112096D01*
X99104D02*
X99596D01*
X99104Y280835D02*
Y283296D01*
Y270304D02*
Y272765D01*
Y270304D02*
X99596D01*
X68888Y311912D02*
X79912D01*
X79912Y300888D02*
Y311912D01*
X68888Y300888D02*
X79912D01*
X68888Y300888D02*
Y311912D01*
X52888Y327112D02*
X63912D01*
X63912Y316088D02*
Y327112D01*
X52888Y316088D02*
X63912D01*
X52888Y316088D02*
Y327112D01*
X116888Y308712D02*
X127912D01*
X127912Y297688D02*
Y308712D01*
X116888Y297688D02*
X127912D01*
X116888Y297688D02*
Y308712D01*
X156088Y305512D02*
X167112D01*
X167112Y294488D02*
Y305512D01*
X156088Y294488D02*
X167112D01*
X156088Y294488D02*
Y305512D01*
X130488Y302312D02*
X141512D01*
X141512Y291288D02*
Y302312D01*
X130488Y291288D02*
X141512D01*
X130488Y291288D02*
Y302312D01*
X154488Y343112D02*
X165512D01*
X165512Y332088D02*
Y343112D01*
X154488Y332088D02*
X165512D01*
X154488Y332088D02*
Y343112D01*
X139288Y321512D02*
X150312D01*
X150312Y310488D02*
Y321512D01*
X139288Y310488D02*
X150312D01*
X139288Y310488D02*
Y321512D01*
X121613Y316578D02*
X123187D01*
X121613Y313822D02*
X123187D01*
X68888Y271112D02*
X79912D01*
X79912Y260088D02*
Y271112D01*
X68888Y260088D02*
X79912D01*
X68888Y260088D02*
Y271112D01*
X67288Y252712D02*
X78312D01*
X78312Y241688D02*
Y252712D01*
X67288Y241688D02*
X78312D01*
X67288Y241688D02*
Y252712D01*
X16495Y148432D02*
Y152368D01*
X28306Y148432D02*
Y152368D01*
X16495Y148432D02*
X28306D01*
X16495Y152368D02*
X28306D01*
X282488Y131912D02*
X293512D01*
X293512Y120888D02*
Y131912D01*
X282488Y120888D02*
X293512D01*
X282488Y120888D02*
Y131912D01*
X99702Y132502D02*
X149898D01*
X99702Y182698D02*
X149898D01*
Y132502D02*
Y182698D01*
X99702Y132502D02*
Y182698D01*
X189000Y175200D02*
Y195200D01*
X179000D02*
X189000D01*
X179000Y175200D02*
Y195200D01*
Y175200D02*
X189000D01*
X32000Y45035D02*
Y49365D01*
X126600Y208600D02*
X186600D01*
X126600Y218600D02*
X186600D01*
X126600Y208600D02*
Y218600D01*
X186600Y208600D02*
Y218600D01*
X88888Y206312D02*
X99912D01*
X99912Y195288D02*
Y206312D01*
X88888Y195288D02*
X99912D01*
X88888Y195288D02*
Y206312D01*
X53688Y171112D02*
X64712D01*
X64712Y160088D02*
Y171112D01*
X53688Y160088D02*
X64712D01*
X53688Y160088D02*
Y171112D01*
X70496Y284704D02*
Y286121D01*
X70063Y284704D02*
X70496D01*
X57504D02*
X57937D01*
X57504D02*
Y286121D01*
Y296279D02*
Y297696D01*
X57937D01*
X70496Y296279D02*
Y297696D01*
X70063D02*
X70496D01*
X209688Y176712D02*
X220712D01*
X220712Y165688D02*
Y176712D01*
X209688Y165688D02*
X220712D01*
X209688Y165688D02*
Y176712D01*
X16298Y161898D02*
X28502D01*
X16298Y174102D02*
X28502D01*
X16298Y161898D02*
Y174102D01*
X28502Y161898D02*
Y174102D01*
X110400Y97441D02*
Y102559D01*
X264888Y177512D02*
X275912D01*
X275912Y166488D02*
Y177512D01*
X264888Y166488D02*
X275912D01*
X264888Y166488D02*
Y177512D01*
X230049Y163284D02*
X261151D01*
X230049Y148716D02*
X261151D01*
Y163284D01*
X230049Y148716D02*
Y163284D01*
X130413Y362622D02*
X131987D01*
X130413Y365378D02*
X131987D01*
X130413Y372222D02*
X131987D01*
X130413Y374978D02*
X131987D01*
X122178Y352013D02*
Y353587D01*
X119422Y352013D02*
Y353587D01*
X117022Y329300D02*
Y330875D01*
X119778Y329300D02*
Y330875D01*
X121613Y322178D02*
X123187D01*
X121613Y319422D02*
X123187D01*
D65*
X24904Y23505D02*
X28054D01*
X41440D02*
X44590D01*
X19786Y2245D02*
Y5788D01*
Y2245D02*
X49708D01*
Y5788D01*
X130300Y95800D02*
X138400D01*
X138600Y95600D01*
X130300Y64300D02*
X138400D01*
X130300D02*
Y95800D01*
X136252Y91194D02*
Y93200D01*
X132700D02*
X136252D01*
X132700Y91194D02*
Y93200D01*
Y91194D02*
X136252D01*
X134400Y93200D02*
X134600D01*
X134400Y91200D02*
X134600D01*
X138600Y64300D02*
Y95600D01*
X223300Y50600D02*
X231400D01*
X231600Y50400D01*
X223300Y19100D02*
X231400D01*
X223300D02*
Y50600D01*
X229252Y45994D02*
Y48000D01*
X225700D02*
X229252D01*
X225700Y45994D02*
Y48000D01*
Y45994D02*
X229252D01*
X227400Y48000D02*
X227600D01*
X227400Y46000D02*
X227600D01*
X231600Y19100D02*
Y50400D01*
X77300Y127500D02*
Y135600D01*
X77100Y127300D02*
X77300Y127500D01*
X45800D02*
Y135600D01*
X77300D01*
X72694Y129648D02*
X74700D01*
Y133200D01*
X72694D02*
X74700D01*
X72694Y129648D02*
Y133200D01*
X74700Y131300D02*
Y131500D01*
X72700Y131300D02*
Y131500D01*
X45800Y127300D02*
X77100D01*
X93885Y29151D02*
X123806D01*
X93885Y5923D02*
Y29151D01*
Y5923D02*
X123806D01*
Y29151D01*
X147333Y91766D02*
X147000Y92099D01*
X146333D01*
X146000Y91766D01*
Y90433D01*
X146333Y90100D01*
X147000D01*
X147333Y90433D01*
X149332Y90100D02*
X147999D01*
X149332Y91433D01*
Y91766D01*
X148999Y92099D01*
X148333D01*
X147999Y91766D01*
X149999Y92099D02*
X151332D01*
Y91766D01*
X149999Y90433D01*
Y90100D01*
X117033Y91066D02*
X116700Y91399D01*
X116033D01*
X115700Y91066D01*
Y89733D01*
X116033Y89400D01*
X116700D01*
X117033Y89733D01*
X119032Y89400D02*
X117699D01*
X119032Y90733D01*
Y91066D01*
X118699Y91399D01*
X118033D01*
X117699Y91066D01*
X119699D02*
X120032Y91399D01*
X120698D01*
X121032Y91066D01*
Y90733D01*
X120698Y90400D01*
X121032Y90066D01*
Y89733D01*
X120698Y89400D01*
X120032D01*
X119699Y89733D01*
Y90066D01*
X120032Y90400D01*
X119699Y90733D01*
Y91066D01*
X120032Y90400D02*
X120698D01*
X156300Y104000D02*
Y105999D01*
X156966Y105333D01*
X157633Y105999D01*
Y104000D01*
X158299Y105999D02*
X159632D01*
X158966D01*
Y104000D01*
X160299D02*
Y105999D01*
X161298D01*
X161632Y105666D01*
Y105000D01*
X161298Y104666D01*
X160299D01*
X162298Y104000D02*
X162964D01*
X162631D01*
Y105999D01*
X162298Y105666D01*
X149933Y106566D02*
X149600Y106899D01*
X148933D01*
X148600Y106566D01*
Y105233D01*
X148933Y104900D01*
X149600D01*
X149933Y105233D01*
X151932Y104900D02*
X150599D01*
X151932Y106233D01*
Y106566D01*
X151599Y106899D01*
X150933D01*
X150599Y106566D01*
X153932Y106899D02*
X152599D01*
Y105900D01*
X153265Y106233D01*
X153598D01*
X153932Y105900D01*
Y105233D01*
X153598Y104900D01*
X152932D01*
X152599Y105233D01*
X115100Y117200D02*
Y119199D01*
X116100D01*
X116433Y118866D01*
Y118200D01*
X116100Y117867D01*
X115100D01*
X115767D02*
X116433Y117200D01*
X118432D02*
X117099D01*
X118432Y118533D01*
Y118866D01*
X118099Y119199D01*
X117433D01*
X117099Y118866D01*
X120432Y119199D02*
X119765Y118866D01*
X119099Y118200D01*
Y117533D01*
X119432Y117200D01*
X120098D01*
X120432Y117533D01*
Y117867D01*
X120098Y118200D01*
X119099D01*
X124333Y118866D02*
X124000Y119199D01*
X123333D01*
X123000Y118866D01*
Y117533D01*
X123333Y117200D01*
X124000D01*
X124333Y117533D01*
X126332Y117200D02*
X124999D01*
X126332Y118533D01*
Y118866D01*
X125999Y119199D01*
X125333D01*
X124999Y118866D01*
X126999D02*
X127332Y119199D01*
X127998D01*
X128332Y118866D01*
Y118533D01*
X127998Y118200D01*
X127665D01*
X127998D01*
X128332Y117867D01*
Y117533D01*
X127998Y117200D01*
X127332D01*
X126999Y117533D01*
X134733Y113966D02*
X134400Y114299D01*
X133733D01*
X133400Y113966D01*
Y112633D01*
X133733Y112300D01*
X134400D01*
X134733Y112633D01*
X136732Y112300D02*
X135399D01*
X136732Y113633D01*
Y113966D01*
X136399Y114299D01*
X135733D01*
X135399Y113966D01*
X137399Y112300D02*
X138065D01*
X137732D01*
Y114299D01*
X137399Y113966D01*
X183133Y144066D02*
X182800Y144399D01*
X182133D01*
X181800Y144066D01*
Y142733D01*
X182133Y142400D01*
X182800D01*
X183133Y142733D01*
X184799Y142400D02*
Y144399D01*
X183799Y143400D01*
X185132D01*
X185799Y144066D02*
X186132Y144399D01*
X186798D01*
X187132Y144066D01*
Y143733D01*
X186798Y143400D01*
X186465D01*
X186798D01*
X187132Y143067D01*
Y142733D01*
X186798Y142400D01*
X186132D01*
X185799Y142733D01*
X162233Y143666D02*
X161900Y143999D01*
X161233D01*
X160900Y143666D01*
Y142333D01*
X161233Y142000D01*
X161900D01*
X162233Y142333D01*
X164232Y142000D02*
X162899D01*
X164232Y143333D01*
Y143666D01*
X163899Y143999D01*
X163233D01*
X162899Y143666D01*
X165898Y142000D02*
Y143999D01*
X164899Y143000D01*
X166232D01*
X8833Y47633D02*
Y48966D01*
X8500Y49299D01*
X7833D01*
X7500Y48966D01*
Y47633D01*
X7833Y47300D01*
X8500D01*
X8167Y47966D02*
X8833Y47300D01*
X8500D02*
X8833Y47633D01*
X9499Y47300D02*
X10166D01*
X9833D01*
Y49299D01*
X9499Y48966D01*
X36800Y68300D02*
Y70299D01*
X37800D01*
X38133Y69966D01*
Y69300D01*
X37800Y68966D01*
X36800D01*
X37466D02*
X38133Y68300D01*
X40132D02*
X38799D01*
X40132Y69633D01*
Y69966D01*
X39799Y70299D01*
X39133D01*
X38799Y69966D01*
X40799D02*
X41132Y70299D01*
X41798D01*
X42132Y69966D01*
Y68633D01*
X41798Y68300D01*
X41132D01*
X40799Y68633D01*
Y69966D01*
X68733Y64266D02*
X68400Y64599D01*
X67733D01*
X67400Y64266D01*
Y62933D01*
X67733Y62600D01*
X68400D01*
X68733Y62933D01*
X69399Y64266D02*
X69733Y64599D01*
X70399D01*
X70732Y64266D01*
Y63933D01*
X70399Y63600D01*
X70066D01*
X70399D01*
X70732Y63266D01*
Y62933D01*
X70399Y62600D01*
X69733D01*
X69399Y62933D01*
X72732Y62600D02*
X71399D01*
X72732Y63933D01*
Y64266D01*
X72398Y64599D01*
X71732D01*
X71399Y64266D01*
X76100Y59199D02*
Y57200D01*
X77433D01*
X78099D02*
X78766D01*
X78433D01*
Y59199D01*
X78099Y58866D01*
X53000Y50400D02*
Y52399D01*
X54000D01*
X54333Y52066D01*
Y51400D01*
X54000Y51066D01*
X53000D01*
X54999Y50400D02*
X55666D01*
X55333D01*
Y52399D01*
X54999Y52066D01*
X35700Y33600D02*
Y35599D01*
X36700D01*
X37033Y35266D01*
Y34600D01*
X36700Y34266D01*
X35700D01*
X36366D02*
X37033Y33600D01*
X37699D02*
X38366D01*
X38033D01*
Y35599D01*
X37699Y35266D01*
X39366D02*
X39699Y35599D01*
X40365D01*
X40698Y35266D01*
Y34933D01*
X40365Y34600D01*
X40698Y34266D01*
Y33933D01*
X40365Y33600D01*
X39699D01*
X39366Y33933D01*
Y34266D01*
X39699Y34600D01*
X39366Y34933D01*
Y35266D01*
X39699Y34600D02*
X40365D01*
X17200Y27899D02*
Y25900D01*
Y26900D01*
X18533D01*
Y27899D01*
Y25900D01*
X20199D02*
Y27899D01*
X19199Y26900D01*
X20532D01*
X58700Y19200D02*
Y21199D01*
X59700D01*
X60033Y20866D01*
Y20200D01*
X59700Y19866D01*
X58700D01*
X59366D02*
X60033Y19200D01*
X60699Y20866D02*
X61033Y21199D01*
X61699D01*
X62032Y20866D01*
Y20533D01*
X61699Y20200D01*
X61366D01*
X61699D01*
X62032Y19866D01*
Y19533D01*
X61699Y19200D01*
X61033D01*
X60699Y19533D01*
X63698Y19200D02*
Y21199D01*
X62699Y20200D01*
X64032D01*
X74400Y18700D02*
Y20699D01*
X75400D01*
X75733Y20366D01*
Y19700D01*
X75400Y19366D01*
X74400D01*
X75066D02*
X75733Y18700D01*
X76399D02*
X77066D01*
X76733D01*
Y20699D01*
X76399Y20366D01*
X78066Y19033D02*
X78399Y18700D01*
X79065D01*
X79398Y19033D01*
Y20366D01*
X79065Y20699D01*
X78399D01*
X78066Y20366D01*
Y20033D01*
X78399Y19700D01*
X79398D01*
X95033Y40466D02*
X94700Y40799D01*
X94033D01*
X93700Y40466D01*
Y39133D01*
X94033Y38800D01*
X94700D01*
X95033Y39133D01*
X95699Y40466D02*
X96033Y40799D01*
X96699D01*
X97032Y40466D01*
Y40133D01*
X96699Y39800D01*
X96366D01*
X96699D01*
X97032Y39466D01*
Y39133D01*
X96699Y38800D01*
X96033D01*
X95699Y39133D01*
X97699Y40799D02*
X99032D01*
Y40466D01*
X97699Y39133D01*
Y38800D01*
X93700Y50000D02*
Y51999D01*
X94700D01*
X95033Y51666D01*
Y51000D01*
X94700Y50666D01*
X93700D01*
X94366D02*
X95033Y50000D01*
X97032D02*
X95699D01*
X97032Y51333D01*
Y51666D01*
X96699Y51999D01*
X96033D01*
X95699Y51666D01*
X97699Y50000D02*
X98365D01*
X98032D01*
Y51999D01*
X97699Y51666D01*
X108500Y54800D02*
Y56799D01*
X109500D01*
X109833Y56466D01*
Y55800D01*
X109500Y55466D01*
X108500D01*
X111832Y54800D02*
X110499D01*
X111832Y56133D01*
Y56466D01*
X111499Y56799D01*
X110833D01*
X110499Y56466D01*
X131400Y99199D02*
Y98866D01*
X132067Y98200D01*
X132733Y98866D01*
Y99199D01*
X132067Y98200D02*
Y97200D01*
X133399D02*
X134066D01*
X133733D01*
Y99199D01*
X133399Y98866D01*
X119900Y67500D02*
Y69499D01*
X120900D01*
X121233Y69166D01*
Y68500D01*
X120900Y68166D01*
X119900D01*
X120566D02*
X121233Y67500D01*
X123232D02*
X121899D01*
X123232Y68833D01*
Y69166D01*
X122899Y69499D01*
X122233D01*
X121899Y69166D01*
X125232Y67500D02*
X123899D01*
X125232Y68833D01*
Y69166D01*
X124898Y69499D01*
X124232D01*
X123899Y69166D01*
X206500Y26800D02*
Y28799D01*
X207500D01*
X207833Y28466D01*
Y27800D01*
X207500Y27466D01*
X206500D01*
X207166D02*
X207833Y26800D01*
X209832D02*
X208499D01*
X209832Y28133D01*
Y28466D01*
X209499Y28799D01*
X208833D01*
X208499Y28466D01*
X211498Y26800D02*
Y28799D01*
X210499Y27800D01*
X211832D01*
X197833Y23566D02*
X197500Y23899D01*
X196833D01*
X196500Y23566D01*
Y22233D01*
X196833Y21900D01*
X197500D01*
X197833Y22233D01*
X198499Y23566D02*
X198833Y23899D01*
X199499D01*
X199832Y23566D01*
Y23233D01*
X199499Y22900D01*
X199166D01*
X199499D01*
X199832Y22567D01*
Y22233D01*
X199499Y21900D01*
X198833D01*
X198499Y22233D01*
X200499D02*
X200832Y21900D01*
X201498D01*
X201832Y22233D01*
Y23566D01*
X201498Y23899D01*
X200832D01*
X200499Y23566D01*
Y23233D01*
X200832Y22900D01*
X201832D01*
X182133Y35266D02*
X181800Y35599D01*
X181133D01*
X180800Y35266D01*
Y33933D01*
X181133Y33600D01*
X181800D01*
X182133Y33933D01*
X182799Y35266D02*
X183133Y35599D01*
X183799D01*
X184132Y35266D01*
Y34933D01*
X183799Y34600D01*
X183466D01*
X183799D01*
X184132Y34266D01*
Y33933D01*
X183799Y33600D01*
X183133D01*
X182799Y33933D01*
X184799Y35266D02*
X185132Y35599D01*
X185798D01*
X186132Y35266D01*
Y34933D01*
X185798Y34600D01*
X186132Y34266D01*
Y33933D01*
X185798Y33600D01*
X185132D01*
X184799Y33933D01*
Y34266D01*
X185132Y34600D01*
X184799Y34933D01*
Y35266D01*
X185132Y34600D02*
X185798D01*
X168500Y29700D02*
Y31699D01*
X169500D01*
X169833Y31366D01*
Y30700D01*
X169500Y30366D01*
X168500D01*
X169167D02*
X169833Y29700D01*
X171832D02*
X170499D01*
X171832Y31033D01*
Y31366D01*
X171499Y31699D01*
X170833D01*
X170499Y31366D01*
X172499D02*
X172832Y31699D01*
X173498D01*
X173832Y31366D01*
Y31033D01*
X173498Y30700D01*
X173165D01*
X173498D01*
X173832Y30366D01*
Y30033D01*
X173498Y29700D01*
X172832D01*
X172499Y30033D01*
X155000Y31799D02*
Y29800D01*
X156000D01*
X156333Y30133D01*
Y31466D01*
X156000Y31799D01*
X155000D01*
X156999Y29800D02*
X157666D01*
X157333D01*
Y31799D01*
X156999Y31466D01*
X137833Y45766D02*
X137500Y46099D01*
X136833D01*
X136500Y45766D01*
Y44433D01*
X136833Y44100D01*
X137500D01*
X137833Y44433D01*
X138499Y45766D02*
X138833Y46099D01*
X139499D01*
X139832Y45766D01*
Y45433D01*
X139499Y45100D01*
X139166D01*
X139499D01*
X139832Y44766D01*
Y44433D01*
X139499Y44100D01*
X138833D01*
X138499Y44433D01*
X141832Y46099D02*
X141165Y45766D01*
X140499Y45100D01*
Y44433D01*
X140832Y44100D01*
X141498D01*
X141832Y44433D01*
Y44766D01*
X141498Y45100D01*
X140499D01*
X165833Y50966D02*
X165500Y51299D01*
X164833D01*
X164500Y50966D01*
Y49633D01*
X164833Y49300D01*
X165500D01*
X165833Y49633D01*
X167499Y49300D02*
Y51299D01*
X166499Y50300D01*
X167832D01*
X168499Y50966D02*
X168832Y51299D01*
X169498D01*
X169832Y50966D01*
Y49633D01*
X169498Y49300D01*
X168832D01*
X168499Y49633D01*
Y50966D01*
X171000Y64400D02*
Y66399D01*
X172000D01*
X172333Y66066D01*
Y65400D01*
X172000Y65066D01*
X171000D01*
X172999Y66066D02*
X173333Y66399D01*
X173999D01*
X174332Y66066D01*
Y65733D01*
X173999Y65400D01*
X173666D01*
X173999D01*
X174332Y65066D01*
Y64733D01*
X173999Y64400D01*
X173333D01*
X172999Y64733D01*
X202633Y58966D02*
X202300Y59299D01*
X201633D01*
X201300Y58966D01*
Y57633D01*
X201633Y57300D01*
X202300D01*
X202633Y57633D01*
X204299Y57300D02*
Y59299D01*
X203299Y58300D01*
X204632D01*
X205299Y57300D02*
X205965D01*
X205632D01*
Y59299D01*
X205299Y58966D01*
X219433Y87766D02*
X219100Y88099D01*
X218433D01*
X218100Y87766D01*
Y86433D01*
X218433Y86100D01*
X219100D01*
X219433Y86433D01*
X220099Y87766D02*
X220433Y88099D01*
X221099D01*
X221432Y87766D01*
Y87433D01*
X221099Y87100D01*
X220766D01*
X221099D01*
X221432Y86766D01*
Y86433D01*
X221099Y86100D01*
X220433D01*
X220099Y86433D01*
X222099Y86100D02*
X222765D01*
X222432D01*
Y88099D01*
X222099Y87766D01*
X222600Y53299D02*
Y52966D01*
X223266Y52300D01*
X223933Y52966D01*
Y53299D01*
X223266Y52300D02*
Y51300D01*
X224599Y52966D02*
X224933Y53299D01*
X225599D01*
X225932Y52966D01*
Y52633D01*
X225599Y52300D01*
X225266D01*
X225599D01*
X225932Y51966D01*
Y51633D01*
X225599Y51300D01*
X224933D01*
X224599Y51633D01*
X242100Y116100D02*
Y118099D01*
X242766Y117433D01*
X243433Y118099D01*
Y116100D01*
X245432D02*
X244099D01*
X245432Y117433D01*
Y117766D01*
X245099Y118099D01*
X244433D01*
X244099Y117766D01*
X238800Y128100D02*
Y130099D01*
X239800D01*
X240133Y129766D01*
Y129100D01*
X239800Y128767D01*
X238800D01*
X239466D02*
X240133Y128100D01*
X240799D02*
X241466D01*
X241133D01*
Y130099D01*
X240799Y129766D01*
X242465Y130099D02*
X243798D01*
Y129766D01*
X242465Y128433D01*
Y128100D01*
X249500Y130500D02*
Y132499D01*
X250500D01*
X250833Y132166D01*
Y131500D01*
X250500Y131167D01*
X249500D01*
X250166D02*
X250833Y130500D01*
X251499D02*
X252166D01*
X251833D01*
Y132499D01*
X251499Y132166D01*
X253166D02*
X253499Y132499D01*
X254165D01*
X254498Y132166D01*
Y130833D01*
X254165Y130500D01*
X253499D01*
X253166Y130833D01*
Y132166D01*
X279733Y142466D02*
X279400Y142799D01*
X278733D01*
X278400Y142466D01*
Y141133D01*
X278733Y140800D01*
X279400D01*
X279733Y141133D01*
X281732Y140800D02*
X280399D01*
X281732Y142133D01*
Y142466D01*
X281399Y142799D01*
X280733D01*
X280399Y142466D01*
X263933Y141766D02*
X263600Y142099D01*
X262933D01*
X262600Y141766D01*
Y140433D01*
X262933Y140100D01*
X263600D01*
X263933Y140433D01*
X264599Y140100D02*
X265266D01*
X264933D01*
Y142099D01*
X264599Y141766D01*
X292900Y168699D02*
X294233D01*
X293566D01*
Y166700D01*
X294899D02*
Y168699D01*
X295899D01*
X296232Y168366D01*
Y167700D01*
X295899Y167367D01*
X294899D01*
X296899Y167033D02*
X297232Y166700D01*
X297898D01*
X298232Y167033D01*
Y168366D01*
X297898Y168699D01*
X297232D01*
X296899Y168366D01*
Y168033D01*
X297232Y167700D01*
X298232D01*
X268200Y159300D02*
Y161299D01*
X269200D01*
X269533Y160966D01*
Y160300D01*
X269200Y159967D01*
X268200D01*
X268866D02*
X269533Y159300D01*
X270199Y159633D02*
X270533Y159300D01*
X271199D01*
X271532Y159633D01*
Y160966D01*
X271199Y161299D01*
X270533D01*
X270199Y160966D01*
Y160633D01*
X270533Y160300D01*
X271532D01*
X252500Y185800D02*
Y187799D01*
X253500D01*
X253833Y187466D01*
Y186800D01*
X253500Y186467D01*
X252500D01*
X253166D02*
X253833Y185800D01*
X254499D02*
X255166D01*
X254833D01*
Y187799D01*
X254499Y187466D01*
X256166Y185800D02*
X256832D01*
X256499D01*
Y187799D01*
X256166Y187466D01*
X141800Y247399D02*
X143133D01*
X142466D01*
Y245400D01*
X143799D02*
Y247399D01*
X144799D01*
X145132Y247066D01*
Y246400D01*
X144799Y246066D01*
X143799D01*
X145799Y247066D02*
X146132Y247399D01*
X146798D01*
X147132Y247066D01*
Y246733D01*
X146798Y246400D01*
X147132Y246066D01*
Y245733D01*
X146798Y245400D01*
X146132D01*
X145799Y245733D01*
Y246066D01*
X146132Y246400D01*
X145799Y246733D01*
Y247066D01*
X146132Y246400D02*
X146798D01*
X72400Y218799D02*
X73733D01*
X73066D01*
Y216800D01*
X74399D02*
Y218799D01*
X75399D01*
X75732Y218466D01*
Y217800D01*
X75399Y217466D01*
X74399D01*
X76399Y216800D02*
X77065D01*
X76732D01*
Y218799D01*
X76399Y218466D01*
X78065Y216800D02*
X78731D01*
X78398D01*
Y218799D01*
X78065Y218466D01*
X89533Y263266D02*
X89200Y263599D01*
X88533D01*
X88200Y263266D01*
Y261933D01*
X88533Y261600D01*
X89200D01*
X89533Y261933D01*
X90199Y261600D02*
X90866D01*
X90533D01*
Y263599D01*
X90199Y263266D01*
X91865D02*
X92199Y263599D01*
X92865D01*
X93198Y263266D01*
Y262933D01*
X92865Y262600D01*
X92532D01*
X92865D01*
X93198Y262266D01*
Y261933D01*
X92865Y261600D01*
X92199D01*
X91865Y261933D01*
X89933Y256766D02*
X89600Y257099D01*
X88933D01*
X88600Y256766D01*
Y255433D01*
X88933Y255100D01*
X89600D01*
X89933Y255433D01*
X90599Y255100D02*
X91266D01*
X90933D01*
Y257099D01*
X90599Y256766D01*
X93265Y255100D02*
Y257099D01*
X92265Y256100D01*
X93598D01*
X19733Y310599D02*
X19067D01*
X19400D01*
Y308933D01*
X19067Y308600D01*
X18733D01*
X18400Y308933D01*
X20399Y308600D02*
X21066D01*
X20733D01*
Y310599D01*
X20399Y310266D01*
X17100Y284500D02*
Y286499D01*
X18100D01*
X18433Y286166D01*
Y285500D01*
X18100Y285166D01*
X17100D01*
X17766D02*
X18433Y284500D01*
X20432D02*
X19099D01*
X20432Y285833D01*
Y286166D01*
X20099Y286499D01*
X19433D01*
X19099Y286166D01*
X22432Y286499D02*
X21099D01*
Y285500D01*
X21765Y285833D01*
X22098D01*
X22432Y285500D01*
Y284833D01*
X22098Y284500D01*
X21432D01*
X21099Y284833D01*
X32200Y287999D02*
Y286000D01*
X33200D01*
X33533Y286333D01*
Y287666D01*
X33200Y287999D01*
X32200D01*
X35532Y286000D02*
X34199D01*
X35532Y287333D01*
Y287666D01*
X35199Y287999D01*
X34533D01*
X34199Y287666D01*
X44700Y297700D02*
Y299699D01*
X45700D01*
X46033Y299366D01*
Y298700D01*
X45700Y298366D01*
X44700D01*
X45366D02*
X46033Y297700D01*
X46699D02*
X47366D01*
X47033D01*
Y299699D01*
X46699Y299366D01*
X49698Y299699D02*
X49032Y299366D01*
X48366Y298700D01*
Y298033D01*
X48699Y297700D01*
X49365D01*
X49698Y298033D01*
Y298366D01*
X49365Y298700D01*
X48366D01*
X71933Y282666D02*
X71600Y282999D01*
X70933D01*
X70600Y282666D01*
Y281333D01*
X70933Y281000D01*
X71600D01*
X71933Y281333D01*
X72599Y281000D02*
X73266D01*
X72933D01*
Y282999D01*
X72599Y282666D01*
X74265Y282999D02*
X75598D01*
Y282666D01*
X74265Y281333D01*
Y281000D01*
X128800Y260500D02*
Y262499D01*
X129800D01*
X130133Y262166D01*
Y261500D01*
X129800Y261166D01*
X128800D01*
X129466D02*
X130133Y260500D01*
X130799Y262166D02*
X131133Y262499D01*
X131799D01*
X132132Y262166D01*
Y261833D01*
X131799Y261500D01*
X132132Y261166D01*
Y260833D01*
X131799Y260500D01*
X131133D01*
X130799Y260833D01*
Y261166D01*
X131133Y261500D01*
X130799Y261833D01*
Y262166D01*
X131133Y261500D02*
X131799D01*
X135400Y260300D02*
Y262299D01*
X136400D01*
X136733Y261966D01*
Y261300D01*
X136400Y260966D01*
X135400D01*
X136066D02*
X136733Y260300D01*
X137399Y262299D02*
X138732D01*
Y261966D01*
X137399Y260633D01*
Y260300D01*
X144300Y275299D02*
X145633D01*
X144966D01*
Y273300D01*
X146299D02*
Y275299D01*
X147299D01*
X147632Y274966D01*
Y274300D01*
X147299Y273966D01*
X146299D01*
X149632Y275299D02*
X148965Y274966D01*
X148299Y274300D01*
Y273633D01*
X148632Y273300D01*
X149298D01*
X149632Y273633D01*
Y273966D01*
X149298Y274300D01*
X148299D01*
X137900Y270700D02*
Y272699D01*
X138900D01*
X139233Y272366D01*
Y271700D01*
X138900Y271366D01*
X137900D01*
X138567D02*
X139233Y270700D01*
X141232Y272699D02*
X140566Y272366D01*
X139899Y271700D01*
Y271033D01*
X140233Y270700D01*
X140899D01*
X141232Y271033D01*
Y271366D01*
X140899Y271700D01*
X139899D01*
X137500Y283100D02*
Y285099D01*
X138500D01*
X138833Y284766D01*
Y284100D01*
X138500Y283766D01*
X137500D01*
X138166D02*
X138833Y283100D01*
X140832Y285099D02*
X139499D01*
Y284100D01*
X140166Y284433D01*
X140499D01*
X140832Y284100D01*
Y283433D01*
X140499Y283100D01*
X139833D01*
X139499Y283433D01*
X80600Y300800D02*
Y302799D01*
X81600D01*
X81933Y302466D01*
Y301800D01*
X81600Y301466D01*
X80600D01*
X81266D02*
X81933Y300800D01*
X82599D02*
X83266D01*
X82933D01*
Y302799D01*
X82599Y302466D01*
X85598Y302799D02*
X84266D01*
Y301800D01*
X84932Y302133D01*
X85265D01*
X85598Y301800D01*
Y301133D01*
X85265Y300800D01*
X84599D01*
X84266Y301133D01*
X94400Y287099D02*
Y285433D01*
X94733Y285100D01*
X95400D01*
X95733Y285433D01*
Y287099D01*
X97732Y285100D02*
X96399D01*
X97732Y286433D01*
Y286766D01*
X97399Y287099D01*
X96733D01*
X96399Y286766D01*
X66100Y314999D02*
X67433D01*
X66766D01*
Y313000D01*
X68099D02*
Y314999D01*
X69099D01*
X69432Y314666D01*
Y314000D01*
X69099Y313666D01*
X68099D01*
X70099Y313000D02*
X70765D01*
X70432D01*
Y314999D01*
X70099Y314666D01*
X73098Y313000D02*
X71765D01*
X73098Y314333D01*
Y314666D01*
X72764Y314999D01*
X72098D01*
X71765Y314666D01*
X60200Y330299D02*
X61533D01*
X60866D01*
Y328300D01*
X62199D02*
Y330299D01*
X63199D01*
X63532Y329966D01*
Y329300D01*
X63199Y328966D01*
X62199D01*
X64199Y328300D02*
X64865D01*
X64532D01*
Y330299D01*
X64199Y329966D01*
X67198Y330299D02*
X66531Y329966D01*
X65865Y329300D01*
Y328633D01*
X66198Y328300D01*
X66865D01*
X67198Y328633D01*
Y328966D01*
X66865Y329300D01*
X65865D01*
X86333Y313866D02*
X86000Y314199D01*
X85333D01*
X85000Y313866D01*
Y312533D01*
X85333Y312200D01*
X86000D01*
X86333Y312533D01*
X86999Y314199D02*
X88332D01*
Y313866D01*
X86999Y312533D01*
Y312200D01*
X91933Y303666D02*
X91600Y303999D01*
X90933D01*
X90600Y303666D01*
Y302333D01*
X90933Y302000D01*
X91600D01*
X91933Y302333D01*
X92599Y302000D02*
X93266D01*
X92933D01*
Y303999D01*
X92599Y303666D01*
X95598Y302000D02*
X94266D01*
X95598Y303333D01*
Y303666D01*
X95265Y303999D01*
X94599D01*
X94266Y303666D01*
X98233Y313966D02*
X97900Y314299D01*
X97233D01*
X96900Y313966D01*
Y312633D01*
X97233Y312300D01*
X97900D01*
X98233Y312633D01*
X98899Y312300D02*
X99566D01*
X99233D01*
Y314299D01*
X98899Y313966D01*
X100566Y312300D02*
X101232D01*
X100899D01*
Y314299D01*
X100566Y313966D01*
X124100Y311399D02*
X125433D01*
X124767D01*
Y309400D01*
X126099D02*
Y311399D01*
X127099D01*
X127432Y311066D01*
Y310400D01*
X127099Y310066D01*
X126099D01*
X129432Y311399D02*
X128099D01*
Y310400D01*
X128765Y310733D01*
X129098D01*
X129432Y310400D01*
Y309733D01*
X129098Y309400D01*
X128432D01*
X128099Y309733D01*
X154300Y308599D02*
X155633D01*
X154966D01*
Y306600D01*
X156299D02*
Y308599D01*
X157299D01*
X157632Y308266D01*
Y307600D01*
X157299Y307266D01*
X156299D01*
X158299Y308266D02*
X158632Y308599D01*
X159298D01*
X159632Y308266D01*
Y307933D01*
X159298Y307600D01*
X158965D01*
X159298D01*
X159632Y307266D01*
Y306933D01*
X159298Y306600D01*
X158632D01*
X158299Y306933D01*
X137600Y305699D02*
X138933D01*
X138267D01*
Y303700D01*
X139599D02*
Y305699D01*
X140599D01*
X140932Y305366D01*
Y304700D01*
X140599Y304366D01*
X139599D01*
X142598Y303700D02*
Y305699D01*
X141599Y304700D01*
X142932D01*
X162900Y346999D02*
X164233D01*
X163567D01*
Y345000D01*
X164899D02*
Y346999D01*
X165899D01*
X166232Y346666D01*
Y346000D01*
X165899Y345666D01*
X164899D01*
X166899Y345000D02*
X167565D01*
X167232D01*
Y346999D01*
X166899Y346666D01*
X138100Y324899D02*
X139433D01*
X138767D01*
Y322900D01*
X140099D02*
Y324899D01*
X141099D01*
X141432Y324566D01*
Y323900D01*
X141099Y323566D01*
X140099D01*
X143432Y322900D02*
X142099D01*
X143432Y324233D01*
Y324566D01*
X143098Y324899D01*
X142432D01*
X142099Y324566D01*
X128100Y314600D02*
Y316599D01*
X129100D01*
X129433Y316266D01*
Y315600D01*
X129100Y315266D01*
X128100D01*
X128767D02*
X129433Y314600D01*
X131099D02*
Y316599D01*
X130099Y315600D01*
X131432D01*
X129033Y201166D02*
X128700Y201499D01*
X128033D01*
X127700Y201166D01*
Y199833D01*
X128033Y199500D01*
X128700D01*
X129033Y199833D01*
X130699Y199500D02*
Y201499D01*
X129699Y200500D01*
X131032D01*
X132698Y199500D02*
Y201499D01*
X131699Y200500D01*
X133032D01*
X80500Y268299D02*
X81833D01*
X81166D01*
Y266300D01*
X82499D02*
Y268299D01*
X83499D01*
X83832Y267966D01*
Y267300D01*
X83499Y266966D01*
X82499D01*
X84499Y266300D02*
X85165D01*
X84832D01*
Y268299D01*
X84499Y267966D01*
X86165D02*
X86498Y268299D01*
X87164D01*
X87498Y267966D01*
Y267633D01*
X87164Y267300D01*
X86831D01*
X87164D01*
X87498Y266966D01*
Y266633D01*
X87164Y266300D01*
X86498D01*
X86165Y266633D01*
X74000Y256199D02*
X75333D01*
X74666D01*
Y254200D01*
X75999D02*
Y256199D01*
X76999D01*
X77332Y255866D01*
Y255200D01*
X76999Y254866D01*
X75999D01*
X77999Y254200D02*
X78665D01*
X78332D01*
Y256199D01*
X77999Y255866D01*
X79665D02*
X79998Y256199D01*
X80664D01*
X80998Y255866D01*
Y254533D01*
X80664Y254200D01*
X79998D01*
X79665Y254533D01*
Y255866D01*
X10933Y160866D02*
X10600Y161199D01*
X9933D01*
X9600Y160866D01*
Y160533D01*
X9933Y160200D01*
X10600D01*
X10933Y159866D01*
Y159533D01*
X10600Y159200D01*
X9933D01*
X9600Y159533D01*
X12932Y159200D02*
X11599D01*
X12932Y160533D01*
Y160866D01*
X12599Y161199D01*
X11933D01*
X11599Y160866D01*
X92600Y293000D02*
X94599D01*
Y292000D01*
X94266Y291667D01*
X93600D01*
X93266Y292000D01*
Y293000D01*
Y292334D02*
X92600Y291667D01*
Y291001D02*
Y290334D01*
Y290667D01*
X94599D01*
X94266Y291001D01*
X92600Y288335D02*
X94599D01*
X93600Y289335D01*
Y288002D01*
X282600Y136200D02*
Y138199D01*
X283266Y137533D01*
X283933Y138199D01*
Y136200D01*
X284599Y138199D02*
X285932D01*
X285266D01*
Y136200D01*
X286599D02*
Y138199D01*
X287598D01*
X287932Y137866D01*
Y137200D01*
X287598Y136866D01*
X286599D01*
X289931Y136200D02*
X288598D01*
X289931Y137533D01*
Y137866D01*
X289598Y138199D01*
X288931D01*
X288598Y137866D01*
X102300Y195799D02*
Y193800D01*
X103633D01*
X105632Y195466D02*
X105299Y195799D01*
X104633D01*
X104299Y195466D01*
Y194133D01*
X104633Y193800D01*
X105299D01*
X105632Y194133D01*
Y194800D01*
X104966D01*
X106299Y193800D02*
X106965D01*
X106632D01*
Y195799D01*
X106299Y195466D01*
X138100Y31299D02*
Y29300D01*
X139433D01*
X141432D02*
X140099D01*
X141432Y30633D01*
Y30966D01*
X141099Y31299D01*
X140433D01*
X140099Y30966D01*
X91200Y374799D02*
X91866D01*
X91533D01*
Y372800D01*
X91200D01*
X91866D01*
X92866D02*
Y374799D01*
X93866D01*
X94199Y374466D01*
Y373800D01*
X93866Y373466D01*
X92866D01*
X93533D02*
X94199Y372800D01*
X94866D02*
X95532D01*
X95199D01*
Y374799D01*
X94866Y374466D01*
X189600Y187399D02*
Y185400D01*
Y186400D01*
X190933D01*
Y187399D01*
Y185400D01*
X192932Y187399D02*
X191599D01*
Y186400D01*
X192266Y186733D01*
X192599D01*
X192932Y186400D01*
Y185733D01*
X192599Y185400D01*
X191933D01*
X191599Y185733D01*
X75233Y37266D02*
X74900Y37599D01*
X74233D01*
X73900Y37266D01*
Y35933D01*
X74233Y35600D01*
X74900D01*
X75233Y35933D01*
X75899Y37266D02*
X76233Y37599D01*
X76899D01*
X77232Y37266D01*
Y36933D01*
X76899Y36600D01*
X76566D01*
X76899D01*
X77232Y36266D01*
Y35933D01*
X76899Y35600D01*
X76233D01*
X75899Y35933D01*
X79232Y37599D02*
X77899D01*
Y36600D01*
X78565Y36933D01*
X78898D01*
X79232Y36600D01*
Y35933D01*
X78898Y35600D01*
X78232D01*
X77899Y35933D01*
X49634Y61433D02*
X49301Y61100D01*
Y60433D01*
X49634Y60100D01*
X50967D01*
X51300Y60433D01*
Y61100D01*
X50967Y61433D01*
X49634Y62099D02*
X49301Y62433D01*
Y63099D01*
X49634Y63432D01*
X49967D01*
X50300Y63099D01*
Y62766D01*
Y63099D01*
X50634Y63432D01*
X50967D01*
X51300Y63099D01*
Y62433D01*
X50967Y62099D01*
X51300Y65098D02*
X49301D01*
X50300Y64099D01*
Y65432D01*
X31533Y44166D02*
X31200Y44499D01*
X30533D01*
X30200Y44166D01*
Y42833D01*
X30533Y42500D01*
X31200D01*
X31533Y42833D01*
X32199Y44166D02*
X32533Y44499D01*
X33199D01*
X33532Y44166D01*
Y43833D01*
X33199Y43500D01*
X32866D01*
X33199D01*
X33532Y43166D01*
Y42833D01*
X33199Y42500D01*
X32533D01*
X32199Y42833D01*
X34199Y44166D02*
X34532Y44499D01*
X35198D01*
X35532Y44166D01*
Y43833D01*
X35198Y43500D01*
X34865D01*
X35198D01*
X35532Y43166D01*
Y42833D01*
X35198Y42500D01*
X34532D01*
X34199Y42833D01*
X150233Y121166D02*
X149900Y121499D01*
X149233D01*
X148900Y121166D01*
Y119833D01*
X149233Y119500D01*
X149900D01*
X150233Y119833D01*
X152232Y119500D02*
X150899D01*
X152232Y120833D01*
Y121166D01*
X151899Y121499D01*
X151233D01*
X150899Y121166D01*
X154232Y119500D02*
X152899D01*
X154232Y120833D01*
Y121166D01*
X153898Y121499D01*
X153232D01*
X152899Y121166D01*
X84733Y283266D02*
X84400Y283599D01*
X83733D01*
X83400Y283266D01*
Y281933D01*
X83733Y281600D01*
X84400D01*
X84733Y281933D01*
X85399Y281600D02*
X86066D01*
X85733D01*
Y283599D01*
X85399Y283266D01*
X88398Y283599D02*
X87732Y283266D01*
X87066Y282600D01*
Y281933D01*
X87399Y281600D01*
X88065D01*
X88398Y281933D01*
Y282266D01*
X88065Y282600D01*
X87066D01*
X106933Y265666D02*
X106600Y265999D01*
X105933D01*
X105600Y265666D01*
Y264333D01*
X105933Y264000D01*
X106600D01*
X106933Y264333D01*
X107599Y264000D02*
X108266D01*
X107933D01*
Y265999D01*
X107599Y265666D01*
X110598Y265999D02*
X109265D01*
Y265000D01*
X109932Y265333D01*
X110265D01*
X110598Y265000D01*
Y264333D01*
X110265Y264000D01*
X109599D01*
X109265Y264333D01*
X91633Y348266D02*
X91300Y348599D01*
X90633D01*
X90300Y348266D01*
Y346933D01*
X90633Y346600D01*
X91300D01*
X91633Y346933D01*
X93299Y346600D02*
Y348599D01*
X92299Y347600D01*
X93632D01*
X128600Y221100D02*
Y223099D01*
X129600D01*
X129933Y222766D01*
Y222100D01*
X129600Y221766D01*
X128600D01*
X130599Y223099D02*
Y221100D01*
Y222100D01*
X131932D01*
Y223099D01*
Y221100D01*
X132599D02*
X133265D01*
X132932D01*
Y223099D01*
X132599Y222766D01*
X85500Y208000D02*
Y209999D01*
X86166Y209333D01*
X86833Y209999D01*
Y208000D01*
X87499Y209999D02*
X88832D01*
X88166D01*
Y208000D01*
X89499D02*
Y209999D01*
X90498D01*
X90832Y209666D01*
Y209000D01*
X90498Y208666D01*
X89499D01*
X92498Y208000D02*
Y209999D01*
X91498Y209000D01*
X92831D01*
X49800Y172800D02*
Y174799D01*
X50466Y174133D01*
X51133Y174799D01*
Y172800D01*
X51799Y174799D02*
X53132D01*
X52466D01*
Y172800D01*
X53799D02*
Y174799D01*
X54798D01*
X55132Y174466D01*
Y173800D01*
X54798Y173467D01*
X53799D01*
X57131Y174799D02*
X55798D01*
Y173800D01*
X56464Y174133D01*
X56798D01*
X57131Y173800D01*
Y173133D01*
X56798Y172800D01*
X56131D01*
X55798Y173133D01*
X68033Y170766D02*
X67700Y171099D01*
X67033D01*
X66700Y170766D01*
Y169433D01*
X67033Y169100D01*
X67700D01*
X68033Y169433D01*
X69699Y169100D02*
Y171099D01*
X68699Y170100D01*
X70032D01*
X72032Y169100D02*
X70699D01*
X72032Y170433D01*
Y170766D01*
X71698Y171099D01*
X71032D01*
X70699Y170766D01*
X77433D02*
X77100Y171099D01*
X76433D01*
X76100Y170766D01*
Y169433D01*
X76433Y169100D01*
X77100D01*
X77433Y169433D01*
X78099Y169100D02*
X78766D01*
X78433D01*
Y171099D01*
X78099Y170766D01*
X79765D02*
X80099Y171099D01*
X80765D01*
X81098Y170766D01*
Y170433D01*
X80765Y170100D01*
X81098Y169766D01*
Y169433D01*
X80765Y169100D01*
X80099D01*
X79765Y169433D01*
Y169766D01*
X80099Y170100D01*
X79765Y170433D01*
Y170766D01*
X80099Y170100D02*
X80765D01*
X74933Y149566D02*
X74600Y149899D01*
X73933D01*
X73600Y149566D01*
Y148233D01*
X73933Y147900D01*
X74600D01*
X74933Y148233D01*
X75599Y147900D02*
X76266D01*
X75933D01*
Y149899D01*
X75599Y149566D01*
X77266Y148233D02*
X77599Y147900D01*
X78265D01*
X78598Y148233D01*
Y149566D01*
X78265Y149899D01*
X77599D01*
X77266Y149566D01*
Y149233D01*
X77599Y148900D01*
X78598D01*
X61433Y143066D02*
X61100Y143399D01*
X60433D01*
X60100Y143066D01*
Y141733D01*
X60433Y141400D01*
X61100D01*
X61433Y141733D01*
X62099Y143066D02*
X62433Y143399D01*
X63099D01*
X63432Y143066D01*
Y142733D01*
X63099Y142400D01*
X62766D01*
X63099D01*
X63432Y142067D01*
Y141733D01*
X63099Y141400D01*
X62433D01*
X62099Y141733D01*
X64099Y143066D02*
X64432Y143399D01*
X65098D01*
X65432Y143066D01*
Y141733D01*
X65098Y141400D01*
X64432D01*
X64099Y141733D01*
Y143066D01*
X55233Y124466D02*
X54900Y124799D01*
X54233D01*
X53900Y124466D01*
Y123133D01*
X54233Y122800D01*
X54900D01*
X55233Y123133D01*
X57232Y122800D02*
X55899D01*
X57232Y124133D01*
Y124466D01*
X56899Y124799D01*
X56233D01*
X55899Y124466D01*
X57899Y123133D02*
X58232Y122800D01*
X58898D01*
X59232Y123133D01*
Y124466D01*
X58898Y124799D01*
X58232D01*
X57899Y124466D01*
Y124133D01*
X58232Y123800D01*
X59232D01*
X45900Y139199D02*
Y138866D01*
X46566Y138200D01*
X47233Y138866D01*
Y139199D01*
X46566Y138200D02*
Y137200D01*
X49232D02*
X47899D01*
X49232Y138533D01*
Y138866D01*
X48899Y139199D01*
X48233D01*
X47899Y138866D01*
X168733Y166466D02*
X168400Y166799D01*
X167733D01*
X167400Y166466D01*
Y165133D01*
X167733Y164800D01*
X168400D01*
X168733Y165133D01*
X170732Y164800D02*
X169399D01*
X170732Y166133D01*
Y166466D01*
X170399Y166799D01*
X169733D01*
X169399Y166466D01*
X172732Y166799D02*
X172065Y166466D01*
X171399Y165800D01*
Y165133D01*
X171732Y164800D01*
X172398D01*
X172732Y165133D01*
Y165466D01*
X172398Y165800D01*
X171399D01*
X93100Y35099D02*
Y33100D01*
Y34100D01*
X94433D01*
Y35099D01*
Y33100D01*
X96432D02*
X95099D01*
X96432Y34433D01*
Y34766D01*
X96099Y35099D01*
X95433D01*
X95099Y34766D01*
X179500Y132999D02*
Y131000D01*
Y132000D01*
X180833D01*
Y132999D01*
Y131000D01*
X181499Y132666D02*
X181833Y132999D01*
X182499D01*
X182832Y132666D01*
Y132333D01*
X182499Y132000D01*
X182166D01*
X182499D01*
X182832Y131667D01*
Y131333D01*
X182499Y131000D01*
X181833D01*
X181499Y131333D01*
X55100Y305099D02*
X56433D01*
X55766D01*
Y303100D01*
X57099D02*
X57766D01*
X57433D01*
Y305099D01*
X57099Y304766D01*
X96300Y303999D02*
X97633D01*
X96966D01*
Y302000D01*
X99299Y303999D02*
X98633D01*
X98299Y303666D01*
Y302333D01*
X98633Y302000D01*
X99299D01*
X99632Y302333D01*
Y303666D01*
X99299Y303999D01*
X101632D02*
X100299D01*
Y303000D01*
X100965D01*
X100299D01*
Y302000D01*
X209800Y184799D02*
X211133D01*
X210466D01*
Y182800D01*
X211799D02*
Y184799D01*
X212799D01*
X213132Y184466D01*
Y183800D01*
X212799Y183466D01*
X211799D01*
X213799Y184799D02*
X215132D01*
Y184466D01*
X213799Y183133D01*
Y182800D01*
X108133Y118466D02*
X107800Y118799D01*
X107133D01*
X106800Y118466D01*
Y117133D01*
X107133Y116800D01*
X107800D01*
X108133Y117133D01*
X110132Y116800D02*
X108799D01*
X110132Y118133D01*
Y118466D01*
X109799Y118799D01*
X109133D01*
X108799Y118466D01*
X110799D02*
X111132Y118799D01*
X111798D01*
X112132Y118466D01*
Y117133D01*
X111798Y116800D01*
X111132D01*
X110799Y117133D01*
Y118466D01*
X199333Y164266D02*
X199000Y164599D01*
X198333D01*
X198000Y164266D01*
Y163933D01*
X198333Y163600D01*
X199000D01*
X199333Y163267D01*
Y162933D01*
X199000Y162600D01*
X198333D01*
X198000Y162933D01*
X199999Y162600D02*
X200666D01*
X200333D01*
Y164599D01*
X199999Y164266D01*
X16333Y179233D02*
Y180566D01*
X16000Y180899D01*
X15333D01*
X15000Y180566D01*
Y179233D01*
X15333Y178900D01*
X16000D01*
X15666Y179567D02*
X16333Y178900D01*
X16000D02*
X16333Y179233D01*
X18332Y178900D02*
X16999D01*
X18332Y180233D01*
Y180566D01*
X17999Y180899D01*
X17333D01*
X16999Y180566D01*
X102000Y109599D02*
Y107600D01*
X103333D01*
X103999Y109266D02*
X104333Y109599D01*
X104999D01*
X105332Y109266D01*
Y108933D01*
X104999Y108600D01*
X104666D01*
X104999D01*
X105332Y108266D01*
Y107933D01*
X104999Y107600D01*
X104333D01*
X103999Y107933D01*
X265000Y183600D02*
Y185599D01*
X265666Y184933D01*
X266333Y185599D01*
Y183600D01*
X266999Y185599D02*
X268332D01*
X267666D01*
Y183600D01*
X268999D02*
Y185599D01*
X269998D01*
X270332Y185266D01*
Y184600D01*
X269998Y184266D01*
X268999D01*
X270998Y185266D02*
X271331Y185599D01*
X271998D01*
X272331Y185266D01*
Y184933D01*
X271998Y184600D01*
X271665D01*
X271998D01*
X272331Y184266D01*
Y183933D01*
X271998Y183600D01*
X271331D01*
X270998Y183933D01*
X223400Y169500D02*
Y171499D01*
X224066Y170833D01*
X224733Y171499D01*
Y169500D01*
X225399Y170833D02*
Y169833D01*
X225733Y169500D01*
X226732D01*
Y170833D01*
X227399Y169500D02*
X228065D01*
X227732D01*
Y171499D01*
X227399D01*
X229065Y169500D02*
X229731D01*
X229398D01*
Y171499D01*
X229065Y171166D01*
X105233Y378166D02*
X104900Y378499D01*
X104233D01*
X103900Y378166D01*
Y376833D01*
X104233Y376500D01*
X104900D01*
X105233Y376833D01*
X107232Y378499D02*
X105899D01*
Y377500D01*
X106566Y377833D01*
X106899D01*
X107232Y377500D01*
Y376833D01*
X106899Y376500D01*
X106233D01*
X105899Y376833D01*
X103333Y383566D02*
X103000Y383899D01*
X102333D01*
X102000Y383566D01*
Y382233D01*
X102333Y381900D01*
X103000D01*
X103333Y382233D01*
X105332Y383899D02*
X104666Y383566D01*
X103999Y382900D01*
Y382233D01*
X104333Y381900D01*
X104999D01*
X105332Y382233D01*
Y382566D01*
X104999Y382900D01*
X103999D01*
X126700Y366400D02*
Y368399D01*
X127700D01*
X128033Y368066D01*
Y367400D01*
X127700Y367066D01*
X126700D01*
X127366D02*
X128033Y366400D01*
X128699D02*
X129366D01*
X129033D01*
Y368399D01*
X128699Y368066D01*
X128500Y376200D02*
Y378199D01*
X129500D01*
X129833Y377866D01*
Y377200D01*
X129500Y376866D01*
X128500D01*
X129166D02*
X129833Y376200D01*
X130499D02*
X131166D01*
X130833D01*
Y378199D01*
X130499Y377866D01*
X133498Y376200D02*
X132166D01*
X133498Y377533D01*
Y377866D01*
X133165Y378199D01*
X132499D01*
X132166Y377866D01*
X123600Y352800D02*
Y354799D01*
X124600D01*
X124933Y354466D01*
Y353800D01*
X124600Y353466D01*
X123600D01*
X124267D02*
X124933Y352800D01*
X126932D02*
X125599D01*
X126932Y354133D01*
Y354466D01*
X126599Y354799D01*
X125933D01*
X125599Y354466D01*
X121600Y328300D02*
Y330299D01*
X122600D01*
X122933Y329966D01*
Y329300D01*
X122600Y328966D01*
X121600D01*
X122266D02*
X122933Y328300D01*
X123599D02*
X124266D01*
X123933D01*
Y330299D01*
X123599Y329966D01*
X125266D02*
X125599Y330299D01*
X126265D01*
X126598Y329966D01*
Y329633D01*
X126265Y329300D01*
X125932D01*
X126265D01*
X126598Y328966D01*
Y328633D01*
X126265Y328300D01*
X125599D01*
X125266Y328633D01*
X109633Y342766D02*
X109300Y343099D01*
X108633D01*
X108300Y342766D01*
Y341433D01*
X108633Y341100D01*
X109300D01*
X109633Y341433D01*
X110299Y341100D02*
X110966D01*
X110633D01*
Y343099D01*
X110299Y342766D01*
X111966D02*
X112299Y343099D01*
X112965D01*
X113298Y342766D01*
Y341433D01*
X112965Y341100D01*
X112299D01*
X111966Y341433D01*
Y342766D01*
X97300Y342599D02*
X97966D01*
X97633D01*
Y340600D01*
X97300D01*
X97966D01*
X98966D02*
Y342599D01*
X99966D01*
X100299Y342266D01*
Y341600D01*
X99966Y341266D01*
X98966D01*
X99633D02*
X100299Y340600D01*
X102298D02*
X100965D01*
X102298Y341933D01*
Y342266D01*
X101965Y342599D01*
X101299D01*
X100965Y342266D01*
X78333Y348966D02*
X78000Y349299D01*
X77333D01*
X77000Y348966D01*
Y347633D01*
X77333Y347300D01*
X78000D01*
X78333Y347633D01*
X78999Y348966D02*
X79333Y349299D01*
X79999D01*
X80332Y348966D01*
Y348633D01*
X79999Y348300D01*
X79666D01*
X79999D01*
X80332Y347966D01*
Y347633D01*
X79999Y347300D01*
X79333D01*
X78999Y347633D01*
X124933Y342466D02*
X124600Y342799D01*
X123933D01*
X123600Y342466D01*
Y341133D01*
X123933Y340800D01*
X124600D01*
X124933Y341133D01*
X125599D02*
X125933Y340800D01*
X126599D01*
X126932Y341133D01*
Y342466D01*
X126599Y342799D01*
X125933D01*
X125599Y342466D01*
Y342133D01*
X125933Y341800D01*
X126932D01*
X89133Y322066D02*
X88800Y322399D01*
X88133D01*
X87800Y322066D01*
Y320733D01*
X88133Y320400D01*
X88800D01*
X89133Y320733D01*
X89799Y322066D02*
X90133Y322399D01*
X90799D01*
X91132Y322066D01*
Y321733D01*
X90799Y321400D01*
X91132Y321066D01*
Y320733D01*
X90799Y320400D01*
X90133D01*
X89799Y320733D01*
Y321066D01*
X90133Y321400D01*
X89799Y321733D01*
Y322066D01*
X90133Y321400D02*
X90799D01*
X128300Y319200D02*
Y321199D01*
X129300D01*
X129633Y320866D01*
Y320200D01*
X129300Y319866D01*
X128300D01*
X128966D02*
X129633Y319200D01*
X130299Y320866D02*
X130633Y321199D01*
X131299D01*
X131632Y320866D01*
Y320533D01*
X131299Y320200D01*
X130966D01*
X131299D01*
X131632Y319866D01*
Y319533D01*
X131299Y319200D01*
X130633D01*
X130299Y319533D01*
M02*
