G04 Layer_Physical_Order=2*
G04 Layer_Color=16711680*
%FSLAX25Y25*%
%MOIN*%
G70*
G01*
G75*
%ADD44C,0.06000*%
%ADD47C,0.02000*%
%ADD48C,0.01000*%
%ADD51C,0.08000*%
%ADD52R,0.05905X0.05905*%
%ADD53R,0.09843X0.09843*%
%ADD54C,0.05905*%
%ADD55R,0.05905X0.05905*%
%ADD56C,0.05150*%
%ADD57R,0.05150X0.05150*%
%ADD58C,0.01968*%
%ADD59C,0.02400*%
%ADD60C,0.05000*%
G36*
X184600Y367200D02*
Y308800D01*
X304300Y189100D01*
X293900Y18700D01*
X104158Y9288D01*
X103911Y9723D01*
X104130Y10050D01*
X104324Y11025D01*
Y16175D01*
X104130Y17150D01*
X103577Y17977D01*
X102750Y18530D01*
X102166Y18646D01*
X101959Y19197D01*
X102323Y19671D01*
X102683Y20541D01*
X102740Y20974D01*
X99200D01*
X95660D01*
X95717Y20541D01*
X96077Y19671D01*
X96441Y19197D01*
X96234Y18646D01*
X95650Y18530D01*
X94823Y17977D01*
X94270Y17150D01*
X94076Y16175D01*
Y11025D01*
X94270Y10050D01*
X94757Y9322D01*
X94603Y8814D01*
X55223Y6860D01*
X54861Y7205D01*
Y11194D01*
X48920D01*
X42979D01*
Y6773D01*
X42983Y6754D01*
X42600Y6234D01*
X27800Y5500D01*
X26515Y6785D01*
Y11194D01*
X20574D01*
Y11694D01*
X20074D01*
Y17635D01*
X15665D01*
X7000Y26300D01*
Y360002D01*
X7433Y360253D01*
X7700Y360100D01*
X34100Y386500D01*
X165300D01*
X184600Y367200D01*
D02*
G37*
%LPC*%
G36*
X286000Y81644D02*
Y80000D01*
X287644D01*
X287572Y80358D01*
X287086Y81086D01*
X286358Y81572D01*
X286000Y81644D01*
D02*
G37*
G36*
X285000D02*
X284642Y81572D01*
X283914Y81086D01*
X283428Y80358D01*
X283356Y80000D01*
X285000D01*
Y81644D01*
D02*
G37*
G36*
X280900Y81544D02*
Y79900D01*
X282544D01*
X282472Y80258D01*
X281986Y80986D01*
X281258Y81472D01*
X280900Y81544D01*
D02*
G37*
G36*
X59300Y100700D02*
X57656D01*
X57728Y100342D01*
X58214Y99614D01*
X58942Y99128D01*
X59300Y99056D01*
Y100700D01*
D02*
G37*
G36*
X61944D02*
X60300D01*
Y99056D01*
X60658Y99128D01*
X61386Y99614D01*
X61872Y100342D01*
X61944Y100700D01*
D02*
G37*
G36*
X290000Y81644D02*
X289642Y81572D01*
X288914Y81086D01*
X288428Y80358D01*
X288356Y80000D01*
X290000D01*
Y81644D01*
D02*
G37*
G36*
X291000D02*
Y80000D01*
X292644D01*
X292572Y80358D01*
X292086Y81086D01*
X291358Y81572D01*
X291000Y81644D01*
D02*
G37*
G36*
X279900Y81544D02*
X279542Y81472D01*
X278814Y80986D01*
X278328Y80258D01*
X278256Y79900D01*
X279900D01*
Y81544D01*
D02*
G37*
G36*
X292444Y74200D02*
X290800D01*
Y72556D01*
X291158Y72628D01*
X291886Y73114D01*
X292372Y73842D01*
X292444Y74200D01*
D02*
G37*
G36*
X289800D02*
X288156D01*
X288228Y73842D01*
X288714Y73114D01*
X289442Y72628D01*
X289800Y72556D01*
Y74200D01*
D02*
G37*
G36*
X290700Y71844D02*
Y70200D01*
X292344D01*
X292272Y70558D01*
X291786Y71286D01*
X291058Y71772D01*
X290700Y71844D01*
D02*
G37*
G36*
X287302Y74335D02*
X285658D01*
Y72691D01*
X286017Y72762D01*
X286744Y73248D01*
X287231Y73976D01*
X287302Y74335D01*
D02*
G37*
G36*
X287644Y79000D02*
X283356D01*
X283428Y78642D01*
X283914Y77914D01*
X284576Y77472D01*
X284586Y77205D01*
X284523Y76951D01*
X284300Y76907D01*
X283572Y76421D01*
X283294Y76005D01*
X282700Y76016D01*
X282386Y76486D01*
X281658Y76972D01*
X281634Y76977D01*
X281528Y77508D01*
X281986Y77814D01*
X282472Y78542D01*
X282544Y78900D01*
X278256D01*
X278328Y78542D01*
X278814Y77814D01*
X279542Y77328D01*
X279566Y77323D01*
X279672Y76792D01*
X279214Y76486D01*
X278728Y75758D01*
X278656Y75400D01*
X280800D01*
Y74400D01*
X278656D01*
X278728Y74042D01*
X279214Y73314D01*
X279942Y72828D01*
X280458Y72725D01*
X280459Y72725D01*
Y72215D01*
X280441Y72211D01*
X279742Y72072D01*
X279014Y71586D01*
X278528Y70858D01*
X278456Y70500D01*
X280600D01*
Y70000D01*
X281100D01*
Y67856D01*
X281458Y67928D01*
X282186Y68414D01*
X282661Y69125D01*
X282736Y69137D01*
X283175Y69106D01*
X283228Y68842D01*
X283714Y68114D01*
X284442Y67628D01*
X284800Y67556D01*
Y69700D01*
Y71844D01*
X284442Y71772D01*
X283714Y71286D01*
X283239Y70575D01*
X283164Y70563D01*
X282725Y70594D01*
X282672Y70858D01*
X282186Y71586D01*
X281458Y72072D01*
X280942Y72175D01*
X280941Y72175D01*
Y72685D01*
X280959Y72689D01*
X281658Y72828D01*
X282386Y73314D01*
X282664Y73730D01*
X283258Y73719D01*
X283572Y73248D01*
X284300Y72762D01*
X284658Y72691D01*
Y74835D01*
X285158D01*
Y75335D01*
X287302D01*
X287231Y75693D01*
X286744Y76421D01*
X286083Y76863D01*
X286072Y77129D01*
X286135Y77383D01*
X286358Y77428D01*
X287086Y77914D01*
X287572Y78642D01*
X287644Y79000D01*
D02*
G37*
G36*
X292644D02*
X288356D01*
X288428Y78642D01*
X288914Y77914D01*
X289642Y77428D01*
X289907Y77375D01*
Y76865D01*
X289442Y76772D01*
X288714Y76286D01*
X288228Y75558D01*
X288156Y75200D01*
X292444D01*
X292372Y75558D01*
X291886Y76286D01*
X291158Y76772D01*
X290893Y76825D01*
Y77335D01*
X291358Y77428D01*
X292086Y77914D01*
X292572Y78642D01*
X292644Y79000D01*
D02*
G37*
G36*
X245000Y85732D02*
X244034Y85605D01*
X243134Y85232D01*
X242361Y84639D01*
X241768Y83866D01*
X241395Y82966D01*
X241268Y82000D01*
X241395Y81034D01*
X241768Y80134D01*
X241974Y79865D01*
Y79753D01*
X236085Y73864D01*
X235866Y74032D01*
X234966Y74405D01*
X234000Y74532D01*
X233034Y74405D01*
X232134Y74032D01*
X231361Y73439D01*
X230768Y72666D01*
X230395Y71766D01*
X230268Y70800D01*
X230395Y69834D01*
X230768Y68934D01*
X231361Y68161D01*
X232134Y67568D01*
X233034Y67195D01*
X234000Y67068D01*
X234966Y67195D01*
X235866Y67568D01*
X236135Y67774D01*
X237300D01*
X238083Y67877D01*
X238813Y68180D01*
X239440Y68660D01*
X247140Y76360D01*
X247140Y76360D01*
X247621Y76987D01*
X247923Y77717D01*
X248026Y78500D01*
Y79865D01*
X248232Y80134D01*
X248605Y81034D01*
X248732Y82000D01*
X248605Y82966D01*
X248232Y83866D01*
X247639Y84639D01*
X246866Y85232D01*
X245966Y85605D01*
X245000Y85732D01*
D02*
G37*
G36*
X59300Y103344D02*
X58942Y103272D01*
X58214Y102786D01*
X57728Y102058D01*
X57656Y101700D01*
X59300D01*
Y103344D01*
D02*
G37*
G36*
X273353Y177502D02*
X267447D01*
X266472Y177308D01*
X265645Y176755D01*
X265092Y175928D01*
X264898Y174953D01*
Y169047D01*
X265092Y168072D01*
X265645Y167245D01*
X266472Y166692D01*
X267447Y166498D01*
X273353D01*
X274328Y166692D01*
X275155Y167245D01*
X275708Y168072D01*
X275902Y169047D01*
Y174953D01*
X275708Y175928D01*
X275155Y176755D01*
X274328Y177308D01*
X273353Y177502D01*
D02*
G37*
G36*
X218153Y176702D02*
X212247D01*
X211272Y176508D01*
X210445Y175955D01*
X209892Y175128D01*
X209698Y174153D01*
Y168247D01*
X209892Y167272D01*
X210445Y166445D01*
X211272Y165892D01*
X212247Y165698D01*
X218153D01*
X219128Y165892D01*
X219955Y166445D01*
X220508Y167272D01*
X220702Y168247D01*
Y174153D01*
X220508Y175128D01*
X219955Y175955D01*
X219128Y176508D01*
X218153Y176702D01*
D02*
G37*
G36*
X85500Y155544D02*
Y153900D01*
X87144D01*
X87072Y154258D01*
X86586Y154986D01*
X85858Y155472D01*
X85500Y155544D01*
D02*
G37*
G36*
X186953Y195702D02*
X181047D01*
X180072Y195508D01*
X179245Y194955D01*
X178692Y194128D01*
X178498Y193153D01*
Y187247D01*
X178692Y186272D01*
X179245Y185445D01*
X180072Y184892D01*
X180340Y184839D01*
X180454Y184352D01*
X180111Y184089D01*
X179237Y182950D01*
X178688Y181623D01*
X178500Y180200D01*
X178688Y178777D01*
X179237Y177450D01*
X180111Y176311D01*
X181250Y175437D01*
X182577Y174888D01*
X184000Y174700D01*
X185424Y174888D01*
X186750Y175437D01*
X187889Y176311D01*
X188763Y177450D01*
X189312Y178777D01*
X189500Y180200D01*
X189312Y181623D01*
X188763Y182950D01*
X187889Y184089D01*
X187546Y184352D01*
X187660Y184839D01*
X187928Y184892D01*
X188755Y185445D01*
X189308Y186272D01*
X189502Y187247D01*
Y193153D01*
X189308Y194128D01*
X188755Y194955D01*
X187928Y195508D01*
X186953Y195702D01*
D02*
G37*
G36*
X181100Y217521D02*
X180568Y217451D01*
X179607Y217053D01*
X178781Y216419D01*
X178147Y215593D01*
X177749Y214632D01*
X177679Y214100D01*
X181100D01*
Y217521D01*
D02*
G37*
G36*
X185521Y213100D02*
X182100D01*
Y209679D01*
X182632Y209749D01*
X183593Y210147D01*
X184419Y210781D01*
X185053Y211607D01*
X185451Y212568D01*
X185521Y213100D01*
D02*
G37*
G36*
X181100D02*
X177679D01*
X177749Y212568D01*
X178147Y211607D01*
X178781Y210781D01*
X179607Y210147D01*
X180568Y209749D01*
X181100Y209679D01*
Y213100D01*
D02*
G37*
G36*
X252500Y154844D02*
Y153200D01*
X254144D01*
X254072Y153558D01*
X253586Y154286D01*
X252858Y154772D01*
X252500Y154844D01*
D02*
G37*
G36*
X55800Y150700D02*
X54156D01*
X54228Y150342D01*
X54714Y149614D01*
X55442Y149128D01*
X55800Y149056D01*
Y150700D01*
D02*
G37*
G36*
X290953Y131902D02*
X285047D01*
X284072Y131708D01*
X283245Y131155D01*
X282692Y130328D01*
X282498Y129353D01*
Y123447D01*
X282692Y122472D01*
X283245Y121645D01*
X284072Y121092D01*
X285047Y120898D01*
X290953D01*
X291928Y121092D01*
X292755Y121645D01*
X293308Y122472D01*
X293502Y123447D01*
Y129353D01*
X293308Y130328D01*
X292755Y131155D01*
X291928Y131708D01*
X290953Y131902D01*
D02*
G37*
G36*
X60300Y103344D02*
Y101700D01*
X61944D01*
X61872Y102058D01*
X61386Y102786D01*
X60658Y103272D01*
X60300Y103344D01*
D02*
G37*
G36*
X58444Y150700D02*
X56800D01*
Y149056D01*
X57158Y149128D01*
X57886Y149614D01*
X58372Y150342D01*
X58444Y150700D01*
D02*
G37*
G36*
X251500Y154844D02*
X251142Y154772D01*
X250414Y154286D01*
X249928Y153558D01*
X249856Y153200D01*
X251500D01*
Y154844D01*
D02*
G37*
G36*
X56800Y153344D02*
Y151700D01*
X58444D01*
X58372Y152058D01*
X57886Y152786D01*
X57158Y153272D01*
X56800Y153344D01*
D02*
G37*
G36*
X55800D02*
X55442Y153272D01*
X54714Y152786D01*
X54228Y152058D01*
X54156Y151700D01*
X55800D01*
Y153344D01*
D02*
G37*
G36*
X203700Y21344D02*
Y19700D01*
X205344D01*
X205272Y20058D01*
X204786Y20786D01*
X204058Y21272D01*
X203700Y21344D01*
D02*
G37*
G36*
X202700D02*
X202342Y21272D01*
X201614Y20786D01*
X201128Y20058D01*
X201056Y19700D01*
X202700D01*
Y21344D01*
D02*
G37*
G36*
X24783Y22217D02*
X22255D01*
Y19689D01*
X22556Y19729D01*
X23302Y20038D01*
X23942Y20530D01*
X24434Y21170D01*
X24743Y21916D01*
X24783Y22217D01*
D02*
G37*
G36*
X98700Y25014D02*
X98267Y24957D01*
X97397Y24597D01*
X96650Y24024D01*
X96077Y23277D01*
X95717Y22407D01*
X95660Y21974D01*
X98700D01*
Y25014D01*
D02*
G37*
G36*
X47239Y25745D02*
X46938Y25705D01*
X46192Y25396D01*
X45552Y24904D01*
X45060Y24264D01*
X44751Y23518D01*
X44711Y23217D01*
X47239D01*
Y25745D01*
D02*
G37*
G36*
X21255D02*
X20954Y25705D01*
X20208Y25396D01*
X19568Y24904D01*
X19076Y24264D01*
X18767Y23518D01*
X18727Y23217D01*
X21255D01*
Y25745D01*
D02*
G37*
G36*
X99700Y25014D02*
Y21974D01*
X102740D01*
X102683Y22407D01*
X102323Y23277D01*
X101750Y24024D01*
X101003Y24597D01*
X100133Y24957D01*
X99700Y25014D01*
D02*
G37*
G36*
X50767Y22217D02*
X48239D01*
Y19689D01*
X48540Y19729D01*
X49286Y20038D01*
X49926Y20530D01*
X50418Y21170D01*
X50727Y21916D01*
X50767Y22217D01*
D02*
G37*
G36*
X53842Y17635D02*
X49420D01*
Y12194D01*
X54861D01*
Y16615D01*
X54783Y17006D01*
X54562Y17336D01*
X54232Y17558D01*
X53842Y17635D01*
D02*
G37*
G36*
X25495D02*
X21074D01*
Y12194D01*
X26515D01*
Y16615D01*
X26438Y17006D01*
X26217Y17336D01*
X25886Y17558D01*
X25495Y17635D01*
D02*
G37*
G36*
X48420D02*
X43999D01*
X43608Y17558D01*
X43277Y17336D01*
X43056Y17006D01*
X42979Y16615D01*
Y12194D01*
X48420D01*
Y17635D01*
D02*
G37*
G36*
X202700Y18700D02*
X201056D01*
X201128Y18342D01*
X201614Y17614D01*
X202342Y17128D01*
X202700Y17056D01*
Y18700D01*
D02*
G37*
G36*
X47239Y22217D02*
X44711D01*
X44751Y21916D01*
X45060Y21170D01*
X45552Y20530D01*
X46192Y20038D01*
X46938Y19729D01*
X47239Y19689D01*
Y22217D01*
D02*
G37*
G36*
X21255D02*
X18727D01*
X18767Y21916D01*
X19076Y21170D01*
X19568Y20530D01*
X20208Y20038D01*
X20954Y19729D01*
X21255Y19689D01*
Y22217D01*
D02*
G37*
G36*
X205344Y18700D02*
X203700D01*
Y17056D01*
X204058Y17128D01*
X204786Y17614D01*
X205272Y18342D01*
X205344Y18700D01*
D02*
G37*
G36*
X48239Y25745D02*
Y23217D01*
X50767D01*
X50727Y23518D01*
X50418Y24264D01*
X49926Y24904D01*
X49286Y25396D01*
X48540Y25705D01*
X48239Y25745D01*
D02*
G37*
G36*
X44300Y61344D02*
X43942Y61272D01*
X43214Y60786D01*
X42728Y60058D01*
X42656Y59700D01*
X44300D01*
Y61344D01*
D02*
G37*
G36*
X143500Y54900D02*
X141856D01*
X141928Y54542D01*
X142414Y53814D01*
X143142Y53328D01*
X143500Y53256D01*
Y54900D01*
D02*
G37*
G36*
X198900Y51744D02*
Y50100D01*
X200544D01*
X200472Y50458D01*
X199986Y51186D01*
X199258Y51672D01*
X198900Y51744D01*
D02*
G37*
G36*
X45300Y61344D02*
Y59700D01*
X46944D01*
X46872Y60058D01*
X46386Y60786D01*
X45658Y61272D01*
X45300Y61344D01*
D02*
G37*
G36*
X289700Y71844D02*
X289342Y71772D01*
X288614Y71286D01*
X288128Y70558D01*
X288008Y69957D01*
X288005Y69941D01*
X287495D01*
X287492Y69957D01*
X287372Y70558D01*
X286886Y71286D01*
X286158Y71772D01*
X285800Y71844D01*
Y69700D01*
Y67556D01*
X286158Y67628D01*
X286886Y68114D01*
X287372Y68842D01*
X287492Y69443D01*
X287495Y69459D01*
X288005D01*
X288008Y69443D01*
X288128Y68842D01*
X288614Y68114D01*
X289342Y67628D01*
X289700Y67556D01*
Y69700D01*
Y71844D01*
D02*
G37*
G36*
X280100Y69500D02*
X278456D01*
X278528Y69142D01*
X279014Y68414D01*
X279742Y67928D01*
X280100Y67856D01*
Y69500D01*
D02*
G37*
G36*
X292344Y69200D02*
X290700D01*
Y67556D01*
X291058Y67628D01*
X291786Y68114D01*
X292272Y68842D01*
X292344Y69200D01*
D02*
G37*
G36*
X197900Y51744D02*
X197542Y51672D01*
X196814Y51186D01*
X196328Y50458D01*
X196256Y50100D01*
X197900D01*
Y51744D01*
D02*
G37*
G36*
X99844Y42600D02*
X98200D01*
Y40956D01*
X98558Y41028D01*
X99286Y41514D01*
X99772Y42242D01*
X99844Y42600D01*
D02*
G37*
G36*
X97200D02*
X95556D01*
X95628Y42242D01*
X96114Y41514D01*
X96842Y41028D01*
X97200Y40956D01*
Y42600D01*
D02*
G37*
G36*
X22255Y25745D02*
Y23217D01*
X24783D01*
X24743Y23518D01*
X24434Y24264D01*
X23942Y24904D01*
X23302Y25396D01*
X22556Y25705D01*
X22255Y25745D01*
D02*
G37*
G36*
X97200Y45244D02*
X96842Y45172D01*
X96114Y44686D01*
X95628Y43958D01*
X95556Y43600D01*
X97200D01*
Y45244D01*
D02*
G37*
G36*
X200544Y49100D02*
X198900D01*
Y47456D01*
X199258Y47528D01*
X199986Y48014D01*
X200472Y48742D01*
X200544Y49100D01*
D02*
G37*
G36*
X197900D02*
X196256D01*
X196328Y48742D01*
X196814Y48014D01*
X197542Y47528D01*
X197900Y47456D01*
Y49100D01*
D02*
G37*
G36*
X98200Y45244D02*
Y43600D01*
X99844D01*
X99772Y43958D01*
X99286Y44686D01*
X98558Y45172D01*
X98200Y45244D01*
D02*
G37*
G36*
X81744Y274700D02*
X80100D01*
Y273056D01*
X80458Y273128D01*
X81186Y273614D01*
X81672Y274342D01*
X81744Y274700D01*
D02*
G37*
G36*
X79100D02*
X77456D01*
X77528Y274342D01*
X78014Y273614D01*
X78742Y273128D01*
X79100Y273056D01*
Y274700D01*
D02*
G37*
G36*
Y277344D02*
X78742Y277272D01*
X78014Y276786D01*
X77528Y276058D01*
X77456Y275700D01*
X79100D01*
Y277344D01*
D02*
G37*
G36*
X86300Y326800D02*
X84656D01*
X84728Y326442D01*
X85214Y325714D01*
X85942Y325228D01*
X86300Y325156D01*
Y326800D01*
D02*
G37*
G36*
X80100Y277344D02*
Y275700D01*
X81744D01*
X81672Y276058D01*
X81186Y276786D01*
X80458Y277272D01*
X80100Y277344D01*
D02*
G37*
G36*
X88944Y326800D02*
X87300D01*
Y325156D01*
X87658Y325228D01*
X88386Y325714D01*
X88872Y326442D01*
X88944Y326800D01*
D02*
G37*
G36*
X154153Y271902D02*
X148247D01*
X147272Y271708D01*
X146445Y271155D01*
X145892Y270328D01*
X145698Y269353D01*
Y263447D01*
X145892Y262472D01*
X146445Y261645D01*
X147272Y261092D01*
X148247Y260898D01*
X154153D01*
X155128Y261092D01*
X155955Y261645D01*
X156508Y262472D01*
X156702Y263447D01*
Y269353D01*
X156508Y270328D01*
X155955Y271155D01*
X155128Y271708D01*
X154153Y271902D01*
D02*
G37*
G36*
X162953Y343102D02*
X157047D01*
X156072Y342908D01*
X155245Y342355D01*
X154692Y341528D01*
X154498Y340553D01*
Y334647D01*
X154692Y333672D01*
X155245Y332845D01*
X156072Y332292D01*
X157047Y332098D01*
X162953D01*
X163928Y332292D01*
X164755Y332845D01*
X165308Y333672D01*
X165502Y334647D01*
Y340553D01*
X165308Y341528D01*
X164755Y342355D01*
X163928Y342908D01*
X162953Y343102D01*
D02*
G37*
G36*
X104900Y330244D02*
X104542Y330172D01*
X103814Y329686D01*
X103328Y328958D01*
X103256Y328600D01*
X104900D01*
Y330244D01*
D02*
G37*
G36*
X86300Y329444D02*
X85942Y329372D01*
X85214Y328886D01*
X84728Y328158D01*
X84656Y327800D01*
X86300D01*
Y329444D01*
D02*
G37*
G36*
X87300D02*
Y327800D01*
X88944D01*
X88872Y328158D01*
X88386Y328886D01*
X87658Y329372D01*
X87300Y329444D01*
D02*
G37*
G36*
X61353Y327102D02*
X55447D01*
X54472Y326908D01*
X53645Y326355D01*
X53092Y325528D01*
X52898Y324553D01*
Y318647D01*
X53092Y317672D01*
X53645Y316845D01*
X54472Y316292D01*
X55447Y316098D01*
X61353D01*
X62328Y316292D01*
X63155Y316845D01*
X63708Y317672D01*
X63902Y318647D01*
Y324553D01*
X63708Y325528D01*
X63155Y326355D01*
X62328Y326908D01*
X61353Y327102D01*
D02*
G37*
G36*
X164553Y305502D02*
X158647D01*
X157672Y305308D01*
X156845Y304755D01*
X156292Y303928D01*
X156098Y302953D01*
Y297047D01*
X156292Y296072D01*
X156845Y295245D01*
X157672Y294692D01*
X158647Y294498D01*
X164553D01*
X165528Y294692D01*
X166355Y295245D01*
X166908Y296072D01*
X167102Y297047D01*
Y302953D01*
X166908Y303928D01*
X166355Y304755D01*
X165528Y305308D01*
X164553Y305502D01*
D02*
G37*
G36*
X65665Y295289D02*
X65391Y295234D01*
X64735Y294796D01*
X64296Y294140D01*
X64255Y293932D01*
X63745D01*
X63704Y294140D01*
X63265Y294796D01*
X62609Y295234D01*
X62335Y295289D01*
Y293365D01*
X61835D01*
Y292865D01*
X59911D01*
X59965Y292591D01*
X60404Y291935D01*
X61060Y291496D01*
X61268Y291455D01*
Y290945D01*
X61060Y290904D01*
X60404Y290465D01*
X59965Y289809D01*
X59911Y289535D01*
X61835D01*
Y289035D01*
X62335D01*
Y287111D01*
X62609Y287165D01*
X63265Y287604D01*
X63704Y288260D01*
X63745Y288468D01*
X64255D01*
X64296Y288260D01*
X64735Y287604D01*
X65391Y287165D01*
X65665Y287111D01*
Y289035D01*
X66165D01*
Y289535D01*
X68089D01*
X68034Y289809D01*
X67596Y290465D01*
X66940Y290904D01*
X66732Y290945D01*
Y291455D01*
X66940Y291496D01*
X67596Y291935D01*
X68034Y292591D01*
X68089Y292865D01*
X66165D01*
Y293365D01*
X65665D01*
Y295289D01*
D02*
G37*
G36*
X27753Y307002D02*
X21847D01*
X20872Y306808D01*
X20045Y306255D01*
X19492Y305428D01*
X19298Y304453D01*
Y298547D01*
X19492Y297572D01*
X20045Y296745D01*
X20872Y296192D01*
X21847Y295998D01*
X27753D01*
X28728Y296192D01*
X29555Y296745D01*
X30108Y297572D01*
X30302Y298547D01*
Y304453D01*
X30108Y305428D01*
X29555Y306255D01*
X28728Y306808D01*
X27753Y307002D01*
D02*
G37*
G36*
X49444Y307000D02*
X47800D01*
Y305356D01*
X48158Y305428D01*
X48886Y305914D01*
X49372Y306642D01*
X49444Y307000D01*
D02*
G37*
G36*
X46800D02*
X45156D01*
X45228Y306642D01*
X45714Y305914D01*
X46442Y305428D01*
X46800Y305356D01*
Y307000D01*
D02*
G37*
G36*
X66665Y295289D02*
Y293865D01*
X68089D01*
X68034Y294140D01*
X67596Y294796D01*
X66940Y295234D01*
X66665Y295289D01*
D02*
G37*
G36*
X46800Y309644D02*
X46442Y309572D01*
X45714Y309086D01*
X45228Y308358D01*
X45156Y308000D01*
X46800D01*
Y309644D01*
D02*
G37*
G36*
X47800D02*
Y308000D01*
X49444D01*
X49372Y308358D01*
X48886Y309086D01*
X48158Y309572D01*
X47800Y309644D01*
D02*
G37*
G36*
X61335Y288535D02*
X59911D01*
X59965Y288260D01*
X60404Y287604D01*
X61060Y287165D01*
X61335Y287111D01*
Y288535D01*
D02*
G37*
G36*
Y295289D02*
X61060Y295234D01*
X60404Y294796D01*
X59965Y294140D01*
X59911Y293865D01*
X61335D01*
Y295289D01*
D02*
G37*
G36*
X68089Y288535D02*
X66665D01*
Y287111D01*
X66940Y287165D01*
X67596Y287604D01*
X68034Y288260D01*
X68089Y288535D01*
D02*
G37*
G36*
X147423Y380730D02*
X143732D01*
X142818Y380610D01*
X141967Y380257D01*
X141236Y379696D01*
X141085Y379500D01*
X138704Y377119D01*
X138143Y376388D01*
X137790Y375536D01*
X137670Y374623D01*
Y370977D01*
X137790Y370064D01*
X138143Y369212D01*
X138704Y368481D01*
X139770Y367415D01*
Y344915D01*
X128479Y333625D01*
X127609Y333510D01*
X127578Y333526D01*
X127472Y334058D01*
X126986Y334786D01*
X126258Y335272D01*
X125900Y335344D01*
Y333200D01*
X124900D01*
Y335344D01*
X124542Y335272D01*
X123814Y334786D01*
X123328Y334058D01*
X123222Y333526D01*
X123191Y333510D01*
X122277Y333630D01*
X111500D01*
X110586Y333510D01*
X109735Y333157D01*
X109004Y332596D01*
X107304Y330896D01*
X106743Y330165D01*
X106417Y330066D01*
X106258Y330172D01*
X105900Y330244D01*
Y328100D01*
X105400D01*
Y327600D01*
X103256D01*
X103328Y327242D01*
X103434Y327083D01*
X103335Y326757D01*
X102604Y326196D01*
X80364Y303956D01*
X79902Y304148D01*
Y309353D01*
X79708Y310328D01*
X79155Y311155D01*
X78328Y311708D01*
X77353Y311902D01*
X71447D01*
X70472Y311708D01*
X69645Y311155D01*
X69092Y310328D01*
X68898Y309353D01*
Y303447D01*
X69092Y302472D01*
X69645Y301645D01*
X70472Y301092D01*
X71447Y300898D01*
X77353D01*
X77763Y300980D01*
X78127Y300638D01*
X78070Y300200D01*
Y293946D01*
X77995Y293766D01*
X77868Y292800D01*
X77995Y291834D01*
X78070Y291654D01*
Y289600D01*
X78190Y288686D01*
X78543Y287835D01*
X79104Y287104D01*
X84693Y281514D01*
X84768Y281334D01*
X85361Y280561D01*
X86134Y279968D01*
X87034Y279595D01*
X88000Y279468D01*
X88966Y279595D01*
X89866Y279968D01*
X90639Y280561D01*
X91232Y281334D01*
X91605Y282234D01*
X91732Y283200D01*
X91605Y284166D01*
X91232Y285066D01*
X90639Y285839D01*
X89866Y286432D01*
X89686Y286507D01*
X85130Y291062D01*
Y291654D01*
X85205Y291834D01*
X85332Y292800D01*
X85205Y293766D01*
X85130Y293946D01*
Y298738D01*
X97012Y310620D01*
X97474Y310428D01*
Y206401D01*
X97353Y206302D01*
X91447D01*
X90472Y206108D01*
X89645Y205555D01*
X89092Y204728D01*
X88898Y203753D01*
Y197847D01*
X89092Y196872D01*
X89645Y196045D01*
X90472Y195492D01*
X91447Y195298D01*
X97353D01*
X97474Y195199D01*
Y139372D01*
X97012Y139180D01*
X85405Y150788D01*
X85550Y151266D01*
X85858Y151328D01*
X86586Y151814D01*
X87072Y152542D01*
X87144Y152900D01*
X85000D01*
Y153400D01*
X84500D01*
Y155544D01*
X84142Y155472D01*
X83414Y154986D01*
X82928Y154258D01*
X82889Y154062D01*
X82768Y153956D01*
X82338Y153855D01*
X68177Y168015D01*
Y204098D01*
X72553D01*
X73528Y204292D01*
X74355Y204845D01*
X74908Y205672D01*
X75102Y206647D01*
Y212553D01*
X74908Y213528D01*
X74355Y214355D01*
X73528Y214908D01*
X72553Y215102D01*
X70739D01*
X70410Y215478D01*
X70430Y215634D01*
Y241698D01*
X75753D01*
X76728Y241892D01*
X77555Y242445D01*
X78108Y243272D01*
X78302Y244247D01*
Y250153D01*
X78108Y251128D01*
X77555Y251955D01*
X76728Y252508D01*
X75753Y252702D01*
X70430D01*
Y259791D01*
X70930Y260201D01*
X71447Y260098D01*
X77353D01*
X78328Y260292D01*
X79155Y260845D01*
X79708Y261672D01*
X79902Y262647D01*
Y268553D01*
X79708Y269528D01*
X79155Y270355D01*
X78328Y270908D01*
X77353Y271102D01*
X71447D01*
X70930Y270999D01*
X70430Y271409D01*
Y271454D01*
X70505Y271634D01*
X70632Y272600D01*
X70505Y273566D01*
X70132Y274466D01*
X69539Y275239D01*
X68766Y275832D01*
X67866Y276205D01*
X66900Y276332D01*
X65934Y276205D01*
X65034Y275832D01*
X64261Y275239D01*
X63668Y274466D01*
X63295Y273566D01*
X63168Y272600D01*
X63295Y271634D01*
X63370Y271454D01*
Y217096D01*
X62151Y215877D01*
X61590Y215146D01*
X61237Y214295D01*
X61117Y213381D01*
Y171102D01*
X56247D01*
X55272Y170908D01*
X54445Y170355D01*
X53892Y169528D01*
X53698Y168553D01*
Y162647D01*
X53892Y161672D01*
X54445Y160845D01*
X55272Y160292D01*
X56247Y160098D01*
X62153D01*
X63128Y160292D01*
X63955Y160845D01*
X64236Y161265D01*
X64879Y161328D01*
X77494Y148714D01*
X77568Y148534D01*
X78161Y147761D01*
X78934Y147168D01*
X79114Y147093D01*
X92070Y134138D01*
Y120885D01*
X88504Y117319D01*
X87943Y116588D01*
X87590Y115736D01*
X87470Y114822D01*
Y105100D01*
X87590Y104186D01*
X87943Y103335D01*
X88504Y102604D01*
X90158Y100950D01*
X47428Y58221D01*
X46902Y58350D01*
X46880Y58379D01*
X46944Y58700D01*
X42656D01*
X42728Y58342D01*
X43183Y57659D01*
X43202Y57554D01*
X43105Y57086D01*
X42734Y56932D01*
X41961Y56339D01*
X41368Y55566D01*
X40995Y54666D01*
X40977Y54526D01*
X39353D01*
X34049Y59830D01*
X34005Y60166D01*
X33632Y61066D01*
X33039Y61839D01*
X32266Y62432D01*
X31366Y62805D01*
X30400Y62932D01*
X29434Y62805D01*
X28534Y62432D01*
X27761Y61839D01*
X27168Y61066D01*
X26795Y60166D01*
X26668Y59200D01*
X26795Y58234D01*
X27168Y57334D01*
X27761Y56561D01*
X28534Y55968D01*
X29434Y55595D01*
X29770Y55551D01*
X35960Y49360D01*
X35960Y49360D01*
X36587Y48880D01*
X37317Y48577D01*
X38100Y48474D01*
X40314D01*
X40928Y47860D01*
X41554Y47379D01*
X42284Y47077D01*
X43067Y46974D01*
X46133D01*
X46916Y47077D01*
X47646Y47379D01*
X48272Y47860D01*
X48786Y48374D01*
X48853D01*
X49612Y48474D01*
X61847D01*
X68251Y42070D01*
X68295Y41734D01*
X68668Y40834D01*
X69261Y40061D01*
X70034Y39468D01*
X70934Y39095D01*
X71900Y38968D01*
X72866Y39095D01*
X73766Y39468D01*
X74539Y40061D01*
X75132Y40834D01*
X75505Y41734D01*
X75632Y42700D01*
X75505Y43666D01*
X75132Y44566D01*
X74539Y45339D01*
X73766Y45932D01*
X72866Y46305D01*
X72530Y46349D01*
X65240Y53640D01*
X64613Y54120D01*
X63883Y54423D01*
X63100Y54526D01*
X54372D01*
X54180Y54988D01*
X95150Y95957D01*
X133804Y57304D01*
X134535Y56743D01*
X135386Y56390D01*
X136300Y56270D01*
X141420D01*
X141724Y55900D01*
X144000D01*
Y55400D01*
X144500D01*
Y53256D01*
X144858Y53328D01*
X145586Y53814D01*
X145796Y54127D01*
X146439Y54191D01*
X149226Y51404D01*
X149957Y50843D01*
X150809Y50490D01*
X151723Y50370D01*
X188560D01*
X189473Y50490D01*
X190325Y50843D01*
X191056Y51404D01*
X212222Y72570D01*
X215282D01*
X216196Y72690D01*
X217047Y73043D01*
X217778Y73604D01*
X239896Y95722D01*
X240457Y96453D01*
X240810Y97304D01*
X240930Y98218D01*
Y108538D01*
X252862Y120470D01*
X258154D01*
X258334Y120395D01*
X259300Y120268D01*
X260266Y120395D01*
X260446Y120470D01*
X261338D01*
X262904Y118904D01*
X263635Y118343D01*
X264486Y117990D01*
X265400Y117870D01*
X266314Y117990D01*
X267165Y118343D01*
X267896Y118904D01*
X292096Y143104D01*
X292657Y143835D01*
X293010Y144686D01*
X293130Y145600D01*
Y154213D01*
X293528Y154292D01*
X294355Y154845D01*
X294908Y155672D01*
X295102Y156647D01*
Y162553D01*
X294908Y163528D01*
X294355Y164355D01*
X293528Y164908D01*
X292553Y165102D01*
X286647D01*
X285672Y164908D01*
X284845Y164355D01*
X284292Y163528D01*
X284098Y162553D01*
Y159091D01*
X276838Y151830D01*
X254580D01*
X254276Y152200D01*
X249724D01*
X249420Y151830D01*
X207926D01*
X207060Y152696D01*
X206329Y153257D01*
X205477Y153610D01*
X204563Y153730D01*
X200919D01*
X200005Y153610D01*
X199153Y153257D01*
X198422Y152696D01*
X196556Y150830D01*
X186046D01*
X185866Y150905D01*
X184900Y151032D01*
X183934Y150905D01*
X183754Y150830D01*
X154100D01*
X153186Y150710D01*
X152335Y150357D01*
X151604Y149796D01*
X144638Y142830D01*
X143500D01*
X142830Y142742D01*
X142330Y143096D01*
Y201626D01*
X142210Y202539D01*
X141857Y203391D01*
X141296Y204122D01*
X136443Y208976D01*
X136908Y209672D01*
X136961Y209940D01*
X137448Y210054D01*
X137711Y209711D01*
X138850Y208837D01*
X140176Y208288D01*
X141600Y208100D01*
X143024Y208288D01*
X144350Y208837D01*
X145489Y209711D01*
X146319Y210793D01*
X146600Y210824D01*
X146881Y210793D01*
X147711Y209711D01*
X148850Y208837D01*
X150177Y208288D01*
X151600Y208100D01*
X153024Y208288D01*
X154350Y208837D01*
X155489Y209711D01*
X156319Y210793D01*
X156600Y210824D01*
X156881Y210793D01*
X157711Y209711D01*
X158850Y208837D01*
X160177Y208288D01*
X161600Y208100D01*
X163023Y208288D01*
X164350Y208837D01*
X165489Y209711D01*
X166319Y210793D01*
X166600Y210824D01*
X166881Y210793D01*
X167711Y209711D01*
X168850Y208837D01*
X170176Y208288D01*
X171600Y208100D01*
X173023Y208288D01*
X174350Y208837D01*
X175489Y209711D01*
X176363Y210850D01*
X176912Y212176D01*
X177100Y213600D01*
X176912Y215023D01*
X176363Y216350D01*
X175489Y217489D01*
X174350Y218363D01*
X173023Y218912D01*
X171600Y219100D01*
X170176Y218912D01*
X168850Y218363D01*
X167711Y217489D01*
X166881Y216407D01*
X166600Y216376D01*
X166319Y216407D01*
X165489Y217489D01*
X164350Y218363D01*
X163023Y218912D01*
X161600Y219100D01*
X160177Y218912D01*
X158850Y218363D01*
X157711Y217489D01*
X156881Y216407D01*
X156600Y216376D01*
X156319Y216407D01*
X155489Y217489D01*
X154350Y218363D01*
X153024Y218912D01*
X151600Y219100D01*
X150177Y218912D01*
X148850Y218363D01*
X147711Y217489D01*
X146881Y216407D01*
X146600Y216376D01*
X146319Y216407D01*
X145489Y217489D01*
X144350Y218363D01*
X143024Y218912D01*
X141600Y219100D01*
X140176Y218912D01*
X138850Y218363D01*
X137711Y217489D01*
X137448Y217146D01*
X136961Y217260D01*
X136908Y217528D01*
X136355Y218355D01*
X135528Y218908D01*
X134553Y219102D01*
X132842D01*
X132651Y219564D01*
X132896Y219809D01*
X133457Y220540D01*
X133810Y221392D01*
X133930Y222305D01*
Y282538D01*
X139709Y288317D01*
X139781D01*
X140695Y288437D01*
X141546Y288790D01*
X142277Y289351D01*
X152496Y299570D01*
X153057Y300301D01*
X153410Y301152D01*
X153530Y302066D01*
Y374623D01*
X153410Y375536D01*
X153057Y376388D01*
X152496Y377119D01*
X149919Y379696D01*
X149188Y380257D01*
X148336Y380610D01*
X147423Y380730D01*
D02*
G37*
G36*
X92000Y230700D02*
X89036D01*
X89090Y230286D01*
X89443Y229435D01*
X90004Y228704D01*
X90735Y228143D01*
X91586Y227790D01*
X92000Y227736D01*
Y230700D01*
D02*
G37*
G36*
X104900Y362844D02*
X104542Y362772D01*
X103814Y362286D01*
X103328Y361558D01*
X103256Y361200D01*
X104900D01*
Y362844D01*
D02*
G37*
G36*
X95964Y230700D02*
X93000D01*
Y227736D01*
X93414Y227790D01*
X94265Y228143D01*
X94996Y228704D01*
X95557Y229435D01*
X95910Y230286D01*
X95964Y230700D01*
D02*
G37*
G36*
X93000Y234664D02*
Y231700D01*
X95964D01*
X95910Y232114D01*
X95557Y232965D01*
X94996Y233696D01*
X94265Y234257D01*
X93414Y234610D01*
X93000Y234664D01*
D02*
G37*
G36*
X92000D02*
X91586Y234610D01*
X90735Y234257D01*
X90004Y233696D01*
X89443Y232965D01*
X89090Y232114D01*
X89036Y231700D01*
X92000D01*
Y234664D01*
D02*
G37*
G36*
X105900Y362844D02*
Y361200D01*
X107544D01*
X107472Y361558D01*
X106986Y362286D01*
X106258Y362772D01*
X105900Y362844D01*
D02*
G37*
G36*
X122700Y384944D02*
Y383300D01*
X124344D01*
X124272Y383658D01*
X123786Y384386D01*
X123058Y384872D01*
X122700Y384944D01*
D02*
G37*
G36*
X182100Y217521D02*
Y214100D01*
X185521D01*
X185451Y214632D01*
X185053Y215593D01*
X184419Y216419D01*
X183593Y217053D01*
X182632Y217451D01*
X182100Y217521D01*
D02*
G37*
G36*
X121700Y384944D02*
X121342Y384872D01*
X120614Y384386D01*
X120128Y383658D01*
X120056Y383300D01*
X121700D01*
Y384944D01*
D02*
G37*
G36*
Y382300D02*
X120056D01*
X120128Y381942D01*
X120614Y381214D01*
X121342Y380728D01*
X121700Y380656D01*
Y382300D01*
D02*
G37*
G36*
X124344D02*
X122700D01*
Y380656D01*
X123058Y380728D01*
X123786Y381214D01*
X124272Y381942D01*
X124344Y382300D01*
D02*
G37*
G36*
X156553Y249502D02*
X150647D01*
X149672Y249308D01*
X148845Y248755D01*
X148292Y247928D01*
X148098Y246953D01*
Y241047D01*
X148292Y240072D01*
X148845Y239245D01*
X149672Y238692D01*
X150647Y238498D01*
X156553D01*
X157528Y238692D01*
X158355Y239245D01*
X158908Y240072D01*
X159102Y241047D01*
Y246953D01*
X158908Y247928D01*
X158355Y248755D01*
X157528Y249308D01*
X156553Y249502D01*
D02*
G37*
G36*
X92400Y254464D02*
Y251500D01*
X95364D01*
X95310Y251914D01*
X94957Y252765D01*
X94396Y253496D01*
X93665Y254057D01*
X92814Y254410D01*
X92400Y254464D01*
D02*
G37*
G36*
X72300Y352100D02*
X70656D01*
X70728Y351742D01*
X71214Y351014D01*
X71942Y350528D01*
X72300Y350456D01*
Y352100D01*
D02*
G37*
G36*
X73300Y354744D02*
Y353100D01*
X74944D01*
X74872Y353458D01*
X74386Y354186D01*
X73658Y354672D01*
X73300Y354744D01*
D02*
G37*
G36*
X74944Y352100D02*
X73300D01*
Y350456D01*
X73658Y350528D01*
X74386Y351014D01*
X74872Y351742D01*
X74944Y352100D01*
D02*
G37*
G36*
X72300Y354744D02*
X71942Y354672D01*
X71214Y354186D01*
X70728Y353458D01*
X70656Y353100D01*
X72300D01*
Y354744D01*
D02*
G37*
G36*
X95364Y250500D02*
X92400D01*
Y247536D01*
X92814Y247590D01*
X93665Y247943D01*
X94396Y248504D01*
X94957Y249235D01*
X95310Y250086D01*
X95364Y250500D01*
D02*
G37*
G36*
X91400D02*
X88436D01*
X88490Y250086D01*
X88843Y249235D01*
X89404Y248504D01*
X90135Y247943D01*
X90986Y247590D01*
X91400Y247536D01*
Y250500D01*
D02*
G37*
G36*
Y254464D02*
X90986Y254410D01*
X90135Y254057D01*
X89404Y253496D01*
X88843Y252765D01*
X88490Y251914D01*
X88436Y251500D01*
X91400D01*
Y254464D01*
D02*
G37*
G36*
X104900Y360200D02*
X103256D01*
X103328Y359842D01*
X103814Y359114D01*
X104542Y358628D01*
X104900Y358556D01*
Y360200D01*
D02*
G37*
G36*
X107544D02*
X105900D01*
Y358556D01*
X106258Y358628D01*
X106986Y359114D01*
X107472Y359842D01*
X107544Y360200D01*
D02*
G37*
%LPD*%
G36*
X113917Y302490D02*
Y298247D01*
X114037Y297334D01*
X114390Y296482D01*
X114951Y295751D01*
X126672Y284030D01*
X126668Y284000D01*
X126795Y283034D01*
X126870Y282854D01*
Y223768D01*
X124151Y221049D01*
X123590Y220318D01*
X123237Y219466D01*
X123117Y218553D01*
Y209819D01*
X123237Y208905D01*
X123590Y208054D01*
X124151Y207323D01*
X125350Y206124D01*
X125200Y205843D01*
Y203500D01*
Y201356D01*
X125370Y201390D01*
X125870Y201080D01*
Y138874D01*
X125715Y138719D01*
X125154Y137988D01*
X124801Y137137D01*
X124681Y136223D01*
Y132744D01*
X124801Y131830D01*
X125154Y130979D01*
X125715Y130248D01*
X125870Y130093D01*
Y120900D01*
X125990Y119986D01*
X126343Y119135D01*
X126904Y118404D01*
X179894Y65414D01*
X179968Y65234D01*
X180561Y64461D01*
X181334Y63868D01*
X182234Y63495D01*
X183200Y63368D01*
X184166Y63495D01*
X185066Y63868D01*
X185839Y64461D01*
X186432Y65234D01*
X186805Y66134D01*
X186932Y67100D01*
X186805Y68066D01*
X186432Y68966D01*
X185839Y69739D01*
X185066Y70332D01*
X184886Y70407D01*
X163656Y91636D01*
X163847Y92098D01*
X166953D01*
X167928Y92292D01*
X168755Y92845D01*
X169308Y93672D01*
X169502Y94647D01*
Y100553D01*
X169308Y101528D01*
X168755Y102355D01*
X167928Y102908D01*
X166953Y103102D01*
X161047D01*
X160072Y102908D01*
X159245Y102355D01*
X158692Y101528D01*
X158498Y100553D01*
Y97448D01*
X158036Y97256D01*
X132930Y122362D01*
Y130820D01*
X133377Y130879D01*
X134277Y131252D01*
X134306Y131274D01*
X137867D01*
X138261Y130761D01*
X139034Y130168D01*
X139934Y129795D01*
X140900Y129668D01*
X141866Y129795D01*
X142766Y130168D01*
X143539Y130761D01*
X144132Y131534D01*
X144505Y132434D01*
X144632Y133400D01*
X144505Y134366D01*
X144223Y135047D01*
X144296Y135104D01*
X144962Y135770D01*
X146100D01*
X147014Y135890D01*
X147865Y136243D01*
X148596Y136804D01*
X155562Y143770D01*
X183754D01*
X183934Y143695D01*
X183985Y143689D01*
X184133Y143165D01*
X183728Y142558D01*
X183656Y142200D01*
X187944D01*
X187872Y142558D01*
X187397Y143270D01*
X187441Y143499D01*
X187523Y143770D01*
X198019D01*
X198932Y143890D01*
X199784Y144243D01*
X200280Y144623D01*
X200869Y144577D01*
X200945Y144527D01*
X201155Y144214D01*
X201883Y143728D01*
X202241Y143656D01*
Y145800D01*
X203241D01*
Y143656D01*
X203599Y143728D01*
X204327Y144214D01*
X204813Y144942D01*
X205081Y145084D01*
X205550Y144890D01*
X206464Y144770D01*
X206464Y144770D01*
X278300D01*
X279214Y144890D01*
X280065Y145243D01*
X280796Y145804D01*
X285608Y150615D01*
X286070Y150424D01*
Y147062D01*
X265400Y126392D01*
X265296Y126496D01*
X264565Y127057D01*
X263714Y127410D01*
X262800Y127530D01*
X260446D01*
X260266Y127605D01*
X259300Y127732D01*
X258334Y127605D01*
X258154Y127530D01*
X251400D01*
X250486Y127410D01*
X249635Y127057D01*
X248904Y126496D01*
X234904Y112496D01*
X234343Y111765D01*
X233990Y110914D01*
X233870Y110000D01*
Y99680D01*
X220692Y86502D01*
X220230Y86694D01*
Y90899D01*
X220368Y91078D01*
X220871Y92295D01*
X221043Y93600D01*
X220871Y94905D01*
X220368Y96122D01*
X219566Y97166D01*
X218522Y97967D01*
X217305Y98471D01*
X216000Y98643D01*
X214695Y98471D01*
X213478Y97967D01*
X212434Y97166D01*
X211632Y96122D01*
X211129Y94905D01*
X210957Y93600D01*
X211129Y92295D01*
X211632Y91078D01*
X212434Y90034D01*
X213170Y89469D01*
Y85880D01*
X212800Y85576D01*
Y83300D01*
X211800D01*
Y85444D01*
X211442Y85372D01*
X210714Y84886D01*
X210228Y84158D01*
X210057Y83300D01*
X209643Y82817D01*
X209125Y82749D01*
X208274Y82396D01*
X207542Y81835D01*
X185938Y60230D01*
X174362D01*
X169837Y64755D01*
X169843Y64800D01*
X169671Y66105D01*
X169167Y67322D01*
X168366Y68366D01*
X167322Y69168D01*
X166105Y69671D01*
X164800Y69843D01*
X163495Y69671D01*
X162278Y69168D01*
X161234Y68366D01*
X160433Y67322D01*
X159929Y66105D01*
X159757Y64800D01*
X159929Y63495D01*
X160433Y62278D01*
X161234Y61234D01*
X162278Y60432D01*
X163495Y59929D01*
X164800Y59757D01*
X164845Y59763D01*
X166715Y57892D01*
X166524Y57430D01*
X153185D01*
X148319Y62296D01*
X147588Y62857D01*
X146736Y63210D01*
X145823Y63330D01*
X137762D01*
X99906Y101186D01*
X99832Y101366D01*
X99638Y101619D01*
X99920Y102073D01*
X100000Y102057D01*
X100858Y102228D01*
X101586Y102714D01*
X102072Y103442D01*
X102144Y103800D01*
X97486D01*
X97360Y103733D01*
X94530Y106562D01*
Y109003D01*
X94906Y109333D01*
X95400Y109268D01*
X96366Y109395D01*
X97266Y109768D01*
X97535Y109974D01*
X101962D01*
X102876Y109060D01*
X102876Y109060D01*
X103503Y108580D01*
X104232Y108277D01*
X105015Y108174D01*
X105799Y108277D01*
X106528Y108580D01*
X107155Y109060D01*
X111440Y113345D01*
X111920Y113972D01*
X112223Y114701D01*
X112326Y115485D01*
X112326Y115485D01*
Y303428D01*
X112788Y303620D01*
X113917Y302490D01*
D02*
G37*
%LPC*%
G36*
X185300Y141200D02*
X183656D01*
X183728Y140842D01*
X184214Y140114D01*
X184942Y139628D01*
X185300Y139556D01*
Y141200D01*
D02*
G37*
G36*
X187944D02*
X186300D01*
Y139556D01*
X186658Y139628D01*
X187386Y140114D01*
X187872Y140842D01*
X187944Y141200D01*
D02*
G37*
G36*
X100500Y106444D02*
Y104800D01*
X102144D01*
X102072Y105158D01*
X101586Y105886D01*
X100858Y106372D01*
X100500Y106444D01*
D02*
G37*
G36*
X116800Y256700D02*
X115156D01*
X115228Y256342D01*
X115714Y255614D01*
X116442Y255128D01*
X116800Y255056D01*
Y256700D01*
D02*
G37*
G36*
X99500Y106444D02*
X99142Y106372D01*
X98414Y105886D01*
X97928Y105158D01*
X97856Y104800D01*
X99500D01*
Y106444D01*
D02*
G37*
G36*
X118100Y228064D02*
Y225100D01*
X121064D01*
X121010Y225514D01*
X120657Y226365D01*
X120096Y227096D01*
X119365Y227657D01*
X118514Y228010D01*
X118100Y228064D01*
D02*
G37*
G36*
X121064Y224100D02*
X118100D01*
Y221136D01*
X118514Y221190D01*
X119365Y221543D01*
X120096Y222104D01*
X120657Y222835D01*
X121010Y223686D01*
X121064Y224100D01*
D02*
G37*
G36*
X117100D02*
X114136D01*
X114190Y223686D01*
X114543Y222835D01*
X115104Y222104D01*
X115835Y221543D01*
X116686Y221190D01*
X117100Y221136D01*
Y224100D01*
D02*
G37*
G36*
X124200Y205644D02*
X123842Y205572D01*
X123114Y205086D01*
X122628Y204358D01*
X122556Y204000D01*
X124200D01*
Y205644D01*
D02*
G37*
G36*
X117100Y228064D02*
X116686Y228010D01*
X115835Y227657D01*
X115104Y227096D01*
X114543Y226365D01*
X114190Y225514D01*
X114136Y225100D01*
X117100D01*
Y228064D01*
D02*
G37*
G36*
X124200Y203000D02*
X122556D01*
X122628Y202642D01*
X123114Y201914D01*
X123842Y201428D01*
X124200Y201356D01*
Y203000D01*
D02*
G37*
G36*
X119500Y278600D02*
X117856D01*
X117928Y278242D01*
X118414Y277514D01*
X119142Y277028D01*
X119500Y276956D01*
Y278600D01*
D02*
G37*
G36*
X118800Y272344D02*
Y270700D01*
X120444D01*
X120372Y271058D01*
X119886Y271786D01*
X119158Y272272D01*
X118800Y272344D01*
D02*
G37*
G36*
X122144Y278600D02*
X120500D01*
Y276956D01*
X120858Y277028D01*
X121586Y277514D01*
X122072Y278242D01*
X122144Y278600D01*
D02*
G37*
G36*
X120500Y281244D02*
Y279600D01*
X122144D01*
X122072Y279958D01*
X121586Y280686D01*
X120858Y281172D01*
X120500Y281244D01*
D02*
G37*
G36*
X119500D02*
X119142Y281172D01*
X118414Y280686D01*
X117928Y279958D01*
X117856Y279600D01*
X119500D01*
Y281244D01*
D02*
G37*
G36*
X117800Y272344D02*
X117442Y272272D01*
X116714Y271786D01*
X116228Y271058D01*
X116156Y270700D01*
X117800D01*
Y272344D01*
D02*
G37*
G36*
X116800Y259344D02*
X116442Y259272D01*
X115714Y258786D01*
X115228Y258058D01*
X115156Y257700D01*
X116800D01*
Y259344D01*
D02*
G37*
G36*
X119444Y256700D02*
X117800D01*
Y255056D01*
X118158Y255128D01*
X118886Y255614D01*
X119372Y256342D01*
X119444Y256700D01*
D02*
G37*
G36*
X117800Y259344D02*
Y257700D01*
X119444D01*
X119372Y258058D01*
X118886Y258786D01*
X118158Y259272D01*
X117800Y259344D01*
D02*
G37*
G36*
X120444Y269700D02*
X118800D01*
Y268056D01*
X119158Y268128D01*
X119886Y268614D01*
X120372Y269342D01*
X120444Y269700D01*
D02*
G37*
G36*
X117800D02*
X116156D01*
X116228Y269342D01*
X116714Y268614D01*
X117442Y268128D01*
X117800Y268056D01*
Y269700D01*
D02*
G37*
%LPD*%
D44*
X21755Y22717D02*
D03*
X47739D02*
D03*
D47*
X138760Y137600D02*
X141800D01*
X187400Y56700D02*
X210039Y79339D01*
X172900Y56700D02*
X187400D01*
X206464Y148300D02*
X278300D01*
X204563Y150200D02*
X206464Y148300D01*
X278300D02*
X289600Y159600D01*
X81600Y300200D02*
X105100Y323700D01*
X81600Y292800D02*
Y300200D01*
X105100Y323700D02*
X107222D01*
X251400Y124000D02*
X259300D01*
X237400Y110000D02*
X251400Y124000D01*
X237400Y98218D02*
Y110000D01*
X262800Y124000D02*
X265400Y121400D01*
X259300Y124000D02*
X262800D01*
X44600Y53700D02*
X47900D01*
X93700Y99500D01*
X64647Y213381D02*
X66900Y215634D01*
Y272600D01*
X81600Y289600D02*
Y292800D01*
Y289600D02*
X88000Y283200D01*
X147423Y377200D02*
X150000Y374623D01*
Y302066D02*
Y374623D01*
X139781Y291847D02*
X150000Y302066D01*
X138247Y291847D02*
X139781D01*
X130400Y284000D02*
X138247Y291847D01*
X112000Y309400D02*
X117447Y303953D01*
Y298247D02*
Y303953D01*
Y298247D02*
X130400Y285295D01*
Y284000D02*
Y285295D01*
X164800Y64800D02*
X172900Y56700D01*
X216000Y93600D02*
X216700Y92900D01*
X126647Y209819D02*
Y218553D01*
X130400Y222305D01*
Y284000D01*
X107222Y323700D02*
X109800Y326277D01*
Y328400D01*
X111500Y330100D01*
X143732Y377200D02*
X147423D01*
X143732Y377154D02*
Y377200D01*
X141200Y374623D02*
X143732Y377154D01*
X141200Y370977D02*
Y374623D01*
Y370977D02*
X143300Y368878D01*
Y343453D02*
Y368878D01*
X129947Y330100D02*
X143300Y343453D01*
X128523Y330100D02*
X129947D01*
X127223Y328800D02*
X128523Y330100D01*
X123577Y328800D02*
X127223D01*
X122277Y330100D02*
X123577Y328800D01*
X111500Y330100D02*
X122277D01*
X184900Y147300D02*
X198019D01*
X200919Y150200D01*
X204563D01*
X80800Y150400D02*
X95600Y135600D01*
X154100Y147300D02*
X184900D01*
X95600Y119422D02*
Y135600D01*
X91000Y114822D02*
X95600Y119422D01*
X91000Y105100D02*
Y114822D01*
Y105100D02*
X96600Y99500D01*
X64647Y166553D02*
Y213381D01*
Y166553D02*
X80800Y150400D01*
X131600Y208826D02*
Y213600D01*
X93700Y99500D02*
X96600D01*
X265400Y121400D02*
X289600Y145600D01*
Y159600D01*
X96600Y99500D02*
X136300Y59800D01*
X145823D01*
X151723Y53900D01*
X188560D01*
X210477Y78900D02*
X214123D01*
X216700Y81477D01*
X210039Y79339D02*
X210477Y78900D01*
X216700Y81477D02*
Y92900D01*
X188560Y53900D02*
X210760Y76100D01*
X215282D01*
X237400Y98218D01*
X129400Y120900D02*
X183200Y67100D01*
X126647Y209819D02*
X129400Y207066D01*
Y120900D02*
Y131555D01*
X128211Y132744D02*
X129400Y131555D01*
X128211Y132744D02*
Y136223D01*
X129400Y137412D01*
Y207066D01*
X143500Y139300D02*
X146100D01*
X154100Y147300D01*
X141800Y137600D02*
X143500Y139300D01*
X138800Y138600D02*
Y201626D01*
Y137640D02*
Y138600D01*
X138760Y137600D02*
X138800Y137640D01*
X131600Y208826D02*
X138800Y201626D01*
D48*
X100500Y312049D02*
X102700Y314248D01*
X100500Y117200D02*
Y312049D01*
X129200Y326100D02*
X145600Y342500D01*
X113100Y326100D02*
X129200D01*
X101974Y314974D02*
X113100Y326100D01*
X47533Y51400D02*
X48853D01*
X46133Y50000D02*
X47533Y51400D01*
X43067Y50000D02*
X46133D01*
X41567Y51500D02*
X43067Y50000D01*
X38100Y51500D02*
X41567D01*
X63100D02*
X71900Y42700D01*
X48953Y51500D02*
X63100D01*
X48853Y51400D02*
X48953Y51500D01*
X30400Y59200D02*
X38100Y51500D01*
X234000Y70800D02*
X237300D01*
X245000Y78500D01*
Y82000D01*
X109300Y314900D02*
X115200Y320800D01*
X108100Y307785D02*
X109300Y306585D01*
X108100Y307785D02*
Y311015D01*
X109300Y312215D01*
Y314900D01*
X105015Y111200D02*
X109300Y115485D01*
Y306585D01*
X101974Y314974D02*
X102700Y314248D01*
X145600Y342500D02*
Y372800D01*
X103215Y113000D02*
X105015Y111200D01*
X95400Y113000D02*
X103215D01*
X132411Y134484D02*
X132595Y134300D01*
X140000D01*
X140900Y133400D01*
X0Y391200D02*
X800Y392000D01*
D51*
X309500Y0D02*
Y392000D01*
X0Y0D02*
Y390400D01*
Y0D02*
X311100D01*
X800Y392000D02*
X309500D01*
D52*
X164000Y97600D02*
D03*
X289600Y159600D02*
D03*
X153600Y244000D02*
D03*
X69600Y209600D02*
D03*
X24800Y301500D02*
D03*
X151200Y266400D02*
D03*
X74400Y306400D02*
D03*
X58400Y321600D02*
D03*
X122400Y303200D02*
D03*
X161600Y300000D02*
D03*
X136000Y296800D02*
D03*
X160000Y337600D02*
D03*
X144800Y316000D02*
D03*
X74400Y265600D02*
D03*
X72800Y247200D02*
D03*
X288000Y126400D02*
D03*
X131600Y213600D02*
D03*
X94400Y200800D02*
D03*
X59200Y165600D02*
D03*
X215200Y171200D02*
D03*
X270400Y172000D02*
D03*
D53*
X48920Y11694D02*
D03*
X20574D02*
D03*
D54*
X184000Y180200D02*
D03*
X181600Y213600D02*
D03*
X171600D02*
D03*
X161600D02*
D03*
X151600D02*
D03*
X141600D02*
D03*
D55*
X184000Y190200D02*
D03*
D56*
X99200Y21474D02*
D03*
D57*
Y13600D02*
D03*
D58*
X66165Y289035D02*
D03*
X61835D02*
D03*
X66165Y293365D02*
D03*
X61835D02*
D03*
D59*
X44800Y59200D02*
D03*
X285300Y69700D02*
D03*
X285158Y74835D02*
D03*
X280800Y74900D02*
D03*
X290200Y69700D02*
D03*
X280600Y70000D02*
D03*
X280400Y79400D02*
D03*
X290500Y79500D02*
D03*
X290300Y74700D02*
D03*
X245000Y82000D02*
D03*
X234000Y70800D02*
D03*
X285500Y79500D02*
D03*
X259300Y124000D02*
D03*
X44600Y53700D02*
D03*
X71900Y42700D02*
D03*
X66900Y272600D02*
D03*
X145600Y372800D02*
D03*
X115200Y320800D02*
D03*
X30400Y59200D02*
D03*
X88000Y283200D02*
D03*
X81600Y292800D02*
D03*
X130400Y284000D02*
D03*
X203200Y19200D02*
D03*
X198400Y49600D02*
D03*
X59800Y101200D02*
D03*
X56300Y151200D02*
D03*
X212300Y83300D02*
D03*
X47300Y307500D02*
D03*
X105400Y360700D02*
D03*
X122200Y382800D02*
D03*
X72800Y352600D02*
D03*
X86800Y327300D02*
D03*
X118300Y270200D02*
D03*
X117300Y257200D02*
D03*
X185800Y141700D02*
D03*
X124700Y203500D02*
D03*
X112000Y309400D02*
D03*
X144000Y55400D02*
D03*
X183200Y67100D02*
D03*
X105400Y328100D02*
D03*
X79600Y275200D02*
D03*
X252000Y152700D02*
D03*
X202741Y145800D02*
D03*
X100000Y104300D02*
D03*
X97700Y43100D02*
D03*
X125400Y333200D02*
D03*
X184900Y147300D02*
D03*
X80800Y150400D02*
D03*
X85000Y153400D02*
D03*
X96600Y99500D02*
D03*
X100500Y117200D02*
D03*
X95400Y113000D02*
D03*
X132411Y134484D02*
D03*
X140900Y133400D02*
D03*
X138800Y138600D02*
D03*
X120000Y279100D02*
D03*
D60*
X216000Y93600D02*
D03*
X164800Y64800D02*
D03*
X117600Y224600D02*
D03*
X91900Y251000D02*
D03*
X92500Y231200D02*
D03*
M02*
