G04 Layer_Physical_Order=1*
G04 Layer_Color=255*
%FSLAX25Y25*%
%MOIN*%
G70*
G01*
G75*
%ADD10R,0.03543X0.03150*%
%ADD11R,0.03150X0.03543*%
%ADD12R,0.03543X0.02756*%
%ADD13R,0.02000X0.02752*%
%ADD14R,0.06496X0.10433*%
%ADD15R,0.00984X0.02756*%
%ADD16R,0.02756X0.00984*%
%ADD17R,0.01575X0.05315*%
%ADD18R,0.03937X0.07874*%
%ADD19R,0.05709X0.02362*%
%ADD20R,0.02000X0.04000*%
%ADD21R,0.06000X0.09000*%
%ADD22R,0.05118X0.03937*%
%ADD23R,0.04724X0.02165*%
%ADD24R,0.01968X0.05905*%
%ADD25R,0.05905X0.01968*%
%ADD26R,0.17323X0.17323*%
%ADD27R,0.02756X0.03543*%
G04:AMPARAMS|DCode=28|XSize=39.37mil|YSize=39.37mil|CornerRadius=5.91mil|HoleSize=0mil|Usage=FLASHONLY|Rotation=90.000|XOffset=0mil|YOffset=0mil|HoleType=Round|Shape=RoundedRectangle|*
%AMROUNDEDRECTD28*
21,1,0.03937,0.02756,0,0,90.0*
21,1,0.02756,0.03937,0,0,90.0*
1,1,0.01181,0.01378,0.01378*
1,1,0.01181,0.01378,-0.01378*
1,1,0.01181,-0.01378,-0.01378*
1,1,0.01181,-0.01378,0.01378*
%
%ADD28ROUNDEDRECTD28*%
%ADD29R,0.04134X0.00984*%
%ADD30R,0.00984X0.04134*%
%ADD31R,0.02362X0.03937*%
%ADD32O,0.01181X0.07283*%
%ADD33O,0.07283X0.01181*%
%ADD34R,0.01378X0.06319*%
%ADD35R,0.06319X0.01575*%
%ADD36R,0.03937X0.05118*%
%ADD37R,0.04000X0.02000*%
%ADD38R,0.09000X0.06000*%
%ADD39R,0.02913X0.09449*%
%ADD40R,0.03347X0.01102*%
%ADD41R,0.01102X0.03347*%
%ADD42R,0.08976X0.07008*%
%ADD43R,0.02165X0.02362*%
%ADD44C,0.06000*%
%ADD45R,0.05512X0.05905*%
%ADD46R,0.00984X0.06102*%
%ADD47C,0.02000*%
%ADD48C,0.01000*%
%ADD49C,0.01200*%
%ADD50C,0.00800*%
%ADD51C,0.08000*%
%ADD52R,0.05905X0.05905*%
%ADD53R,0.09843X0.09843*%
%ADD54C,0.05905*%
%ADD55R,0.05905X0.05905*%
%ADD56C,0.05150*%
%ADD57R,0.05150X0.05150*%
%ADD58C,0.01968*%
%ADD59C,0.02400*%
%ADD60C,0.05000*%
D10*
X143200Y92356D02*
D03*
Y86844D02*
D03*
X124800Y92356D02*
D03*
Y86844D02*
D03*
X124000Y114756D02*
D03*
Y109244D02*
D03*
X140800Y115556D02*
D03*
Y110044D02*
D03*
X178400Y145956D02*
D03*
Y140444D02*
D03*
X168800Y145956D02*
D03*
Y140444D02*
D03*
X64800Y65156D02*
D03*
Y59644D02*
D03*
X44000Y35556D02*
D03*
Y30044D02*
D03*
X72000Y21600D02*
D03*
Y16088D02*
D03*
X90400Y41956D02*
D03*
Y36444D02*
D03*
Y53956D02*
D03*
Y48444D02*
D03*
X204000Y30756D02*
D03*
Y25244D02*
D03*
X185600Y25244D02*
D03*
Y30756D02*
D03*
X176800Y25688D02*
D03*
Y31200D02*
D03*
X144000Y41600D02*
D03*
Y47112D02*
D03*
X161600Y53156D02*
D03*
Y47644D02*
D03*
X198400Y61156D02*
D03*
Y55644D02*
D03*
X276000Y144356D02*
D03*
Y138844D02*
D03*
X268000Y144356D02*
D03*
Y138844D02*
D03*
X25100Y282744D02*
D03*
Y288256D02*
D03*
X135800Y197244D02*
D03*
Y202756D02*
D03*
X89600Y293156D02*
D03*
Y287644D02*
D03*
X144000Y27288D02*
D03*
Y32800D02*
D03*
X80800Y34044D02*
D03*
Y39556D02*
D03*
X53600Y59644D02*
D03*
Y65156D02*
D03*
X81600Y279644D02*
D03*
Y285156D02*
D03*
X108800Y261956D02*
D03*
Y256444D02*
D03*
X69600Y166756D02*
D03*
Y161244D02*
D03*
X80000Y166756D02*
D03*
Y161244D02*
D03*
X108700Y112156D02*
D03*
Y106644D02*
D03*
D11*
X147644Y109600D02*
D03*
X153156D02*
D03*
X36444Y65600D02*
D03*
X41956D02*
D03*
X80356Y54400D02*
D03*
X74844D02*
D03*
X64356Y16800D02*
D03*
X58844D02*
D03*
X122044Y64800D02*
D03*
X127556D02*
D03*
X159912Y27200D02*
D03*
X154400D02*
D03*
X225156Y83200D02*
D03*
X219644D02*
D03*
X238044Y125600D02*
D03*
X243556D02*
D03*
X101156Y262400D02*
D03*
X95644D02*
D03*
X101156Y256000D02*
D03*
X95644D02*
D03*
X70144Y278500D02*
D03*
X75656D02*
D03*
X85956Y297600D02*
D03*
X80444D02*
D03*
X89956Y309600D02*
D03*
X84444D02*
D03*
X103556Y303000D02*
D03*
X98044D02*
D03*
X103356Y309400D02*
D03*
X97844D02*
D03*
X147644Y116000D02*
D03*
X153156D02*
D03*
X88356Y344800D02*
D03*
X82844D02*
D03*
X82256Y145300D02*
D03*
X76744D02*
D03*
X65156Y138900D02*
D03*
X59644D02*
D03*
X67556Y124000D02*
D03*
X62044D02*
D03*
X169044Y159900D02*
D03*
X174556D02*
D03*
X108944Y382900D02*
D03*
X114456D02*
D03*
X109244Y376800D02*
D03*
X114756D02*
D03*
X115644Y337600D02*
D03*
X121156D02*
D03*
X88356Y351200D02*
D03*
X82844D02*
D03*
X115644Y343200D02*
D03*
X121156D02*
D03*
X89956Y317600D02*
D03*
X84444D02*
D03*
D12*
X117600Y114953D02*
D03*
Y109047D02*
D03*
X256800Y134153D02*
D03*
Y128247D02*
D03*
X254400Y177047D02*
D03*
Y182953D02*
D03*
X130700Y252447D02*
D03*
Y258353D02*
D03*
X138400Y252647D02*
D03*
Y258553D02*
D03*
X120800Y355753D02*
D03*
Y349847D02*
D03*
X118400Y327135D02*
D03*
Y333040D02*
D03*
D13*
X9060Y35423D02*
D03*
X12800D02*
D03*
X16540D02*
D03*
X9060Y44577D02*
D03*
X12800D02*
D03*
X16540D02*
D03*
X18660Y163423D02*
D03*
X22400D02*
D03*
X26140D02*
D03*
X18660Y172577D02*
D03*
X22400D02*
D03*
X26140D02*
D03*
D14*
X58400Y40800D02*
D03*
D15*
X55447Y48280D02*
D03*
X57416D02*
D03*
X59384D02*
D03*
X61353D02*
D03*
Y33320D02*
D03*
X59384D02*
D03*
X57416D02*
D03*
X55447D02*
D03*
D16*
X63912Y45721D02*
D03*
Y43753D02*
D03*
Y41784D02*
D03*
Y39816D02*
D03*
Y37847D02*
D03*
Y35879D02*
D03*
X52888D02*
D03*
Y37847D02*
D03*
Y39816D02*
D03*
Y41784D02*
D03*
Y43753D02*
D03*
Y45721D02*
D03*
D17*
X29629Y22225D02*
D03*
X32188D02*
D03*
X34747D02*
D03*
X37306D02*
D03*
X39865D02*
D03*
D18*
X31794Y11300D02*
D03*
X37700D02*
D03*
D19*
X107672Y49900D02*
D03*
Y44900D02*
D03*
Y39900D02*
D03*
Y34900D02*
D03*
X129128Y49900D02*
D03*
Y44900D02*
D03*
Y39900D02*
D03*
Y34900D02*
D03*
D20*
X136200Y92200D02*
D03*
X132800D02*
D03*
X229200Y47000D02*
D03*
X225800D02*
D03*
D21*
X134500Y70700D02*
D03*
X227500Y25500D02*
D03*
D22*
X193600Y19250D02*
D03*
Y25550D02*
D03*
D23*
X173281Y61340D02*
D03*
Y57600D02*
D03*
Y53860D02*
D03*
X183519D02*
D03*
Y61340D02*
D03*
D24*
X301930Y108000D02*
D03*
X298387D02*
D03*
X294843D02*
D03*
X291300D02*
D03*
X287757D02*
D03*
X284213D02*
D03*
X280670D02*
D03*
X277127D02*
D03*
X273584D02*
D03*
X270040D02*
D03*
X266497D02*
D03*
X262953D02*
D03*
X259410D02*
D03*
Y47500D02*
D03*
X262953D02*
D03*
X266497D02*
D03*
X270040D02*
D03*
X273584D02*
D03*
X277127D02*
D03*
X280670D02*
D03*
X284213D02*
D03*
X287757D02*
D03*
X291300D02*
D03*
X294843D02*
D03*
X298387D02*
D03*
X301930D02*
D03*
D25*
X254426Y99252D02*
D03*
Y95709D02*
D03*
Y92165D02*
D03*
Y88622D02*
D03*
Y85079D02*
D03*
Y81535D02*
D03*
Y77992D02*
D03*
Y74449D02*
D03*
Y70906D02*
D03*
Y67362D02*
D03*
Y63819D02*
D03*
Y60276D02*
D03*
Y56732D02*
D03*
D26*
X285158Y74835D02*
D03*
D27*
X266647Y156000D02*
D03*
X272553D02*
D03*
X48553Y295200D02*
D03*
X42647D02*
D03*
X137047Y275200D02*
D03*
X142953D02*
D03*
X136247Y280800D02*
D03*
X142153D02*
D03*
X119447Y315200D02*
D03*
X125353D02*
D03*
X134153Y364000D02*
D03*
X128247D02*
D03*
X134153Y373600D02*
D03*
X128247D02*
D03*
X119447Y320800D02*
D03*
X125353D02*
D03*
D28*
X34147Y282800D02*
D03*
X41053D02*
D03*
D29*
X100482Y274832D02*
D03*
Y276800D02*
D03*
Y278768D02*
D03*
X110718D02*
D03*
Y276800D02*
D03*
Y274832D02*
D03*
D30*
X101663Y281918D02*
D03*
X103631D02*
D03*
X105600D02*
D03*
X107569D02*
D03*
X109537D02*
D03*
Y271682D02*
D03*
X107569D02*
D03*
X105600D02*
D03*
X103631D02*
D03*
X101663D02*
D03*
D31*
X18660Y144987D02*
D03*
X22400D02*
D03*
X26140D02*
D03*
Y155813D02*
D03*
X18660D02*
D03*
D32*
X101178Y187915D02*
D03*
X103147D02*
D03*
X105115D02*
D03*
X107083D02*
D03*
X109052D02*
D03*
X111021D02*
D03*
X112989D02*
D03*
X114957D02*
D03*
X116926D02*
D03*
X118895D02*
D03*
X120863D02*
D03*
X122831D02*
D03*
X124800D02*
D03*
X126769D02*
D03*
X128737D02*
D03*
X130705D02*
D03*
X132674D02*
D03*
X134643D02*
D03*
X136611D02*
D03*
X138579D02*
D03*
X140548D02*
D03*
X142517D02*
D03*
X144485D02*
D03*
X146453D02*
D03*
X148422D02*
D03*
Y127285D02*
D03*
X146453D02*
D03*
X144485D02*
D03*
X142517D02*
D03*
X140548D02*
D03*
X138579D02*
D03*
X136611D02*
D03*
X134643D02*
D03*
X132674D02*
D03*
X130705D02*
D03*
X128737D02*
D03*
X126769D02*
D03*
X124800D02*
D03*
X122831D02*
D03*
X120863D02*
D03*
X118895D02*
D03*
X116926D02*
D03*
X114957D02*
D03*
X112989D02*
D03*
X111021D02*
D03*
X109052D02*
D03*
X107083D02*
D03*
X105115D02*
D03*
X103147D02*
D03*
X101178D02*
D03*
D33*
X155115Y181222D02*
D03*
Y179253D02*
D03*
Y177285D02*
D03*
Y175317D02*
D03*
Y173348D02*
D03*
Y171379D02*
D03*
Y169411D02*
D03*
Y167443D02*
D03*
Y165474D02*
D03*
Y163505D02*
D03*
Y161537D02*
D03*
Y159569D02*
D03*
Y157600D02*
D03*
Y155631D02*
D03*
Y153663D02*
D03*
Y151695D02*
D03*
Y149726D02*
D03*
Y147757D02*
D03*
Y145789D02*
D03*
Y143821D02*
D03*
Y141852D02*
D03*
Y139883D02*
D03*
Y137915D02*
D03*
Y135947D02*
D03*
Y133978D02*
D03*
X94485D02*
D03*
Y135947D02*
D03*
Y137915D02*
D03*
Y139883D02*
D03*
Y141852D02*
D03*
Y143821D02*
D03*
Y145789D02*
D03*
Y147757D02*
D03*
Y149726D02*
D03*
Y151695D02*
D03*
Y153663D02*
D03*
Y155631D02*
D03*
Y157600D02*
D03*
Y159569D02*
D03*
Y161537D02*
D03*
Y163505D02*
D03*
Y165474D02*
D03*
Y167443D02*
D03*
Y169411D02*
D03*
Y171379D02*
D03*
Y173348D02*
D03*
Y175317D02*
D03*
Y177285D02*
D03*
Y179253D02*
D03*
Y181222D02*
D03*
D34*
X109106Y369353D02*
D03*
X106153D02*
D03*
X103200D02*
D03*
X100247D02*
D03*
X97294D02*
D03*
X109106Y352247D02*
D03*
X106153D02*
D03*
X103200D02*
D03*
X100247D02*
D03*
X97294D02*
D03*
X109906Y336553D02*
D03*
X106953D02*
D03*
X104000D02*
D03*
X101047D02*
D03*
X98094D02*
D03*
X109906Y319447D02*
D03*
X106953D02*
D03*
X104000D02*
D03*
X101047D02*
D03*
X98094D02*
D03*
D35*
X111753Y360800D02*
D03*
Y357650D02*
D03*
X94647Y360111D02*
D03*
X112553Y328000D02*
D03*
Y324850D02*
D03*
X95447Y327311D02*
D03*
D36*
X35150Y47200D02*
D03*
X28850D02*
D03*
D37*
X73700Y129700D02*
D03*
Y133100D02*
D03*
D38*
X52200Y131400D02*
D03*
D39*
X182496Y119231D02*
D03*
X187496D02*
D03*
X192496D02*
D03*
X197496D02*
D03*
X202496D02*
D03*
X202500Y103900D02*
D03*
X197500D02*
D03*
X192500D02*
D03*
X187500D02*
D03*
X182500D02*
D03*
D40*
X70791Y288247D02*
D03*
Y294153D02*
D03*
X57209D02*
D03*
Y288247D02*
D03*
D41*
X67937Y297991D02*
D03*
X65969D02*
D03*
X64000D02*
D03*
X62032D02*
D03*
X60063D02*
D03*
Y284409D02*
D03*
X62032D02*
D03*
X64000D02*
D03*
X65969D02*
D03*
X67937D02*
D03*
D42*
X64000Y291200D02*
D03*
D43*
X98218Y289663D02*
D03*
X101171D02*
D03*
X104124D02*
D03*
X107076D02*
D03*
X110029D02*
D03*
X112982D02*
D03*
Y297537D02*
D03*
X110029D02*
D03*
X107076D02*
D03*
X104124D02*
D03*
X101171D02*
D03*
X98218D02*
D03*
D44*
X216800Y153600D02*
D03*
Y139030D02*
D03*
X203021Y153600D02*
D03*
Y139030D02*
D03*
X21755Y22717D02*
D03*
X47739D02*
D03*
D45*
X106463Y100000D02*
D03*
X114337D02*
D03*
D46*
X259675Y167024D02*
D03*
X257116D02*
D03*
X254557D02*
D03*
X251998D02*
D03*
X249439D02*
D03*
X246880D02*
D03*
X244321D02*
D03*
X241761D02*
D03*
X239202D02*
D03*
X236643D02*
D03*
X234084D02*
D03*
X231525D02*
D03*
X259675Y144976D02*
D03*
X257116D02*
D03*
X254557D02*
D03*
X251998D02*
D03*
X249439D02*
D03*
X246880D02*
D03*
X244321D02*
D03*
X241761D02*
D03*
X239202D02*
D03*
X236643D02*
D03*
X234084D02*
D03*
X231525D02*
D03*
D47*
X202741Y151962D02*
X203700Y152920D01*
X114756Y376800D02*
Y383200D01*
X287832Y80700D02*
X289616Y78916D01*
X287832Y80700D02*
X291400D01*
X278843Y74835D02*
X285158D01*
Y63142D02*
Y74835D01*
X107007Y295610D02*
Y297537D01*
X98289Y295610D02*
Y297537D01*
X110800Y231200D02*
X117500Y224500D01*
X68320Y281820D02*
Y284409D01*
X66900Y274144D02*
X68544D01*
X89047Y292800D02*
X89600Y293353D01*
X222200Y89800D02*
X225156Y86844D01*
X216000Y89800D02*
X222200D01*
X216000D02*
Y93600D01*
X257242Y163443D02*
Y166897D01*
X257116Y167024D02*
X259675D01*
X95644Y256000D02*
Y262400D01*
X57009Y298991D02*
X58009Y297991D01*
X103356Y309400D02*
X104500D01*
X94400Y317600D02*
X96247Y319447D01*
X89956Y317600D02*
X94400D01*
X89903Y309653D02*
X89956Y309600D01*
X89903Y309653D02*
Y313653D01*
Y317547D02*
X89956Y317600D01*
X89903Y313653D02*
Y317547D01*
X58400Y313600D02*
Y313653D01*
Y321600D02*
X58453Y321547D01*
Y313653D02*
Y321547D01*
Y313653D02*
X58953Y314153D01*
X79841Y313653D02*
X89903D01*
X79341Y314153D02*
X79841Y313653D01*
X58953Y314153D02*
X79341D01*
X37600Y289000D02*
Y317600D01*
X37600Y308600D02*
X42600Y313600D01*
X58400D01*
X87200Y340800D02*
X88356Y341956D01*
X60800Y340800D02*
X87200D01*
X121156Y337444D02*
Y337600D01*
X44800Y59200D02*
X45244Y59644D01*
X44750Y59150D02*
X44800Y59200D01*
X40203Y22562D02*
X40357Y22717D01*
X39768Y23015D02*
Y23255D01*
Y23015D02*
X40203Y22581D01*
Y22562D02*
Y22581D01*
X40357Y22717D02*
X47739D01*
X24759Y31200D02*
X29629Y26330D01*
X12800Y31200D02*
X24759D01*
X29629Y22225D02*
Y26330D01*
X47247Y22225D02*
X47739Y22717D01*
X29629Y26330D02*
X33343Y30044D01*
X44000D01*
X80356Y40000D02*
X80800Y39556D01*
X80356Y40000D02*
Y54400D01*
X59644Y138900D02*
Y139844D01*
Y131256D02*
Y138900D01*
X198500Y75900D02*
X209600Y64800D01*
X170347Y75900D02*
X198500D01*
X167747Y78500D02*
X170347Y75900D01*
X64400Y78500D02*
X167747D01*
X12800Y130100D02*
X64400Y78500D01*
X66900Y158544D02*
X69600Y161244D01*
X66900Y148400D02*
Y158544D01*
Y148400D02*
X69900Y145400D01*
X37600Y176800D02*
Y280293D01*
X33377Y172577D02*
X37600Y176800D01*
X26140Y172577D02*
X33377D01*
X37600Y289000D02*
X37600Y289000D01*
X41053Y282800D02*
Y293606D01*
X37600Y317600D02*
X60800Y340800D01*
X88356Y341956D02*
Y344800D01*
X92600Y13600D02*
X99200D01*
X88100Y18100D02*
X92600Y13600D01*
X77060Y18100D02*
X88100D01*
X75447Y19713D02*
X77060Y18100D01*
X75447Y19713D02*
Y23869D01*
X74466Y24850D02*
X75447Y23869D01*
X70150Y24850D02*
X74466D01*
X63912Y31088D02*
X70150Y24850D01*
X9060Y44577D02*
X12800D01*
X9060Y35423D02*
Y44577D01*
Y35423D02*
X12800D01*
Y31200D02*
Y35423D01*
X305000Y99200D02*
Y133760D01*
X298100Y92300D02*
X305000Y99200D01*
X294404Y144356D02*
X305000Y133760D01*
X301930Y102630D02*
Y108000D01*
X295204Y95904D02*
X301930Y102630D01*
X290200Y79500D02*
X290500D01*
X289616Y78916D02*
X290200Y79500D01*
X290500D02*
Y79800D01*
X291400Y80700D01*
X259054Y94624D02*
X278843Y74835D01*
X259054Y94624D02*
Y97387D01*
X258073Y98368D02*
X259054Y97387D01*
X255310Y98368D02*
X258073D01*
X254426Y99252D02*
X255310Y98368D01*
X284916Y83616D02*
X295204Y93904D01*
X284916Y83616D02*
X287400Y81132D01*
X301930Y47500D02*
Y50262D01*
X302200Y108270D02*
Y132600D01*
X291300Y108000D02*
Y112100D01*
X288600Y59700D02*
X295300Y53000D01*
X285158Y63142D02*
X288600Y59700D01*
X285632Y56732D02*
X288600Y59700D01*
X254426Y56732D02*
X285632D01*
X273584Y44737D02*
Y47500D01*
Y44737D02*
X276121Y42200D01*
X303200D01*
X304730Y43730D01*
Y51422D01*
X298100Y58052D02*
X304730Y51422D01*
X298100Y58052D02*
Y92300D01*
X220300Y93600D02*
X241900Y115200D01*
X259300Y123900D02*
Y124000D01*
X257700Y122300D02*
X259300Y123900D01*
X216000Y93600D02*
X220300D01*
X241900Y115200D02*
X288200D01*
X291300Y112100D01*
X256800Y123200D02*
X257700Y122300D01*
X299192Y53000D02*
X301930Y50262D01*
X295300Y53000D02*
X299192D01*
X287400Y81132D02*
X287832Y80700D01*
X295204Y93904D02*
Y95904D01*
X287400Y80700D02*
Y81132D01*
Y80700D02*
X287832D01*
X301930Y108000D02*
X302200Y108270D01*
X295956Y138844D02*
X302200Y132600D01*
X179031Y119231D02*
X182496D01*
X187496D02*
X192496D01*
X187496D02*
Y126196D01*
X202496Y119231D02*
Y124404D01*
X184600Y83300D02*
X212300D01*
X172800Y95100D02*
X184600Y83300D01*
X172800Y95100D02*
Y118000D01*
X179239Y124439D01*
Y124701D01*
X181739Y127200D01*
X188500D01*
X187496Y126196D02*
X188500Y127200D01*
X199700D01*
X202496Y124404D01*
X175900Y96300D02*
X183400Y88800D01*
X175900Y96300D02*
Y116100D01*
X179031Y119231D01*
X86400Y147800D02*
X87650Y149050D01*
X44884Y53416D02*
X57416D01*
X44600Y53700D02*
X44884Y53416D01*
X70200Y37900D02*
X73322D01*
X74978Y39556D01*
X77544Y285156D02*
X80800D01*
X74453Y288247D02*
X77544Y285156D01*
X70791Y288247D02*
X74453D01*
X68269Y281768D02*
X68320Y281820D01*
X68544Y274144D02*
X70144Y275744D01*
X66900Y272600D02*
Y274144D01*
X57009Y298991D02*
Y307841D01*
X55250Y309600D02*
X57009Y307841D01*
X55250Y309600D02*
X61100D01*
X49400D02*
X55250D01*
X257116Y167024D02*
X257242Y166897D01*
X144000Y32800D02*
Y41600D01*
X12800Y152800D02*
X15813Y155813D01*
X18660D01*
X172577Y53156D02*
X173281Y53860D01*
X144000Y41600D02*
X151200D01*
X157600Y48000D01*
Y52800D01*
X157956Y53156D01*
X161600D01*
X129128Y39900D02*
X138300D01*
X140000Y41600D01*
X144000D01*
X107672Y39900D02*
X129128D01*
X100800Y37600D02*
X103100Y39900D01*
X107672D01*
X159912Y27200D02*
X171200D01*
X172712Y25688D01*
X176800D01*
X185156D01*
X185600Y25244D01*
X193295D01*
X193600Y25550D01*
X59200Y55200D02*
X62400D01*
X64800Y57600D01*
Y59644D01*
X100800Y35200D02*
Y37600D01*
X84356Y39556D02*
X85600Y38312D01*
Y33600D02*
Y38312D01*
X96800Y31200D02*
X100800Y35200D01*
X85600Y33600D02*
X88000Y31200D01*
X96800D01*
X225156Y83200D02*
Y86844D01*
X183400Y88800D02*
X216000D01*
X168800Y145956D02*
X178400D01*
X69600Y166756D02*
X80000D01*
X59200Y165600D02*
X64800D01*
X65956Y166756D01*
X69600D01*
X80550Y285405D02*
X80800Y285156D01*
X104124Y297537D02*
X104193D01*
X18660Y155813D02*
Y163423D01*
X22400D01*
Y172577D01*
X18660D02*
X22400D01*
X89600Y293353D02*
Y296000D01*
X88000Y297600D02*
X89600Y296000D01*
X81600Y292800D02*
X89047D01*
X81600Y285156D02*
X81609Y285147D01*
X86053D01*
X88000Y283200D01*
X136247Y276000D02*
X137047Y275200D01*
X136247Y276000D02*
Y280800D01*
X133047Y284000D02*
X136247Y280800D01*
X130400Y284000D02*
X133047D01*
X204000Y20000D02*
Y25244D01*
X203200Y19200D02*
X204000Y20000D01*
X193600Y19250D02*
X203150D01*
X203200Y19200D01*
X204800Y12800D02*
X209600Y17600D01*
Y64800D01*
X173281Y57600D02*
X190400D01*
X192356Y55644D01*
X198400D01*
Y49600D02*
Y55644D01*
X161600Y47644D02*
X193244D01*
X195200Y49600D01*
X198400D01*
X35150Y47200D02*
Y59150D01*
X36444Y60444D01*
Y65600D01*
X35150Y59150D02*
X44750D01*
X56444Y59644D02*
X61956Y65156D01*
X64800D01*
X45244Y59644D02*
X53600D01*
X56444D01*
X153156Y109600D02*
Y116000D01*
X143200Y86844D02*
X147744D01*
X140800Y107559D02*
Y110044D01*
Y107559D02*
X143000Y105359D01*
X124800Y86844D02*
X143200D01*
X124000Y98955D02*
Y109244D01*
X119700Y94655D02*
X124000Y98955D01*
X120456Y86844D02*
X124800D01*
X22400Y134700D02*
Y144987D01*
Y134700D02*
X55900Y101200D01*
X59800D01*
X74156Y86844D02*
X120456D01*
X59800Y101200D02*
X74156Y86844D01*
X69600Y161244D02*
X80000D01*
X56300Y151200D02*
X59644Y147856D01*
Y139844D02*
Y147856D01*
Y131256D02*
X62044Y128856D01*
Y124000D02*
Y128856D01*
X212300Y83300D02*
X219544D01*
X219644Y83200D01*
X268000Y144356D02*
X276000D01*
X268000Y138844D02*
X276000D01*
X295956D01*
X287832Y77132D02*
X289616Y78916D01*
X79934Y309600D02*
X84444D01*
X78181Y311353D02*
X79934Y309600D01*
X70619Y311353D02*
X78181D01*
X68866Y309600D02*
X70619Y311353D01*
X47300Y307500D02*
X49400Y309600D01*
X42647Y302847D02*
X47300Y307500D01*
X42647Y295200D02*
Y302847D01*
X41053Y293606D02*
X42647Y295200D01*
X105400Y360700D02*
X111653D01*
X111753Y360800D01*
X114756Y383200D02*
X121800D01*
X122200Y382800D01*
X88111Y360111D02*
X94647D01*
X82844Y354844D02*
X88111Y360111D01*
X82844Y351200D02*
Y354844D01*
Y344800D02*
Y351200D01*
X72800Y352600D02*
X81444D01*
X82844Y351200D01*
X86800Y327300D02*
X95436D01*
X95447Y327311D01*
X84444Y324944D02*
X86800Y327300D01*
X84444Y317600D02*
Y324944D01*
X116818Y271682D02*
X118300Y270200D01*
X108800Y256444D02*
X116544D01*
X117300Y257200D01*
X178400Y140444D02*
X184544D01*
X185800Y141700D01*
X168800Y140444D02*
X178400D01*
X59644Y139844D02*
X65200Y145400D01*
X109900Y107044D02*
X111744D01*
X112900Y108200D02*
Y113000D01*
X111744Y107044D02*
X112900Y108200D01*
X80744Y167500D02*
X85400D01*
X80000Y166756D02*
X80744Y167500D01*
X137800Y118556D02*
X140800Y115556D01*
X181600Y213600D02*
X191300D01*
X194800Y210100D01*
X180600Y159900D02*
X194800Y174100D01*
X174556Y159900D02*
X180600D01*
X174556Y158556D02*
Y159900D01*
X168300Y152300D02*
X174556Y158556D01*
X124700Y203500D02*
X126900Y201300D01*
X129800D01*
X131400Y202900D01*
X117600Y210600D02*
X124700Y203500D01*
X98218Y297537D02*
Y302826D01*
X98044Y303000D02*
X98218Y302826D01*
X97844Y303200D02*
Y309400D01*
X84444Y306756D02*
Y309600D01*
Y306756D02*
X85172Y306028D01*
X95016D01*
X97844Y303200D01*
X98044Y303000D01*
X105952Y294556D02*
X107007Y295610D01*
Y297537D02*
X107076D01*
X99100Y294556D02*
X105952D01*
X99100D02*
Y294799D01*
X98289Y295610D02*
X99100Y294799D01*
X98218Y297537D02*
X98289D01*
X103356Y303200D02*
Y309400D01*
Y303200D02*
X103556Y303000D01*
X104124Y297537D02*
Y302432D01*
X103556Y303000D02*
X104124Y302432D01*
X104500Y309400D02*
X110029Y303871D01*
Y297537D02*
Y303871D01*
X112000Y309400D02*
X112000Y309400D01*
X104500Y309400D02*
X112000D01*
X88726Y21474D02*
X99200D01*
X80800Y29400D02*
X88726Y21474D01*
X80800Y29400D02*
Y34044D01*
X82175Y9025D02*
X102603D01*
X75112Y16088D02*
X82175Y9025D01*
X72000Y16088D02*
X75112D01*
X102603Y9025D02*
X104100Y10522D01*
Y19200D01*
X101826Y21474D02*
X104100Y19200D01*
X99200Y21474D02*
X101826D01*
X107672Y29946D02*
Y34900D01*
X99200Y21474D02*
X107672Y29946D01*
X144000Y47112D02*
Y55400D01*
X183200Y67100D02*
X183519Y66781D01*
Y61340D02*
Y66781D01*
X105500Y328000D02*
X112553D01*
X105400Y328100D02*
X105500Y328000D01*
X79600Y275200D02*
Y277644D01*
X81600Y279644D01*
X252000Y152700D02*
Y158200D01*
X257242Y163443D01*
X203021Y139030D02*
Y145520D01*
Y153600D02*
X203700Y152920D01*
X202741Y145800D02*
X203021Y145520D01*
X202741Y145800D02*
Y151962D01*
X108700Y112156D02*
Y115100D01*
X111021Y117420D01*
X102344Y106644D02*
X108700D01*
X100000Y104300D02*
X102344Y106644D01*
X61047Y309547D02*
X61100Y309600D01*
X68866D01*
X90400Y36444D02*
X91044D01*
X97700Y43100D01*
X121156Y337600D02*
Y343200D01*
Y337444D02*
X125400Y333200D01*
X228000Y177900D02*
X231525Y174375D01*
X198900Y177900D02*
X228000D01*
X194800Y182000D02*
X198900Y177900D01*
X194800Y174100D02*
Y182000D01*
Y210100D01*
X279500Y159600D02*
X289600D01*
X275900Y156000D02*
X279500Y159600D01*
X272553Y156000D02*
X275900D01*
X276000Y144356D02*
Y147500D01*
X272553Y150947D02*
X276000Y147500D01*
X272553Y150947D02*
Y156000D01*
X276000Y144356D02*
X294404D01*
X254400Y182953D02*
X274747D01*
X289600Y168100D01*
Y159600D02*
Y168100D01*
X243556Y125600D02*
X254153D01*
X256800Y128247D01*
Y123200D02*
Y128247D01*
X80800Y146756D02*
X82256Y145300D01*
X80800Y146756D02*
Y150400D01*
X85000Y153400D02*
X86705Y151695D01*
X65200Y145400D02*
X69900D01*
X76200D01*
X85400Y160100D02*
Y167500D01*
X80100Y154800D02*
X85400Y160100D01*
X80100Y151100D02*
X80800Y150400D01*
X80100Y151100D02*
Y154800D01*
X96600Y99500D02*
X105963D01*
X106463Y100000D01*
X57416Y53416D02*
X59200Y55200D01*
X136611Y134000D02*
Y136411D01*
X183556Y145956D02*
X184900Y147300D01*
X178400Y145956D02*
X183556D01*
X108320Y112156D02*
X108700D01*
X105608Y109444D02*
X108320Y112156D01*
X98922Y109444D02*
X105608D01*
X95600Y106123D02*
X98922Y109444D01*
X95600Y102478D02*
Y106123D01*
Y102478D02*
X96600Y101478D01*
Y99500D02*
Y101478D01*
X131400Y202900D02*
X135656D01*
X135800Y202756D01*
Y197244D02*
X138744D01*
X139900Y198400D01*
Y205300D01*
X131600Y213600D02*
X139900Y205300D01*
X86400Y145300D02*
Y147800D01*
X82256Y145300D02*
X86400D01*
X119700Y87600D02*
X120456Y86844D01*
X119700Y87600D02*
Y94655D01*
X117500Y224500D02*
X117600Y224600D01*
X95644Y254744D02*
Y256000D01*
X91900Y251000D02*
X95644Y254744D01*
X68269Y281768D02*
X70144Y279893D01*
Y278500D02*
Y279893D01*
Y275744D02*
Y278500D01*
X75656D02*
X76300D01*
X79600Y275200D01*
X117600Y210600D02*
Y224600D01*
X136611Y136411D02*
X138800Y138600D01*
X86153Y297600D02*
X88000D01*
X63700Y291500D02*
X64000Y291200D01*
X117800Y279100D02*
X120000D01*
X35150Y47200D02*
X47047D01*
X47869Y48021D01*
X92500Y231200D02*
X110800D01*
X131400Y198800D02*
Y202900D01*
X185600Y17800D02*
Y25244D01*
Y17800D02*
X190600Y12800D01*
X204800D01*
X12800Y130100D02*
Y152800D01*
X153156Y100456D02*
Y109600D01*
X147744Y86844D02*
X150700Y89800D01*
Y99900D01*
X143000Y105359D02*
X145241D01*
X150700Y99900D01*
X151200Y98500D02*
X153156Y100456D01*
X164800Y63740D02*
Y64800D01*
Y63740D02*
X169119Y59421D01*
Y56400D02*
Y59421D01*
X165875Y53156D02*
X169119Y56400D01*
X161600Y53156D02*
X165875D01*
X172577D01*
X168260Y61340D02*
X173281D01*
X164800Y64800D02*
X168260Y61340D01*
X259675Y144386D02*
X259705Y144356D01*
X268000D01*
X74978Y39556D02*
X80800D01*
X84356D01*
X57416Y53416D02*
X59384Y51447D01*
D48*
X147644Y109600D02*
Y116000D01*
X41956Y65600D02*
X57600D01*
X197784Y61340D02*
X198400Y61956D01*
X254557Y176404D02*
X255200Y177047D01*
X230620Y140330D02*
X254183D01*
Y144583D01*
X257116Y139516D02*
Y144976D01*
X230567Y162600D02*
X236270D01*
X236643Y162973D02*
Y167024D01*
X254930Y144759D02*
Y148442D01*
X254557Y144386D02*
X254930Y144759D01*
X101156Y256000D02*
Y262400D01*
X80247Y297600D02*
Y301047D01*
X58009Y297991D02*
X60063D01*
X48800Y294153D02*
X57209D01*
X84494Y287447D02*
X89600D01*
X236508Y166800D02*
Y182692D01*
X110029Y286771D02*
Y289663D01*
X95263D02*
X98218D01*
X106507Y289093D02*
X107076Y289663D01*
X103068Y122614D02*
Y127285D01*
X94485Y200085D02*
X95200Y200800D01*
X109244Y376800D02*
Y383200D01*
X96247Y319447D02*
X98094D01*
X89956Y309600D02*
Y313600D01*
X89903Y313653D02*
X89956Y313600D01*
X58400Y313653D02*
Y321600D01*
X37600Y289000D02*
Y308600D01*
X115644Y337600D02*
Y342400D01*
X54463Y18115D02*
X55778Y16800D01*
X43377Y18115D02*
X54463D01*
X42862Y17600D02*
X43377Y18115D01*
X37903Y17600D02*
X42862D01*
X37903D02*
Y21629D01*
X55778Y16800D02*
X58844D01*
X37306Y22225D02*
X37903Y21629D01*
X53479Y30521D02*
X64356Y19644D01*
X53479Y30521D02*
Y31745D01*
X72900Y133100D02*
X73700D01*
X68400Y137600D02*
X72900Y133100D01*
X66456Y137600D02*
X68400D01*
X76802Y138900D02*
X77600Y138102D01*
X65156Y138900D02*
X76802D01*
X67556Y124000D02*
Y127156D01*
X70100Y129700D01*
X73700D01*
X46346Y122600D02*
X53400D01*
X42200Y126746D02*
X46346Y122600D01*
X42200Y126746D02*
Y278694D01*
X44197Y280691D01*
X43353Y290000D02*
X48553Y295200D01*
X43353Y285753D02*
Y290000D01*
Y285753D02*
X44197Y284909D01*
Y280691D02*
Y284909D01*
X55072Y120928D02*
X78371D01*
X53400Y122600D02*
X55072Y120928D01*
X143044Y92200D02*
X143200Y92356D01*
X136200Y92200D02*
X143044D01*
X132644Y92356D02*
X132800Y92200D01*
X124800Y92356D02*
X132644D01*
X237402Y47000D02*
X238200Y47798D01*
X229200Y47000D02*
X237402D01*
X225800D02*
Y48262D01*
X227713Y50175D01*
X228373D01*
X238200Y60002D01*
X63912Y31088D02*
Y35879D01*
X248994Y70906D02*
X254426D01*
X241100Y78800D02*
X248994Y70906D01*
X201398Y78800D02*
X241100D01*
X232000Y72800D02*
X234000Y70800D01*
X204853Y72800D02*
X232000D01*
X199453Y78200D02*
X204853Y72800D01*
X160900Y132087D02*
X219113D01*
X151281D02*
X160900D01*
X200198Y80000D02*
X201398Y78800D01*
X184647Y80000D02*
X200198D01*
X170500Y94147D02*
X184647Y80000D01*
X170500Y94147D02*
Y103400D01*
X165800Y108100D02*
X170500Y103400D01*
X165800Y108100D02*
Y116116D01*
X160900Y121016D02*
X165800Y116116D01*
X160900Y121016D02*
Y132087D01*
X171300Y78200D02*
X199453D01*
X164000Y85500D02*
X171300Y78200D01*
X287757Y108000D02*
Y110643D01*
X294843Y108000D02*
Y115457D01*
X298387Y108000D02*
Y117513D01*
X246300Y112900D02*
X285500D01*
X245000Y111600D02*
X246300Y112900D01*
X245000Y82000D02*
Y111600D01*
X216200Y98600D02*
X235100Y117500D01*
X232383Y119600D02*
X257400D01*
X257700Y119300D01*
X296600D01*
X298387Y117513D01*
X207083Y94300D02*
X232383Y119600D01*
X285500Y112900D02*
X287757Y110643D01*
X235100Y117500D02*
X292800D01*
X213929Y98600D02*
X216200D01*
X292800Y117500D02*
X294843Y115457D01*
X259113Y47798D02*
X259410Y47500D01*
X238200Y47798D02*
X259113D01*
X238200Y60002D02*
X251298D01*
X202500Y103900D02*
X205100D01*
X189500Y94300D02*
X207083D01*
X187500Y96300D02*
X189500Y94300D01*
X207829Y92500D02*
X213929Y98600D01*
X187900Y92500D02*
X207829D01*
X187500Y96300D02*
Y103900D01*
X182500Y97900D02*
X187900Y92500D01*
X182500Y97900D02*
Y103900D01*
X164000Y85500D02*
Y97600D01*
X51155Y31745D02*
X53479D01*
X49800Y33100D02*
X51155Y31745D01*
X49800Y33100D02*
Y37336D01*
X50311Y37847D01*
X52888D01*
X32223Y35423D02*
X35900Y39100D01*
X42200D01*
X48821Y45721D01*
X52888D01*
X57416Y30940D02*
Y33320D01*
X66590Y43290D02*
X69600Y46300D01*
X66590Y42722D02*
Y43290D01*
X65828Y41961D02*
X66590Y42722D01*
X64088Y41961D02*
X65828D01*
X63912Y41784D02*
X64088Y41961D01*
X71747Y42700D02*
X71900D01*
X68863Y39816D02*
X71747Y42700D01*
X63912Y39816D02*
X68863D01*
X61353Y48280D02*
Y49353D01*
X64151Y52151D01*
X57416Y30940D02*
X66756Y21600D01*
X48000Y36800D02*
Y41500D01*
X50253Y43753D01*
X52888D01*
X48800Y294153D02*
Y294953D01*
X64000Y279200D02*
Y284409D01*
X57406Y272605D02*
X64000Y279200D01*
X65969Y280816D02*
X66400Y280384D01*
X65969Y280816D02*
Y284409D01*
X66400Y276600D02*
Y280384D01*
X66300Y276500D02*
X66400Y276600D01*
X65285Y276500D02*
X66300D01*
X63000Y274215D02*
X65285Y276500D01*
X63000Y273200D02*
Y274215D01*
X60002Y270202D02*
X63000Y273200D01*
X60002Y206699D02*
Y270202D01*
Y206699D02*
X62047Y205600D01*
X62316Y205743D02*
X69600Y209600D01*
X79985Y288900D02*
X83041D01*
X74732Y294153D02*
X79985Y288900D01*
X70791Y294153D02*
X74732D01*
X67937Y297991D02*
X77533D01*
X74400Y301124D02*
X77533Y297991D01*
X78100D02*
X79856D01*
X74400Y301124D02*
Y306400D01*
X79856Y297991D02*
X80247Y297600D01*
X255200Y137600D02*
X257116Y139516D01*
X236270Y162600D02*
X236643Y162973D01*
X229733Y163434D02*
X230567Y162600D01*
X229733Y163434D02*
Y164445D01*
X227778Y166400D02*
X229733Y164445D01*
X251998Y144386D02*
Y144976D01*
X216800Y134400D02*
X219113Y132087D01*
X216800Y134400D02*
Y139030D01*
Y153600D01*
X225400Y138271D02*
X226072Y137600D01*
X225400Y138271D02*
Y158454D01*
X222454Y161400D02*
X225400Y158454D01*
X195946Y161400D02*
X222454D01*
X194195Y159650D02*
X195946Y161400D01*
X227200Y143750D02*
Y159200D01*
X223200Y163200D02*
X227200Y159200D01*
X195200Y163200D02*
X223200D01*
X227200Y143750D02*
X230620Y140330D01*
X215200Y166400D02*
X227778D01*
X192000Y160000D02*
X195200Y163200D01*
X215200Y166400D02*
Y171200D01*
X57600Y68000D02*
X60000Y70400D01*
X65751Y52151D02*
X69600Y56000D01*
Y70400D01*
X60000D02*
X69600D01*
X90400Y53956D02*
X94044D01*
X98100Y49900D01*
X107672D01*
X129128Y34072D02*
Y34900D01*
Y34072D02*
X135912Y27288D01*
X144000D01*
X154312D01*
X154400Y27200D01*
X204000Y30756D02*
X204000Y30756D01*
X177600Y30756D02*
X185600D01*
X90400Y41956D02*
Y48444D01*
X118400Y64800D02*
X122044D01*
X117600Y64000D02*
X118400Y64800D01*
X181600Y40000D02*
X200000D01*
X176800Y35200D02*
X181600Y40000D01*
X176800Y31200D02*
Y35200D01*
X69600Y53454D02*
X70546Y54400D01*
X74844D01*
X200000Y40000D02*
X203200Y43200D01*
Y64800D01*
X127556Y64800D02*
X150400D01*
X77600Y138102D02*
X87736D01*
X89814Y136024D01*
X94407D02*
X94485Y135947D01*
X72298Y125898D02*
X88298D01*
X94485Y132085D01*
Y133978D01*
X130705Y121461D02*
Y127285D01*
X117600Y114953D02*
X117797Y114756D01*
X124000D02*
X130705Y121461D01*
X117600Y114953D02*
X123803D01*
X124000Y114756D01*
X117600Y106400D02*
Y109047D01*
X139257Y122343D02*
X144057D01*
X147644Y118756D01*
Y116000D02*
Y118756D01*
X129098Y100800D02*
Y117308D01*
X132596Y120806D01*
Y127207D01*
X137600Y100800D02*
X141302D01*
X161779Y143821D02*
X165728Y139872D01*
Y138331D02*
Y139872D01*
Y138331D02*
X166490Y137569D01*
X160548Y141852D02*
X163928Y138472D01*
Y137585D02*
Y138472D01*
Y137585D02*
X165744Y135769D01*
X255200Y137600D02*
X256800Y136000D01*
Y134153D02*
Y136000D01*
X67556Y124000D02*
X70400D01*
X72298Y125898D01*
X254930Y148442D02*
X262488Y156000D01*
X266647D01*
X88356Y344800D02*
Y351200D01*
X109106Y369353D02*
Y376661D01*
X109244Y376800D01*
X108997Y376553D02*
X109106Y376661D01*
X114337Y100000D02*
Y103137D01*
X117600Y106400D01*
X115397Y336553D02*
X115644Y336800D01*
X109106Y352247D02*
X114952Y346400D01*
X120838Y330362D02*
X125353Y325847D01*
Y311447D02*
Y315200D01*
Y311447D02*
X125600Y311200D01*
X118152D02*
X125600D01*
X114952Y346400D02*
X120800D01*
Y349847D01*
X88356Y351200D02*
X94153D01*
X95200Y352247D01*
X97294D01*
X226072Y137600D02*
X255200D01*
X138337Y289663D02*
X142153Y285847D01*
Y280000D02*
Y280800D01*
X142953Y263447D02*
X147200Y259200D01*
X142953Y263447D02*
Y274400D01*
X101156Y262400D02*
X101663Y262907D01*
X100305Y273039D02*
X101663Y271682D01*
X97877Y273039D02*
X100305D01*
X97232Y278768D02*
X100482D01*
X96516Y274400D02*
Y278053D01*
Y274400D02*
X97877Y273039D01*
X146454Y257400D02*
X161800D01*
X101663Y262907D02*
Y271682D01*
X106044Y261956D02*
X108800D01*
X104031Y263969D02*
Y264710D01*
Y263969D02*
X106044Y261956D01*
X103631Y265109D02*
X104031Y264710D01*
X103631Y265109D02*
Y271682D01*
X107569D02*
X107745Y271505D01*
Y268315D02*
Y271505D01*
X110718Y274832D02*
X129023D01*
X161054Y255600D02*
X234084Y182570D01*
Y167614D02*
Y182570D01*
X109106Y369353D02*
X117353D01*
X121600Y373600D01*
X126647D01*
X117728Y353836D02*
Y364572D01*
Y353836D02*
X118490Y353075D01*
X122561D01*
X134153Y364000D02*
Y373600D01*
X120800Y346400D02*
X124000D01*
X115644Y333156D02*
X115760Y333040D01*
X118400D01*
X115644Y333156D02*
Y336800D01*
Y337600D01*
X118400Y321847D02*
Y327135D01*
X119447Y315200D02*
Y320800D01*
X105600Y281918D02*
Y284491D01*
X86400Y267937D02*
X96516Y278053D01*
X97232Y278768D01*
X94407Y171458D02*
X94485Y171379D01*
X94407Y169489D02*
X94485Y169411D01*
X78371Y120928D02*
X79843Y122400D01*
X94400D01*
X99285Y127285D01*
X103068D02*
X103147D01*
X26140Y140260D02*
Y144987D01*
Y140260D02*
X45600Y120800D01*
X52654D01*
X54326Y119128D01*
X79117D01*
X80588Y120600D01*
X105037Y122037D02*
Y127207D01*
X151600Y208400D02*
Y213600D01*
X157897D02*
X161600D01*
X153444Y218053D02*
X157897Y213600D01*
X139756Y218053D02*
X153444D01*
X137147Y215444D02*
X139756Y218053D01*
X144407Y187993D02*
X144485Y187915D01*
X148800Y181461D02*
X150313Y182973D01*
X137600Y338035D02*
X159565D01*
X160000Y337600D01*
X122561Y353075D02*
X137600Y338035D01*
X251328Y224307D01*
X124000Y346400D02*
X154400Y316000D01*
X153600Y299200D02*
X154400Y300000D01*
X125353Y320800D02*
Y325847D01*
X152000Y299200D01*
X117163Y289663D02*
X138337D01*
X151200Y259200D02*
Y266400D01*
X147200Y259200D02*
X151200D01*
X163200D01*
X153600Y244000D02*
Y254800D01*
X152800Y255600D02*
X153600Y254800D01*
X132000Y255600D02*
X152800D01*
X161054D01*
X72800Y247200D02*
X82400D01*
Y180840D02*
Y247200D01*
Y268000D01*
X164000Y97600D02*
Y115370D01*
X152085Y127285D02*
X164000Y115370D01*
X185600Y30756D02*
X204000D01*
X69600Y46300D02*
Y53454D01*
X64151Y52151D02*
X65751D01*
X134153Y373600D02*
X134953Y372800D01*
X145600D01*
X107672Y44900D02*
X111300D01*
X117600Y51200D01*
Y64000D01*
X138579Y123021D02*
X139257Y122343D01*
X138579Y123021D02*
Y127285D01*
X80247Y301047D02*
X91753D01*
X95200Y289600D02*
X95263Y289663D01*
X89865Y287182D02*
X94400D01*
X89600Y287447D02*
X89865Y287182D01*
X26140Y155813D02*
Y163423D01*
X44000Y35556D02*
X46756D01*
X48000Y36800D01*
X28850Y57650D02*
X30400Y59200D01*
X28850Y47200D02*
Y57650D01*
X16540Y44577D02*
Y47200D01*
X28850D01*
X64356Y16800D02*
Y19644D01*
X124800Y96502D02*
X129098Y100800D01*
X124800Y92356D02*
Y96502D01*
X141302Y100800D02*
X141600Y100502D01*
Y96800D02*
Y100502D01*
Y96800D02*
X143200Y95200D01*
Y92356D02*
Y95200D01*
X266647Y156000D02*
Y161047D01*
X270400Y164800D01*
Y172000D01*
X256800Y134153D02*
X269847D01*
X277600Y126400D01*
X288000D01*
X83041Y288900D02*
X84494Y287447D01*
X142153Y280800D02*
Y285847D01*
X57600Y65600D02*
Y68000D01*
X57600Y65600D02*
X57600Y65600D01*
X66756Y21600D02*
X72000D01*
X132000Y255600D02*
X132400Y255200D01*
X101156Y256000D02*
X104709Y252447D01*
X130700D01*
X138200D01*
X138400Y252647D01*
Y258553D02*
Y265454D01*
X129023Y274832D02*
X138400Y265454D01*
X146454Y257400D01*
X25100Y288256D02*
Y301200D01*
X24800Y301500D02*
X25100Y301200D01*
Y282744D02*
X34091D01*
X34147Y282800D01*
X101200Y362500D02*
X103300Y364600D01*
X105189Y353211D02*
X106153Y352247D01*
X101200Y358200D02*
Y362500D01*
Y358200D02*
X102694Y356706D01*
X104427D01*
X105189Y355945D01*
Y353211D02*
Y355945D01*
X124300Y364600D02*
X125200Y363700D01*
X127947D01*
X128247Y364000D01*
X117700Y364600D02*
X117728Y364572D01*
X103300Y364600D02*
X117700D01*
X124300D01*
X109537Y271682D02*
X116818D01*
X107745Y268315D02*
X112885D01*
X122847Y258353D01*
X123700D02*
X124050Y258002D01*
X122847Y258353D02*
X123700D01*
X130700D01*
X150313Y182973D02*
Y187613D01*
X171600Y208900D01*
Y213600D01*
X165744Y135769D02*
X190269D01*
X194195Y139695D01*
Y159650D01*
X166490Y137569D02*
X187269D01*
X192000Y142300D01*
Y160000D01*
X160863Y171663D02*
X179400Y190200D01*
X184000D01*
X163193Y165293D02*
X178100Y180200D01*
X184000D01*
X160863Y153663D02*
Y171663D01*
X161895Y151695D02*
X163193Y152993D01*
Y165293D01*
X162472Y149726D02*
X166000Y153254D01*
Y159600D01*
X166300Y159900D01*
X169044D01*
X163758Y147757D02*
X168300Y152300D01*
X89237Y171458D02*
X94407D01*
X89814Y136024D02*
X94407D01*
X99285Y127285D02*
X101178D01*
X105037Y127207D02*
X105115Y127285D01*
X132596Y127207D02*
X132674Y127285D01*
X111021Y117420D02*
Y127285D01*
X85400Y167500D02*
X94485Y167443D01*
X88326Y149726D02*
X94485D01*
X86705Y151695D02*
X94485D01*
X134643Y103758D02*
X137600Y100800D01*
X134643Y103758D02*
Y127285D01*
X136611Y119889D02*
X137800Y118700D01*
X94400Y290400D02*
X95200Y289600D01*
X91753Y301047D02*
X94400Y298400D01*
Y290400D02*
Y298400D01*
X156600Y71000D02*
X197000D01*
X150400Y64800D02*
X156600Y71000D01*
X197000D02*
X203200Y64800D01*
X109906Y319447D02*
X118152Y311200D01*
X109906Y336553D02*
X115397D01*
X106953Y319447D02*
Y320147D01*
X105989Y321111D02*
X106953Y320147D01*
X105989Y321111D02*
Y323906D01*
X103194D02*
X105989D01*
X103194D02*
Y324791D01*
X101500Y326485D02*
X103194Y324791D01*
X101500Y326485D02*
Y329715D01*
X103785Y332000D01*
X107015D01*
X108653Y330362D01*
X120838D01*
X115200Y320800D02*
X119447D01*
X119447Y320800D01*
X118400Y321847D02*
X119447Y320800D01*
X74400Y265600D02*
Y272200D01*
X77085D01*
X77985Y271300D01*
X81215D01*
X82115Y272200D01*
X83400D01*
X112989Y118705D02*
Y127285D01*
X101974Y118974D02*
X105037Y122037D01*
X104015Y112900D02*
X106300Y115185D01*
Y116500D01*
X107083Y117283D01*
Y127285D01*
X101974Y118974D02*
X102700Y118248D01*
X101652Y117200D02*
X102700Y118248D01*
X80588Y120600D02*
X98385D01*
X98885Y121100D01*
X231525Y167614D02*
Y174375D01*
X82400Y180840D02*
X89814Y173426D01*
X94485Y173348D02*
X94485D01*
X94407Y173426D02*
X94485Y173348D01*
X89814Y173426D02*
X94407D01*
X16540Y35423D02*
X32223D01*
X155115Y151695D02*
X161895D01*
X155115Y141852D02*
X160548D01*
X148422Y127285D02*
X152085D01*
X155115Y153663D02*
X160863D01*
X254183Y144583D02*
X254400Y144800D01*
X155115Y143821D02*
X161779D01*
X155115Y149726D02*
X162472D01*
X155115Y147757D02*
X163758D01*
X94485Y181222D02*
Y200085D01*
X148800Y132863D02*
Y134568D01*
Y181461D01*
Y134568D02*
X151281Y132087D01*
X136611Y127285D02*
Y134000D01*
X102700Y112900D02*
X104015D01*
X98885Y121100D02*
X101555D01*
X103068Y122614D01*
X100500Y117200D02*
X101652D01*
X102600Y113000D02*
X102700Y112900D01*
X95400Y113000D02*
X102600D01*
X148422Y187915D02*
Y190922D01*
X157200Y199700D01*
Y202800D01*
X151600Y208400D02*
X157200Y202800D01*
X141600Y212600D02*
Y213600D01*
Y212600D02*
X146453Y207747D01*
X148554D01*
X153300Y203000D01*
Y199300D02*
Y203000D01*
X146453Y192454D02*
X153300Y199300D01*
X146453Y187915D02*
Y192454D01*
X148487Y205267D02*
X150500Y203254D01*
Y200800D02*
Y203254D01*
X144407Y194707D02*
X150500Y200800D01*
X144407Y187993D02*
Y194707D01*
X145533Y205267D02*
X148487D01*
X141653Y209147D02*
X145533Y205267D01*
X137147Y211756D02*
Y215444D01*
X139756Y209147D02*
X141653D01*
X137147Y211756D02*
X139756Y209147D01*
X110718Y276800D02*
X115500D01*
X117800Y279100D01*
X86400Y179400D02*
Y267937D01*
Y179400D02*
X90405Y175394D01*
X136611Y119889D02*
Y127285D01*
X90405Y175394D02*
X94407D01*
X94485Y175317D01*
X130705Y127285D02*
Y132778D01*
X132411Y134484D01*
X140900Y133362D02*
Y133400D01*
X138657Y131119D02*
X140900Y133362D01*
X138657Y127363D02*
Y131119D01*
X138579Y127285D02*
X138657Y127363D01*
X135185Y140500D02*
X137185Y142500D01*
X140868D01*
X148800Y134568D01*
X106300Y276800D02*
X110718D01*
X119629Y286771D02*
X142953Y263447D01*
X82400Y268000D02*
X99782Y285382D01*
X104709D02*
X105600Y284491D01*
X99782Y285382D02*
X104709D01*
X83400Y272200D02*
X94400Y283200D01*
Y287182D01*
X106507Y287944D02*
Y289093D01*
X94400Y287182D02*
X105745D01*
X106507Y287944D01*
X110029Y286771D02*
X119629D01*
X120800Y355753D02*
X129553D01*
X134153Y360353D01*
Y364000D01*
X122400Y294900D02*
Y303200D01*
X117163Y289663D02*
X122400Y294900D01*
X112982Y289663D02*
X117163D01*
X125700Y255200D02*
X132400D01*
X124050Y256850D02*
X125700Y255200D01*
X124050Y256850D02*
Y258002D01*
X88367Y169489D02*
X94407D01*
X57406Y200450D02*
X88367Y169489D01*
X57406Y200450D02*
Y272605D01*
X62316Y198378D02*
X89237Y171458D01*
X62316Y198378D02*
Y205743D01*
X135800Y193246D02*
Y197244D01*
X142153Y285847D02*
X241700Y186300D01*
X241761Y167024D02*
Y170739D01*
X241700D02*
X241761D01*
X241700D02*
Y186300D01*
X163200Y259200D02*
X239202Y183198D01*
Y167024D02*
Y183198D01*
X161800Y257400D02*
X236508Y182692D01*
X235244Y122800D02*
X238044Y125600D01*
X228400Y122800D02*
X235244D01*
X205100Y103900D02*
X221850Y120650D01*
Y129350D01*
X219113Y132087D02*
X221850Y129350D01*
X228400Y122800D01*
X125300Y140500D02*
X135185D01*
X120863Y136063D02*
X125300Y140500D01*
X120863Y127285D02*
Y136063D01*
X136000Y296800D02*
X137200D01*
X244321Y189680D01*
X246880Y167614D02*
Y204321D01*
X152000Y299200D02*
X153600D01*
X251998Y167614D02*
Y171262D01*
X251328Y171931D02*
X251998Y171262D01*
X251328Y171931D02*
Y224307D01*
X244321Y167614D02*
Y189680D01*
X254557Y167614D02*
Y176404D01*
X152000Y299200D02*
X246880Y204321D01*
X154400Y300000D02*
X161600D01*
X156100Y316000D02*
X249439Y222661D01*
Y167614D02*
Y222661D01*
X144800Y316000D02*
X154400D01*
X156100D01*
X132000Y308800D02*
X132100D01*
X132000D02*
X136000Y304800D01*
Y296800D02*
Y304800D01*
X125600Y311200D02*
X129700D01*
X132100Y308800D01*
X134643Y187915D02*
Y191858D01*
X131500Y195000D02*
X134643Y191858D01*
X136611Y187915D02*
Y192435D01*
X135800Y193246D02*
X136611Y192435D01*
X183519Y61340D02*
X197784D01*
X155282Y145956D02*
X168800D01*
X155115Y145789D02*
X155282Y145956D01*
X112900Y113000D02*
X112989Y113089D01*
Y116136D01*
X113321Y116468D01*
Y118373D01*
X112989Y118705D02*
X113321Y118373D01*
X251998Y144976D02*
X252000Y144979D01*
Y152700D01*
X59384Y48280D02*
Y51447D01*
X55447Y33320D02*
Y37847D01*
X58400Y40800D01*
X55447Y43753D02*
Y48280D01*
Y43753D02*
X58400Y40800D01*
X63912Y37847D02*
X70147D01*
X70200Y37900D01*
X0Y391200D02*
X800Y392000D01*
D49*
X61835Y293365D02*
X63700Y291500D01*
X60282Y294918D02*
X61835Y293365D01*
X37600Y280293D02*
Y289000D01*
X60063Y295503D02*
X60282D01*
X60063D02*
Y297991D01*
X60282Y294918D02*
Y295503D01*
X47869Y48021D02*
X55188D01*
X55447Y48280D01*
X131500Y195000D02*
Y198700D01*
X131400Y198800D02*
X131500Y198700D01*
X107569Y279981D02*
Y281918D01*
X105600Y277500D02*
X107376Y279276D01*
Y279789D01*
X107569Y279981D01*
D50*
X103631Y279468D02*
Y281918D01*
Y279468D02*
X105600Y277500D01*
X106300Y276800D01*
D51*
X309500Y0D02*
Y392000D01*
X0Y0D02*
Y390400D01*
Y0D02*
X311100D01*
X800Y392000D02*
X309500D01*
D52*
X164000Y97600D02*
D03*
X289600Y159600D02*
D03*
X153600Y244000D02*
D03*
X69600Y209600D02*
D03*
X24800Y301500D02*
D03*
X151200Y266400D02*
D03*
X74400Y306400D02*
D03*
X58400Y321600D02*
D03*
X122400Y303200D02*
D03*
X161600Y300000D02*
D03*
X136000Y296800D02*
D03*
X160000Y337600D02*
D03*
X144800Y316000D02*
D03*
X74400Y265600D02*
D03*
X72800Y247200D02*
D03*
X288000Y126400D02*
D03*
X131600Y213600D02*
D03*
X94400Y200800D02*
D03*
X59200Y165600D02*
D03*
X215200Y171200D02*
D03*
X270400Y172000D02*
D03*
D53*
X48920Y11694D02*
D03*
X20574D02*
D03*
D54*
X184000Y180200D02*
D03*
X181600Y213600D02*
D03*
X171600D02*
D03*
X161600D02*
D03*
X151600D02*
D03*
X141600D02*
D03*
D55*
X184000Y190200D02*
D03*
D56*
X99200Y21474D02*
D03*
D57*
Y13600D02*
D03*
D58*
X66165Y289035D02*
D03*
X61835D02*
D03*
X66165Y293365D02*
D03*
X61835D02*
D03*
D59*
X44800Y59200D02*
D03*
X285300Y69700D02*
D03*
X285158Y74835D02*
D03*
X280800Y74900D02*
D03*
X290200Y69700D02*
D03*
X280600Y70000D02*
D03*
X280400Y79400D02*
D03*
X290500Y79500D02*
D03*
X290300Y74700D02*
D03*
X245000Y82000D02*
D03*
X234000Y70800D02*
D03*
X285500Y79500D02*
D03*
X259300Y124000D02*
D03*
X44600Y53700D02*
D03*
X71900Y42700D02*
D03*
X66900Y272600D02*
D03*
X145600Y372800D02*
D03*
X115200Y320800D02*
D03*
X30400Y59200D02*
D03*
X88000Y283200D02*
D03*
X81600Y292800D02*
D03*
X130400Y284000D02*
D03*
X203200Y19200D02*
D03*
X198400Y49600D02*
D03*
X59800Y101200D02*
D03*
X56300Y151200D02*
D03*
X212300Y83300D02*
D03*
X47300Y307500D02*
D03*
X105400Y360700D02*
D03*
X122200Y382800D02*
D03*
X72800Y352600D02*
D03*
X86800Y327300D02*
D03*
X118300Y270200D02*
D03*
X117300Y257200D02*
D03*
X185800Y141700D02*
D03*
X124700Y203500D02*
D03*
X112000Y309400D02*
D03*
X144000Y55400D02*
D03*
X183200Y67100D02*
D03*
X105400Y328100D02*
D03*
X79600Y275200D02*
D03*
X252000Y152700D02*
D03*
X202741Y145800D02*
D03*
X100000Y104300D02*
D03*
X97700Y43100D02*
D03*
X125400Y333200D02*
D03*
X184900Y147300D02*
D03*
X80800Y150400D02*
D03*
X85000Y153400D02*
D03*
X96600Y99500D02*
D03*
X100500Y117200D02*
D03*
X95400Y113000D02*
D03*
X132411Y134484D02*
D03*
X140900Y133400D02*
D03*
X138800Y138600D02*
D03*
X120000Y279100D02*
D03*
D60*
X216000Y93600D02*
D03*
X164800Y64800D02*
D03*
X117600Y224600D02*
D03*
X91900Y251000D02*
D03*
X92500Y231200D02*
D03*
M02*
